<svg width="46" height="46" viewBox="0 0 46 46" fill="none" xmlns="http://www.w3.org/2000/svg">
<circle cx="23" cy="23" r="22.5" fill="#0069BD" stroke="#0069BD"/>
<path fill-rule="evenodd" clip-rule="evenodd" d="M18.2045 12.3203C17.4878 12.3205 16.7839 12.4896 16.1641 12.8103C15.5443 13.1311 15.0306 13.5921 14.6751 14.1468L11.9739 18.3602H10.3976C10.2538 18.3602 10.1159 18.4111 10.0143 18.5018C9.91259 18.5924 9.85547 18.7153 9.85547 18.8434V19.4172C9.8552 19.6329 9.93592 19.8425 10.0848 20.0126C10.2336 20.1827 10.442 20.3035 10.6768 20.3558L10.7093 20.3619C10.1434 21.4088 9.92833 22.579 10.0899 23.7321L11.0726 30.7396C11.1545 31.3241 11.4732 31.8617 11.9686 32.2514C12.464 32.6411 13.1021 32.8562 13.763 32.856H13.9215C14.6405 32.856 15.3299 32.6015 15.8383 32.1484C16.3467 31.6953 16.6323 31.0808 16.6323 30.4401H30.1858C30.1858 31.0808 30.4714 31.6953 30.9798 32.1484C31.4881 32.6015 32.1776 32.856 32.8965 32.856H33.0551C33.7159 32.8562 34.354 32.6411 34.8495 32.2514C35.3449 31.8617 35.6636 31.3241 35.7455 30.7396L36.7281 23.7333C36.8897 22.5802 36.6747 21.41 36.1087 20.3631L36.1413 20.3558C36.3761 20.3035 36.5845 20.1827 36.7333 20.0126C36.8822 19.8425 36.9629 19.6329 36.9626 19.4172V18.8434C36.9626 18.7153 36.9055 18.5924 36.8038 18.5018C36.7021 18.4111 36.5643 18.3602 36.4205 18.3602H34.8442L32.143 14.1468C31.7875 13.5921 31.2738 13.1311 30.654 12.8103C30.0342 12.4896 29.3303 12.3205 28.6136 12.3203H18.2045ZM32.1131 18.9691L29.7901 15.3451C29.6715 15.16 29.5 15.0062 29.2932 14.8993C29.0863 14.7924 28.8514 14.7361 28.6123 14.7363H18.2058C17.9667 14.7361 17.7318 14.7924 17.5249 14.8993C17.3181 15.0062 17.1466 15.16 17.028 15.3451L14.7049 18.9691C14.5872 19.1527 14.5257 19.3608 14.5265 19.5723C14.5273 19.7838 14.5904 19.9915 14.7095 20.1744C14.8286 20.3574 14.9996 20.5093 15.2052 20.6149C15.4109 20.7205 15.644 20.7761 15.8814 20.7762H30.9367C31.174 20.7761 31.4072 20.7205 31.6129 20.6149C31.8185 20.5093 31.9895 20.3574 32.1086 20.1744C32.2277 19.9915 32.2908 19.7838 32.2916 19.5723C32.2924 19.3608 32.2309 19.1527 32.1131 18.9691ZM13.9215 25.6552V24.8097C13.9215 24.705 13.9519 24.6021 14.0099 24.5111C14.0678 24.4201 14.1513 24.3441 14.2522 24.2905C14.353 24.2369 14.4678 24.2076 14.5852 24.2055C14.7025 24.2033 14.8185 24.2283 14.9218 24.2781L18.6382 26.066C19.1437 26.31 18.9337 26.9949 18.359 26.9744L15.2227 26.862C14.8732 26.8495 14.5426 26.7171 14.3001 26.4924C14.0576 26.2678 13.922 25.9682 13.9215 25.6564V25.6552ZM32.8965 24.8097V25.6552C32.8968 25.9674 32.7615 26.2676 32.5189 26.4928C32.2764 26.718 31.9454 26.8507 31.5954 26.8632L28.4591 26.9744C27.8844 26.9949 27.673 26.31 28.1799 26.066L31.8963 24.2781C31.9995 24.2283 32.1155 24.2033 32.2329 24.2055C32.3503 24.2076 32.465 24.2369 32.5659 24.2905C32.6667 24.3441 32.7502 24.4201 32.8082 24.5111C32.8662 24.6021 32.8966 24.705 32.8965 24.8097Z" fill="white"/>
</svg>
