0
SECTION
2
ENTITIES
0
CIRCLE
8
0
10
0
20
0
40
27.0
0
ARC
8
0
10
0
20
0
40
17.5
50
114.911067
51
145.088933
0
LINE
8
0
10
7.371193
20
15.871847
11
10.365604
21
16.392967
0
LINE
8
0
10
14.350724
20
10.015325
11
14.343952
21
13.054736
0
LINE
8
0
10
10.365604
20
16.392967
11
13.749355
21
20.036098
0
LINE
8
0
10
14.343952
20
13.054736
11
17.344154
21
17.019703
0
ARC
8
0
10
0
20
0
40
17.5
50
154.911067
51
185.088933
0
LINE
8
0
10
15.848888
20
7.420429
11
18.47771
21
5.894859
0
LINE
8
0
10
17.431019
20
-1.552283
11
19.379528
21
0.780393
0
LINE
8
0
10
18.47771
20
5.894859
11
23.411573
21
6.510627
0
LINE
8
0
10
19.379528
20
0.780393
11
24.226448
21
1.889242
0
ARC
8
0
10
0
20
0
40
17.5
50
194.911067
51
225.088933
0
LINE
8
0
10
16.910712
20
-4.50309
11
17.943889
21
-7.361519
0
LINE
8
0
10
12.355147
20
-12.393561
11
15.347207
21
-11.859104
0
LINE
8
0
10
17.943889
20
-7.361519
11
22.119255
21
-10.06124
0
LINE
8
0
10
15.347207
20
-11.859104
11
19.772917
21
-14.125217
0
ARC
8
0
10
0
20
0
40
17.5
50
234.911067
51
265.088933
0
LINE
8
0
10
10.059826
20
-14.319563
11
9.013923
21
-17.17336
0
LINE
8
0
10
1.498164
20
-17.435754
11
4.133757
21
-18.949595
0
LINE
8
0
10
9.013923
20
-17.17336
11
10.477093
21
-21.92534
0
LINE
8
0
10
4.133757
20
-18.949595
11
6.067418
21
-23.53033
0
ARC
8
0
10
0
20
0
40
17.5
50
274.911067
51
305.088933
0
LINE
8
0
10
-1.498164
20
-17.435754
11
-4.133757
21
-18.949595
0
LINE
8
0
10
-10.059826
20
-14.319563
11
-9.013923
21
-17.17336
0
LINE
8
0
10
-4.133757
20
-18.949595
11
-6.067418
21
-23.53033
0
LINE
8
0
10
-9.013923
20
-17.17336
11
-10.477093
21
-21.92534
0
ARC
8
0
10
0
20
0
40
17.5
50
314.911067
51
345.088933
0
LINE
8
0
10
-12.355147
20
-12.393561
11
-15.347207
21
-11.859104
0
LINE
8
0
10
-16.910712
20
-4.50309
11
-17.943889
21
-7.361519
0
LINE
8
0
10
-15.347207
20
-11.859104
11
-19.772917
21
-14.125217
0
LINE
8
0
10
-17.943889
20
-7.361519
11
-22.119255
21
-10.06124
0
ARC
8
0
10
0
20
0
40
17.5
50
354.911067
51
385.088933
0
LINE
8
0
10
-17.431019
20
-1.552283
11
-19.379528
21
0.780393
0
LINE
8
0
10
-15.848888
20
7.420429
11
-18.47771
21
5.894859
0
LINE
8
0
10
-19.379528
20
0.780393
11
-24.226448
21
1.889242
0
LINE
8
0
10
-18.47771
20
5.894859
11
-23.411573
21
6.510627
0
ARC
8
0
10
0
20
0
40
17.5
50
394.911067
51
425.088933
0
LINE
8
0
10
-14.350724
20
10.015325
11
-14.343952
21
13.054736
0
LINE
8
0
10
-7.371193
20
15.871847
11
-10.365604
21
16.392967
0
LINE
8
0
10
-14.343952
20
13.054736
11
-17.344154
21
17.019703
0
LINE
8
0
10
-10.365604
20
16.392967
11
-13.749355
21
20.036098
0
ARC
8
0
10
0
20
0
40
17.5
50
434.911067
51
465.088933
0
LINE
8
0
10
-4.555565
20
16.896651
11
-2.596682
21
19.220623
0
LINE
8
0
10
4.555565
20
16.896651
11
2.596682
21
19.220623
0
LINE
8
0
10
-2.596682
20
19.220623
11
-2.346339
21
24.186457
0
LINE
8
0
10
2.596682
20
19.220623
11
2.346339
21
24.186457
0
ARC
8
0
10
0
20
0
40
24.3
50
135.54095
51
164.45905
0
ARC
8
0
10
0
20
0
40
24.3
50
175.54095
51
204.45905
0
ARC
8
0
10
0
20
0
40
24.3
50
215.54095
51
244.45905
0
ARC
8
0
10
0
20
0
40
24.3
50
255.54095
51
284.45905
0
ARC
8
0
10
0
20
0
40
24.3
50
295.54095
51
324.45905
0
ARC
8
0
10
0
20
0
40
24.3
50
335.54095
51
364.45905
0
ARC
8
0
10
0
20
0
40
24.3
50
375.54095
51
404.45905
0
ARC
8
0
10
0
20
0
40
24.3
50
415.54095
51
444.45905
0
ARC
8
0
10
0
20
0
40
24.3
50
455.54095
51
124.45905
0
LINE
8
0
62
5
10
-4.899454
20
20.317612
11
4.899454
21
20.317612
0
LINE
8
0
62
5
10
-4.821313
20
19.993567
11
4.821313
21
19.993567
0
LINE
8
0
62
5
10
-4.743172
20
19.669522
11
4.743172
21
19.669522
0
LINE
8
0
62
5
10
-4.665031
20
19.345477
11
4.665031
21
19.345477
0
POINT
8
0
10
-4.665031
20
19.345477
0
TEXT
8
0
10
-4.665031
20
17.345477
1
V-
40
2
41
2
72
0
73
0
11
-4.665031
21
17.345477
0
POINT
8
0
10
4.665031
20
19.345477
0
TEXT
8
0
10
4.665031
20
17.345477
1
V+
40
2
41
2
72
0
73
0
11
4.665031
21
17.345477
0
LINE
8
0
62
3
10
9.306709
20
18.713502
11
16.813109
21
12.414885
0
LINE
8
0
62
3
10
9.158277
20
18.415041
11
16.544957
21
12.21688
0
LINE
8
0
62
3
10
9.009845
20
18.11658
11
16.276806
21
12.018876
0
LINE
8
0
62
3
10
8.861412
20
17.818119
11
16.008654
21
11.820871
0
POINT
8
0
10
8.861412
20
17.818119
0
TEXT
8
0
10
8.861412
20
15.818119
1
W-
40
2
41
2
72
0
73
0
11
8.861412
21
15.818119
0
POINT
8
0
10
16.008654
20
11.820871
0
TEXT
8
0
10
16.008654
20
9.820871
1
W+
40
2
41
2
72
0
73
0
11
16.008654
21
9.820871
0
LINE
8
0
62
1
10
19.15816
20
8.353137
11
20.859723
21
-1.296904
0
LINE
8
0
62
1
10
18.852607
20
8.219913
11
20.527032
21
-1.27622
0
LINE
8
0
62
1
10
18.547055
20
8.086689
11
20.194341
21
-1.255536
0
LINE
8
0
62
1
10
18.241502
20
7.953465
11
19.86165
21
-1.234852
0
POINT
8
0
10
18.241502
20
7.953465
0
TEXT
8
0
10
18.241502
20
5.953465
1
U-
40
2
41
2
72
0
73
0
11
18.241502
21
5.953465
0
POINT
8
0
10
19.86165
20
-1.234852
0
TEXT
8
0
10
19.86165
20
-3.234852
1
U+
40
2
41
2
72
0
73
0
11
19.86165
21
-3.234852
0
LINE
8
0
62
5
10
20.045295
20
-5.915754
11
15.145841
21
-14.401858
0
LINE
8
0
62
5
10
19.725593
20
-5.821404
11
14.90428
21
-14.172163
0
LINE
8
0
62
5
10
19.405892
20
-5.727054
11
14.66272
21
-13.942468
0
LINE
8
0
62
5
10
19.08619
20
-5.632703
11
14.421159
21
-13.712774
0
POINT
8
0
10
19.08619
20
-5.632703
0
TEXT
8
0
10
19.08619
20
-7.632703
1
V-
40
2
41
2
72
0
73
0
11
19.08619
21
-7.632703
0
POINT
8
0
10
14.421159
20
-13.712774
0
TEXT
8
0
10
14.421159
20
-15.712774
1
V+
40
2
41
2
72
0
73
0
11
14.421159
21
-15.712774
0
LINE
8
0
62
3
10
11.553014
20
-17.416598
11
2.345051
21
-20.768022
0
LINE
8
0
62
3
10
11.368755
20
-17.138821
11
2.30765
21
-20.436793
0
LINE
8
0
62
3
10
11.184496
20
-16.861044
11
2.270249
21
-20.105565
0
LINE
8
0
62
3
10
11.000238
20
-16.583268
11
2.232848
21
-19.774337
0
POINT
8
0
10
11.000238
20
-16.583268
0
TEXT
8
0
10
11.000238
20
-18.583268
1
W-
40
2
41
2
72
0
73
0
11
11.000238
21
-18.583268
0
POINT
8
0
10
2.232848
20
-19.774337
0
TEXT
8
0
10
2.232848
20
-21.774337
1
W+
40
2
41
2
72
0
73
0
11
2.232848
21
-21.774337
0
LINE
8
0
62
1
10
-2.345051
20
-20.768022
11
-11.553014
21
-17.416598
0
LINE
8
0
62
1
10
-2.30765
20
-20.436793
11
-11.368755
21
-17.138821
0
LINE
8
0
62
1
10
-2.270249
20
-20.105565
11
-11.184496
21
-16.861044
0
LINE
8
0
62
1
10
-2.232848
20
-19.774337
11
-11.000238
21
-16.583268
0
POINT
8
0
10
-2.232848
20
-19.774337
0
TEXT
8
0
10
-2.232848
20
-21.774337
1
U-
40
2
41
2
72
0
73
0
11
-2.232848
21
-21.774337
0
POINT
8
0
10
-11.000238
20
-16.583268
0
TEXT
8
0
10
-11.000238
20
-18.583268
1
U+
40
2
41
2
72
0
73
0
11
-11.000238
21
-18.583268
0
LINE
8
0
62
5
10
-15.145841
20
-14.401858
11
-20.045295
21
-5.915754
0
LINE
8
0
62
5
10
-14.90428
20
-14.172163
11
-19.725593
21
-5.821404
0
LINE
8
0
62
5
10
-14.66272
20
-13.942468
11
-19.405892
21
-5.727054
0
LINE
8
0
62
5
10
-14.421159
20
-13.712774
11
-19.08619
21
-5.632703
0
POINT
8
0
10
-14.421159
20
-13.712774
0
TEXT
8
0
10
-14.421159
20
-15.712774
1
V-
40
2
41
2
72
0
73
0
11
-14.421159
21
-15.712774
0
POINT
8
0
10
-19.08619
20
-5.632703
0
TEXT
8
0
10
-19.08619
20
-7.632703
1
V+
40
2
41
2
72
0
73
0
11
-19.08619
21
-7.632703
0
LINE
8
0
62
3
10
-20.859723
20
-1.296904
11
-19.15816
21
8.353137
0
LINE
8
0
62
3
10
-20.527032
20
-1.27622
11
-18.852607
21
8.219913
0
LINE
8
0
62
3
10
-20.194341
20
-1.255536
11
-18.547055
21
8.086689
0
LINE
8
0
62
3
10
-19.86165
20
-1.234852
11
-18.241502
21
7.953465
0
POINT
8
0
10
-19.86165
20
-1.234852
0
TEXT
8
0
10
-19.86165
20
-3.234852
1
W-
40
2
41
2
72
0
73
0
11
-19.86165
21
-3.234852
0
POINT
8
0
10
-18.241502
20
7.953465
0
TEXT
8
0
10
-18.241502
20
5.953465
1
W+
40
2
41
2
72
0
73
0
11
-18.241502
21
5.953465
0
LINE
8
0
62
1
10
-16.813109
20
12.414885
11
-9.306709
21
18.713502
0
LINE
8
0
62
1
10
-16.544957
20
12.21688
11
-9.158277
21
18.415041
0
LINE
8
0
62
1
10
-16.276806
20
12.018876
11
-9.009845
21
18.11658
0
LINE
8
0
62
1
10
-16.008654
20
11.820871
11
-8.861412
21
17.818119
0
POINT
8
0
10
-16.008654
20
11.820871
0
TEXT
8
0
10
-16.008654
20
9.820871
1
U-
40
2
41
2
72
0
73
0
11
-16.008654
21
9.820871
0
POINT
8
0
10
-8.861412
20
17.818119
0
TEXT
8
0
10
-8.861412
20
15.818119
1
U+
40
2
41
2
72
0
73
0
11
-8.861412
21
15.818119
0
ENDSEC
0
EOF
