0
SECTION
2
ENTITIES
0
CIRCLE
8
0
10
0
20
0
40
27.0
0
ARC
8
0
10
0
20
0
40
17.5
50
114.911067
51
145.088933
0
LINE
8
0
10
7.371193
20
15.871847
11
9.630192
21
15.522902
0
LINE
8
0
10
14.350724
20
10.015325
11
13.614808
21
12.179411
0
LINE
8
0
10
9.630192
20
15.522902
11
13.431632
21
19.889476
0
LINE
8
0
10
13.614808
20
12.179411
11
17.254932
21
16.681347
0
ARC
8
0
10
0
20
0
40
17.5
50
154.911067
51
185.088933
0
LINE
8
0
10
15.848888
20
7.420429
11
17.355084
21
5.701064
0
LINE
8
0
10
17.431019
20
-1.552283
11
18.258323
21
0.57854
0
LINE
8
0
10
17.355084
20
5.701064
11
23.073936
21
6.602536
0
LINE
8
0
10
18.258323
20
0.57854
11
23.940608
21
1.687397
0
ARC
8
0
10
0
20
0
40
17.5
50
194.911067
51
225.088933
0
LINE
8
0
10
16.910712
20
-4.50309
11
16.959339
21
-6.788364
0
LINE
8
0
10
12.355147
20
-12.393561
11
14.358565
21
-11.293036
0
LINE
8
0
10
16.959339
20
-6.788364
11
21.919689
21
-9.773804
0
LINE
8
0
10
14.358565
20
-11.293036
11
19.424207
21
-14.096105
0
ARC
8
0
10
0
20
0
40
17.5
50
234.911067
51
265.088933
0
LINE
8
0
10
10.059826
20
-14.319563
11
8.628131
21
-16.101442
0
LINE
8
0
10
1.498164
20
-17.435754
11
3.740275
21
-17.880476
0
LINE
8
0
10
8.628131
20
-16.101442
11
10.508975
21
-21.576873
0
LINE
8
0
10
3.740275
20
-17.880476
11
5.819004
21
-23.283883
0
ARC
8
0
10
0
20
0
40
17.5
50
274.911067
51
305.088933
0
LINE
8
0
10
-1.498164
20
-17.435754
11
-3.740275
21
-17.880476
0
LINE
8
0
10
-10.059826
20
-14.319563
11
-8.628131
21
-16.101442
0
LINE
8
0
10
-3.740275
20
-17.880476
11
-5.819004
21
-23.283883
0
LINE
8
0
10
-8.628131
20
-16.101442
11
-10.508975
21
-21.576873
0
ARC
8
0
10
0
20
0
40
17.5
50
314.911067
51
345.088933
0
LINE
8
0
10
-12.355147
20
-12.393561
11
-14.358565
21
-11.293036
0
LINE
8
0
10
-16.910712
20
-4.50309
11
-16.959339
21
-6.788364
0
LINE
8
0
10
-14.358565
20
-11.293036
11
-19.424207
21
-14.096105
0
LINE
8
0
10
-16.959339
20
-6.788364
11
-21.919689
21
-9.773804
0
ARC
8
0
10
0
20
0
40
17.5
50
354.911067
51
385.088933
0
LINE
8
0
10
-17.431019
20
-1.552283
11
-18.258323
21
0.57854
0
LINE
8
0
10
-15.848888
20
7.420429
11
-17.355084
21
5.701064
0
LINE
8
0
10
-18.258323
20
0.57854
11
-23.940608
21
1.687397
0
LINE
8
0
10
-17.355084
20
5.701064
11
-23.073936
21
6.602536
0
ARC
8
0
10
0
20
0
40
17.5
50
394.911067
51
425.088933
0
LINE
8
0
10
-14.350724
20
10.015325
11
-13.614808
21
12.179411
0
LINE
8
0
10
-7.371193
20
15.871847
11
-9.630192
21
15.522902
0
LINE
8
0
10
-13.614808
20
12.179411
11
-17.254932
21
16.681347
0
LINE
8
0
10
-9.630192
20
15.522902
11
-13.431632
21
19.889476
0
ARC
8
0
10
0
20
0
40
17.5
50
434.911067
51
465.088933
0
LINE
8
0
10
-4.555565
20
16.896651
11
-2.600774
21
18.081401
0
LINE
8
0
10
4.555565
20
16.896651
11
2.600774
21
18.081401
0
LINE
8
0
10
-2.600774
20
18.081401
11
-2.495481
21
23.869909
0
LINE
8
0
10
2.600774
20
18.081401
11
2.495481
21
23.869909
0
ARC
8
0
10
0
20
0
40
24.0
50
135.96831
51
164.03169
0
ARC
8
0
10
0
20
0
40
24.0
50
175.96831
51
204.03169
0
ARC
8
0
10
0
20
0
40
24.0
50
215.96831
51
244.03169
0
ARC
8
0
10
0
20
0
40
24.0
50
255.96831
51
284.03169
0
ARC
8
0
10
0
20
0
40
24.0
50
295.96831
51
324.03169
0
ARC
8
0
10
0
20
0
40
24.0
50
335.96831
51
364.03169
0
ARC
8
0
10
0
20
0
40
24.0
50
375.96831
51
404.03169
0
ARC
8
0
10
0
20
0
40
24.0
50
415.96831
51
444.03169
0
ARC
8
0
10
0
20
0
40
24.0
50
455.96831
51
124.03169
0
ENDSEC
0
EOF
