<svg width="500" height="561" viewBox="0 0 500 561" fill="none" xmlns="http://www.w3.org/2000/svg">
<path d="M450.871 249.658C437.691 289.598 409.301 333.368 367.531 347.658C304.411 369.188 298.771 420.958 184.211 420.658C167.487 420.687 150.809 418.896 134.471 415.318C126.484 413.542 118.618 411.258 110.921 408.478C43.0613 383.908 5.90135 325.718 0.601346 263.478C-6.39865 181.658 49.2913 140.378 85.6013 116.068C121.911 91.7582 163.241 1.37817 275.861 0.838172C293.054 0.692076 310.207 2.52412 326.981 6.29818C365.221 15.0782 404.571 36.2982 428.211 68.5082C429.978 70.9282 431.681 73.4082 433.321 75.9482C465.201 125.548 468.831 195.218 450.871 249.658Z" fill="#0069BD" fill-opacity="0.34"/>
<path d="M500 443.4H0V443.65H500V443.4Z" fill="#EBEBEB"/>
<path d="M449.9 459.49H416.78V459.74H449.9V459.49Z" fill="#EBEBEB"/>
<path d="M273.22 456.359H260.33V456.609H273.22V456.359Z" fill="#EBEBEB"/>
<path d="M349.67 457.42H322.53V457.67H349.67V457.42Z" fill="#EBEBEB"/>
<path d="M415.78 450.211H359.67V450.461H415.78V450.211Z" fill="#EBEBEB"/>
<path d="M78.99 461.781H52.46V462.031H78.99V461.781Z" fill="#EBEBEB"/>
<path d="M110.89 461.781H87.8901V462.031H110.89V461.781Z" fill="#EBEBEB"/>
<path d="M191.81 456.24H131V456.49H191.81V456.24Z" fill="#EBEBEB"/>
<path d="M237 398.8H43.91C42.3973 398.797 40.9475 398.195 39.8788 397.124C38.8102 396.053 38.21 394.603 38.21 393.09V121.66C38.2231 120.156 38.8292 118.718 39.8964 117.658C40.9637 116.598 42.4059 116.003 43.91 116H237C238.514 116 239.967 116.602 241.038 117.672C242.108 118.743 242.71 120.196 242.71 121.71V393.09C242.71 394.604 242.108 396.057 241.038 397.128C239.967 398.198 238.514 398.8 237 398.8ZM43.91 116.2C42.4636 116.203 41.0774 116.779 40.0556 117.803C39.0338 118.826 38.46 120.214 38.46 121.66V393.09C38.46 394.536 39.0338 395.924 40.0556 396.947C41.0774 397.971 42.4636 398.547 43.91 398.55H237C238.447 398.547 239.834 397.971 240.858 396.948C241.881 395.924 242.457 394.537 242.46 393.09V121.66C242.457 120.213 241.881 118.825 240.858 117.802C239.834 116.779 238.447 116.203 237 116.2H43.91Z" fill="#EBEBEB"/>
<path d="M453.31 398.8H260.21C258.696 398.797 257.246 398.195 256.175 397.125C255.105 396.054 254.503 394.604 254.5 393.09V121.66C254.516 120.155 255.124 118.717 256.193 117.658C257.262 116.598 258.705 116.003 260.21 116H453.31C454.812 116.005 456.252 116.602 457.317 117.662C458.382 118.721 458.987 120.158 459 121.66V393.09C459 394.601 458.401 396.05 457.335 397.121C456.268 398.191 454.821 398.795 453.31 398.8ZM260.21 116.2C258.763 116.203 257.375 116.779 256.352 117.802C255.329 118.825 254.753 120.213 254.75 121.66V393.09C254.753 394.537 255.329 395.924 256.352 396.948C257.375 397.971 258.763 398.547 260.21 398.55H453.31C454.757 398.547 456.145 397.971 457.168 396.948C458.191 395.924 458.767 394.537 458.77 393.09V121.66C458.767 120.213 458.191 118.825 457.168 117.802C456.145 116.779 454.757 116.203 453.31 116.2H260.21Z" fill="#EBEBEB"/>
<path d="M467.06 255.17C470.194 244.337 469.844 232.793 466.06 222.17C470.079 216.418 472.743 209.83 473.853 202.901C474.963 195.972 474.49 188.882 472.47 182.161C470.449 175.441 466.934 169.266 462.187 164.098C457.44 158.93 451.585 154.903 445.06 152.32C443.152 138.566 437.708 125.543 429.259 114.523C420.81 103.504 409.646 94.8651 396.859 89.4525C384.071 84.0398 370.098 82.0382 356.305 83.6434C342.513 85.2486 329.373 90.4057 318.17 98.6103C312.539 92.6972 305.271 88.6001 297.297 86.8439C289.323 85.0877 281.007 85.7523 273.413 88.7527C265.819 91.7531 259.294 96.9525 254.674 103.685C250.053 110.417 247.549 118.375 247.48 126.54C236.929 128.657 227.111 133.487 218.996 140.555C210.881 147.623 204.748 156.684 201.202 166.845C197.657 177.006 196.821 187.915 198.778 198.497C200.735 209.08 205.416 218.969 212.36 227.19C208.963 233.315 206.991 240.127 206.59 247.119C206.19 254.111 207.37 261.103 210.044 267.576C212.719 274.049 216.818 279.836 222.037 284.506C227.256 289.176 233.461 292.609 240.19 294.55C248.046 296.826 256.363 296.985 264.3 295.01C275.056 309.833 291.061 319.996 309.052 323.426C327.043 326.856 345.664 323.296 361.12 313.47C368.65 330.96 374.83 357.2 361.52 382.93C409.87 378.19 444.78 331.82 437.66 289.33C444.732 286.09 451.02 281.36 456.094 275.464C461.169 269.568 464.909 262.646 467.06 255.17Z" fill="#EBEBEB"/>
<path d="M374.32 373.33C374.188 373.331 374.058 373.306 373.936 373.256C373.814 373.206 373.703 373.133 373.61 373.04C373.481 372.912 373.39 372.751 373.346 372.575C373.302 372.399 373.307 372.214 373.36 372.04C380.17 348.32 373.96 325.58 367.56 310.68L364.31 303.13L357.37 307.54C343.424 316.408 326.622 319.624 310.388 316.532C294.153 313.44 279.709 304.273 270 290.9L267.22 287.07L262.64 288.21C255.157 290.073 247.293 289.708 240.014 287.16C232.736 284.612 226.361 279.992 221.674 273.869C216.986 267.746 214.19 260.387 213.63 252.696C213.07 245.005 214.769 237.318 218.52 230.58L220.85 226.36L217.74 222.68C211.578 215.391 207.424 206.621 205.685 197.235C203.947 187.85 204.685 178.174 207.826 169.161C210.968 160.148 216.405 152.11 223.6 145.839C230.796 139.568 239.502 135.281 248.86 133.4L254.42 132.28L254.48 126.62C254.531 119.846 256.605 113.241 260.435 107.654C264.266 102.066 269.678 97.75 275.978 95.2592C282.278 92.7684 289.179 92.2165 295.794 93.6741C302.41 95.1318 308.44 98.5325 313.11 103.44L317.35 107.88L322.35 104.26C332.573 96.7615 344.568 92.0453 357.16 90.5734C369.753 89.1014 382.512 90.924 394.189 95.8629C405.866 100.802 416.061 108.688 423.775 118.749C431.49 128.81 436.46 140.702 438.2 153.26L438.77 157.26L442.56 158.76C448.102 160.954 453.075 164.375 457.106 168.765C461.137 173.156 464.122 178.403 465.836 184.111C467.549 189.82 467.948 195.843 467.001 201.728C466.055 207.613 463.787 213.207 460.37 218.09L458.31 221.04L459.52 224.44C463.459 235.532 463.1 247.697 458.513 258.537C453.926 269.377 445.444 278.105 434.74 283L429.87 285.24L430.76 290.52C433.76 308.65 428.33 328.45 415.76 344.85C405.381 358.448 390.967 368.413 374.58 373.32C374.494 373.336 374.407 373.34 374.32 373.33ZM364.77 300.68C364.866 300.666 364.964 300.666 365.06 300.68C365.197 300.723 365.324 300.796 365.431 300.892C365.538 300.989 365.623 301.108 365.68 301.24L369.39 309.86C375.77 324.69 381.94 347.15 375.76 370.79C391.038 365.822 404.442 356.321 414.19 343.55C426.41 327.55 431.73 308.35 428.79 290.77L427.79 284.77C427.751 284.554 427.785 284.331 427.887 284.135C427.988 283.94 428.151 283.784 428.35 283.69L433.91 281.14C444.139 276.451 452.243 268.103 456.627 257.74C461.012 247.376 461.359 235.747 457.6 225.14L456.22 221.26C456.167 221.109 456.151 220.948 456.174 220.789C456.197 220.631 456.257 220.481 456.35 220.35L458.7 216.97C461.946 212.335 464.099 207.026 464.999 201.439C465.899 195.853 465.522 190.135 463.895 184.716C462.269 179.296 459.436 174.315 455.609 170.147C451.783 165.979 447.061 162.732 441.8 160.65L437.46 158.93C437.296 158.865 437.152 158.757 437.043 158.619C436.935 158.48 436.864 158.315 436.84 158.14L436.19 153.53C434.504 141.31 429.673 129.736 422.169 119.945C414.665 110.153 404.746 102.479 393.384 97.6736C382.021 92.8686 369.606 91.0978 357.353 92.5347C345.101 93.9716 333.432 98.5669 323.49 105.87L317.82 110C317.625 110.143 317.385 110.211 317.144 110.191C316.903 110.171 316.678 110.064 316.51 109.89L311.66 104.82C308.665 101.696 305.069 99.209 301.09 97.5079C297.11 95.8067 292.828 94.9266 288.5 94.9203C280.063 94.9199 271.967 98.2515 265.974 104.19C259.981 110.129 256.576 118.194 256.5 126.63L256.43 133.11C256.435 133.344 256.357 133.572 256.211 133.755C256.065 133.938 255.859 134.064 255.63 134.11L249.28 135.39C240.267 137.203 231.882 141.333 224.951 147.373C218.019 153.412 212.782 161.154 209.754 169.835C206.726 178.515 206.012 187.835 207.682 196.875C209.353 205.916 213.35 214.365 219.28 221.39L222.83 225.6C222.961 225.755 223.041 225.946 223.061 226.148C223.08 226.35 223.038 226.553 222.94 226.73L220.28 231.55C218.906 234.024 217.812 236.644 217.02 239.36C215.19 245.7 215.062 252.41 216.648 258.815C218.233 265.22 221.477 271.095 226.053 275.849C230.629 280.603 236.375 284.069 242.715 285.898C249.055 287.728 255.765 287.856 262.17 286.27L267.41 284.97C267.603 284.922 267.806 284.932 267.993 285C268.18 285.068 268.342 285.19 268.46 285.35L271.63 289.72C281.03 302.703 295.034 311.606 310.779 314.608C326.525 317.61 342.822 314.484 356.34 305.87L364.27 300.87C364.416 300.763 364.589 300.697 364.77 300.68Z" fill="white"/>
<path d="M304.19 207.19L277.39 203L277.8 200.32C278.269 196.537 279.378 192.861 281.08 189.45C282.573 186.75 284.553 184.35 286.92 182.37C289.326 180.37 294.566 176.95 302.64 172.11C306.93 169.59 309.28 167.05 309.64 164.46C309.877 163.36 309.879 162.222 309.647 161.121C309.414 160.02 308.952 158.981 308.29 158.07C306.99 156.4 304.78 155.32 301.68 154.84C300.153 154.55 298.582 154.578 297.066 154.922C295.551 155.267 294.122 155.919 292.87 156.84C290.336 158.714 288.336 162.354 286.87 167.76L260.03 160.11C262.536 150.197 267.456 142.667 274.79 137.52C282.123 132.374 292.37 130.827 305.53 132.88C315.783 134.474 323.726 137.9 329.36 143.16C337.013 150.28 340.09 158.66 338.59 168.3C337.918 172.363 336.151 176.166 333.48 179.3C330.693 182.674 325.47 186.507 317.81 190.8C312.476 193.834 309.01 196.39 307.41 198.47C305.621 201.06 304.513 204.059 304.19 207.19ZM275.36 210L304.07 214.47L300.13 239.79L271.42 235.32L275.36 210Z" fill="white"/>
<path d="M372.59 246.42L357.71 234.42L358.92 232.93C360.548 230.79 362.525 228.94 364.77 227.46C366.639 226.346 368.696 225.583 370.84 225.21C375.234 224.698 379.656 224.467 384.08 224.52C387.587 224.52 389.92 223.797 391.08 222.35C391.619 221.765 392.027 221.072 392.275 220.316C392.524 219.561 392.607 218.76 392.52 217.97C392.147 216.212 391.112 214.666 389.63 213.65C388.8 212.933 387.83 212.396 386.782 212.072C385.734 211.748 384.63 211.646 383.54 211.77C381.327 212.01 378.817 213.52 376.01 216.3L362.34 202.11C367.38 196.95 373.047 194.1 379.34 193.56C385.633 193.02 392.44 195.71 399.76 201.63C405.453 206.237 409.083 211.147 410.65 216.36C412.797 223.42 411.707 229.623 407.38 234.97C405.539 237.222 403.119 238.93 400.38 239.91C397.48 240.97 392.933 241.457 386.74 241.37C382.41 241.37 379.39 241.65 377.67 242.37C375.67 243.283 373.925 244.674 372.59 246.42ZM354 237.91L369.94 250.82L358.55 264.88L342.61 252L354 237.91Z" fill="white"/>
<path d="M376.75 159.8L370.31 151L371.19 150.35C372.395 149.414 373.747 148.684 375.19 148.19C376.381 147.847 377.625 147.728 378.86 147.84C381.351 148.19 383.817 148.704 386.24 149.38C388.18 149.88 389.57 149.82 390.42 149.2C390.8 148.955 391.124 148.632 391.37 148.253C391.616 147.874 391.78 147.447 391.85 147C391.889 145.973 391.531 144.97 390.85 144.2C390.495 143.687 390.038 143.251 389.509 142.921C388.979 142.591 388.387 142.373 387.77 142.28C386.52 142.1 384.92 142.56 382.97 143.68L377.5 133.89C380.639 131.859 384.418 131.061 388.11 131.65C391.657 132.27 395.013 134.737 398.18 139.05C400.64 142.423 401.927 145.653 402.04 148.74C402.2 150.621 401.868 152.512 401.077 154.226C400.287 155.94 399.064 157.42 397.53 158.52C396.201 159.486 394.636 160.073 393 160.22C390.379 160.272 387.768 159.876 385.28 159.05C383.627 158.487 381.886 158.223 380.14 158.27C378.901 158.491 377.736 159.017 376.75 159.8ZM367.75 152.42L374.65 161.84L366.34 167.92L359.44 158.51L367.75 152.42Z" fill="white"/>
<path d="M128.34 284.571C119.887 284.556 111.595 282.259 104.34 277.921C94.1901 271.921 87.0201 262.501 84.5801 252.131C77.5036 251.638 70.8518 248.574 65.8784 243.515C60.905 238.457 57.9535 231.755 57.5801 224.671C55.4498 223.193 53.5665 221.387 52.0001 219.321C48.1952 214.473 46.3153 208.39 46.7213 202.24C47.1274 196.09 49.7907 190.307 54.2001 186.001C52.5269 178.89 52.7031 171.47 54.7119 164.447C56.7208 157.424 60.4953 151.033 65.6755 145.882C70.8557 140.732 77.2688 136.995 84.3034 135.027C91.338 133.059 98.7595 132.926 105.86 134.641C107.409 131.103 109.852 128.028 112.95 125.72C116.047 123.412 119.691 121.949 123.525 121.476C127.358 121.003 131.249 121.536 134.814 123.021C138.38 124.507 141.497 126.895 143.86 129.951C144.957 131.369 145.88 132.914 146.61 134.551C152.201 133.632 157.934 134.161 163.263 136.088C168.591 138.015 173.337 141.275 177.048 145.557C180.758 149.839 183.31 155 184.458 160.549C185.607 166.097 185.315 171.847 183.61 177.251C187.271 180.369 189.961 184.472 191.363 189.072C192.764 193.673 192.818 198.578 191.517 203.208C190.217 207.838 187.616 211.998 184.024 215.196C180.432 218.394 175.999 220.495 171.25 221.251C169.108 229.357 164.348 236.528 157.71 241.651C153.532 244.894 148.731 247.241 143.605 248.546C138.479 249.85 133.14 250.083 127.92 249.231C127.82 258.941 130.07 272.111 140.92 281.531C141.025 281.625 141.103 281.744 141.147 281.877C141.191 282.011 141.199 282.153 141.17 282.291C141.14 282.429 141.073 282.556 140.976 282.658C140.879 282.76 140.756 282.834 140.62 282.871C136.627 284.013 132.493 284.585 128.34 284.571ZM95.7301 135.001C89.4894 135.02 83.3345 136.456 77.7296 139.2C72.1247 141.944 67.2161 145.926 63.374 150.843C59.5318 155.761 56.8565 161.487 55.5497 167.589C54.2429 173.692 54.3388 180.011 55.8301 186.071C55.8644 186.207 55.8611 186.349 55.8206 186.483C55.7801 186.617 55.7038 186.737 55.6001 186.831C51.3299 190.838 48.7144 196.299 48.2683 202.138C47.8223 207.977 49.5781 213.772 53.1901 218.381C54.7785 220.422 56.6905 222.188 58.8501 223.611C58.9547 223.679 59.0419 223.77 59.1045 223.878C59.167 223.986 59.2032 224.107 59.2101 224.231C59.4811 231.09 62.3087 237.6 67.1368 242.48C71.9649 247.36 78.444 250.257 85.3001 250.601C85.4716 250.611 85.6352 250.677 85.7654 250.789C85.8956 250.901 85.9851 251.053 86.0201 251.221C88.2301 261.391 95.2201 270.631 105.18 276.571C115.272 282.657 127.361 284.505 138.81 281.711C128.08 271.711 126.08 258.051 126.34 248.251C126.344 248.137 126.373 248.026 126.423 247.924C126.474 247.822 126.545 247.733 126.633 247.661C126.721 247.589 126.824 247.537 126.933 247.507C127.043 247.478 127.158 247.472 127.27 247.491C136.489 249.234 146.025 247.395 153.934 242.348C161.843 237.301 167.528 229.426 169.83 220.331C169.865 220.178 169.947 220.04 170.063 219.934C170.179 219.829 170.325 219.761 170.48 219.741C175.029 219.112 179.295 217.169 182.756 214.151C186.216 211.133 188.721 207.17 189.962 202.749C191.203 198.328 191.127 193.641 189.743 189.263C188.359 184.884 185.727 181.005 182.17 178.101C182.047 178.001 181.957 177.867 181.913 177.715C181.868 177.563 181.871 177.401 181.92 177.251C183.66 172.04 184.01 166.465 182.937 161.077C181.864 155.689 179.404 150.674 175.8 146.527C172.197 142.38 167.574 139.244 162.388 137.43C157.202 135.616 151.633 135.185 146.23 136.181C146.053 136.215 145.87 136.187 145.711 136.101C145.552 136.016 145.428 135.878 145.36 135.711C143.794 131.911 141.131 128.664 137.712 126.383C134.292 124.103 130.271 122.892 126.161 122.906C122.051 122.92 118.039 124.158 114.635 126.462C111.231 128.765 108.591 132.031 107.05 135.841C106.977 136.015 106.845 136.158 106.676 136.244C106.508 136.33 106.314 136.354 106.13 136.311C102.732 135.439 99.238 134.999 95.7301 135.001Z" fill="#E6E6E6"/>
<path d="M100.59 201L86.7798 204.25L86.4598 202.87C85.937 200.943 85.7509 198.94 85.9098 196.95C86.0994 195.351 86.5842 193.801 87.3398 192.38C89.0307 189.572 90.9012 186.876 92.9398 184.31C94.5298 182.24 95.1698 180.55 94.8498 179.22C94.7516 178.639 94.5303 178.086 94.2009 177.598C93.8715 177.11 93.4415 176.698 92.9398 176.39C91.7428 175.807 90.3666 175.71 89.0998 176.12C88.303 176.281 87.5481 176.605 86.8822 177.071C86.2163 177.538 85.6538 178.136 85.2298 178.83C84.3698 180.24 84.1198 182.39 84.4698 185.3L69.9998 186.84C69.1543 182.056 70.1013 177.129 72.6598 173C75.1998 169.06 79.8664 166.293 86.6598 164.7C91.9398 163.453 96.4631 163.55 100.23 164.99C105.336 166.93 108.476 170.386 109.65 175.36C110.138 177.467 110.034 179.668 109.35 181.72C108.683 183.9 106.906 186.786 104.02 190.38C102.02 192.9 100.843 194.82 100.49 196.14C100.116 197.743 100.15 199.414 100.59 201ZM87.1698 208L101.97 204.52L105 217.56L90.2498 221L87.1698 208Z" fill="#EBEBEB"/>
<path d="M135.75 171.79L126.17 168.87L126.46 167.87C126.827 166.509 127.422 165.221 128.22 164.06C128.903 163.15 129.751 162.377 130.72 161.78C132.748 160.68 134.846 159.715 137 158.89C138.7 158.223 139.7 157.413 140 156.46C140.147 156.07 140.208 155.653 140.181 155.237C140.153 154.822 140.037 154.417 139.84 154.05C139.313 153.271 138.508 152.723 137.59 152.52C137.046 152.338 136.471 152.271 135.9 152.32C135.329 152.37 134.774 152.537 134.27 152.81C132.971 153.7 132.001 154.994 131.51 156.49L122.09 152.3C123.28 149.081 125.616 146.414 128.65 144.81C131.597 143.296 135.423 143.26 140.13 144.7C143.301 145.498 146.154 147.241 148.31 149.7C149.469 150.989 150.27 152.558 150.635 154.253C151 155.947 150.916 157.708 150.39 159.36C149.938 160.819 149.094 162.127 147.95 163.14C146.045 164.62 143.905 165.769 141.62 166.54C140.099 167.043 138.678 167.808 137.42 168.8C136.624 169.643 136.05 170.67 135.75 171.79ZM125.07 171.32L135.33 174.44L132.58 183.5L122.31 180.38L125.07 171.32Z" fill="#EBEBEB"/>
<path d="M250 488.56C357.082 488.56 443.89 483.492 443.89 477.24C443.89 470.988 357.082 465.92 250 465.92C142.917 465.92 56.1099 470.988 56.1099 477.24C56.1099 483.492 142.917 488.56 250 488.56Z" fill="#F5F5F5"/>
<path d="M157.61 308.44L156.69 308.05C157.413 306.463 157.902 304.779 158.14 303.05L159.14 303.16C158.89 304.986 158.374 306.764 157.61 308.44ZM157.22 297C156.29 294.922 154.843 293.117 153.017 291.757C151.191 290.397 149.047 289.527 146.79 289.23L146.95 288.23C149.371 288.552 151.67 289.489 153.627 290.95C155.584 292.412 157.134 294.35 158.13 296.58L157.22 297Z" fill="#0069BD"/>
<path d="M152 318.501L142.14 323.001L141.7 322.001C141.026 320.642 140.589 319.178 140.41 317.671C140.315 316.444 140.447 315.21 140.8 314.031C141.654 311.683 142.656 309.392 143.8 307.171C144.68 305.391 144.903 304.028 144.47 303.081C144.309 302.662 144.061 302.282 143.742 301.967C143.423 301.651 143.041 301.407 142.62 301.251C141.638 301.001 140.598 301.134 139.71 301.621C139.139 301.864 138.624 302.221 138.196 302.669C137.768 303.118 137.436 303.65 137.22 304.231C136.787 305.398 136.92 307.044 137.62 309.171L127 312.491C125.672 309.031 125.672 305.201 127 301.741C128.333 298.408 131.407 295.651 136.22 293.471C139.98 291.751 143.38 291.161 146.41 291.671C148.267 291.895 150.033 292.599 151.535 293.712C153.038 294.825 154.225 296.31 154.98 298.021C155.655 299.525 155.904 301.185 155.7 302.821C155.217 305.376 154.304 307.831 153 310.081C152.123 311.572 151.52 313.208 151.22 314.911C151.178 316.154 151.446 317.388 152 318.501ZM143 325.741L153.54 321.001L157.77 330.291L147.23 335.001L143 325.741Z" fill="#0069BD"/>
<path d="M127.64 340.731L122.64 347.53L122 347C121.025 346.324 120.17 345.489 119.47 344.53C118.939 343.731 118.562 342.839 118.36 341.9C118.037 339.979 117.847 338.038 117.79 336.09C117.71 334.54 117.34 333.53 116.69 333.09C116.417 332.859 116.096 332.689 115.751 332.594C115.406 332.499 115.044 332.481 114.69 332.541C113.925 332.741 113.266 333.228 112.85 333.9C112.552 334.281 112.336 334.719 112.214 335.187C112.092 335.655 112.067 336.143 112.14 336.62C112.488 337.899 113.242 339.03 114.29 339.84L108.29 346.15C106.069 344.297 104.606 341.692 104.18 338.83C103.814 336.07 104.86 333.02 107.32 329.68C108.846 327.391 111.028 325.617 113.58 324.59C114.93 324.033 116.402 323.837 117.851 324.023C119.3 324.209 120.675 324.77 121.84 325.65C122.875 326.418 123.678 327.456 124.16 328.65C124.802 330.585 125.113 332.613 125.08 334.65C125.046 336.01 125.256 337.365 125.7 338.65C126.163 339.495 126.83 340.21 127.64 340.731ZM124.27 349.09L129.63 341.81L136.05 346.541L130.69 353.821L124.27 349.09Z" fill="#0069BD"/>
<path d="M234.09 473.64C233.264 473.641 232.455 473.415 231.749 472.986C231.044 472.557 230.47 471.943 230.09 471.21C226.09 463.45 221.02 454.34 211.94 444.48C211.417 443.914 211.05 443.222 210.875 442.472C210.699 441.722 210.722 440.939 210.94 440.2C214.31 428.49 219.61 412.48 219.66 412.32C219.829 411.742 220.113 411.203 220.495 410.737C220.877 410.27 221.349 409.886 221.883 409.606C222.417 409.326 223.001 409.156 223.602 409.107C224.203 409.058 224.807 409.13 225.38 409.319C225.952 409.509 226.48 409.811 226.933 410.209C227.386 410.607 227.754 411.092 228.015 411.635C228.276 412.179 228.426 412.769 228.454 413.371C228.482 413.973 228.389 414.575 228.18 415.14C228.13 415.29 223.56 429.08 220.25 440.29C227.306 448.429 233.295 457.435 238.07 467.09C238.421 467.776 238.59 468.54 238.561 469.309C238.532 470.079 238.306 470.828 237.904 471.485C237.503 472.143 236.94 472.686 236.268 473.063C235.597 473.44 234.84 473.639 234.07 473.64H234.09Z" fill="#0069BD"/>
<path d="M241.56 477.239H206.77L225.21 466.779L240.66 467.379L241.56 477.239Z" fill="#263238"/>
<path d="M238.239 435.092C254.074 430.142 263.584 415.488 259.481 402.363C255.378 389.237 239.215 382.61 223.38 387.56C207.545 392.51 198.034 407.164 202.138 420.289C206.241 433.415 222.404 440.042 238.239 435.092Z" fill="#263238"/>
<path d="M151.65 395C150.614 394.996 149.612 394.634 148.813 393.975C148.014 393.317 147.467 392.403 147.264 391.387C147.062 390.372 147.217 389.318 147.703 388.403C148.188 387.489 148.975 386.771 149.93 386.37C150.707 386.045 151.389 385.529 151.914 384.87C152.438 384.211 152.788 383.43 152.93 382.6C153.02 381.623 153.427 380.703 154.09 379.981C154.753 379.258 155.635 378.773 156.6 378.6C157.714 378.373 158.815 378.089 159.9 377.75C165.98 375.98 173.51 373.75 197.21 380.41C220.59 367.34 220.86 342.82 220.86 341.76C220.86 340.571 221.33 339.431 222.167 338.588C223.005 337.745 224.142 337.268 225.33 337.26C226.514 337.26 227.65 337.727 228.491 338.561C229.332 339.394 229.809 340.526 229.82 341.71C229.82 343.02 229.68 373.8 199.82 389.21C198.802 389.738 197.62 389.852 196.52 389.53C173.92 383.01 167.52 384.87 162.45 386.36L161.07 386.76C160.403 388.527 159.381 390.139 158.067 391.496C156.753 392.853 155.175 393.926 153.43 394.65C152.866 394.886 152.261 395.005 151.65 395Z" fill="#263238"/>
<path d="M204.08 362.889C195.57 329.069 172.9 241.829 245.55 236.499C310.73 231.709 328.61 318.499 332.96 348.499C335.138 363.679 336.32 378.985 336.5 394.319C336.583 402.076 333.954 409.618 329.069 415.643C324.183 421.668 317.346 425.798 309.74 427.319C274.23 434.539 240.63 435.559 217.99 426.629C215.016 425.429 212.511 423.3 210.847 420.558C209.183 417.817 208.451 414.611 208.76 411.419C209.63 401.739 209.65 384.999 204.08 362.889Z" fill="#0069BD"/>
<path opacity="0.1" d="M333 348.519C328.9 320.199 312.78 241.519 256.34 236.519C253.12 236.193 249.876 236.827 247.017 238.341C244.157 239.856 241.809 242.183 240.27 245.029C237.75 249.909 237.83 255.819 241.6 261.669C254 280.999 283.67 347.669 279.19 383.999C277.19 400.529 266.78 413.729 275.8 432.309C287.202 431.311 298.535 429.641 309.74 427.309C317.346 425.788 324.183 421.658 329.069 415.633C333.955 409.608 336.583 402.066 336.5 394.309C336.332 378.986 335.163 363.69 333 348.519Z" fill="black"/>
<path d="M323.24 394.79C323.123 394.79 323.01 394.744 322.925 394.661C322.841 394.579 322.793 394.467 322.79 394.35C322.62 379.035 321.441 363.749 319.26 348.59C308.46 273.93 279.39 236.18 235.16 239.44C235.101 239.444 235.042 239.436 234.986 239.417C234.929 239.398 234.878 239.368 234.833 239.329C234.788 239.29 234.752 239.243 234.726 239.19C234.699 239.137 234.684 239.079 234.68 239.02C234.675 238.901 234.715 238.785 234.794 238.695C234.872 238.606 234.982 238.55 235.1 238.54C279.85 235.24 309.27 273.26 320.1 348.46C322.279 363.66 323.462 378.986 323.64 394.34C323.64 394.459 323.593 394.574 323.508 394.658C323.424 394.742 323.31 394.79 323.19 394.79H323.24Z" fill="#263238"/>
<path d="M322.561 437.475C338.396 432.524 347.906 417.871 343.803 404.746C339.7 391.62 323.537 384.993 307.702 389.943C291.867 394.893 282.357 409.547 286.46 422.672C290.563 435.798 306.726 442.425 322.561 437.475Z" fill="#263238"/>
<path d="M325.3 473.639C324.474 473.641 323.664 473.415 322.958 472.986C322.253 472.557 321.679 471.942 321.3 471.209C317.3 463.449 312.23 454.339 303.14 444.479C302.621 443.91 302.257 443.218 302.082 442.469C301.907 441.72 301.927 440.938 302.14 440.199C305.52 428.489 310.81 412.479 310.87 412.319C311.055 411.76 311.349 411.243 311.733 410.798C312.118 410.352 312.587 409.987 313.113 409.723C313.639 409.459 314.212 409.301 314.799 409.258C315.386 409.215 315.976 409.288 316.535 409.474C317.094 409.659 317.611 409.952 318.056 410.337C318.501 410.722 318.867 411.191 319.131 411.717C319.395 412.243 319.553 412.816 319.596 413.403C319.638 413.99 319.565 414.58 319.38 415.139C319.33 415.289 314.77 429.079 311.46 440.289C318.517 448.425 324.502 457.431 329.27 467.089C329.621 467.774 329.79 468.538 329.761 469.308C329.732 470.077 329.506 470.827 329.105 471.484C328.703 472.141 328.14 472.684 327.468 473.062C326.797 473.439 326.04 473.638 325.27 473.639H325.3Z" fill="#0069BD"/>
<path d="M315.88 336.91C314.877 336.91 313.902 336.575 313.112 335.957C312.322 335.339 311.761 334.475 311.519 333.501C311.278 332.528 311.369 331.501 311.779 330.586C312.188 329.67 312.893 328.918 313.78 328.45C314.64 327.99 334.17 317.32 339.65 291.68C326.65 286.24 303.23 273.95 298.11 267.77C297.606 267.172 297.262 266.456 297.11 265.69C296.518 261.997 296.862 258.215 298.11 254.69L295.75 250.13C295.203 249.069 295.101 247.834 295.465 246.698C295.829 245.561 296.629 244.616 297.69 244.07C298.751 243.523 299.985 243.421 301.122 243.785C302.258 244.148 303.203 244.949 303.75 246.01L307.14 252.57C307.505 253.256 307.684 254.026 307.659 254.803C307.634 255.58 307.407 256.337 307 257C306.085 258.827 305.697 260.874 305.88 262.91C311.65 268.12 334.88 280.45 346.31 284.68C347.279 285.039 348.094 285.722 348.617 286.613C349.14 287.504 349.339 288.549 349.18 289.57C344.11 322.34 319.04 335.84 317.98 336.4C317.332 336.738 316.611 336.914 315.88 336.91Z" fill="#263238"/>
<path d="M301.57 267.15C301.167 267.148 300.771 267.038 300.425 266.83C300.079 266.623 299.794 266.327 299.602 265.972C299.41 265.617 299.317 265.217 299.332 264.814C299.348 264.411 299.471 264.019 299.69 263.68C299.85 263.44 303.55 257.85 309.19 256.34C309.474 256.264 309.771 256.244 310.063 256.283C310.355 256.321 310.636 256.417 310.891 256.564C311.146 256.711 311.369 256.907 311.548 257.141C311.727 257.374 311.859 257.641 311.935 257.925C312.011 258.209 312.031 258.506 311.992 258.798C311.954 259.089 311.858 259.371 311.711 259.626C311.564 259.881 311.368 260.104 311.134 260.283C310.901 260.462 310.634 260.594 310.35 260.67C306.42 261.73 303.47 266.09 303.45 266.13C303.247 266.443 302.968 266.701 302.64 266.879C302.311 267.057 301.944 267.15 301.57 267.15Z" fill="#263238"/>
<path d="M332.77 477.239H297.98L316.42 466.779L331.87 467.379L332.77 477.239Z" fill="#263238"/>
<path d="M259.918 343.253C273.077 342.088 282.894 331.542 281.845 319.697C280.797 307.853 269.279 299.196 256.12 300.361C242.961 301.526 233.143 312.072 234.192 323.917C235.241 335.761 246.758 344.418 259.918 343.253Z" fill="white"/>
<path d="M255.448 335.445C258.938 334.451 260.3 328.495 258.49 322.143C256.68 315.79 252.384 311.446 248.895 312.44C245.405 313.434 244.043 319.39 245.853 325.743C247.662 332.095 251.958 336.439 255.448 335.445Z" fill="#263238"/>
<path d="M230.8 325.86C245.9 323.92 275.8 315.39 280.73 311.95C276.85 300.59 258.73 290.87 242.61 296.35C228 301.28 230.8 325.86 230.8 325.86Z" fill="#263238"/>
<path d="M233.73 333.159C252.48 329.599 276.85 323.619 283.82 319.789C283.39 332.009 279.82 344.399 260.7 348.589C245.06 351.999 233.73 333.159 233.73 333.159Z" fill="#263238"/>
<path d="M218.285 344.905C225.065 340.419 225.959 329.826 220.282 321.245C214.604 312.665 204.505 309.345 197.725 313.831C190.945 318.317 190.052 328.909 195.729 337.49C201.407 346.071 211.505 349.391 218.285 344.905Z" fill="white"/>
<path d="M208.34 329.679C209.47 335.039 208.49 339.509 206.14 339.679C203.79 339.849 200.97 335.619 199.83 330.259C198.69 324.899 199.68 320.439 202.02 320.259C204.36 320.079 207.2 324.319 208.34 329.679Z" fill="#263238"/>
<path d="M189.75 327.629C199.88 328.819 220 327.489 223.34 325.629C220.87 315.999 208.89 304.998 198 306.398C188.18 307.658 189.75 327.629 189.75 327.629Z" fill="#263238"/>
<path d="M191.63 333.94C204.22 334.51 220.63 334.19 225.31 332.42C224.88 342.03 222.36 351.19 209.5 351.04C199 350.92 191.63 333.94 191.63 333.94Z" fill="#263238"/>
<path d="M264.09 290.299C252.647 290.362 241.456 286.944 232 280.499C231.052 279.782 230.428 278.717 230.265 277.54C230.101 276.362 230.413 275.168 231.13 274.219C231.848 273.271 232.912 272.647 234.09 272.484C235.268 272.321 236.462 272.632 237.41 273.349C247.993 280.252 260.834 282.799 273.25 280.459C273.829 280.35 274.423 280.355 274.999 280.475C275.576 280.595 276.123 280.828 276.61 281.159C277.096 281.491 277.513 281.915 277.835 282.407C278.158 282.9 278.381 283.451 278.49 284.029C278.6 284.608 278.595 285.202 278.474 285.779C278.354 286.355 278.122 286.902 277.79 287.389C277.459 287.875 277.035 288.292 276.542 288.615C276.05 288.937 275.499 289.16 274.92 289.269C271.35 289.949 267.724 290.294 264.09 290.299Z" fill="#263238"/>
<path d="M183.88 282.569C183.162 282.566 182.456 282.39 181.819 282.058C181.183 281.725 180.635 281.245 180.222 280.658C179.809 280.071 179.542 279.393 179.445 278.682C179.347 277.971 179.421 277.246 179.66 276.569C182.03 269.949 185.98 265.659 191.38 263.799C201.16 260.429 211.7 266.979 212.15 267.259C213.132 267.905 213.822 268.91 214.072 270.058C214.322 271.207 214.111 272.407 213.485 273.402C212.86 274.397 211.869 275.107 210.725 275.379C209.582 275.652 208.377 275.465 207.37 274.859C205.37 273.589 199 270.649 194.27 272.289C191.55 273.239 189.53 275.629 188.1 279.609C187.786 280.476 187.212 281.226 186.457 281.755C185.702 282.285 184.802 282.569 183.88 282.569Z" fill="#263238"/>
<path d="M219.23 358.25C219.104 358.25 218.98 358.229 218.86 358.19C218.521 358.094 218.233 357.868 218.061 357.56C217.888 357.253 217.845 356.889 217.94 356.55C218.338 355.468 218.945 354.476 219.728 353.63C220.51 352.783 221.453 352.1 222.5 351.62C227.64 348.97 235.5 349.52 245.81 353.25C245.977 353.31 246.13 353.403 246.261 353.523C246.391 353.642 246.497 353.787 246.571 353.948C246.646 354.109 246.688 354.283 246.694 354.46C246.701 354.637 246.672 354.814 246.61 354.98C246.551 355.146 246.459 355.299 246.341 355.43C246.222 355.56 246.078 355.666 245.918 355.741C245.758 355.815 245.584 355.857 245.408 355.864C245.232 355.87 245.056 355.842 244.89 355.78C233.06 351.5 226.89 352.42 223.89 353.96C222.392 354.595 221.201 355.79 220.57 357.29C220.484 357.576 220.306 357.825 220.064 357.998C219.821 358.172 219.528 358.26 219.23 358.25Z" fill="#263238"/>
<path d="M176.88 353.318C161.233 354.709 146.015 359.178 132.1 366.468C139.82 365.008 167.45 399.198 174.55 425.558C187.66 420.708 202.94 417.398 219.23 414.808C209.36 387.638 191.31 356.848 176.88 353.318Z" fill="#0069BD"/>
<path opacity="0.6" d="M176.88 353.318C161.233 354.709 146.015 359.178 132.1 366.468C139.82 365.008 167.45 399.198 174.55 425.558C187.66 420.708 202.94 417.398 219.23 414.808C209.36 387.638 191.31 356.848 176.88 353.318Z" fill="white"/>
<path d="M176.88 353.32C159.8 351.39 132.07 365.69 132.07 365.69C127.16 368.82 128.49 374.69 131.17 377.18C133.74 373.49 162.4 363.89 173.17 362.6C167.82 357.64 172.8 354 176.88 353.32Z" fill="#0069BD"/>
<path opacity="0.2" d="M176.88 353.32C159.8 351.39 132.07 365.69 132.07 365.69C127.16 368.82 128.49 374.69 131.17 377.18C133.74 373.49 162.4 363.89 173.17 362.6C167.82 357.64 172.8 354 176.88 353.32Z" fill="white"/>
<path d="M151.66 395C150.916 395.003 150.182 394.822 149.524 394.473C148.867 394.124 148.305 393.618 147.89 393C144.64 388 146.67 380.41 147.11 378.93C147.485 377.832 148.27 376.922 149.301 376.39C150.332 375.858 151.529 375.746 152.64 376.077C153.752 376.408 154.693 377.157 155.265 378.166C155.837 379.175 155.997 380.366 155.71 381.49C154.98 384 154.83 387.21 155.41 388.09C156.059 389.087 156.286 390.302 156.04 391.466C155.795 392.631 155.097 393.65 154.1 394.3C153.374 394.769 152.525 395.013 151.66 395Z" fill="#263238"/>
<path d="M136.33 198.939H121.19V192.109L136.33 174.109H143.57V192.499H147.32V198.939H143.57V204.529H136.33V198.939ZM136.33 192.499V183.089L128.33 192.499H136.33Z" fill="#0069BD"/>
<path d="M149.91 189.459C149.91 183.779 150.933 179.803 152.98 177.529C155.027 175.256 158.143 174.119 162.33 174.119C164.028 174.062 165.723 174.316 167.33 174.869C168.503 175.292 169.579 175.948 170.49 176.799C171.256 177.534 171.907 178.38 172.42 179.309C172.922 180.282 173.301 181.313 173.55 182.379C174.115 184.669 174.393 187.021 174.38 189.379C174.38 194.799 173.463 198.769 171.63 201.289C169.797 203.809 166.623 205.046 162.11 204.999C160.01 205.086 157.92 204.675 156.01 203.799C154.446 202.983 153.127 201.764 152.19 200.269C151.359 198.878 150.79 197.346 150.51 195.749C150.096 193.679 149.895 191.571 149.91 189.459ZM158.15 189.459C158.15 193.273 158.483 195.873 159.15 197.259C159.369 197.864 159.766 198.387 160.29 198.76C160.813 199.134 161.437 199.339 162.08 199.349C162.486 199.357 162.89 199.282 163.266 199.129C163.643 198.976 163.984 198.748 164.27 198.459C164.986 197.678 165.459 196.705 165.63 195.659C165.986 193.68 166.133 191.669 166.07 189.659C166.07 185.659 165.74 183.019 165.07 181.659C164.827 181.065 164.411 180.556 163.876 180.2C163.342 179.844 162.713 179.655 162.07 179.659C161.412 179.642 160.766 179.835 160.226 180.211C159.686 180.587 159.281 181.126 159.07 181.749C158.463 183.129 158.157 185.706 158.15 189.479V189.459Z" fill="#0069BD"/>
<path d="M177.77 189.459C177.77 183.779 178.793 179.803 180.84 177.529C182.887 175.256 186.003 174.119 190.19 174.119C191.889 174.062 193.583 174.316 195.19 174.869C196.363 175.292 197.439 175.948 198.35 176.799C199.119 177.531 199.77 178.378 200.28 179.309C200.782 180.282 201.161 181.313 201.41 182.379C201.978 184.669 202.26 187.02 202.25 189.379C202.25 194.799 201.33 198.769 199.49 201.289C197.65 203.809 194.487 205.046 190 204.999C187.901 205.086 185.81 204.675 183.9 203.799C182.337 202.985 181.021 201.766 180.09 200.269C179.251 198.88 178.678 197.348 178.4 195.749C177.976 193.68 177.765 191.572 177.77 189.459ZM186.01 189.459C186.01 193.273 186.343 195.873 187.01 197.259C187.229 197.864 187.626 198.387 188.15 198.76C188.673 199.134 189.297 199.339 189.94 199.349C190.346 199.357 190.75 199.282 191.126 199.129C191.503 198.976 191.844 198.748 192.13 198.459C192.846 197.677 193.322 196.705 193.5 195.659C193.851 193.679 193.998 191.669 193.94 189.659C193.94 185.659 193.607 182.993 192.94 181.659C192.694 181.066 192.278 180.559 191.744 180.203C191.21 179.847 190.582 179.658 189.94 179.659C189.283 179.643 188.637 179.837 188.098 180.213C187.558 180.589 187.153 181.127 186.94 181.749C186.313 183.129 186 185.706 186 189.479L186.01 189.459Z" fill="#0069BD"/>
<path d="M220.89 174.629H245.65V180.999H230.15V185.759H244.53V191.859H230.15V197.749H246.1V204.519H220.89V174.629Z" fill="#263238"/>
<path d="M251.2 204.529V174.629H266.6C268.808 174.551 271.015 174.8 273.15 175.369C274.639 175.838 275.925 176.796 276.8 178.089C277.461 179.039 277.92 180.115 278.148 181.249C278.376 182.384 278.368 183.554 278.124 184.685C277.88 185.816 277.405 186.885 276.73 187.825C276.055 188.766 275.194 189.557 274.2 190.149C273.187 190.71 272.094 191.111 270.96 191.339C271.81 191.583 272.619 191.954 273.36 192.439C273.914 192.901 274.411 193.428 274.84 194.009C275.334 194.584 275.769 195.207 276.14 195.869L280.61 204.529H270.17L265.23 195.389C264.84 194.514 264.271 193.73 263.56 193.089C262.896 192.63 262.106 192.389 261.3 192.399H260.48V204.529H251.2ZM260.48 186.749H264.38C265.203 186.684 266.02 186.547 266.82 186.339C267.419 186.223 267.954 185.888 268.32 185.399C268.768 184.809 268.983 184.074 268.922 183.336C268.861 182.597 268.529 181.907 267.99 181.399C266.952 180.78 265.743 180.51 264.54 180.629H260.48V186.749Z" fill="#263238"/>
<path d="M283.69 204.529V174.629H299.09C301.298 174.551 303.505 174.8 305.64 175.369C307.129 175.838 308.415 176.797 309.29 178.089C309.949 179.039 310.406 180.115 310.633 181.248C310.86 182.382 310.852 183.55 310.609 184.681C310.366 185.811 309.894 186.88 309.222 187.821C308.549 188.761 307.691 189.554 306.7 190.149C305.685 190.712 304.588 191.113 303.45 191.339C305.045 191.683 306.439 192.643 307.33 194.009C307.824 194.585 308.26 195.208 308.63 195.869L313.1 204.529H302.66L297.72 195.389C297.33 194.514 296.762 193.731 296.05 193.089C295.386 192.631 294.597 192.39 293.79 192.399H293V204.529H283.69ZM293 186.749H296.9C297.724 186.684 298.54 186.547 299.34 186.339C299.941 186.228 300.477 185.892 300.84 185.399C301.289 184.81 301.503 184.075 301.442 183.336C301.381 182.598 301.049 181.908 300.51 181.399C299.473 180.777 298.263 180.507 297.06 180.629H293V186.749Z" fill="#263238"/>
<path d="M314.18 189.599C314.18 184.719 315.54 180.919 318.26 178.199C320.98 175.479 324.767 174.119 329.62 174.119C334.6 174.119 338.437 175.452 341.13 178.119C343.823 180.786 345.157 184.529 345.13 189.349C345.267 192.33 344.673 195.3 343.4 197.999C342.257 200.21 340.481 202.031 338.3 203.229C335.73 204.517 332.872 205.126 330 204.999C327.125 205.097 324.264 204.547 321.63 203.389C319.366 202.267 317.491 200.49 316.25 198.289C314.795 195.63 314.08 192.629 314.18 189.599ZM323.42 189.599C323.42 192.619 323.983 194.789 325.11 196.109C325.703 196.729 326.415 197.223 327.204 197.56C327.993 197.897 328.842 198.071 329.7 198.071C330.558 198.071 331.407 197.897 332.196 197.56C332.985 197.223 333.697 196.729 334.29 196.109C335.377 194.816 335.923 192.482 335.93 189.109C335.93 186.302 335.36 184.246 334.22 182.939C333.643 182.293 332.928 181.783 332.129 181.447C331.33 181.112 330.466 180.959 329.6 180.999C328.75 180.97 327.905 181.135 327.129 181.481C326.353 181.828 325.666 182.347 325.12 182.999C324 184.409 323.42 186.599 323.42 189.639V189.599Z" fill="#263238"/>
<path d="M350.27 204.529V174.629H365.66C367.868 174.551 370.075 174.8 372.21 175.369C373.7 175.835 374.988 176.794 375.86 178.089C376.82 179.517 377.306 181.21 377.25 182.929C377.291 184.432 376.924 185.918 376.19 187.229C375.48 188.435 374.475 189.439 373.27 190.149C372.257 190.71 371.165 191.111 370.03 191.339C370.881 191.583 371.69 191.954 372.43 192.439C372.982 192.904 373.479 193.431 373.91 194.009C374.402 194.584 374.834 195.207 375.2 195.869L379.68 204.529H369.24L364.3 195.389C363.906 194.517 363.338 193.734 362.63 193.089C361.963 192.63 361.17 192.389 360.36 192.399H359.55V204.529H350.27ZM359.55 186.749H363.44C364.267 186.684 365.087 186.547 365.89 186.339C366.489 186.223 367.024 185.888 367.39 185.399C367.775 184.906 367.98 184.295 367.97 183.669C367.995 183.252 367.925 182.835 367.766 182.449C367.606 182.063 367.362 181.718 367.05 181.439C366.013 180.817 364.803 180.547 363.6 180.669H359.55V186.749Z" fill="#263238"/>
<path d="M162.29 158V135.74H170.65C172.045 135.687 173.437 135.918 174.74 136.42C175.744 136.844 176.59 137.571 177.16 138.5C177.725 139.377 178.03 140.396 178.04 141.44C178.042 142.392 177.771 143.326 177.26 144.13C176.682 145.002 175.871 145.694 174.92 146.13C176.147 146.441 177.238 147.143 178.03 148.13C178.756 149.101 179.136 150.287 179.11 151.5C179.119 152.508 178.893 153.504 178.45 154.41C178.079 155.223 177.521 155.936 176.82 156.49C176.088 157.015 175.258 157.389 174.38 157.59C173.203 157.859 171.997 157.984 170.79 157.96L162.29 158ZM165.29 145.08H170.11C171.054 145.121 171.999 145.033 172.92 144.82C173.59 144.65 174.184 144.263 174.61 143.72C175.005 143.148 175.205 142.464 175.18 141.77C175.208 141.065 175.023 140.368 174.65 139.77C174.305 139.208 173.763 138.795 173.13 138.61C172.019 138.354 170.879 138.25 169.74 138.3H165.29V145.08ZM165.29 155.37H170.84C171.508 155.388 172.177 155.355 172.84 155.27C173.44 155.176 174.017 154.969 174.54 154.66C175.019 154.353 175.408 153.925 175.67 153.42C175.971 152.84 176.122 152.193 176.11 151.54C176.13 150.77 175.906 150.014 175.47 149.38C175.047 148.758 174.422 148.302 173.7 148.09C172.639 147.799 171.54 147.67 170.44 147.71H165.29V155.37Z" fill="#263238"/>
<path d="M193.36 156C192.492 156.768 191.501 157.387 190.43 157.83C189.47 158.184 188.454 158.364 187.43 158.36C185.954 158.46 184.496 157.995 183.35 157.06C182.883 156.645 182.513 156.132 182.266 155.559C182.019 154.985 181.901 154.364 181.92 153.74C181.912 153.006 182.084 152.282 182.421 151.63C182.757 150.978 183.248 150.419 183.85 150C184.46 149.588 185.137 149.283 185.85 149.1C186.65 148.912 187.462 148.775 188.28 148.69C189.934 148.539 191.568 148.224 193.16 147.75C193.16 147.37 193.16 147.14 193.16 147.03C193.206 146.606 193.161 146.177 193.028 145.772C192.896 145.367 192.678 144.994 192.39 144.68C191.499 143.998 190.389 143.667 189.27 143.75C188.273 143.679 187.278 143.916 186.42 144.43C185.682 145.049 185.18 145.904 185 146.85L182.33 146.49C182.509 145.483 182.92 144.531 183.53 143.71C184.183 142.947 185.04 142.385 186 142.09C187.181 141.69 188.423 141.497 189.67 141.52C190.799 141.487 191.926 141.649 193 142C193.729 142.239 194.383 142.663 194.9 143.23C195.328 143.773 195.62 144.411 195.75 145.09C195.866 145.925 195.912 146.767 195.89 147.61V151.26C195.845 152.868 195.902 154.478 196.06 156.08C196.18 156.761 196.413 157.416 196.75 158.02H193.9C193.599 157.385 193.416 156.7 193.36 156ZM193.13 149.89C191.683 150.393 190.183 150.729 188.66 150.89C187.845 150.977 187.043 151.158 186.27 151.43C185.833 151.618 185.458 151.926 185.19 152.32C184.879 152.809 184.754 153.394 184.836 153.968C184.919 154.542 185.204 155.068 185.64 155.45C186.335 155.978 187.198 156.238 188.07 156.18C189.051 156.194 190.02 155.953 190.88 155.48C191.666 155.054 192.299 154.393 192.69 153.59C193.027 152.717 193.176 151.784 193.13 150.85V149.89Z" fill="#263238"/>
<path d="M210.61 158.001V156.001C210.143 156.771 209.476 157.401 208.68 157.823C207.885 158.246 206.99 158.445 206.09 158.401C204.83 158.406 203.597 158.033 202.55 157.331C201.442 156.593 200.571 155.552 200.04 154.331C199.421 152.956 199.117 151.459 199.15 149.951C199.131 148.45 199.402 146.959 199.95 145.561C200.426 144.335 201.272 143.286 202.37 142.561C203.445 141.881 204.698 141.533 205.97 141.561C206.874 141.542 207.768 141.752 208.57 142.171C209.304 142.56 209.94 143.111 210.43 143.781V135.781H213.15V158.001H210.61ZM202 150.001C201.876 151.651 202.34 153.291 203.31 154.631C203.672 155.105 204.138 155.491 204.672 155.758C205.205 156.024 205.793 156.166 206.39 156.171C206.976 156.173 207.556 156.042 208.084 155.787C208.613 155.533 209.076 155.161 209.44 154.701C210.373 153.406 210.816 151.822 210.69 150.231C210.83 148.511 210.382 146.794 209.42 145.361C209.05 144.877 208.574 144.485 208.027 144.216C207.48 143.947 206.879 143.809 206.27 143.811C205.689 143.815 205.118 143.952 204.598 144.21C204.078 144.468 203.624 144.841 203.27 145.301C202.328 146.679 201.88 148.336 202 150.001Z" fill="#263238"/>
<path d="M226.49 158.001V135.741H236.37C237.904 135.674 239.437 135.878 240.9 136.341C241.941 136.75 242.814 137.497 243.38 138.461C244 139.471 244.322 140.636 244.31 141.821C244.329 142.556 244.202 143.288 243.938 143.974C243.674 144.66 243.277 145.288 242.77 145.821C241.465 147.036 239.78 147.763 238 147.881C238.652 148.169 239.261 148.546 239.81 149.001C240.751 149.892 241.575 150.9 242.26 152.001L246.13 158.001H242.42L239.47 153.371C238.61 152.031 237.9 151.011 237.35 150.301C236.933 149.728 236.426 149.225 235.85 148.811C235.437 148.537 234.98 148.335 234.5 148.211C233.958 148.128 233.409 148.094 232.86 148.111H229.44V158.001H226.49ZM229.44 145.551H235.78C236.849 145.593 237.918 145.455 238.94 145.141C239.651 144.897 240.263 144.426 240.68 143.801C241.067 143.206 241.272 142.511 241.27 141.801C241.283 141.309 241.186 140.821 240.988 140.371C240.789 139.922 240.492 139.522 240.12 139.201C239.074 138.442 237.788 138.087 236.5 138.201H229.44V145.551Z" fill="#263238"/>
<path d="M259.63 152.831L262.46 153.171C262.098 154.69 261.231 156.04 260 157.001C258.444 158.018 256.595 158.49 254.742 158.343C252.889 158.197 251.137 157.44 249.76 156.191C248.297 154.5 247.554 152.303 247.69 150.071C247.546 147.772 248.298 145.506 249.79 143.751C250.482 143.008 251.326 142.422 252.265 142.034C253.204 141.645 254.215 141.464 255.23 141.501C256.218 141.468 257.201 141.647 258.114 142.027C259.026 142.406 259.847 142.977 260.52 143.701C261.973 145.428 262.707 147.648 262.57 149.901C262.57 150.061 262.57 150.311 262.57 150.631H250.57C250.544 152.121 251.051 153.572 252 154.721C252.429 155.182 252.952 155.547 253.533 155.792C254.114 156.037 254.74 156.156 255.37 156.141C256.29 156.169 257.194 155.891 257.94 155.351C258.736 154.693 259.324 153.817 259.63 152.831ZM250.63 148.401H259.63C259.608 147.307 259.26 146.245 258.63 145.351C258.226 144.842 257.71 144.435 257.121 144.161C256.533 143.886 255.889 143.753 255.24 143.771C254.656 143.752 254.074 143.851 253.529 144.062C252.985 144.274 252.488 144.593 252.07 145.001C251.181 145.912 250.673 147.128 250.65 148.401H250.63Z" fill="#263238"/>
<path d="M276.18 164.21V156.31C275.712 156.94 275.102 157.45 274.4 157.8C273.645 158.189 272.809 158.391 271.96 158.39C271.017 158.392 270.085 158.187 269.23 157.79C268.374 157.392 267.617 156.812 267.01 156.09C265.542 154.334 264.798 152.085 264.93 149.8C264.908 148.304 265.198 146.819 265.78 145.44C266.274 144.234 267.13 143.21 268.23 142.51C269.281 141.85 270.499 141.503 271.74 141.51C272.675 141.483 273.601 141.698 274.428 142.134C275.255 142.57 275.955 143.213 276.46 144V141.88H278.92V164.21H276.18ZM267.75 149.91C267.626 151.571 268.086 153.222 269.05 154.58C269.421 155.062 269.896 155.452 270.44 155.723C270.984 155.993 271.582 156.136 272.19 156.14C272.769 156.136 273.34 156 273.86 155.744C274.379 155.488 274.834 155.117 275.19 154.66C276.136 153.355 276.586 151.757 276.46 150.15C276.581 148.429 276.112 146.718 275.13 145.3C274.768 144.807 274.297 144.404 273.754 144.121C273.212 143.839 272.612 143.684 272 143.67C271.416 143.673 270.841 143.812 270.321 144.076C269.8 144.34 269.348 144.721 269 145.19C268.058 146.575 267.617 148.24 267.75 149.91Z" fill="#263238"/>
<path d="M293.78 158.001V155.651C293.236 156.511 292.479 157.215 291.581 157.696C290.684 158.176 289.678 158.415 288.66 158.391C287.741 158.399 286.831 158.211 285.99 157.841C285.269 157.555 284.638 157.082 284.16 156.471C283.734 155.875 283.444 155.192 283.31 154.471C283.175 153.625 283.118 152.768 283.14 151.911V141.911H285.88V150.911C285.849 151.877 285.906 152.845 286.05 153.801C286.192 154.482 286.58 155.088 287.14 155.501C287.746 155.923 288.472 156.137 289.21 156.111C290.023 156.113 290.821 155.895 291.52 155.481C292.21 155.097 292.749 154.491 293.05 153.761C293.396 152.748 293.549 151.68 293.5 150.611V141.881H296.23V158.001H293.78Z" fill="#263238"/>
<path d="M311.57 152.831L314.4 153.171C314.029 154.691 313.155 156.04 311.92 157.001C310.364 158.018 308.515 158.49 306.662 158.343C304.809 158.197 303.057 157.44 301.68 156.191C300.217 154.499 299.474 152.303 299.61 150.071C299.467 147.773 300.216 145.51 301.7 143.751C302.395 143.008 303.241 142.423 304.181 142.035C305.121 141.647 306.134 141.465 307.15 141.501C308.138 141.468 309.121 141.647 310.034 142.026C310.946 142.406 311.767 142.977 312.44 143.701C313.893 145.428 314.627 147.647 314.49 149.901C314.49 150.061 314.49 150.311 314.49 150.631H302.49C302.486 152.125 303.023 153.57 304 154.701C304.429 155.163 304.951 155.529 305.532 155.774C306.113 156.018 306.74 156.137 307.37 156.121C308.291 156.149 309.194 155.871 309.94 155.331C310.711 154.67 311.277 153.803 311.57 152.831ZM302.57 148.401H311.57C311.548 147.307 311.2 146.245 310.57 145.351C310.165 144.843 309.649 144.437 309.061 144.162C308.472 143.888 307.829 143.754 307.18 143.771C306.594 143.75 306.011 143.849 305.464 144.06C304.918 144.272 304.42 144.591 304 145.001C303.115 145.913 302.611 147.129 302.59 148.401H302.57Z" fill="#263238"/>
<path d="M316.74 153.211L319.44 152.781C319.532 153.743 319.986 154.633 320.71 155.271C321.547 155.895 322.578 156.203 323.62 156.141C324.615 156.218 325.605 155.946 326.42 155.371C326.7 155.161 326.927 154.89 327.085 154.577C327.243 154.265 327.327 153.921 327.33 153.571C327.335 153.279 327.264 152.991 327.124 152.735C326.984 152.479 326.779 152.264 326.53 152.111C325.637 151.691 324.697 151.379 323.73 151.181C322.304 150.869 320.909 150.431 319.56 149.871C318.847 149.553 318.243 149.033 317.822 148.376C317.401 147.718 317.181 146.952 317.19 146.171C317.186 145.473 317.358 144.785 317.69 144.171C318.005 143.568 318.453 143.045 319 142.641C319.533 142.282 320.12 142.011 320.74 141.841C321.511 141.625 322.309 141.517 323.11 141.521C324.244 141.499 325.372 141.682 326.44 142.061C327.278 142.339 328.015 142.857 328.56 143.551C329.085 144.294 329.428 145.151 329.56 146.051L326.88 146.411C326.846 146.024 326.735 145.648 326.553 145.304C326.371 144.961 326.122 144.657 325.82 144.411C325.099 143.908 324.228 143.665 323.35 143.721C322.411 143.638 321.469 143.855 320.66 144.341C320.42 144.503 320.223 144.721 320.084 144.974C319.944 145.228 319.868 145.512 319.86 145.801C319.85 146.163 319.967 146.517 320.19 146.801C320.47 147.133 320.832 147.384 321.24 147.531C321.51 147.631 322.32 147.861 323.66 148.221C325.035 148.562 326.387 148.986 327.71 149.491C328.434 149.792 329.058 150.291 329.51 150.931C329.964 151.625 330.191 152.443 330.16 153.271C330.159 154.191 329.884 155.089 329.37 155.851C328.783 156.698 327.958 157.352 327 157.731C325.925 158.186 324.767 158.41 323.6 158.391C321.899 158.506 320.208 158.044 318.8 157.081C317.65 156.097 316.914 154.715 316.74 153.211Z" fill="#263238"/>
<path d="M339.37 155.58L339.77 157.99C339.091 158.147 338.397 158.231 337.7 158.24C336.901 158.285 336.105 158.12 335.39 157.76C334.879 157.488 334.471 157.056 334.23 156.53C333.945 155.479 333.833 154.388 333.9 153.3V144H331.9V141.88H333.9V137.88L336.62 136.24V141.88H339.37V144H336.62V153.44C336.591 153.944 336.638 154.45 336.76 154.94C336.86 155.163 337.023 155.351 337.23 155.48C337.521 155.625 337.845 155.69 338.17 155.67C338.571 155.667 338.972 155.637 339.37 155.58Z" fill="#263238"/>
</svg>
