<svg width="500" height="501" viewBox="0 0 500 501" fill="none" xmlns="http://www.w3.org/2000/svg">
<path d="M450.871 249.658C437.691 289.598 409.301 333.368 367.531 347.658C304.411 369.188 298.771 420.958 184.211 420.658C167.487 420.687 150.809 418.896 134.471 415.318C126.484 413.542 118.618 411.258 110.921 408.478C43.0613 383.908 5.90135 325.718 0.601346 263.478C-6.39865 181.658 49.2913 140.378 85.6013 116.068C121.911 91.7582 163.241 1.37817 275.861 0.838172C293.054 0.692076 310.207 2.52412 326.981 6.29818C365.221 15.0782 404.571 36.2982 428.211 68.5082C429.978 70.9282 431.681 73.4082 433.321 75.9482C465.201 125.548 468.831 195.218 450.871 249.658Z" fill="#0069BD" fill-opacity="0.34"/>
<path d="M500 383.4H0V383.65H500V383.4Z" fill="#EBEBEB"/>
<path d="M111.66 391.791H78.54V392.041H111.66V391.791Z" fill="#EBEBEB"/>
<path d="M163.5 399H133.33V399.25H163.5V399Z" fill="#EBEBEB"/>
<path d="M95.1001 401.07H56.8501V401.32H95.1001V401.07Z" fill="#EBEBEB"/>
<path d="M449.9 400.531H434V400.781H449.9V400.531Z" fill="#EBEBEB"/>
<path d="M430.79 400.531H391.47V400.781H430.79V400.531Z" fill="#EBEBEB"/>
<path d="M280.33 391.66H250V391.91H280.33V391.66Z" fill="#EBEBEB"/>
<path d="M356.77 391.66H284.67V391.91H356.77V391.66Z" fill="#EBEBEB"/>
<path d="M237 338.8H43.91C42.3973 338.797 40.9475 338.195 39.8788 337.124C38.8102 336.053 38.21 334.603 38.21 333.09V61.66C38.2231 60.156 38.8292 58.718 39.8964 57.6582C40.9637 56.5985 42.4059 56.0026 43.91 56H237C238.514 56 239.967 56.6016 241.038 57.6724C242.108 58.7433 242.71 60.1956 242.71 61.71V333.09C242.71 334.604 242.108 336.057 241.038 337.128C239.967 338.198 238.514 338.8 237 338.8ZM43.91 56.2C42.4636 56.2026 41.0774 56.7791 40.0556 57.8027C39.0338 58.8264 38.46 60.2136 38.46 61.66V333.09C38.46 334.536 39.0338 335.924 40.0556 336.947C41.0774 337.971 42.4636 338.547 43.91 338.55H237C238.447 338.547 239.834 337.971 240.858 336.948C241.881 335.924 242.457 334.537 242.46 333.09V61.66C242.457 60.2127 241.881 58.8255 240.858 57.8021C239.834 56.7787 238.447 56.2026 237 56.2H43.91Z" fill="#EBEBEB"/>
<path d="M453.31 338.8H260.21C258.696 338.797 257.246 338.195 256.175 337.125C255.105 336.054 254.503 334.604 254.5 333.09V61.66C254.516 60.1551 255.124 58.7171 256.193 57.6576C257.262 56.5981 258.705 56.0025 260.21 56H453.31C454.812 56.0052 456.252 56.6022 457.317 57.6617C458.382 58.7212 458.987 60.1578 459 61.66V333.09C459 334.601 458.401 336.05 457.335 337.121C456.268 338.191 454.821 338.795 453.31 338.8ZM260.21 56.2C258.763 56.2026 257.375 56.7787 256.352 57.8021C255.329 58.8255 254.753 60.2127 254.75 61.66V333.09C254.753 334.537 255.329 335.924 256.352 336.948C257.375 337.971 258.763 338.547 260.21 338.55H453.31C454.757 338.547 456.145 337.971 457.168 336.948C458.191 335.924 458.767 334.537 458.77 333.09V61.66C458.767 60.2127 458.191 58.8255 457.168 57.8021C456.145 56.7787 454.757 56.2026 453.31 56.2H260.21Z" fill="#EBEBEB"/>
<path d="M429.278 237.11L413.955 221.787L272.767 362.975L288.09 378.298L429.278 237.11Z" fill="#EBEBEB"/>
<path d="M361.93 304.451L346.61 289.121L325.72 310.011L339.77 332.421L361.93 304.451Z" fill="#E0E0E0"/>
<path d="M288.087 378.297L293.192 383.402L434.38 242.214L429.275 237.109L288.087 378.297Z" fill="#E0E0E0"/>
<path d="M288.093 226.886L272.77 242.209L413.958 383.397L429.281 368.074L288.093 226.886Z" fill="#EBEBEB"/>
<path d="M429.28 368.076L434.385 362.971L293.197 221.783L288.092 226.888L429.28 368.076Z" fill="#E0E0E0"/>
<path d="M176.202 269.55L164.273 257.621L54.3886 367.505L66.3175 379.434L176.202 269.55Z" fill="#EBEBEB"/>
<path d="M123.78 321.951L111.85 310.031L95.6001 326.291L106.53 343.721L123.78 321.951Z" fill="#E0E0E0"/>
<path d="M66.3093 379.43L70.2832 383.404L180.168 273.52L176.194 269.546L66.3093 379.43Z" fill="#E0E0E0"/>
<path d="M66.3229 261.593L54.394 273.521L164.278 383.406L176.207 371.477L66.3229 261.593Z" fill="#EBEBEB"/>
<path d="M176.188 371.47L180.162 367.496L70.2777 257.612L66.3038 261.586L176.188 371.47Z" fill="#E0E0E0"/>
<path d="M318.87 276.111H301.26V383.391H318.87V276.111Z" fill="#F5F5F5"/>
<path d="M318.87 320.691H301.26V333.561L318.87 329.761V320.691Z" fill="#EBEBEB"/>
<path d="M318.86 383.4H324.73V276.12H318.86V383.4Z" fill="#EBEBEB"/>
<path d="M134.4 276.111H116.79V383.391H134.4V276.111Z" fill="#F5F5F5"/>
<path d="M134.39 320.691H116.79V333.561L134.39 329.761V320.691Z" fill="#EBEBEB"/>
<path d="M134.39 383.4H140.26V276.12H134.39V383.4Z" fill="#EBEBEB"/>
<path d="M328.11 291.84H103.36V324.86H328.11V291.84Z" fill="#F5F5F5"/>
<path d="M328.11 324.85H331.41V291.83H328.11V324.85Z" fill="#EBEBEB"/>
<path d="M242.73 258.17H198.79L167.72 289.24V333.18L198.79 364.25H242.73L273.8 333.18V289.24L242.73 258.17Z" fill="#FAFAFA"/>
<path d="M240.72 263.021H200.8L172.57 291.251V331.172L200.8 359.401H240.72L268.95 331.172V291.251L240.72 263.021Z" fill="#E0E0E0"/>
<path d="M182.19 315.82L187.81 315.32C187.856 316.359 188.108 317.379 188.55 318.32C188.781 318.816 189.15 319.235 189.613 319.528C190.076 319.82 190.613 319.974 191.16 319.97C191.536 320 191.914 319.94 192.262 319.793C192.61 319.647 192.918 319.42 193.16 319.13C193.625 318.569 193.87 317.858 193.85 317.13C193.855 316.44 193.622 315.769 193.19 315.23C192.347 314.447 191.312 313.902 190.19 313.65C188.062 313.111 186.137 311.964 184.65 310.35C183.487 308.85 182.895 306.986 182.98 305.09C182.966 303.71 183.257 302.345 183.83 301.09C184.375 299.879 185.27 298.858 186.4 298.16C187.836 297.371 189.464 297.001 191.1 297.09C192.114 297.02 193.132 297.156 194.093 297.49C195.053 297.823 195.937 298.347 196.69 299.03C197.97 300.32 198.69 302.38 198.98 305.2L193.41 305.67C193.357 304.707 193.035 303.778 192.48 302.99C192.231 302.709 191.922 302.488 191.576 302.344C191.229 302.2 190.854 302.137 190.48 302.16C190.192 302.141 189.903 302.186 189.634 302.294C189.366 302.401 189.125 302.567 188.93 302.78C188.579 303.204 188.395 303.74 188.41 304.29C188.405 304.72 188.558 305.136 188.84 305.46C189.401 305.972 190.093 306.318 190.84 306.46C192.803 306.969 194.675 307.779 196.39 308.86C197.464 309.616 198.309 310.654 198.83 311.86C199.35 313.129 199.608 314.489 199.59 315.86C199.614 317.521 199.272 319.166 198.59 320.68C197.994 322.058 197.002 323.227 195.74 324.04C194.345 324.847 192.75 325.243 191.14 325.18C187.893 325.18 185.643 324.287 184.39 322.5C183.047 320.522 182.285 318.208 182.19 315.82Z" fill="white"/>
<path d="M201.17 297.6H219.17V304.33H213.17V324.82H207.26V304.33H201.26L201.17 297.6Z" fill="white"/>
<path d="M220.14 311.231C220.14 306.791 221.01 303.331 222.75 300.851C223.592 299.706 224.69 298.774 225.957 298.129C227.224 297.485 228.624 297.147 230.045 297.141C231.466 297.135 232.869 297.462 234.141 298.096C235.413 298.73 236.519 299.653 237.37 300.791C239.123 303.224 240 306.628 240 311.001C240.083 313.657 239.701 316.307 238.87 318.831C238.247 320.687 237.118 322.332 235.61 323.581C234.091 324.746 232.214 325.347 230.3 325.281C228.408 325.357 226.538 324.843 224.95 323.811C223.378 322.63 222.183 321.018 221.51 319.171C220.541 316.639 220.076 313.942 220.14 311.231ZM226.05 311.231C226.05 313.984 226.41 315.958 227.13 317.151C227.41 317.688 227.831 318.137 228.349 318.451C228.866 318.765 229.46 318.931 230.065 318.931C230.67 318.931 231.264 318.765 231.781 318.451C232.299 318.137 232.72 317.688 233 317.151C233.7 315.971 234 313.861 234 310.821C234.133 308.886 233.761 306.949 232.92 305.201C232.63 304.659 232.197 304.208 231.668 303.895C231.139 303.583 230.534 303.423 229.92 303.431C229.323 303.438 228.738 303.61 228.232 303.927C227.726 304.245 227.317 304.696 227.05 305.231C226.384 306.484 226.05 308.498 226.05 311.271V311.231Z" fill="white"/>
<path d="M243.11 297.6H252.93C253.849 297.539 254.769 297.706 255.608 298.086C256.448 298.467 257.18 299.049 257.74 299.78C258.911 301.62 259.467 303.784 259.33 305.96C259.465 308.239 258.854 310.499 257.59 312.4C256.961 313.19 256.148 313.814 255.223 314.219C254.297 314.623 253.287 314.795 252.28 314.72H249V324.82H243.07L243.11 297.6ZM249 309.21H250.45C250.888 309.258 251.331 309.207 251.747 309.06C252.163 308.912 252.539 308.673 252.85 308.36C253.329 307.745 253.573 306.979 253.54 306.2C253.588 305.429 253.4 304.661 253 304C252.73 303.674 252.382 303.422 251.989 303.266C251.596 303.111 251.169 303.057 250.75 303.11H249V309.21Z" fill="white"/>
<path d="M411.35 103.75C410.306 103.754 409.266 103.879 408.25 104.12C406.93 101.12 404 99.2498 400.05 99.2498C397.026 99.3239 394.089 100.28 391.6 102C389.92 96.3598 384.89 92.5898 377.87 92.5898C367.87 92.5898 357.42 100.23 353.64 109.99C352.716 109.773 351.769 109.666 350.82 109.67H349.88C341.27 110.25 341.88 123.25 350.55 123.25H412C413.064 123.253 414.113 123.006 415.064 122.529C416.014 122.051 416.838 121.356 417.47 120.5C418.531 119.06 419.339 117.45 419.86 115.74C421.76 109.12 418 103.75 411.35 103.75Z" fill="#F0F0F0"/>
<path d="M171.36 46.1305C170.02 37.2505 162.94 31.0605 152.59 31.0605C144.11 31.0605 135.37 35.2105 128.86 41.6005C126.961 39.9541 124.512 39.0829 122 39.1605C114.82 39.1605 107.29 44.9805 105.17 52.1605C104.855 53.2203 104.677 54.3158 104.64 55.4205L104.49 55.5205C98.5499 59.5205 101.49 68.9106 108.73 68.9106H172C173.207 68.9203 174.397 68.6281 175.463 68.0605C176.528 67.4929 177.435 66.6679 178.1 65.6606C179.088 64.1521 179.853 62.5084 180.37 60.7805C182.58 53.1405 178.61 46.8505 171.36 46.1305Z" fill="#F0F0F0"/>
<path d="M246.88 145.3C245.04 133.09 235.31 124.58 221.08 124.58C209.41 124.58 197.4 130.29 188.46 139.07C185.857 136.8 182.492 135.6 179.04 135.71C169.18 135.71 158.81 143.71 155.9 153.58C155.467 155.036 155.222 156.542 155.17 158.06L154.97 158.19C146.78 163.76 150.84 176.6 160.74 176.6H244C247.376 176.624 250.67 175.562 253.396 173.57C256.123 171.579 258.136 168.764 259.14 165.54V165.42C262.32 154.93 256.85 146.28 246.88 145.3Z" fill="#F5F5F5"/>
<path d="M250 428.56C357.082 428.56 443.89 423.492 443.89 417.24C443.89 410.988 357.082 405.92 250 405.92C142.917 405.92 56.1099 410.988 56.1099 417.24C56.1099 423.492 142.917 428.56 250 428.56Z" fill="#F5F5F5"/>
<path d="M128.74 129.92H78.54V107.26L128.74 47.5898H152.74V108.59H165.19V129.97H152.76V148.51H128.76L128.74 129.92ZM128.74 108.54V77.3298L102.22 108.54H128.74Z" fill="#263238"/>
<path d="M364.91 47.5898V148.46H337V82.3598C332.928 85.5222 328.577 88.3071 324 90.6798C318.888 93.1459 313.579 95.1829 308.13 96.7698V74.1798C317.51 71.1465 324.793 67.5132 329.98 63.2798C335.172 59.0365 339.337 53.6723 342.16 47.5898H364.91Z" fill="#263238"/>
<path d="M311.82 174.189C311.38 174.979 311.04 175.549 310.65 176.189C310.26 176.829 309.87 177.429 309.48 178.049C308.69 179.269 307.85 180.449 307 181.629C305.286 183.995 303.446 186.269 301.49 188.439C299.499 190.667 297.357 192.755 295.08 194.689C292.714 196.74 290.144 198.543 287.41 200.069C286.55 200.571 285.65 201.003 284.72 201.359C283.748 201.73 282.744 202.011 281.72 202.199C279.895 202.515 278.037 202.602 276.19 202.459C272.994 202.181 269.854 201.453 266.86 200.299C264.097 199.246 261.422 197.975 258.86 196.499C256.342 195.062 253.935 193.437 251.66 191.639C251.016 191.117 250.579 190.382 250.426 189.567C250.273 188.752 250.415 187.909 250.825 187.189C251.236 186.468 251.889 185.917 252.669 185.633C253.448 185.35 254.302 185.352 255.08 185.639L255.26 185.709C259.969 187.592 264.83 189.067 269.79 190.119C271.976 190.575 274.209 190.76 276.44 190.669C277.311 190.632 278.173 190.474 279 190.199C279.309 190.099 279.607 189.968 279.89 189.809C280.17 189.649 280.22 189.599 280.79 189.209C284.618 186.396 288.051 183.083 291 179.359C292.57 177.439 294.1 175.449 295.55 173.359C296.29 172.359 296.99 171.289 297.7 170.249L298.7 168.689L299.64 167.219L299.8 166.969C300.79 165.456 302.328 164.384 304.091 163.979C305.854 163.574 307.705 163.866 309.256 164.796C310.808 165.726 311.939 167.22 312.414 168.966C312.888 170.711 312.668 172.572 311.8 174.159L311.82 174.189Z" fill="#FFBDA7"/>
<path d="M256.74 186.461L249.07 181.381L245.82 191.581C247.357 192.391 249.084 192.772 250.819 192.684C252.554 192.596 254.233 192.042 255.68 191.081L256.74 186.461Z" fill="#FFBDA7"/>
<path d="M242 182.911L241.4 186.161C241.291 186.737 241.348 187.332 241.564 187.877C241.78 188.422 242.146 188.895 242.62 189.241L245.79 191.581L249.04 181.381L245.96 180.481C245.54 180.357 245.099 180.323 244.664 180.381C244.23 180.439 243.813 180.587 243.44 180.816C243.067 181.045 242.746 181.35 242.498 181.71C242.25 182.071 242.08 182.48 242 182.911Z" fill="#FFBDA7"/>
<path d="M312.06 157.939C304.25 159.169 296.35 168.339 291.6 176.889C294.719 182.327 299.446 186.666 305.13 189.309C305.13 189.309 314.39 180.549 318.13 174.069C321.87 167.589 319.41 156.769 312.06 157.939Z" fill="#0069BD"/>
<path opacity="0.2" d="M312.06 157.939C304.25 159.169 296.35 168.339 291.6 176.889C294.719 182.327 299.446 186.666 305.13 189.309C305.13 189.309 314.39 180.549 318.13 174.069C321.87 167.589 319.41 156.769 312.06 157.939Z" fill="black"/>
<path d="M291.9 174.93C291.177 175.749 290.61 176.695 290.23 177.72C292.18 180.72 296.81 188.72 305.45 190.42C306.29 189.95 306.932 189.194 307.26 188.29C307.26 188.29 297.32 183.39 291.9 174.93Z" fill="#263238"/>
<path d="M343.53 157.671C334.09 156.09 324.476 155.814 314.96 156.851C307.86 157.761 302.56 164.291 302.61 171.441C302.646 178.9 303.315 186.344 304.61 193.691C302 207.441 301.06 226.131 303.81 230.251L353 230.941C355.11 225.061 352.46 199.611 355.27 173.041C355.652 169.463 354.647 165.875 352.463 163.016C350.279 160.157 347.082 158.244 343.53 157.671Z" fill="#0069BD"/>
<path opacity="0.2" d="M325 230.311C322.19 208.181 325 171.171 325 170.791L326 170.871C326 171.241 323.21 208.151 326 230.181L325 230.311Z" fill="black"/>
<path d="M319.65 157.541C321.34 156.911 320.71 155.971 320.71 155.971C320.71 155.971 313.03 155.971 307.71 157.401C306.9 158.261 307.77 159.401 307.77 159.401C307.77 159.401 314.62 159.421 319.65 157.541Z" fill="#263238"/>
<path opacity="0.2" d="M322.79 156C322.79 156 319.62 161.86 323.86 167.19C320.5 167.19 318.33 172.92 318.33 172.92C318.33 172.92 311.77 163.8 320.16 156.51C320.63 155.78 322.79 156 322.79 156Z" fill="black"/>
<path d="M319.4 158.84C318.58 162.42 325.79 169.17 325.79 169.17C325.79 169.17 338.54 163.01 339.35 159.48L319.4 158.84Z" fill="white"/>
<path opacity="0.2" d="M348.18 179.791C346.82 182.411 348.63 193.791 353.88 198.601C353.94 193.901 354.08 188.911 354.38 183.781L348.18 179.791Z" fill="black"/>
<path d="M336.69 138.25L323.53 146.89C325.09 150.71 325.82 154.69 321.32 156.53C320.742 156.762 320.247 157.162 319.898 157.678C319.55 158.194 319.363 158.802 319.363 159.425C319.363 160.048 319.55 160.656 319.898 161.172C320.247 161.688 320.742 162.088 321.32 162.32C322.646 162.802 324.033 163.095 325.44 163.19C329.67 163.6 333.934 162.911 337.82 161.19C338.229 160.986 338.589 160.694 338.874 160.337C339.16 159.979 339.364 159.564 339.472 159.119C339.581 158.675 339.591 158.212 339.503 157.763C339.414 157.314 339.229 156.89 338.96 156.52C335.51 151.64 335.93 143.16 336.69 138.25Z" fill="#FFBDA7"/>
<path opacity="0.2" d="M331.33 141.77L323.54 146.88C323.978 147.925 324.313 149.01 324.54 150.12C327.65 149.94 331.71 147.48 331.79 144.91C331.867 143.842 331.71 142.77 331.33 141.77Z" fill="black"/>
<path d="M322.08 121.77C325.43 121.7 326.34 126.51 325.08 128.14C327.62 128.69 328.85 131.66 328.08 133.14C327.31 134.62 324.37 136.29 321.75 135.63C317.26 134.51 316.49 130.78 317.75 129.08C315.35 127.1 316.57 121 322.08 121.77Z" fill="#263238"/>
<path opacity="0.2" d="M322.08 121.77C325.43 121.7 326.34 126.51 325.08 128.14C327.62 128.69 328.85 131.66 328.08 133.14C327.31 134.62 324.37 136.29 321.75 135.63C317.26 134.51 316.49 130.78 317.75 129.08C315.35 127.1 316.57 121 322.08 121.77Z" fill="white"/>
<path d="M341 129.7C340 137.59 339.81 142.26 335.54 146.04C329.11 151.71 319.54 147.35 318.18 139.29C316.94 132.04 318.79 120.35 326.76 117.77C328.526 117.208 330.405 117.101 332.223 117.46C334.041 117.818 335.739 118.63 337.16 119.82C338.58 121.01 339.677 122.54 340.348 124.267C341.02 125.994 341.244 127.863 341 129.7Z" fill="#FFBDA7"/>
<path d="M340.05 135.731C336.7 135.731 335.96 130.851 337.24 129.271C334.72 128.621 333.6 125.611 334.38 124.131C335.16 122.651 338.19 121.131 340.79 121.861C345.24 123.141 345.89 126.861 344.6 128.551C347 130.651 345.53 136.671 340.05 135.731Z" fill="#263238"/>
<path opacity="0.2" d="M340.05 135.731C336.7 135.731 335.96 130.851 337.24 129.271C334.72 128.621 333.6 125.611 334.38 124.131C335.16 122.651 338.19 121.131 340.79 121.861C345.24 123.141 345.89 126.861 344.6 128.551C347 130.651 345.53 136.671 340.05 135.731Z" fill="white"/>
<path opacity="0.2" d="M332 131C332.402 130.89 332.822 130.861 333.236 130.915C333.649 130.968 334.048 131.102 334.41 131.31C333.594 131.362 332.776 131.256 332 131Z" fill="black"/>
<path opacity="0.2" d="M332 131.539C332.381 131.518 332.762 131.58 333.116 131.722C333.47 131.864 333.789 132.081 334.05 132.359C333.317 132.233 332.618 131.953 332 131.539Z" fill="black"/>
<path opacity="0.2" d="M319.47 130.389C319.378 130.335 319.276 130.3 319.17 130.286C319.064 130.272 318.957 130.28 318.854 130.309C318.751 130.338 318.655 130.387 318.572 130.455C318.489 130.522 318.42 130.605 318.37 130.699C318.763 130.745 319.159 130.634 319.47 130.389Z" fill="black"/>
<path opacity="0.2" d="M319.48 131.001C319.48 131.001 318.87 130.911 318.55 131.821C318.933 131.642 319.256 131.358 319.48 131.001Z" fill="black"/>
<path d="M343.38 137.741C342.462 139.391 340.955 140.634 339.16 141.221C336.88 141.881 335.97 139.601 336.79 137.221C337.54 135.091 339.61 132.171 341.79 132.561C343.97 132.951 344.58 135.631 343.38 137.741Z" fill="#FFBDA7"/>
<path d="M330.4 131.001C330.4 131.641 329.99 132.141 329.56 132.111C329.13 132.081 328.83 131.531 328.88 130.881C328.93 130.231 329.29 129.741 329.72 129.771C330.15 129.801 330.45 130.371 330.4 131.001Z" fill="#263238"/>
<path d="M327.2 142.749C326.38 142.909 325.63 142.589 325.53 142.049C325.43 141.509 326.03 140.949 326.85 140.789C327.67 140.629 328.42 140.949 328.52 141.489C328.62 142.029 328 142.599 327.2 142.749Z" fill="#263238"/>
<path d="M321.65 130.309C321.65 130.949 321.23 131.449 320.81 131.419C320.39 131.389 320.07 130.839 320.12 130.189C320.17 129.539 320.54 129.049 320.96 129.079C321.38 129.109 321.69 129.659 321.65 130.309Z" fill="#263238"/>
<path d="M323.64 136.75C318.96 137.07 318.06 139.35 318.88 140.35C319.7 141.35 321.7 140.35 321.7 140.35C321.7 140.35 325.49 141.16 326.6 139.95C328.39 140.71 331.12 139.29 330.35 138.21C329.58 137.13 327.65 136.47 323.64 136.75Z" fill="#263238"/>
<path opacity="0.2" d="M323.64 136.75C318.96 137.07 318.06 139.35 318.88 140.35C319.7 141.35 321.7 140.35 321.7 140.35C321.7 140.35 325.49 141.16 326.6 139.95C328.39 140.71 331.12 139.29 330.35 138.21C329.58 137.13 327.65 136.47 323.64 136.75Z" fill="white"/>
<path d="M323.78 131C322.881 132.915 321.72 134.695 320.33 136.29C320.75 136.637 321.24 136.89 321.766 137.029C322.293 137.169 322.843 137.193 323.38 137.1L323.78 131Z" fill="#FFCC90"/>
<path d="M331.81 127.64C331.874 127.632 331.935 127.612 331.99 127.58C332.033 127.552 332.069 127.517 332.097 127.475C332.126 127.434 332.146 127.387 332.156 127.338C332.166 127.288 332.167 127.238 332.157 127.188C332.147 127.139 332.128 127.092 332.1 127.05C331.781 126.532 331.342 126.099 330.819 125.787C330.297 125.476 329.707 125.295 329.1 125.26C328.999 125.26 328.903 125.3 328.832 125.371C328.76 125.442 328.72 125.539 328.72 125.64C328.72 125.741 328.76 125.837 328.832 125.908C328.903 125.98 328.999 126.02 329.1 126.02C329.579 126.054 330.041 126.203 330.45 126.454C330.859 126.704 331.202 127.049 331.45 127.46C331.487 127.52 331.541 127.57 331.604 127.601C331.668 127.633 331.739 127.646 331.81 127.64Z" fill="#263238"/>
<path d="M318.78 126.89C318.843 126.889 318.905 126.873 318.96 126.843C319.016 126.814 319.064 126.772 319.1 126.72C319.356 126.32 319.703 125.986 320.114 125.746C320.524 125.506 320.986 125.367 321.46 125.34C321.561 125.34 321.658 125.3 321.729 125.229C321.8 125.158 321.84 125.061 321.84 124.96C321.84 124.859 321.8 124.763 321.729 124.691C321.658 124.62 321.561 124.58 321.46 124.58C320.859 124.604 320.272 124.773 319.749 125.073C319.227 125.372 318.785 125.793 318.46 126.3C318.432 126.341 318.413 126.387 318.404 126.436C318.394 126.485 318.395 126.535 318.405 126.583C318.415 126.632 318.435 126.678 318.464 126.718C318.492 126.759 318.528 126.794 318.57 126.82C318.63 126.867 318.704 126.892 318.78 126.89Z" fill="#263238"/>
<path d="M331.69 311.8C333.93 275.72 333.43 238.7 329.54 230.64L303.79 230.25C303.79 230.25 307 290.57 308 314.6C309.05 339.6 311.29 404.6 311.29 404.6L326.19 404.78C326.19 404.78 334.93 339.71 331.69 311.8Z" fill="#263238"/>
<path opacity="0.2" d="M332.8 256.65C324.01 266.25 328.12 292.83 331.95 307.47C333 289.16 333.28 270.93 332.8 256.65Z" fill="black"/>
<path d="M326 406.661L312.9 406.491C312.071 406.449 311.252 406.692 310.58 407.181C306.78 410.181 303.89 410.271 299.58 411.041C294.41 411.971 296.97 417.171 300.78 417.231C307.08 417.331 306.55 417.101 311.93 417.181L315.65 417.231L317.33 415.521L318.82 417.231H325.7C325.879 417.235 326.056 417.201 326.221 417.131C326.385 417.061 326.533 416.956 326.654 416.825C326.775 416.693 326.867 416.538 326.923 416.368C326.979 416.198 326.999 416.019 326.98 415.841L326 406.661Z" fill="#263238"/>
<path d="M327 408.001C326.77 408.001 309.81 407.461 309.81 407.461L309.12 401.371L327.93 401.791L327 408.001Z" fill="#0069BD"/>
<path d="M361.93 311.801C359.17 275.721 358 239.001 353 230.941L321.95 230.541C321.95 230.541 334.3 290.541 338.64 314.601C343.15 339.601 355.29 404.601 355.29 404.601L370.22 404.781C370.22 404.781 369 339.711 361.93 311.801Z" fill="#263238"/>
<path d="M370.93 406.661L357.82 406.491C356.994 406.45 356.179 406.694 355.51 407.181C351.71 410.181 353.45 410.271 349.14 411.041C343.97 411.971 346.52 417.171 350.33 417.231C356.63 417.331 356.11 417.101 361.48 417.181L367.32 417.231L368.09 415.521L369.09 417.231H370.63C370.806 417.23 370.98 417.193 371.141 417.121C371.302 417.049 371.446 416.944 371.564 416.813C371.681 416.682 371.77 416.528 371.825 416.361C371.879 416.193 371.898 416.016 371.88 415.841L370.93 406.661Z" fill="#263238"/>
<path d="M371.92 408C371.68 408 354.65 407.46 354.65 407.46L353 401.33L371.87 401.75L371.92 408Z" fill="#0069BD"/>
<path d="M323.31 155.289C323.31 155.289 319.62 161.859 323.86 167.189C320.5 167.189 318.3 170.829 318.3 170.829C318.3 170.829 313.83 161.829 320.44 155.829C320.9 155.149 323.31 155.289 323.31 155.289Z" fill="#0069BD"/>
<path d="M354.33 233.68C336.76 234.41 316.61 234.63 304.01 233.68C303.941 233.677 303.873 233.659 303.813 233.626C303.752 233.593 303.7 233.546 303.66 233.49C302.834 232.09 302.453 230.472 302.57 228.85C302.58 228.731 302.635 228.62 302.725 228.54C302.814 228.46 302.93 228.417 303.05 228.42C319.68 228.87 336.21 228.85 353.59 228.42C353.685 228.418 353.779 228.445 353.859 228.497C353.939 228.548 354.002 228.623 354.04 228.71C354.621 230.15 354.874 231.701 354.78 233.25C354.772 233.365 354.722 233.473 354.639 233.553C354.555 233.632 354.445 233.678 354.33 233.68Z" fill="#263238"/>
<path opacity="0.2" d="M354.33 233.68C336.76 234.41 316.61 234.63 304.01 233.68C303.941 233.677 303.873 233.659 303.813 233.626C303.752 233.593 303.7 233.546 303.66 233.49C302.834 232.09 302.453 230.472 302.57 228.85C302.58 228.731 302.635 228.62 302.725 228.54C302.814 228.46 302.93 228.417 303.05 228.42C319.68 228.87 336.21 228.85 353.59 228.42C353.685 228.418 353.779 228.445 353.859 228.497C353.939 228.548 354.002 228.623 354.04 228.71C354.621 230.15 354.874 231.701 354.78 233.25C354.772 233.365 354.722 233.473 354.639 233.553C354.555 233.632 354.445 233.678 354.33 233.68Z" fill="black"/>
<path d="M320 228.14C319.792 230.351 319.971 232.581 320.53 234.73C324.34 235.32 332.16 234.88 332.16 234.88C332.273 232.664 332.193 230.442 331.92 228.24C325.92 228 320 228.14 320 228.14Z" fill="white"/>
<path d="M355.13 167.719L355.7 168.229L356.15 168.649L357 169.469C357.55 170.009 358.05 170.549 358.56 171.099C359.56 172.189 360.51 173.319 361.41 174.459C363.208 176.717 364.878 179.074 366.41 181.519C369.396 186.35 371.917 191.453 373.94 196.759C374.21 197.469 374.42 197.899 374.8 199.109C375.101 200.088 375.315 201.092 375.44 202.109C375.624 203.889 375.601 205.685 375.37 207.459C374.94 210.517 374.134 213.509 372.97 216.369C371.906 219.024 370.656 221.6 369.23 224.079C367.834 226.515 366.273 228.854 364.56 231.079C364.051 231.732 363.327 232.184 362.516 232.353C361.705 232.522 360.86 232.399 360.132 232.004C359.404 231.609 358.84 230.969 358.539 230.198C358.238 229.426 358.221 228.572 358.49 227.789L358.55 227.619C360.285 222.924 361.698 218.116 362.78 213.229C363.271 211.046 363.526 208.817 363.54 206.579C363.542 205.712 363.435 204.849 363.22 204.009C362.975 203.248 362.639 202.52 362.22 201.839C360.015 197.418 357.513 193.152 354.73 189.069C353.36 187.069 351.9 185.069 350.4 183.249C349.65 182.309 348.87 181.419 348.1 180.539L346.94 179.269L346.38 178.679L346.12 178.409L345.95 178.249C344.549 177.031 343.688 175.305 343.559 173.452C343.43 171.599 344.042 169.771 345.26 168.369C346.479 166.968 348.204 166.107 350.057 165.978C351.91 165.849 353.739 166.461 355.14 167.679L355.13 167.719Z" fill="#FFBDA7"/>
<path d="M346.51 159.06C354.3 160.41 362.06 169.69 366.69 178.31C363.497 183.698 358.715 187.967 353 190.53C353 190.53 343.86 181.63 340.21 175.11C336.56 168.59 339.18 157.79 346.51 159.06Z" fill="#0069BD"/>
<path d="M366.42 176.34C367.129 177.174 367.681 178.129 368.05 179.16C366.05 182.16 361.31 190.09 352.64 191.64C351.81 191.156 351.181 190.389 350.87 189.48C350.87 189.48 360.88 184.72 366.42 176.34Z" fill="#263238"/>
<path d="M340.87 158.36C339.26 157.67 339.87 156.76 339.87 156.76C339.87 156.76 347.28 157.02 352.35 158.63C353.1 159.52 352.22 160.63 352.22 160.63C352.22 160.63 345.65 160.41 340.87 158.36Z" fill="#263238"/>
<path opacity="0.2" d="M338.93 156.559C338.93 156.559 337.25 162.419 329.57 167.199C332.93 167.199 335.18 173.329 335.18 173.329C335.18 173.329 342.18 165.109 340.56 156.999C340.09 156.279 338.93 156.559 338.93 156.559Z" fill="black"/>
<path d="M338.71 155.5C338.71 155.5 336.71 161.84 329.57 167.2C332.93 167.2 335.26 170.83 335.26 170.83C335.26 170.83 342.14 165.11 340.56 157C340.037 156.394 339.411 155.887 338.71 155.5Z" fill="#0069BD"/>
<path d="M345.91 179.569C345.45 188.209 339.98 190.269 339.21 190.269C338.44 190.269 333.21 188.209 333.67 179.569L339.92 177.109L345.91 179.569Z" fill="white"/>
<path d="M359.37 227.1L353.21 232.4L361.38 237.71C361.38 237.71 366.38 232.23 363.9 229.11L359.37 227.1Z" fill="#FFBDA7"/>
<path d="M352.52 240.81L355.69 242.18C356.302 242.447 356.988 242.487 357.627 242.295C358.267 242.103 358.817 241.69 359.18 241.13L361.38 237.71L353.21 232.4L351.08 237.05C350.924 237.391 350.838 237.76 350.826 238.135C350.814 238.509 350.877 238.883 351.011 239.233C351.145 239.583 351.347 239.903 351.607 240.174C351.866 240.444 352.176 240.661 352.52 240.81Z" fill="#FFBDA7"/>
<path d="M317.7 120.131C312.21 120.881 314.05 122.621 326.29 124.181C338.53 125.741 341.6 124.511 341.6 124.511C341.6 124.511 327.54 120.101 317.7 120.131Z" fill="#263238"/>
<path d="M345.39 126.89C345.39 126.89 334.64 122.52 317.7 120.13C317.49 117.64 319.54 115 319.54 115C319.54 115 315.76 113.11 316.93 109.5C318.1 105.89 323.51 106.36 329.82 103.5C332.13 106.04 338.48 110.17 342.82 110.7C343.89 112.91 346.69 118.44 351.23 120.57C351.16 122.98 346.65 123.57 346.65 123.57C346.671 124.179 346.57 124.787 346.354 125.356C346.137 125.926 345.81 126.448 345.39 126.89Z" fill="#0069BD"/>
<path opacity="0.3" d="M346.64 123.569C342.71 119.999 328.75 113.479 319.54 114.999C319.54 114.999 317.49 117.649 317.7 120.129C334.64 122.519 345.39 126.889 345.39 126.889C345.808 126.446 346.133 125.925 346.348 125.355C346.563 124.785 346.662 124.178 346.64 123.569Z" fill="black"/>
<path d="M331.44 110.841C330.23 117.001 326.03 118.111 325.44 118.051C324.85 117.991 321.25 116.171 322.44 110.051L327.27 108.711L331.44 110.841Z" fill="white"/>
<path d="M251.75 211.78C251.14 211.779 250.55 211.555 250.093 211.15C249.636 210.745 249.344 210.186 249.27 209.58L242.13 151.39C242.049 150.727 242.235 150.059 242.647 149.533C243.059 149.007 243.662 148.666 244.325 148.585C244.988 148.504 245.656 148.69 246.182 149.102C246.708 149.513 247.049 150.117 247.13 150.78L254.23 209C254.272 209.326 254.249 209.657 254.163 209.974C254.076 210.291 253.928 210.587 253.726 210.847C253.525 211.106 253.273 211.323 252.988 211.485C252.702 211.647 252.387 211.75 252.06 211.79L251.75 211.78Z" fill="#263238"/>
<path d="M250.16 185.6C249.55 183.36 250.7 183.03 249.59 179.85C249 178.16 250.94 176.85 251.18 178.21C252.08 183.16 258.65 185.93 256.37 189.06C254.09 192.19 250.76 187.84 250.16 185.6Z" fill="#FFBDA7"/>
<path d="M294.729 101.786C296.69 70.5278 272.94 43.5979 241.681 41.6367C210.423 39.6756 183.493 63.4259 181.531 94.6845C179.57 125.943 203.321 152.873 234.579 154.834C265.838 156.795 292.768 133.045 294.729 101.786Z" fill="#0069BD"/>
<path d="M281.286 113.521C289.734 89.6788 277.254 63.5026 253.412 55.0549C229.57 46.6072 203.393 59.087 194.946 82.9293C186.498 106.772 198.978 132.948 222.82 141.395C246.663 149.843 272.839 137.363 281.286 113.521Z" fill="white"/>
<path d="M267.87 90.4909C264.11 85.4109 256.87 90.4909 254.7 95.8309C254.111 97.1557 253.723 98.5613 253.55 100.001L251.16 83.6909L249.27 68.2309C249.071 66.9043 248.362 65.7077 247.294 64.8958C246.226 64.0839 244.884 63.7207 243.552 63.8836C242.22 64.0465 241.005 64.7225 240.164 65.7678C239.323 66.8132 238.924 68.1454 239.05 69.4809L238.58 65.6309C238.497 64.9605 238.283 64.313 237.95 63.7253C237.617 63.1376 237.172 62.6212 236.639 62.2057C236.107 61.7901 235.498 61.4835 234.847 61.3034C234.196 61.1233 233.515 61.0732 232.845 61.1559C232.175 61.2386 231.527 61.4526 230.939 61.7856C230.352 62.1186 229.835 62.5641 229.42 63.0966C229.004 63.6292 228.698 64.2383 228.518 64.8894C228.337 65.5404 228.287 66.2205 228.37 66.8909L229.03 72.2509C228.94 71.5255 228.697 70.8274 228.317 70.2031C227.937 69.5788 227.428 69.0426 226.825 68.6302C226.221 68.2178 225.537 67.9385 224.817 67.8111C224.097 67.6836 223.359 67.7108 222.65 67.8909C221.437 68.2022 220.379 68.9439 219.672 69.978C218.965 71.012 218.659 72.2677 218.81 73.5109L219.63 80.2009C219.542 79.4748 219.3 78.7758 218.92 78.1506C218.54 77.5255 218.031 76.9887 217.428 76.576C216.824 76.1632 216.139 75.8842 215.418 75.7574C214.698 75.6307 213.959 75.6591 213.25 75.8409C212.039 76.1502 210.981 76.8904 210.276 77.9231C209.571 78.9557 209.267 80.21 209.42 81.4509L211.06 94.8209L212.23 104.411L213.78 117.001C214.88 126.001 218.39 131.081 223.6 133.371C231.6 136.881 246.25 136.921 252.83 131.581C258.59 126.911 262.29 115.661 263.18 108.691C264.07 101.721 269.4 92.5409 267.87 90.4909Z" fill="#263238"/>
<path d="M276.513 58.7445L267.176 51.4473L199.728 137.746L209.064 145.044L276.513 58.7445Z" fill="#0069BD"/>
<path d="M80.4399 181.081V162.881H93.6099V165.001H82.8499V170.581H92.9199V172.721H82.8499V178.911H93.9999V181.061L80.4399 181.081Z" fill="#263238"/>
<path d="M97.0503 181.08V167.89H99.0503V169.89C99.3873 169.18 99.8713 168.549 100.47 168.04C100.888 167.744 101.388 167.587 101.9 167.59C102.72 167.613 103.517 167.866 104.2 168.32L103.43 170.39C102.937 170.084 102.37 169.918 101.79 169.91C101.316 169.902 100.854 170.058 100.48 170.35C100.079 170.658 99.7847 171.085 99.6403 171.57C99.3887 172.417 99.264 173.296 99.2703 174.18V181.08H97.0503Z" fill="#263238"/>
<path d="M105.52 181.081V167.891H107.52V169.891C107.87 169.16 108.375 168.515 109 168.001C109.419 167.706 109.918 167.549 110.43 167.551C111.25 167.573 112.047 167.826 112.73 168.281L111.96 170.351C111.467 170.045 110.9 169.879 110.32 169.871C109.846 169.863 109.383 170.018 109.01 170.311C108.608 170.619 108.314 171.046 108.17 171.531C107.918 172.378 107.794 173.257 107.8 174.141V181.041L105.52 181.081Z" fill="#263238"/>
<path d="M113.18 174.492C113.18 172.052 113.847 170.242 115.18 169.062C116.33 168.074 117.806 167.55 119.32 167.592C120.146 167.562 120.969 167.707 121.735 168.015C122.501 168.323 123.195 168.789 123.77 169.382C124.369 170.047 124.83 170.825 125.126 171.669C125.423 172.513 125.55 173.408 125.5 174.302C125.562 175.677 125.298 177.048 124.73 178.302C124.234 179.261 123.46 180.048 122.51 180.562C121.535 181.103 120.436 181.382 119.32 181.372C118.493 181.405 117.668 181.265 116.898 180.96C116.128 180.655 115.43 180.192 114.85 179.602C113.645 178.183 113.046 176.348 113.18 174.492ZM115.48 174.492C115.379 175.846 115.769 177.192 116.58 178.282C116.927 178.677 117.353 178.993 117.832 179.21C118.31 179.427 118.83 179.539 119.355 179.539C119.881 179.539 120.4 179.427 120.879 179.21C121.357 178.993 121.784 178.677 122.13 178.282C122.953 177.167 123.347 175.793 123.24 174.412C123.335 173.084 122.94 171.768 122.13 170.712C121.783 170.318 121.356 170.003 120.878 169.787C120.399 169.571 119.88 169.459 119.355 169.459C118.83 169.459 118.311 169.571 117.833 169.787C117.354 170.003 116.927 170.318 116.58 170.712C115.771 171.799 115.381 173.14 115.48 174.492Z" fill="#263238"/>
<path d="M128.13 181.08V167.89H130.13V169.89C130.464 169.177 130.948 168.546 131.55 168.04C131.968 167.744 132.468 167.587 132.98 167.59C133.8 167.613 134.597 167.866 135.28 168.32L134.51 170.39C134.017 170.085 133.45 169.919 132.87 169.91C132.393 169.902 131.928 170.057 131.55 170.35C131.152 170.659 130.861 171.086 130.72 171.57C130.464 172.416 130.339 173.296 130.35 174.18V181.08H128.13Z" fill="#263238"/>
<path d="M88.7502 203.69V201.75C88.3045 202.454 87.6846 203.031 86.9506 203.425C86.2165 203.819 85.3932 204.017 84.5602 204C83.8131 204.006 83.0734 203.852 82.3902 203.55C81.797 203.316 81.2761 202.93 80.8802 202.43C80.5418 201.928 80.3072 201.364 80.1902 200.77C80.0842 200.079 80.0407 199.379 80.0602 198.68V190.5H82.2902V197.81C82.2651 198.599 82.3119 199.389 82.4302 200.17C82.5507 200.725 82.8665 201.218 83.3202 201.56C83.8156 201.903 84.4079 202.078 85.0102 202.06C85.6744 202.062 86.327 201.886 86.9002 201.55C87.4602 201.23 87.8995 200.734 88.1502 200.14C88.4264 199.313 88.5484 198.441 88.5102 197.57V190.5H90.7502V203.69H88.7502Z" fill="#263238"/>
<path d="M94.25 203.692V190.502H96.25V192.372C96.7004 191.675 97.3249 191.109 98.0616 190.728C98.7982 190.348 99.6216 190.166 100.45 190.202C101.202 190.19 101.948 190.337 102.64 190.632C103.233 190.861 103.751 191.249 104.14 191.752C104.482 192.253 104.72 192.817 104.84 193.412C104.94 194.13 104.98 194.856 104.96 195.582V203.692H102.73V195.692C102.757 195.014 102.665 194.338 102.46 193.692C102.285 193.237 101.961 192.857 101.54 192.612C101.068 192.335 100.527 192.196 99.98 192.212C99.0738 192.196 98.194 192.517 97.51 193.112C96.82 193.722 96.51 194.872 96.51 196.562V203.762L94.25 203.692Z" fill="#263238"/>
<path d="M117 202.061C116.292 202.693 115.48 203.197 114.6 203.551C113.814 203.847 112.98 203.997 112.14 203.991C110.931 204.069 109.738 203.687 108.8 202.921C108.418 202.583 108.116 202.165 107.913 201.696C107.711 201.228 107.615 200.721 107.63 200.211C107.624 199.61 107.767 199.017 108.046 198.485C108.326 197.953 108.732 197.498 109.23 197.161C109.721 196.825 110.266 196.575 110.84 196.421C111.5 196.273 112.168 196.163 112.84 196.091C114.196 195.967 115.535 195.709 116.84 195.321C116.84 195.011 116.84 194.821 116.84 194.731C116.877 194.385 116.84 194.034 116.731 193.703C116.623 193.372 116.445 193.068 116.21 192.811C115.483 192.252 114.575 191.981 113.66 192.051C112.845 191.992 112.032 192.184 111.33 192.601C110.739 193.118 110.346 193.826 110.22 194.601L108.04 194.301C108.188 193.478 108.531 192.703 109.04 192.041C109.564 191.414 110.259 190.952 111.04 190.711C112.005 190.382 113.02 190.223 114.04 190.241C114.973 190.209 115.905 190.344 116.79 190.641C117.385 190.834 117.919 191.178 118.34 191.641C118.692 192.084 118.933 192.605 119.04 193.161C119.13 193.844 119.167 194.533 119.15 195.221V198.221C119.116 199.556 119.163 200.892 119.29 202.221C119.393 202.775 119.585 203.309 119.86 203.801H117.52C117.235 203.26 117.059 202.669 117 202.061ZM116.81 197.061C115.629 197.479 114.405 197.761 113.16 197.901C112.478 197.97 111.806 198.121 111.16 198.351C110.8 198.5 110.493 198.754 110.28 199.081C110.073 199.395 109.965 199.765 109.97 200.141C109.965 200.423 110.022 200.704 110.138 200.961C110.254 201.219 110.425 201.448 110.64 201.631C111.209 202.073 111.922 202.287 112.64 202.231C113.443 202.246 114.236 202.049 114.94 201.661C115.583 201.311 116.1 200.769 116.42 200.111C116.697 199.402 116.819 198.641 116.78 197.881L116.81 197.061Z" fill="#263238"/>
<path d="M131.19 203.69V201.75C130.745 202.454 130.125 203.031 129.391 203.425C128.657 203.819 127.833 204.017 127 204C126.25 204.005 125.507 203.851 124.82 203.55C124.231 203.313 123.714 202.927 123.32 202.43C122.974 201.933 122.738 201.366 122.63 200.77C122.52 200.079 122.473 199.379 122.49 198.68V190.5H124.73V197.81C124.705 198.599 124.752 199.389 124.87 200.17C124.991 200.725 125.307 201.218 125.76 201.56C126.256 201.903 126.848 202.078 127.45 202.06C128.115 202.062 128.767 201.886 129.34 201.55C129.9 201.23 130.34 200.734 130.59 200.14C130.867 199.313 130.989 198.441 130.95 197.57V190.5H133.19V203.69H131.19Z" fill="#263238"/>
<path d="M141.57 201.691L141.9 203.691C141.346 203.818 140.779 203.885 140.21 203.891C139.558 203.924 138.908 203.793 138.32 203.511C137.905 203.287 137.572 202.936 137.37 202.511C137.135 201.655 137.043 200.766 137.1 199.881V192.291H135.46V190.501H137.1V187.231L139.32 185.891V190.501H141.57V192.241H139.32V200.001C139.293 200.414 139.333 200.83 139.44 201.231C139.519 201.413 139.656 201.564 139.83 201.661C140.063 201.786 140.326 201.844 140.59 201.831C140.92 201.807 141.247 201.761 141.57 201.691Z" fill="#263238"/>
<path d="M143.76 203.69V185.48H146V192C146.48 191.421 147.084 190.957 147.768 190.644C148.452 190.331 149.198 190.176 149.95 190.19C150.835 190.167 151.712 190.366 152.5 190.77C153.178 191.115 153.723 191.674 154.05 192.36C154.409 193.318 154.566 194.339 154.51 195.36V203.72H152.28V195.36C152.355 194.484 152.094 193.612 151.55 192.92C151.279 192.657 150.955 192.453 150.601 192.322C150.246 192.192 149.868 192.136 149.49 192.16C148.833 192.16 148.187 192.336 147.62 192.67C147.064 192.987 146.628 193.48 146.38 194.07C146.097 194.848 145.968 195.673 146 196.5V203.72L143.76 203.69Z" fill="#263238"/>
<path d="M157.07 197.091C157.07 194.651 157.737 192.845 159.07 191.671C160.223 190.683 161.702 190.159 163.22 190.201C164.051 190.171 164.879 190.315 165.651 190.626C166.423 190.936 167.121 191.404 167.7 192.001C168.3 192.668 168.761 193.447 169.058 194.293C169.355 195.139 169.481 196.036 169.43 196.931C169.491 198.306 169.231 199.675 168.67 200.931C168.174 201.896 167.396 202.688 166.44 203.201C165.468 203.742 164.372 204.021 163.26 204.011C162.43 204.046 161.602 203.905 160.83 203.599C160.058 203.292 159.36 202.826 158.78 202.231C157.552 200.812 156.937 198.963 157.07 197.091ZM159.37 197.091C159.269 198.449 159.659 199.798 160.47 200.891C160.812 201.296 161.24 201.618 161.723 201.836C162.205 202.054 162.731 202.162 163.26 202.151C163.787 202.161 164.31 202.052 164.79 201.833C165.27 201.613 165.693 201.287 166.03 200.881C166.847 199.768 167.237 198.398 167.13 197.021C167.226 195.69 166.831 194.371 166.02 193.311C165.674 192.916 165.247 192.599 164.768 192.383C164.29 192.166 163.77 192.053 163.245 192.053C162.72 192.053 162.2 192.166 161.722 192.383C161.243 192.599 160.816 192.916 160.47 193.311C159.657 194.396 159.266 195.74 159.37 197.091Z" fill="#263238"/>
<path d="M172 203.691V190.501H174V192.501C174.331 191.787 174.816 191.155 175.42 190.651C175.838 190.355 176.338 190.198 176.85 190.201C177.669 190.22 178.466 190.47 179.15 190.921L178.38 193.001C177.89 192.688 177.322 192.518 176.74 192.511C176.266 192.507 175.805 192.662 175.43 192.951C175.031 193.261 174.737 193.688 174.59 194.171C174.339 195.018 174.215 195.898 174.22 196.781V203.691H172Z" fill="#263238"/>
<path d="M180.53 188.05V185.48H182.77V188.05H180.53ZM180.53 203.69V190.5H182.77V203.69H180.53Z" fill="#263238"/>
<path d="M185 203.69V201.88L193.4 192.24C192.4 192.24 191.6 192.31 190.88 192.31H185.5V190.5H196.28V192L189.14 200.37L187.76 201.9C188.76 201.82 189.7 201.78 190.58 201.78H196.68V203.71L185 203.69Z" fill="#263238"/>
<path d="M207.92 199.441L210.23 199.731C209.936 200.974 209.232 202.08 208.23 202.871C207.131 203.651 205.806 204.045 204.46 203.991C203.612 204.035 202.764 203.898 201.973 203.589C201.182 203.281 200.465 202.808 199.87 202.201C198.667 200.824 198.056 199.027 198.17 197.201C198.055 195.321 198.671 193.468 199.89 192.031C200.454 191.424 201.143 190.945 201.909 190.627C202.675 190.31 203.501 190.161 204.33 190.191C205.138 190.164 205.943 190.31 206.691 190.621C207.438 190.932 208.109 191.399 208.66 191.991C209.847 193.404 210.445 195.22 210.33 197.061C210.33 197.191 210.33 197.391 210.33 197.661H200.49C200.494 198.879 200.93 200.055 201.72 200.981C202.073 201.357 202.501 201.655 202.977 201.855C203.452 202.055 203.964 202.152 204.48 202.141C205.232 202.161 205.97 201.933 206.58 201.491C207.216 200.952 207.681 200.24 207.92 199.441ZM200.58 195.831H207.94C207.916 194.933 207.623 194.062 207.1 193.331C206.769 192.917 206.347 192.585 205.867 192.361C205.386 192.137 204.86 192.028 204.33 192.041C203.853 192.025 203.378 192.105 202.933 192.277C202.488 192.449 202.082 192.709 201.74 193.041C201.01 193.788 200.594 194.787 200.58 195.831Z" fill="#263238"/>
<path d="M221.59 203.69V202C221.213 202.636 220.671 203.157 220.021 203.51C219.372 203.862 218.639 204.031 217.9 204C216.868 204.005 215.859 203.702 215 203.13C214.103 202.528 213.392 201.686 212.95 200.7C212.452 199.574 212.206 198.352 212.23 197.12C212.214 195.892 212.438 194.672 212.89 193.53C213.279 192.519 213.98 191.657 214.89 191.07C215.764 190.5 216.787 190.201 217.83 190.21C218.571 190.198 219.303 190.37 219.96 190.71C220.554 191.03 221.069 191.478 221.47 192.02V185.49H223.7V203.7L221.59 203.69ZM214.53 197.11C214.425 198.456 214.8 199.795 215.59 200.89C215.888 201.276 216.27 201.59 216.706 201.808C217.142 202.027 217.622 202.143 218.11 202.15C218.589 202.153 219.062 202.046 219.494 201.838C219.925 201.63 220.304 201.326 220.6 200.95C221.358 199.888 221.712 198.59 221.6 197.29C221.731 195.882 221.379 194.471 220.6 193.29C220.299 192.894 219.911 192.573 219.465 192.352C219.019 192.132 218.528 192.018 218.03 192.02C217.549 192.016 217.073 192.123 216.641 192.335C216.208 192.547 215.831 192.857 215.54 193.24C214.771 194.377 214.414 195.743 214.53 197.11Z" fill="#263238"/>
</svg>
