<svg width="500" height="500" viewBox="0 0 500 500" fill="none" xmlns="http://www.w3.org/2000/svg">
<path d="M500 382.4H0V382.65H500V382.4Z" fill="#EBEBEB"/>
<path d="M85.58 391.92H52.46V392.17H85.58V391.92Z" fill="#EBEBEB"/>
<path d="M179.83 389.211H145.33V389.461H179.83V389.211Z" fill="#EBEBEB"/>
<path d="M131.5 396.75H76.0801V397H131.5V396.75Z" fill="#EBEBEB"/>
<path d="M448.83 397.67H405.64V397.92H448.83V397.67Z" fill="#EBEBEB"/>
<path d="M393.33 391.42H370.43V391.67H393.33V391.42Z" fill="#EBEBEB"/>
<path d="M289.31 395.43H195.63V395.68H289.31V395.43Z" fill="#EBEBEB"/>
<path d="M237 337.8H43.91C42.3973 337.797 40.9475 337.195 39.8788 336.124C38.8102 335.053 38.21 333.603 38.21 332.09V60.66C38.2231 59.156 38.8292 57.718 39.8964 56.6582C40.9637 55.5985 42.4059 55.0026 43.91 55H237C238.514 55 239.967 55.6016 241.038 56.6724C242.108 57.7433 242.71 59.1956 242.71 60.71V332.09C242.71 333.604 242.108 335.057 241.038 336.128C239.967 337.198 238.514 337.8 237 337.8ZM43.91 55.2C42.4636 55.2026 41.0774 55.7791 40.0556 56.8027C39.0338 57.8264 38.46 59.2136 38.46 60.66V332.09C38.46 333.536 39.0338 334.924 40.0556 335.947C41.0774 336.971 42.4636 337.547 43.91 337.55H237C238.447 337.547 239.834 336.971 240.858 335.948C241.881 334.924 242.457 333.537 242.46 332.09V60.66C242.457 59.2127 241.881 57.8255 240.858 56.8021C239.834 55.7787 238.447 55.2026 237 55.2H43.91Z" fill="#EBEBEB"/>
<path d="M453.31 337.8H260.21C258.696 337.797 257.246 337.195 256.175 336.125C255.105 335.054 254.503 333.604 254.5 332.09V60.66C254.516 59.1551 255.124 57.7171 256.193 56.6576C257.262 55.5981 258.705 55.0025 260.21 55H453.31C454.812 55.0052 456.252 55.6022 457.317 56.6617C458.382 57.7212 458.987 59.1578 459 60.66V332.09C459 333.601 458.401 335.05 457.335 336.121C456.268 337.191 454.821 337.795 453.31 337.8ZM260.21 55.2C258.763 55.2026 257.375 55.7787 256.352 56.8021C255.329 57.8255 254.753 59.2127 254.75 60.66V332.09C254.753 333.537 255.329 334.924 256.352 335.948C257.375 336.971 258.763 337.547 260.21 337.55H453.31C454.757 337.547 456.145 336.971 457.168 335.948C458.191 334.924 458.767 333.537 458.77 332.09V60.66C458.767 59.2127 458.191 57.8255 457.168 56.8021C456.145 55.7787 454.757 55.2026 453.31 55.2H260.21Z" fill="#EBEBEB"/>
<path d="M202.74 379.301H148.6V382.401H202.74V379.301Z" fill="#E0E0E0"/>
<path d="M170.8 311.589L155.8 379.299H195.45L180.45 311.589C180.162 310.53 179.534 309.595 178.662 308.928C177.79 308.262 176.722 307.9 175.625 307.9C174.527 307.9 173.46 308.262 172.588 308.928C171.716 309.595 171.088 310.53 170.8 311.589Z" fill="#E0E0E0"/>
<path d="M183.51 325.029H167.83L164.04 342.189H187.3L183.51 325.029Z" fill="#F5F5F5"/>
<path d="M187.96 345.211H163.38L161.45 353.901H189.88L187.96 345.211Z" fill="#F5F5F5"/>
<path d="M72.52 382.4H80.56L104.24 250H96.19L72.52 382.4Z" fill="#E0E0E0"/>
<path d="M283.15 382.4H291.2L314.88 250H306.83L283.15 382.4Z" fill="#E0E0E0"/>
<path d="M338.56 256.449H72.52V304.569H338.56V256.449Z" fill="#EBEBEB"/>
<path d="M101.36 302.44H73.7798L89.0798 258.57H116.66L101.36 302.44Z" fill="#FAFAFA"/>
<path d="M156.52 302.44H128.94L144.24 258.57H171.81L156.52 302.44Z" fill="#FAFAFA"/>
<path d="M211.68 302.44H184.1L199.39 258.57H226.97L211.68 302.44Z" fill="#FAFAFA"/>
<path d="M266.83 302.44H239.25L254.55 258.57H282.13L266.83 302.44Z" fill="#FAFAFA"/>
<path d="M321.99 302.44H294.41L309.71 258.57H337.29L321.99 302.44Z" fill="#FAFAFA"/>
<path d="M127.92 382.4H119.87L96.1899 250H104.24L127.92 382.4Z" fill="#E0E0E0"/>
<path d="M338.55 382.4H330.51L306.83 250H314.88L338.55 382.4Z" fill="#E0E0E0"/>
<path d="M447 378.33H376V382.4H447V378.33Z" fill="#E0E0E0"/>
<path d="M404.65 291.65L385.5 378.33H437.5L418.35 291.65C416.73 284.32 406.27 284.32 404.65 291.65Z" fill="#E0E0E0"/>
<path d="M421.78 307.17H401.22L396.25 329.67H426.75L421.78 307.17Z" fill="#F5F5F5"/>
<path d="M427.62 333.631H395.38L392.86 345.021H430.14L427.62 333.631Z" fill="#F5F5F5"/>
<path d="M463 241.9V271.2C462.999 271.656 462.891 272.105 462.684 272.512C462.478 272.918 462.178 273.27 461.81 273.54C461.442 273.81 461.016 273.989 460.566 274.064C460.117 274.138 459.655 274.106 459.22 273.97L36.2202 139.92C35.6382 139.73 35.1312 139.36 34.772 138.865C34.4127 138.369 34.2196 137.772 34.2202 137.16V107.85C34.2186 107.393 34.3252 106.942 34.5313 106.535C34.7374 106.127 35.0372 105.774 35.406 105.505C35.7748 105.236 36.2022 105.058 36.6532 104.986C37.1041 104.913 37.5657 104.949 38.0002 105.09L461 239.09C461.591 239.282 462.103 239.659 462.463 240.165C462.823 240.671 463.012 241.279 463 241.9Z" fill="#EBEBEB"/>
<path d="M429.71 262.379L453 269.759L440.08 234.749L416.8 227.369L429.71 262.379Z" fill="#FAFAFA"/>
<path d="M383.14 247.619L406.43 254.999L393.51 219.989L370.23 212.609L383.14 247.619Z" fill="#FAFAFA"/>
<path d="M336.57 232.87L359.86 240.24L346.94 205.23L323.65 197.85L336.57 232.87Z" fill="#FAFAFA"/>
<path d="M290 218.1L313.29 225.49L300.37 190.47L277.08 183.09L290 218.1Z" fill="#FAFAFA"/>
<path d="M243.43 203.35L266.71 210.73L253.8 175.71L230.51 168.33L243.43 203.35Z" fill="#FAFAFA"/>
<path d="M196.86 188.59L220.14 195.97L207.23 160.95L183.94 153.57L196.86 188.59Z" fill="#FAFAFA"/>
<path d="M150.28 173.831L173.57 181.211L160.65 146.191L137.37 138.811L150.28 173.831Z" fill="#FAFAFA"/>
<path d="M103.71 159.071L127 166.451L114.08 131.431L90.7998 124.051L103.71 159.071Z" fill="#FAFAFA"/>
<path d="M57.14 144.309L80.43 151.689L67.51 116.669L44.23 109.289L57.14 144.309Z" fill="#FAFAFA"/>
<path d="M250 427.56C357.082 427.56 443.89 422.492 443.89 416.24C443.89 409.988 357.082 404.92 250 404.92C142.917 404.92 56.1099 409.988 56.1099 416.24C56.1099 422.492 142.917 427.56 250 427.56Z" fill="#F5F5F5"/>
<path d="M326.47 407.571H314.94V60.1213C314.94 58.2513 326.47 58.2513 326.47 60.1213V407.571Z" fill="#263238"/>
<path d="M326.47 190.601L314.94 192.921V176.971H326.47V190.601Z" fill="black"/>
<path d="M406.27 71.7779L244.476 59.7545C237.867 59.2634 232.111 64.223 231.62 70.8322L224.868 161.692C224.377 168.301 229.336 174.057 235.946 174.548L397.74 186.571C404.349 187.063 410.105 182.103 410.596 175.494L417.348 84.6342C417.839 78.025 412.879 72.269 406.27 71.7779Z" fill="white"/>
<path d="M398.63 188.131C398.3 188.131 397.96 188.131 397.63 188.131L235.83 176.131C232.265 175.854 228.953 174.179 226.619 171.47C224.284 168.761 223.116 165.238 223.37 161.671L230.13 70.8107C230.404 67.2434 232.078 63.9295 234.788 61.5929C237.497 59.2564 241.021 58.0871 244.59 58.3407L406.39 70.3407C409.956 70.617 413.267 72.2926 415.601 75.0017C417.936 77.7109 419.104 81.2335 418.85 84.8007L412.09 175.661C411.831 179.054 410.303 182.225 407.81 184.542C405.317 186.858 402.043 188.15 398.64 188.161L398.63 188.131ZM243.57 61.2407C240.918 61.2513 238.367 62.2622 236.428 64.0716C234.489 65.881 233.304 68.3556 233.11 71.0007L226.35 161.861C226.157 164.624 227.062 167.351 228.869 169.451C230.676 171.55 233.239 172.851 236 173.071L397.8 185.071C400.575 185.269 403.316 184.362 405.424 182.546C407.531 180.73 408.835 178.154 409.05 175.381L415.81 84.5207C416.014 81.7446 415.108 79.0009 413.292 76.8918C411.475 74.7827 408.896 73.4804 406.12 73.2707L244.32 61.2707C244.1 61.2507 243.83 61.2407 243.57 61.2407Z" fill="#0069BD"/>
<path d="M287.44 108.051L267.12 106.531L267.8 97.3609L289.92 74.7109L299.65 75.4309L297.81 100.111L302.81 100.491L302.17 109.141L297.17 108.771L296.61 116.281L286.89 115.551L287.44 108.051ZM288.09 99.3909L289 86.7509L277.35 98.5909L288.09 99.3909Z" fill="#0069BD"/>
<path d="M306.64 96.6709C307.214 89.0309 309 83.8076 312 81.0009C315 78.1942 319.3 76.9776 324.9 77.3509C327.169 77.4531 329.401 77.9611 331.49 78.8509C333.023 79.542 334.4 80.5351 335.54 81.7709C336.493 82.8347 337.282 84.0346 337.88 85.3309C338.421 86.6773 338.797 88.0842 339 89.5209C339.532 92.6412 339.676 95.8152 339.43 98.9709C338.877 106.264 337.247 111.504 334.54 114.691C331.834 117.878 327.46 119.251 321.42 118.811C318.593 118.719 315.827 117.958 313.35 116.591C311.332 115.34 309.685 113.572 308.58 111.471C307.601 109.519 306.988 107.404 306.77 105.231C306.432 102.39 306.388 99.5211 306.64 96.6709ZM317.7 97.5109C317.32 102.631 317.514 106.161 318.28 108.101C319.04 110.031 320.28 111.101 322 111.201C323.093 111.278 324.172 110.918 325 110.201C326.04 109.221 326.773 107.96 327.11 106.571C327.78 103.952 328.179 101.271 328.3 98.5709C328.694 93.2376 328.507 89.6209 327.74 87.7209C327.482 86.8805 326.974 86.1382 326.285 85.5919C325.596 85.0456 324.758 84.721 323.88 84.6609C323.003 84.5781 322.122 84.7767 321.365 85.228C320.608 85.6793 320.015 86.3597 319.67 87.1709C318.737 89.0109 318.08 92.4576 317.7 97.5109Z" fill="#0069BD"/>
<path d="M355.5 92.0003L345.09 89.3303C346.022 86.283 348.021 83.6736 350.72 81.9803C353.347 80.3669 356.943 79.7336 361.51 80.0803C366.75 80.4736 370.467 81.7336 372.66 83.8603C373.713 84.8154 374.532 86.0009 375.053 87.3243C375.573 88.6477 375.781 90.0734 375.66 91.4902C375.552 93.1698 374.931 94.7756 373.88 96.0902C372.649 97.5666 371.082 98.7258 369.31 99.4703C370.537 99.833 371.703 100.376 372.77 101.08C374.015 101.968 375.005 103.169 375.64 104.56C376.304 106.099 376.562 107.783 376.39 109.45C376.179 111.805 375.355 114.063 374 116C372.615 118.051 370.647 119.64 368.35 120.56C365.406 121.618 362.258 121.984 359.15 121.63C356.205 121.519 353.307 120.865 350.6 119.7C348.635 118.751 346.942 117.32 345.68 115.54C344.359 113.59 343.447 111.393 343 109.08L354.26 108.43C354.329 110.171 354.922 111.851 355.96 113.25C356.912 114.219 358.202 114.78 359.56 114.818C360.917 114.855 362.236 114.365 363.24 113.45C364.374 112.31 365.025 110.778 365.06 109.17C365.286 107.604 364.883 106.011 363.94 104.74C363.474 104.184 362.895 103.735 362.242 103.421C361.588 103.107 360.875 102.936 360.15 102.92C358.919 102.885 357.688 103.013 356.49 103.3L357.66 95.3703C358.134 95.4856 358.615 95.5691 359.1 95.6203C359.77 95.6897 360.448 95.6255 361.093 95.4316C361.738 95.2376 362.339 94.9177 362.86 94.4902C363.357 94.11 363.767 93.6276 364.062 93.0756C364.357 92.5236 364.53 91.9148 364.57 91.2903C364.634 90.7574 364.589 90.2172 364.44 89.7018C364.29 89.1864 364.039 88.7064 363.7 88.2903C363.324 87.8883 362.871 87.5668 362.367 87.3451C361.864 87.1233 361.32 87.006 360.77 87.0003C360.183 86.9392 359.589 86.9963 359.024 87.168C358.459 87.3397 357.934 87.6227 357.48 88.0003C356.414 89.091 355.721 90.4913 355.5 92.0003Z" fill="#0069BD"/>
<path d="M272.07 123.811L287.59 125.001L287.29 129.001L277.58 128.281L277.35 131.281L286.35 131.961L286.06 135.781L277.06 135.111L276.79 138.801L286.79 139.551L286.48 143.791L270.68 142.611L272.07 123.811Z" fill="#0069BD"/>
<path d="M289.67 144L291.07 125.26L300.72 125.97C302.107 126.025 303.478 126.285 304.79 126.74C305.7 127.107 306.46 127.769 306.95 128.62C307.415 129.513 307.639 130.512 307.6 131.519C307.562 132.525 307.262 133.504 306.73 134.36C306.218 135.087 305.53 135.672 304.73 136.06C304.069 136.365 303.363 136.564 302.64 136.65C303.163 136.845 303.654 137.114 304.1 137.45C304.426 137.767 304.711 138.123 304.95 138.51C305.231 138.893 305.475 139.301 305.68 139.73L308.08 145.37L301.53 144.88L298.86 138.88C298.656 138.313 298.336 137.796 297.92 137.36C297.528 137.039 297.045 136.85 296.54 136.82H296.03L295.46 144.43L289.67 144ZM296.32 133.28L298.76 133.46C299.28 133.463 299.799 133.416 300.31 133.32C300.694 133.277 301.05 133.096 301.31 132.81C301.57 132.511 301.725 132.135 301.75 131.74C301.787 131.481 301.763 131.218 301.682 130.97C301.6 130.722 301.463 130.496 301.28 130.31C300.662 129.87 299.918 129.642 299.16 129.66L296.61 129.47L296.32 133.28Z" fill="#0069BD"/>
<path d="M310 145.48L311.39 126.74L321.05 127.46C322.433 127.513 323.801 127.769 325.11 128.22C326.022 128.588 326.786 129.25 327.28 130.1C327.648 130.727 327.883 131.423 327.971 132.144C328.06 132.865 328 133.597 327.795 134.294C327.589 134.991 327.244 135.639 326.778 136.197C326.313 136.755 325.739 137.213 325.09 137.54C324.428 137.844 323.723 138.043 323 138.13C323.521 138.328 324.013 138.597 324.46 138.93C324.778 139.254 325.063 139.61 325.31 139.99C325.592 140.37 325.834 140.779 326.03 141.21L328.43 146.85L321.89 146.37L319.22 140.37C319.015 139.804 318.695 139.287 318.28 138.85C317.886 138.527 317.399 138.337 316.89 138.31H316.38L315.82 145.92L310 145.48ZM316.65 134.77L319.09 134.95C319.61 134.948 320.128 134.901 320.64 134.81C321.028 134.772 321.386 134.586 321.64 134.29C321.907 133.999 322.066 133.625 322.09 133.23C322.125 132.97 322.1 132.706 322.019 132.457C321.938 132.208 321.801 131.98 321.62 131.79C320.999 131.349 320.251 131.124 319.49 131.15L317 131L316.65 134.77Z" fill="#0069BD"/>
<path d="M329.85 137.552C329.816 136.237 330.075 134.931 330.606 133.728C331.137 132.525 331.929 131.455 332.923 130.594C333.918 129.733 335.091 129.104 336.357 128.751C337.624 128.398 338.954 128.33 340.25 128.552C343.37 128.778 345.703 129.795 347.25 131.602C348.055 132.609 348.647 133.769 348.99 135.012C349.334 136.254 349.423 137.554 349.25 138.832C349.184 140.695 348.665 142.513 347.74 144.132C346.913 145.448 345.716 146.491 344.3 147.132C342.638 147.874 340.812 148.173 339 148.002C337.19 147.932 335.419 147.453 333.82 146.602C332.454 145.791 331.364 144.589 330.69 143.152C329.91 141.395 329.62 139.46 329.85 137.552ZM335.64 138.002C335.406 139.433 335.671 140.902 336.39 142.162C336.732 142.579 337.155 142.924 337.633 143.174C338.112 143.424 338.636 143.574 339.174 143.616C339.712 143.658 340.253 143.591 340.765 143.418C341.276 143.246 341.747 142.971 342.15 142.612C342.89 141.852 343.34 140.432 343.49 138.332C343.719 136.948 343.442 135.528 342.71 134.332C342.379 133.9 341.956 133.548 341.471 133.301C340.987 133.053 340.454 132.917 339.91 132.902C339.381 132.836 338.844 132.893 338.34 133.066C337.835 133.239 337.377 133.525 337 133.902C336.076 135.064 335.594 136.517 335.64 138.002Z" fill="#0069BD"/>
<path d="M351.77 148.59L353.16 129.84L362.81 130.56C364.197 130.615 365.568 130.875 366.88 131.33C367.776 131.699 368.522 132.357 369 133.2C369.535 134.14 369.762 135.224 369.65 136.3C369.603 137.245 369.302 138.16 368.78 138.95C368.269 139.675 367.58 140.257 366.78 140.64C366.118 140.946 365.413 141.149 364.69 141.24C365.668 141.539 366.495 142.201 367 143.09C367.279 143.476 367.521 143.887 367.72 144.32L370.12 149.96L363.58 149.47L360.91 143.47C360.702 142.905 360.382 142.388 359.97 141.95C359.574 141.63 359.088 141.442 358.58 141.41H358.07L357.5 149.02L351.77 148.59ZM358.41 137.87L360.85 138.05C361.373 138.053 361.896 138.007 362.41 137.91C362.798 137.872 363.156 137.686 363.41 137.39C363.679 137.1 363.838 136.725 363.86 136.33C363.892 136.072 363.867 135.809 363.786 135.562C363.704 135.315 363.569 135.089 363.39 134.9C362.771 134.454 362.022 134.226 361.26 134.25L358.72 134.06L358.41 137.87Z" fill="#0069BD"/>
<path d="M252.75 163.34L254.02 146.24L265.56 147.1L265.41 149.1L256.13 148.41L255.74 153.7L263.74 154.3L263.59 156.3L255.59 155.7L255.01 163.47L252.75 163.34Z" fill="#263238"/>
<path d="M267.16 156C267.2 153.553 268.198 151.22 269.94 149.5C270.754 148.755 271.717 148.192 272.765 147.847C273.813 147.502 274.923 147.384 276.02 147.5C277.523 147.591 278.972 148.093 280.21 148.95C281.409 149.787 282.334 150.96 282.87 152.32C283.447 153.805 283.673 155.404 283.53 156.99C283.435 158.604 282.955 160.171 282.13 161.56C281.383 162.831 280.262 163.84 278.92 164.45C277.598 165.059 276.141 165.317 274.69 165.2C273.168 165.11 271.702 164.594 270.46 163.71C269.265 162.861 268.347 161.679 267.82 160.31C267.277 158.942 267.051 157.468 267.16 156ZM269.49 156.21C269.257 157.983 269.724 159.776 270.79 161.21C271.29 161.815 271.907 162.311 272.603 162.671C273.3 163.03 274.063 163.245 274.845 163.302C275.627 163.359 276.412 163.257 277.154 163.003C277.895 162.748 278.578 162.346 279.16 161.82C280.44 160.47 281.156 158.681 281.16 156.82C281.284 155.57 281.137 154.309 280.73 153.12C280.372 152.099 279.718 151.207 278.85 150.56C277.974 149.918 276.933 149.54 275.85 149.47C275.086 149.402 274.316 149.486 273.584 149.718C272.853 149.95 272.175 150.324 271.59 150.82C270.39 151.88 269.68 153.68 269.49 156.25V156.21Z" fill="#263238"/>
<path d="M285.84 165.801L287.12 148.701L294.7 149.271C295.88 149.306 297.045 149.55 298.14 149.991C298.915 150.359 299.543 150.98 299.92 151.751C300.337 152.565 300.517 153.48 300.44 154.391C300.414 154.959 300.276 155.517 300.034 156.032C299.792 156.547 299.451 157.009 299.03 157.391C297.965 158.241 296.642 158.703 295.28 158.701C295.753 158.959 296.191 159.278 296.58 159.651C297.243 160.388 297.817 161.2 298.29 162.071L300.92 166.951L298.07 166.731L296.07 163.011C295.49 161.931 295 161.111 294.61 160.531C294.327 160.065 293.969 159.65 293.55 159.301C293.248 159.071 292.91 158.892 292.55 158.771C292.139 158.677 291.721 158.617 291.3 158.591L288.67 158.401L288.11 165.991L285.84 165.801ZM288.84 156.421L293.7 156.781C294.519 156.874 295.347 156.827 296.15 156.641C296.711 156.497 297.207 156.17 297.56 155.711C297.893 155.278 298.091 154.756 298.13 154.211C298.166 153.835 298.119 153.456 297.993 153.1C297.867 152.745 297.664 152.421 297.4 152.151C296.64 151.5 295.671 151.144 294.67 151.151L289.26 150.741L288.84 156.421Z" fill="#263238"/>
<path d="M303 167.08L304.27 149.98L310.69 150.45C311.764 150.49 312.819 150.749 313.79 151.21C314.533 151.595 315.141 152.199 315.53 152.94C315.911 153.648 316.085 154.449 316.03 155.25C315.977 155.975 315.717 156.669 315.28 157.25C314.794 157.901 314.131 158.397 313.37 158.68C314.295 158.995 315.092 159.602 315.64 160.41C316.142 161.198 316.367 162.131 316.28 163.06C316.229 163.836 316 164.588 315.61 165.26C315.274 165.862 314.802 166.376 314.23 166.76C313.639 167.119 312.983 167.357 312.3 167.46C311.38 167.602 310.446 167.629 309.52 167.54L303 167.08ZM305.41 165.23L309.67 165.55C310.186 165.588 310.704 165.588 311.22 165.55C311.685 165.508 312.139 165.383 312.56 165.18C312.941 164.969 313.262 164.662 313.49 164.29C313.775 163.825 313.933 163.292 313.947 162.746C313.961 162.2 313.831 161.66 313.57 161.18C313.276 160.679 312.821 160.292 312.28 160.08C311.481 159.801 310.645 159.643 309.8 159.61L305.85 159.32L305.41 165.23ZM306 157.33L309.7 157.61C310.42 157.704 311.15 157.704 311.87 157.61C312.396 157.518 312.875 157.25 313.23 156.85C313.569 156.438 313.763 155.925 313.78 155.39C313.829 154.863 313.729 154.333 313.49 153.86C313.254 153.403 312.859 153.048 312.38 152.86C311.544 152.599 310.676 152.455 309.8 152.43L306.38 152.17L306 157.33Z" fill="#263238"/>
<path d="M319.38 168.301L320.65 151.201L322.92 151.371L321.64 168.471L319.38 168.301Z" fill="#263238"/>
<path d="M325.63 168.76L326.91 151.66L332.8 152.1C333.813 152.152 334.819 152.31 335.8 152.57C336.709 152.837 337.54 153.32 338.22 153.98C339.079 154.833 339.703 155.894 340.03 157.06C340.401 158.397 340.523 159.79 340.39 161.17C340.326 162.339 340.087 163.492 339.68 164.59C339.368 165.46 338.911 166.271 338.33 166.99C337.865 167.567 337.299 168.055 336.66 168.43C336.004 168.788 335.289 169.029 334.55 169.14C333.633 169.275 332.703 169.302 331.78 169.22L325.63 168.76ZM328.05 166.92L331.7 167.19C332.594 167.283 333.497 167.242 334.38 167.07C334.966 166.941 335.514 166.678 335.98 166.3C336.603 165.724 337.086 165.013 337.39 164.22C337.794 163.177 338.03 162.077 338.09 160.96C338.276 159.537 338.076 158.089 337.51 156.77C337.093 155.871 336.39 155.136 335.51 154.68C334.58 154.337 333.601 154.148 332.61 154.12L329.02 153.85L328.05 166.92Z" fill="#263238"/>
<path d="M342.89 170.051L344.16 152.951L350.05 153.381C351.065 153.432 352.07 153.593 353.05 153.861C353.957 154.126 354.785 154.61 355.46 155.271C356.32 156.12 356.944 157.178 357.27 158.341C357.639 159.678 357.765 161.07 357.64 162.451C357.566 163.619 357.327 164.77 356.93 165.871C356.617 166.746 356.157 167.561 355.57 168.281C355.105 168.855 354.539 169.34 353.9 169.711C353.247 170.069 352.536 170.31 351.8 170.421C350.883 170.555 349.954 170.585 349.03 170.511L342.89 170.051ZM345.3 168.201L348.95 168.471C349.844 168.564 350.748 168.523 351.63 168.351C352.217 168.224 352.765 167.961 353.23 167.581C353.854 167.01 354.337 166.301 354.64 165.511C355.044 164.468 355.28 163.368 355.34 162.251C355.526 160.828 355.326 159.381 354.76 158.061C354.347 157.159 353.643 156.423 352.76 155.971C351.829 155.619 350.845 155.426 349.85 155.401L346.26 155.131L345.3 168.201Z" fill="#263238"/>
<path d="M360.19 171.33L361.46 154.23L373.82 155.15L373.67 157.15L363.57 156.4L363.18 161.64L372.64 162.34L372.49 164.34L363.03 163.63L362.6 169.45L373.1 170.24L372.95 172.24L360.19 171.33Z" fill="#263238"/>
<path d="M376.05 172.51L377.32 155.41L379.64 155.58L387.64 169.68L388.64 156.25L390.81 156.41L389.53 173.52L387.21 173.34L379.21 159.24L378.21 172.67L376.05 172.51Z" fill="#263238"/>
<path d="M169.92 164.889L170.25 166.889L170.63 168.979C170.91 170.369 171.17 171.769 171.49 173.149C172.1 175.929 172.8 178.669 173.6 181.319C174 182.639 174.44 183.949 174.91 185.209C175.38 186.469 175.91 187.729 176.4 188.909C177.373 191.124 178.605 193.215 180.07 195.139L177.33 193.339C178.022 193.745 178.821 193.93 179.62 193.869C180.926 193.747 182.196 193.373 183.36 192.769C184.869 192.016 186.305 191.126 187.65 190.109C188.37 189.579 189.1 189.019 189.8 188.419C190.16 188.129 190.51 187.829 190.8 187.529C191.09 187.229 191.53 186.889 191.8 186.679L192.33 186.249C192.985 185.724 193.798 185.437 194.637 185.432C195.476 185.428 196.292 185.707 196.952 186.225C197.612 186.743 198.078 187.468 198.274 188.284C198.469 189.1 198.384 189.958 198.03 190.719C197.73 191.349 197.53 191.829 197.26 192.349C196.99 192.869 196.73 193.349 196.45 193.849C195.87 194.849 195.26 195.799 194.58 196.739C193.181 198.7 191.549 200.483 189.72 202.049C188.713 202.903 187.632 203.666 186.49 204.329C183.851 205.91 180.846 206.775 177.77 206.839C176.077 206.849 174.392 206.606 172.77 206.119C171.879 205.864 171.069 205.382 170.42 204.719L170.04 204.329C167.46 201.651 165.271 198.621 163.54 195.329C161.949 192.331 160.598 189.211 159.5 185.999C158.396 182.888 157.471 179.716 156.73 176.499C156.37 174.909 156.02 173.309 155.73 171.699C155.59 170.889 155.45 170.089 155.33 169.269C155.21 168.449 155.11 167.679 155.01 166.689C154.828 164.767 155.394 162.848 156.591 161.332C157.788 159.817 159.523 158.821 161.436 158.553C163.348 158.285 165.29 158.765 166.858 159.893C168.425 161.021 169.497 162.71 169.85 164.609L169.92 164.889Z" fill="#263238"/>
<path d="M191.67 186.08C189.56 186.75 187.08 189.19 187.86 192.08C188.64 194.97 197.19 197.08 197.47 191.94C195 187 191.67 186.08 191.67 186.08Z" fill="white"/>
<path d="M190.54 188.87L191.45 187.48L200.8 185C200.8 185 202.16 190.95 195.41 193.21C194.93 193.328 194.424 193.252 194 193L191.31 191.6C191.073 191.478 190.865 191.309 190.696 191.103C190.528 190.897 190.404 190.658 190.332 190.402C190.259 190.146 190.241 189.878 190.276 189.615C190.312 189.351 190.402 189.097 190.54 188.87Z" fill="#B55B52"/>
<path d="M120.08 154.751C132.02 152.581 148.2 152.171 159.93 154.181C162.807 154.67 165.395 156.222 167.181 158.53C168.967 160.838 169.819 163.733 169.57 166.641C168.9 174.351 168.05 181.161 167.57 186.501C168.1 200.061 166.95 222.721 166.95 227.501L117.26 228.201C115.05 222.011 115.78 194.121 111.9 166.051C111.523 163.473 112.166 160.849 113.694 158.739C115.222 156.628 117.513 155.198 120.08 154.751Z" fill="#263238"/>
<path opacity="0.2" d="M145.59 227.52L144.59 227.39C147.41 205.14 144.59 167.86 144.59 167.49L145.59 167.41C145.62 167.79 148.43 205.17 145.59 227.52Z" fill="black"/>
<path d="M150.1 155.32C148.1 154.79 149.91 152.77 149.91 152.77C154.934 152.781 159.949 153.186 164.91 153.98C165.85 154.7 164.83 155.63 164.83 155.63C164.83 155.63 155.92 156.9 150.1 155.32Z" fill="#0069BD"/>
<path opacity="0.2" d="M147.29 152.471C147.29 152.471 150.29 158.391 146.29 163.771C148.43 163.904 150.498 164.593 152.29 165.771C152.29 165.771 153.7 160.701 149.73 152.981C149.3 152.251 147.29 152.471 147.29 152.471Z" fill="black"/>
<path d="M150.44 155.34C151.21 158.95 144.5 165.77 144.5 165.77C144.5 165.77 132.64 159.55 131.89 155.98L150.44 155.34Z" fill="#0069BD"/>
<path opacity="0.2" d="M119.36 172.369C120.66 174.879 119.08 185.369 114.36 190.599C114.05 186.019 113.66 181.229 113.16 176.359L119.36 172.369Z" fill="black"/>
<path d="M133.16 136.82L146.6 143.26C145.18 147.07 144.5 151.03 148.48 152.92C149.034 153.188 149.526 153.566 149.927 154.032C150.328 154.498 150.629 155.041 150.811 155.628C150.993 156.216 151.052 156.834 150.985 157.445C150.918 158.056 150.725 158.647 150.42 159.18C149.792 160.274 148.908 161.2 147.844 161.878C146.78 162.555 145.567 162.964 144.31 163.07C139.64 163.54 135.04 160.54 132.36 157.73C131.26 156.57 132.36 155.21 132.48 153.59C133 147.87 133.88 141.88 133.16 136.82Z" fill="#B55B52"/>
<path opacity="0.2" d="M139.35 138.1L146.6 143.26C146.182 144.318 145.864 145.412 145.65 146.53C142.65 147.53 137.95 144.91 137.87 142.31C137.83 141 139 138.72 139.35 138.1Z" fill="black"/>
<path d="M148.77 115.091C151.34 117.181 154.27 126.521 150.5 130.291C144.94 123.831 144.31 114.121 148.77 115.091Z" fill="#263238"/>
<path d="M129.44 125.9C130.44 133.9 130.64 138.6 134.96 142.41C141.45 148.14 151.1 143.73 152.49 135.6C153.74 128.27 151.87 116.47 143.82 113.86C142.037 113.282 140.136 113.166 138.296 113.523C136.456 113.881 134.737 114.699 133.3 115.903C131.863 117.106 130.755 118.654 130.079 120.403C129.404 122.151 129.184 124.043 129.44 125.9Z" fill="#B55B52"/>
<path d="M129.69 132.78C133.47 133.06 134.78 123.92 132.43 118.78C134.07 119.46 138.74 118.78 140.04 116.65C147.58 118.79 150.4 118.83 151.36 115.72C152.32 112.61 140.47 109.87 133.61 111.34C126.75 112.81 128.77 117.78 128.77 117.78C128.77 117.78 117.15 121.5 129.69 132.78Z" fill="#263238"/>
<path d="M126.93 133.389C127.938 135.012 129.525 136.192 131.37 136.689C133.7 137.249 134.5 134.909 133.56 132.559C132.7 130.449 130.47 127.559 128.27 128.109C126.07 128.659 125.62 131.319 126.93 133.389Z" fill="#B55B52"/>
<path d="M140.1 127.239C140.1 127.889 140.52 128.389 140.95 128.359C141.38 128.329 141.69 127.779 141.64 127.119C141.59 126.459 141.22 125.969 140.79 125.999C140.36 126.029 140.06 126.589 140.1 127.239Z" fill="#263238"/>
<path d="M148.94 126.521C148.99 127.171 149.37 127.681 149.79 127.641C150.21 127.601 150.53 127.061 150.49 126.411C150.45 125.761 150.07 125.251 149.64 125.281C149.21 125.311 148.9 125.871 148.94 126.521Z" fill="#263238"/>
<path d="M147.51 127.189C148.418 129.124 149.593 130.921 151 132.529C150.577 132.883 150.083 133.139 149.551 133.281C149.019 133.423 148.462 133.446 147.92 133.349L147.51 127.189Z" fill="#A02724"/>
<path d="M143.46 122.08C143.507 122.126 143.539 122.186 143.55 122.25C143.571 122.348 143.554 122.451 143.502 122.536C143.45 122.622 143.367 122.684 143.27 122.71C142.677 122.867 142.056 122.879 141.458 122.747C140.86 122.615 140.301 122.342 139.83 121.95C139.794 121.915 139.766 121.873 139.747 121.827C139.727 121.78 139.717 121.731 139.717 121.68C139.717 121.63 139.727 121.58 139.747 121.534C139.766 121.488 139.794 121.446 139.83 121.41C139.904 121.34 140.003 121.301 140.105 121.301C140.207 121.301 140.306 121.34 140.38 121.41C140.757 121.716 141.201 121.928 141.675 122.028C142.15 122.129 142.641 122.116 143.11 121.99C143.171 121.973 143.236 121.972 143.297 121.988C143.358 122.004 143.415 122.036 143.46 122.08Z" fill="#263238"/>
<path d="M145.08 124C145.02 123.969 144.971 123.92 144.94 123.86C144.888 123.773 144.873 123.67 144.898 123.573C144.922 123.475 144.984 123.391 145.07 123.34C145.589 123.015 146.178 122.817 146.788 122.763C147.398 122.709 148.012 122.801 148.58 123.03C148.625 123.051 148.666 123.081 148.7 123.118C148.734 123.156 148.76 123.199 148.776 123.247C148.793 123.294 148.8 123.345 148.798 123.395C148.795 123.445 148.782 123.494 148.76 123.54C148.713 123.63 148.632 123.7 148.536 123.733C148.439 123.767 148.333 123.762 148.24 123.72C147.789 123.544 147.304 123.477 146.823 123.524C146.341 123.571 145.878 123.73 145.47 123.99C145.412 124.027 145.345 124.048 145.276 124.05C145.207 124.052 145.139 124.034 145.08 124Z" fill="#263238"/>
<path d="M152.57 120.34C152.51 120.356 152.447 120.358 152.387 120.346C152.326 120.334 152.269 120.308 152.22 120.27C151.858 119.95 151.425 119.722 150.957 119.605C150.489 119.489 149.999 119.487 149.53 119.6C149.433 119.629 149.329 119.618 149.239 119.571C149.15 119.523 149.084 119.442 149.055 119.345C149.026 119.248 149.036 119.144 149.084 119.054C149.132 118.965 149.213 118.899 149.31 118.87C149.899 118.715 150.517 118.708 151.109 118.847C151.702 118.987 152.251 119.269 152.71 119.67C152.779 119.742 152.818 119.839 152.818 119.94C152.818 120.04 152.779 120.137 152.71 120.21C152.674 120.264 152.626 120.308 152.57 120.34Z" fill="#263238"/>
<path d="M196.16 219.999C195.949 219.611 195.592 219.323 195.168 219.197C194.745 219.072 194.289 219.119 193.9 219.329L181.67 225.939L175.89 215.239C175.671 214.866 175.317 214.593 174.901 214.476C174.485 214.359 174.04 214.408 173.659 214.613C173.278 214.818 172.992 215.162 172.86 215.573C172.727 215.984 172.76 216.431 172.95 216.819L178.73 227.519L136.58 250.299C136.192 250.511 135.904 250.867 135.776 251.29C135.649 251.713 135.693 252.169 135.9 252.559C136.112 252.947 136.468 253.235 136.89 253.363C137.313 253.49 137.77 253.446 138.16 253.239L195.49 222.239C195.873 222.028 196.157 221.675 196.282 221.256C196.408 220.837 196.364 220.386 196.16 219.999Z" fill="#263238"/>
<path d="M195.26 276.181C175.26 261.181 113.69 255.181 134.97 227.761L166.97 227.461C166.97 227.461 211.97 250.561 214.42 274.721C216.93 299.851 221.42 339.421 221.42 339.421L209.02 343.821C209.02 343.821 190.9 295.301 195.26 276.181Z" fill="#0069BD"/>
<path opacity="0.2" d="M136.07 241.5C135.33 243.12 134.65 244.8 134.07 246.57C139.07 252.22 148.88 256.57 159.51 260.57C156.21 254.81 149 248.41 136.07 241.5Z" fill="black"/>
<path d="M209.13 348.21L222 344.9C222.807 344.665 223.67 344.707 224.45 345.02C228.93 347.02 231.79 346.44 236.22 346.17C241.52 345.83 240.33 351.53 236.6 352.5C230.45 354.1 230.9 353.75 225.6 355.12L221.96 356.06L219.87 354.79L218.87 356.79L212.12 358.43C211.948 358.478 211.769 358.489 211.593 358.464C211.416 358.438 211.247 358.377 211.096 358.283C210.945 358.189 210.815 358.065 210.714 357.918C210.613 357.771 210.543 357.605 210.51 357.43L209.13 348.21Z" fill="#263238"/>
<path d="M209.46 349.47C209.65 349.38 224.08 345.34 224.08 345.34L221.84 334.25L205.84 338.6L209.46 349.47Z" fill="#263238"/>
<path d="M119.77 309.821C120.38 273.391 112.77 236.301 117.29 228.161L154.41 227.641C154.41 227.641 143.32 288.381 140.41 312.641C137.41 337.881 122.41 403.501 122.41 403.501L110.41 403.691C110.41 403.691 111.83 336.001 119.77 309.821Z" fill="#0069BD"/>
<path d="M110 405.631L121 405.461C121.849 405.423 122.687 405.669 123.38 406.161C127.38 409.161 127.8 409.281 132.18 410.061C137.44 410.991 135.08 416.241 131.23 416.301C124.87 416.401 125.39 416.171 119.97 416.251L114.08 416.301L113.22 414.571L112.22 416.301H110.67C110.49 416.301 110.311 416.265 110.146 416.193C109.98 416.122 109.831 416.018 109.707 415.886C109.584 415.755 109.488 415.6 109.427 415.431C109.365 415.261 109.339 415.081 109.35 414.901L110 405.631Z" fill="#263238"/>
<path d="M109.92 406.94C110.11 406.94 123.77 407.57 123.77 407.57L124.68 395.09L109.84 395.51L109.92 406.94Z" fill="#263238"/>
<path d="M146.8 151.759C146.8 151.759 150.24 158.389 146.29 163.759C148.531 163.867 150.741 164.326 152.84 165.119C152.84 165.119 155.63 158.369 149.48 152.329C149.05 151.609 146.8 151.759 146.8 151.759Z" fill="white"/>
<path d="M115.93 232.001C133.68 233.061 154.03 233.381 166.76 232.001C166.836 231.989 166.909 231.959 166.97 231.912C167.032 231.864 167.08 231.802 167.11 231.731C167.963 229.573 168.338 227.257 168.21 224.941C168.21 224.581 167.97 224.311 167.73 224.321C150.93 224.971 134.23 224.931 116.73 224.321C116.54 224.321 116.35 224.481 116.28 224.751C115.684 226.908 115.43 229.145 115.53 231.381C115.518 231.514 115.551 231.647 115.623 231.759C115.696 231.872 115.804 231.957 115.93 232.001Z" fill="#263238"/>
<path opacity="0.2" d="M115.93 232.001C133.68 233.061 154.03 233.381 166.76 232.001C166.836 231.989 166.909 231.959 166.97 231.912C167.032 231.864 167.08 231.802 167.11 231.731C167.963 229.573 168.338 227.257 168.21 224.941C168.21 224.581 167.97 224.311 167.73 224.321C150.93 224.971 134.23 224.931 116.73 224.321C116.54 224.321 116.35 224.481 116.28 224.751C115.684 226.908 115.43 229.145 115.53 231.381C115.518 231.514 115.551 231.647 115.623 231.759C115.696 231.872 115.804 231.957 115.93 232.001Z" fill="black"/>
<path d="M146.21 234.73C144.953 234.727 143.697 234.647 142.45 234.49L141.6 234.38V233.53C141.6 233.31 141.47 228.14 141.75 223.99L141.81 223.15L142.64 223.07C145.162 222.826 147.7 222.779 150.23 222.93L151.13 222.99V223.89C151.269 227.08 151.155 230.277 150.79 233.45L150.7 234.04L150.14 234.24C148.863 234.603 147.537 234.768 146.21 234.73ZM143.56 232.6C145.34 232.799 147.138 232.769 148.91 232.51C149.161 229.975 149.248 227.426 149.17 224.88C147.34 224.805 145.506 224.839 143.68 224.98C143.52 227.85 143.54 231.08 143.56 232.6Z" fill="white"/>
<path d="M126.92 224.26C126.92 224.26 126.63 229.87 126.22 233.44C125.43 234.26 123.96 233.63 123.96 233.63C123.96 233.63 124.25 228.45 124.6 224.38C125.352 224.154 126.148 224.113 126.92 224.26Z" fill="#0069BD"/>
<path d="M163.56 224.26C163.56 224.26 163.27 229.87 162.86 233.44C162.07 234.26 160.6 233.63 160.6 233.63C160.6 233.63 160.89 228.45 161.24 224.38C161.992 224.154 162.788 224.113 163.56 224.26Z" fill="#0069BD"/>
<path d="M152 173.631C152.54 180.861 157.15 182.491 157.8 182.471C158.45 182.451 162.8 180.651 162.26 173.421C160.335 173.362 158.481 172.677 156.98 171.471C156.336 172.144 155.563 172.682 154.708 173.053C153.853 173.424 152.932 173.62 152 173.631Z" fill="#0069BD"/>
<path d="M151 114.43C156.14 115.29 158.08 117.68 146.51 119.08C139.823 119.939 133.062 120.053 126.35 119.42C126.35 119.42 141.78 114.38 151 114.43Z" fill="#263238"/>
<path d="M125.41 120C133.87 117.426 142.556 115.665 151.35 114.74C151.375 113.713 151.19 112.693 150.806 111.74C150.423 110.788 149.849 109.923 149.12 109.2C149.12 109.2 154.97 108.2 152.06 106.45C150.06 105.28 145.29 105.15 140 101.75C137.83 103.75 131.89 106.95 127.83 107.36C126.83 109.08 124.2 113.36 119.95 115.04C120.01 116.92 124.24 117.41 124.24 117.41C124.223 117.903 124.319 118.393 124.522 118.842C124.725 119.291 125.029 119.688 125.41 120Z" fill="#0069BD"/>
<path opacity="0.8" d="M124.24 117.44C132.85 111.85 141.11 109.44 149.12 109.23C149.849 109.954 150.423 110.818 150.806 111.771C151.189 112.723 151.374 113.744 151.35 114.77C142.557 115.686 133.871 117.437 125.41 120C125.033 119.691 124.731 119.3 124.528 118.856C124.326 118.412 124.227 117.928 124.24 117.44Z" fill="#263238"/>
<path d="M139.51 107.7C140.51 112.62 143.98 113.52 144.45 113.48C144.92 113.44 147.92 112 146.93 107.08C145.517 107.129 144.122 106.749 142.93 105.99C142.504 106.49 141.981 106.9 141.394 107.193C140.806 107.487 140.165 107.66 139.51 107.7Z" fill="white"/>
<path d="M145.35 123.07C146.49 123.23 148.35 131.81 142.4 132.27C137.4 132.66 135.83 128.07 135.83 126.46C135.83 124.06 143.73 122.84 145.35 123.07Z" fill="#263238"/>
<path d="M147.87 123C147.16 123.43 148.76 132.57 152.87 131.61C156.37 130.8 155.78 125.83 155.21 124.22C154.4 121.79 148.88 122.36 147.87 123Z" fill="#263238"/>
<g opacity="0.2">
<path d="M143.24 123.158L146.35 128.828C146.141 129.912 145.53 130.876 144.64 131.528L140.35 123.688C141.301 123.451 142.266 123.274 143.24 123.158Z" fill="white"/>
<path d="M139.08 124L143.49 132C143.138 132.102 142.776 132.166 142.41 132.19C142.17 132.205 141.93 132.205 141.69 132.19L137.51 124.57C138.018 124.34 138.543 124.15 139.08 124Z" fill="white"/>
<path d="M152.91 122.609L155.67 127.609C155.635 128.469 155.399 129.308 154.98 130.059L150.8 122.409C151.508 122.399 152.216 122.466 152.91 122.609Z" fill="white"/>
<path d="M154.44 130.769C154.187 131.02 153.888 131.22 153.56 131.359L148.79 122.659C149.156 122.577 149.526 122.517 149.9 122.479L154.44 130.769Z" fill="white"/>
</g>
<path d="M209.05 177.94C209.56 177.72 208.7 175.68 208.19 175.89L138.25 205.23C138.169 205.097 138.042 204.997 137.893 204.949C137.745 204.901 137.584 204.909 137.44 204.97L134.51 206.19C134.366 206.254 134.25 206.366 134.18 206.506C134.111 206.647 134.093 206.808 134.13 206.96L124.93 210.81C122.877 211.681 121.04 212.991 119.55 214.65L115.43 219.25C115.353 220.315 114.87 221.309 114.081 222.027C113.292 222.746 112.257 223.133 111.19 223.11H110.58L89.44 235.88C88.6629 236.35 88.0582 237.059 87.7159 237.9C87.3736 238.742 87.3119 239.671 87.54 240.55C88.2758 243.618 89.5197 246.542 91.22 249.2C91.5624 249.712 92.0129 250.142 92.5397 250.461C93.0664 250.779 93.6567 250.979 94.2688 251.044C94.881 251.11 95.5001 251.041 96.0826 250.842C96.665 250.642 97.1966 250.317 97.64 249.89L119 229.32C119.903 228.451 120.467 227.288 120.59 226.04L120.85 223.4L125.47 218.24C126.131 219.414 127.219 220.289 128.507 220.683C129.796 221.077 131.187 220.961 132.392 220.359C133.597 219.756 134.524 218.713 134.982 217.446C135.439 216.178 135.392 214.784 134.85 213.55C134.826 213.487 134.796 213.427 134.76 213.37L136.47 212.65C136.552 212.789 136.68 212.893 136.833 212.945C136.985 212.996 137.151 212.991 137.3 212.93L140.23 211.71C140.378 211.646 140.497 211.531 140.567 211.386C140.637 211.241 140.652 211.076 140.61 210.92L181.4 193.81C181.627 193.713 181.806 193.53 181.898 193.302C181.989 193.073 181.987 192.817 181.89 192.59L203.89 183.36C204.23 183.22 203.7 181.97 203.36 182.12L201.74 182.8L201.65 181.02L209.05 177.94ZM131.64 219.42C130.662 219.835 129.562 219.859 128.566 219.487C127.571 219.115 126.756 218.375 126.29 217.42L126.9 216.73L127.21 216.6C127.473 216.974 127.786 217.311 128.14 217.6C128.684 218.03 129.308 218.348 129.976 218.535C130.643 218.722 131.342 218.775 132.03 218.69L131.89 217.59C131.347 217.656 130.796 217.614 130.269 217.467C129.742 217.319 129.25 217.069 128.82 216.73C128.617 216.568 128.429 216.388 128.26 216.19L133.78 213.88C133.806 213.939 133.836 213.996 133.87 214.05C134.273 215.059 134.266 216.186 133.849 217.189C133.432 218.193 132.639 218.994 131.64 219.42ZM199.78 183.64L181.41 191.34L180.76 189.8L199.69 181.86L199.78 183.64Z" fill="#0069BD"/>
<path opacity="0.2" d="M209.05 177.94C209.56 177.72 208.7 175.68 208.19 175.89L138.25 205.23C138.169 205.097 138.042 204.997 137.893 204.949C137.745 204.901 137.584 204.909 137.44 204.97L134.51 206.19C134.366 206.254 134.25 206.366 134.18 206.506C134.111 206.647 134.093 206.808 134.13 206.96L124.93 210.81C122.877 211.681 121.04 212.991 119.55 214.65L115.43 219.25C115.353 220.315 114.87 221.309 114.081 222.027C113.292 222.746 112.257 223.133 111.19 223.11H110.58L89.44 235.88C88.6629 236.35 88.0582 237.059 87.7159 237.9C87.3736 238.742 87.3119 239.671 87.54 240.55C88.2758 243.618 89.5197 246.542 91.22 249.2C91.5624 249.712 92.0129 250.142 92.5397 250.461C93.0664 250.779 93.6567 250.979 94.2688 251.044C94.881 251.11 95.5001 251.041 96.0826 250.842C96.665 250.642 97.1966 250.317 97.64 249.89L119 229.32C119.903 228.451 120.467 227.288 120.59 226.04L120.85 223.4L125.47 218.24C126.131 219.414 127.219 220.289 128.507 220.683C129.796 221.077 131.187 220.961 132.392 220.359C133.597 219.756 134.524 218.713 134.982 217.446C135.439 216.178 135.392 214.784 134.85 213.55C134.826 213.487 134.796 213.427 134.76 213.37L136.47 212.65C136.552 212.789 136.68 212.893 136.833 212.945C136.985 212.996 137.151 212.991 137.3 212.93L140.23 211.71C140.378 211.646 140.497 211.531 140.567 211.386C140.637 211.241 140.652 211.076 140.61 210.92L181.4 193.81C181.627 193.713 181.806 193.53 181.898 193.302C181.989 193.073 181.987 192.817 181.89 192.59L203.89 183.36C204.23 183.22 203.7 181.97 203.36 182.12L201.74 182.8L201.65 181.02L209.05 177.94ZM131.64 219.42C130.662 219.835 129.562 219.859 128.566 219.487C127.571 219.115 126.756 218.375 126.29 217.42L126.9 216.73L127.21 216.6C127.473 216.974 127.786 217.311 128.14 217.6C128.684 218.03 129.308 218.348 129.976 218.535C130.643 218.722 131.342 218.775 132.03 218.69L131.89 217.59C131.347 217.656 130.796 217.614 130.269 217.467C129.742 217.319 129.25 217.069 128.82 216.73C128.617 216.568 128.429 216.388 128.26 216.19L133.78 213.88C133.806 213.939 133.836 213.996 133.87 214.05C134.273 215.059 134.266 216.186 133.849 217.189C133.432 218.193 132.639 218.994 131.64 219.42ZM199.78 183.64L181.41 191.34L180.76 189.8L199.69 181.86L199.78 183.64Z" fill="black"/>
<path d="M182.07 189.63L162.69 197.76C162.368 197.896 162.11 198.149 161.968 198.469C161.827 198.789 161.813 199.15 161.93 199.48L162.73 201.68C162.792 201.855 162.889 202.015 163.015 202.151C163.141 202.287 163.293 202.396 163.463 202.471C163.632 202.545 163.815 202.585 164 202.587C164.186 202.588 164.369 202.552 164.54 202.48L183.92 194.35C184.242 194.215 184.5 193.96 184.639 193.64C184.779 193.32 184.79 192.958 184.67 192.63L183.88 190.43C183.818 190.255 183.722 190.095 183.596 189.959C183.47 189.823 183.317 189.714 183.148 189.64C182.978 189.565 182.795 189.525 182.61 189.523C182.425 189.522 182.241 189.558 182.07 189.63Z" fill="#0069BD"/>
<path d="M194.4 182.05L195.07 181.87C195.917 181.64 196.812 181.654 197.651 181.908C198.491 182.163 199.243 182.649 199.82 183.31L200.42 184C200.58 184.181 200.694 184.398 200.752 184.633C200.811 184.867 200.812 185.112 200.756 185.348C200.701 185.583 200.589 185.801 200.431 185.984C200.274 186.167 200.074 186.31 199.85 186.4L193.26 189.12C193.072 189.197 192.871 189.237 192.668 189.235C192.465 189.234 192.265 189.192 192.078 189.112C191.892 189.032 191.724 188.915 191.583 188.769C191.442 188.622 191.332 188.449 191.26 188.26C191.024 187.648 190.919 186.993 190.952 186.339C190.985 185.684 191.155 185.043 191.451 184.458C191.747 183.872 192.162 183.356 192.67 182.941C193.178 182.526 193.767 182.223 194.4 182.05Z" fill="#B55B52"/>
<path d="M124.6 168.249L124.1 168.849L123.52 169.559L122.34 170.999C121.56 171.999 120.77 172.999 120 174.069C118.45 176.139 117 178.279 115.53 180.459C114.06 182.639 112.74 184.869 111.38 187.109C110.02 189.349 108.82 191.669 107.63 193.999L106.75 195.759L106.54 196.189C106.517 196.238 106.491 196.285 106.46 196.329C106.391 196.438 106.338 196.556 106.3 196.679C106.033 197.429 105.878 198.214 105.84 199.009C105.76 201.278 105.955 203.547 106.42 205.769C107.482 210.882 108.902 215.915 110.67 220.829L110.74 221.019C111.024 221.857 111.002 222.768 110.679 223.592C110.356 224.415 109.752 225.098 108.974 225.519C108.196 225.94 107.294 226.073 106.428 225.893C105.562 225.714 104.787 225.234 104.24 224.539C102.398 222.203 100.727 219.736 99.2402 217.159C97.7345 214.545 96.4372 211.817 95.3602 208.999C94.1191 205.932 93.3243 202.702 93.0002 199.409C92.8073 197.421 92.9118 195.416 93.3102 193.459C93.4184 192.903 93.5654 192.355 93.7502 191.819L94.0302 190.979L94.2302 190.449L95.0402 188.389C97.206 182.899 99.8285 177.601 102.88 172.549C104.41 170.019 106.02 167.549 107.78 165.139C108.66 163.939 109.56 162.739 110.51 161.579C110.99 160.989 111.51 160.409 111.98 159.829L112.75 158.949L113.64 157.949C114.979 156.555 116.804 155.732 118.735 155.651C120.666 155.57 122.553 156.238 124.004 157.514C125.455 158.791 126.357 160.578 126.522 162.504C126.687 164.429 126.102 166.344 124.89 167.849L124.6 168.249Z" fill="#263238"/>
<path d="M132.43 156.09C134.43 155.38 131.89 153.23 131.89 153.23C131.89 153.23 121.28 153.56 114.98 155.23C113.98 156.14 115.12 157.23 115.12 157.23C115.12 157.23 126.47 158.2 132.43 156.09Z" fill="#0069BD"/>
<path opacity="0.2" d="M132.27 152.999C132.27 152.999 133.84 158.909 140.98 163.739C137.86 163.739 133.44 166.859 133.44 166.859C132.121 164.914 131.203 162.725 130.741 160.421C130.279 158.116 130.282 155.743 130.75 153.439C131.19 152.749 132.27 152.999 132.27 152.999Z" fill="black"/>
<path d="M132.48 152C134.155 156.656 137.099 160.75 140.98 163.82C138.333 164.02 135.72 164.544 133.2 165.38C133.2 165.38 129.29 161.71 130.75 153.52C131.23 152.913 131.816 152.398 132.48 152Z" fill="white"/>
<path d="M109.62 220.41L115.83 225.76L107.59 231.12C107.59 231.12 102.59 225.59 105.05 222.44L109.62 220.41Z" fill="#B55B52"/>
<path d="M104.19 224.92C103.461 224.33 102.881 223.576 102.5 222.72C104.5 220.67 108.5 218.98 110.29 218.52C111.02 219.428 111.425 220.554 111.44 221.72C111.44 221.72 106.17 222.63 104.19 224.92Z" fill="white"/>
<path d="M116.54 234.25L113.33 235.64C112.712 235.908 112.018 235.948 111.373 235.752C110.728 235.556 110.174 235.137 109.81 234.57L107.59 231.12L115.83 225.76L117.99 230.45C118.148 230.794 118.235 231.166 118.248 231.545C118.26 231.923 118.197 232.3 118.062 232.654C117.927 233.008 117.723 233.331 117.462 233.605C117.2 233.879 116.887 234.098 116.54 234.25Z" fill="#B55B52"/>
<path d="M141.51 136C142.474 135.364 143.578 134.971 144.727 134.852C145.876 134.734 147.036 134.894 148.11 135.32C148.141 135.334 148.168 135.354 148.191 135.379C148.214 135.404 148.231 135.433 148.242 135.465C148.254 135.497 148.258 135.53 148.256 135.564C148.254 135.597 148.245 135.63 148.23 135.66C148.2 135.72 148.147 135.766 148.084 135.789C148.021 135.811 147.951 135.808 147.89 135.78C146.891 135.398 145.816 135.258 144.752 135.371C143.688 135.484 142.666 135.847 141.77 136.43C141.713 136.463 141.645 136.472 141.581 136.455C141.518 136.438 141.463 136.397 141.43 136.34C141.412 136.313 141.4 136.282 141.394 136.25C141.388 136.218 141.389 136.185 141.397 136.153C141.404 136.121 141.418 136.091 141.437 136.065C141.457 136.039 141.482 136.017 141.51 136Z" fill="#263238"/>
<path d="M125.15 173.51L138.64 173L138.59 171.91L125.11 172.42L125.15 173.51Z" fill="white"/>
<path d="M241.88 417.459H215.7L234.73 266.279H260.92L241.88 417.459Z" fill="#0069BD"/>
<path opacity="0.4" d="M241.88 417.459H215.7L234.73 266.279H260.92L241.88 417.459Z" fill="black"/>
<path d="M213.36 417.459H215.7L234.73 266.279H232.39L213.36 417.459Z" fill="#263238"/>
<path d="M339.53 417.459H313.35L332.38 266.279H358.57L339.53 417.459Z" fill="#0069BD"/>
<path opacity="0.4" d="M339.53 417.459H313.35L332.38 266.279H358.57L339.53 417.459Z" fill="black"/>
<path d="M311 417.459H313.35L332.38 266.279H330.04L311 417.459Z" fill="#263238"/>
<path d="M266.12 399.469H361.08L356.94 366.559H261.98L266.12 399.469Z" fill="#0069BD"/>
<path d="M266.12 399.469H264.57L260.42 366.559H261.98L266.12 399.469Z" fill="#263238"/>
<path d="M355.85 368L359.63 398.03H354.02L338.95 368H355.85Z" fill="white"/>
<path d="M329.38 368L344.45 398.03H323.85L308.78 368H329.38Z" fill="white"/>
<path d="M299.21 368L314.28 398.03H293.67L278.61 368H299.21Z" fill="white"/>
<path d="M269.05 368L284.11 398.03H267.21L263.43 368H269.05Z" fill="white"/>
<path d="M351.99 417.459H378.18L359.14 266.279H332.96L351.99 417.459Z" fill="#0069BD"/>
<path opacity="0.2" d="M341.44 333.63L368.99 344.46L361.08 281.68H334.89L341.44 333.63Z" fill="black"/>
<path d="M351.99 417.459H349.65L330.62 266.279H332.96L351.99 417.459Z" fill="#263238"/>
<path d="M254.34 417.459H280.53L261.5 266.279H235.31L254.34 417.459Z" fill="#0069BD"/>
<path opacity="0.2" d="M243.79 333.63L271.34 344.46L263.43 281.68H237.25L243.79 333.63Z" fill="black"/>
<path d="M254.34 417.459H252L232.97 266.279H235.31L254.34 417.459Z" fill="#263238"/>
<path d="M233.33 326.659H376.32L370.08 277.109H227.09L233.33 326.659Z" fill="#0069BD"/>
<path d="M233.33 326.659H230.99L224.75 277.109H227.09L233.33 326.659Z" fill="#263238"/>
<path d="M368.44 279.27L374.14 324.49H365.69L343 279.27H368.44Z" fill="white"/>
<path d="M328.59 279.27L351.28 324.49H320.25L297.57 279.27H328.59Z" fill="white"/>
<path d="M283.16 279.27L305.85 324.49H274.82L252.13 279.27H283.16Z" fill="white"/>
<path d="M237.74 279.27L260.42 324.49H234.97L229.28 279.27H237.74Z" fill="white"/>
</svg>
