<svg width="633" height="443" viewBox="0 0 633 443" fill="none" xmlns="http://www.w3.org/2000/svg">
<path d="M450.871 249.658C437.691 289.598 409.301 333.368 367.531 347.658C304.411 369.188 298.771 420.958 184.211 420.658C167.487 420.687 150.809 418.896 134.471 415.318C126.484 413.542 118.618 411.258 110.921 408.478C43.0613 383.908 5.90135 325.718 0.601346 263.478C-6.39865 181.658 49.2913 140.378 85.6013 116.068C121.911 91.7582 163.241 1.37817 275.861 0.838172C293.054 0.692076 310.207 2.52412 326.981 6.29818C365.221 15.0782 404.571 36.2982 428.211 68.5082C429.978 70.9282 431.681 73.4082 433.321 75.9482C465.201 125.548 468.831 195.218 450.871 249.658Z" fill="#0069BD" fill-opacity="0.34"/>
<path d="M402.731 333.219V340.369H406.461V336.179C406.461 335.295 406.812 334.449 407.436 333.824C408.061 333.2 408.908 332.849 409.791 332.849H422.011C422.894 332.849 423.741 333.2 424.366 333.824C424.99 334.449 425.341 335.295 425.341 336.179V340.369H429.071V333.219C429.068 332.335 428.715 331.488 428.089 330.863C427.463 330.239 426.615 329.889 425.731 329.889H406.061C405.178 329.889 404.331 330.239 403.706 330.864C403.082 331.488 402.731 332.335 402.731 333.219Z" fill="#263238"/>
<path d="M429.071 340.869H425.341C425.208 340.869 425.081 340.816 424.987 340.722C424.894 340.628 424.841 340.501 424.841 340.369V336.179C424.841 335.428 424.543 334.708 424.012 334.178C423.481 333.647 422.762 333.349 422.011 333.349H409.791C409.04 333.349 408.321 333.647 407.79 334.178C407.259 334.708 406.961 335.428 406.961 336.179V340.369C406.961 340.501 406.908 340.628 406.815 340.722C406.721 340.816 406.594 340.869 406.461 340.869H402.731C402.598 340.869 402.471 340.816 402.377 340.722C402.284 340.628 402.231 340.501 402.231 340.369V333.219C402.234 332.204 402.638 331.231 403.356 330.513C404.073 329.796 405.046 329.391 406.061 329.389H425.741C426.751 329.399 427.716 329.807 428.427 330.524C429.138 331.241 429.538 332.209 429.541 333.219V340.369C429.541 340.496 429.493 340.619 429.405 340.712C429.318 340.805 429.198 340.861 429.071 340.869ZM425.841 339.869H428.541V333.219C428.541 332.468 428.243 331.748 427.712 331.218C427.181 330.687 426.462 330.389 425.711 330.389H406.061C405.31 330.389 404.591 330.687 404.06 331.218C403.529 331.748 403.231 332.468 403.231 333.219V339.869H405.961V336.179C405.96 335.675 406.058 335.177 406.25 334.711C406.442 334.246 406.724 333.823 407.08 333.467C407.436 333.112 407.858 332.83 408.324 332.638C408.789 332.446 409.288 332.347 409.791 332.349H422.011C423.027 332.349 424.001 332.752 424.719 333.47C425.437 334.189 425.841 335.163 425.841 336.179V339.869Z" fill="#263238"/>
<path d="M371.461 338.418H442.001C443.247 338.418 444.443 338.913 445.324 339.795C446.206 340.676 446.701 341.871 446.701 343.118V399.818C446.701 400.614 446.385 401.377 445.822 401.939C445.259 402.502 444.496 402.818 443.701 402.818H369.781C368.985 402.818 368.222 402.502 367.659 401.939C367.097 401.377 366.781 400.614 366.781 399.818V343.118C366.781 341.875 367.273 340.682 368.15 339.802C369.027 338.921 370.218 338.423 371.461 338.418Z" fill="#263238"/>
<path d="M443.671 403.348H369.781C368.846 403.345 367.951 402.972 367.291 402.311C366.631 401.649 366.261 400.752 366.261 399.818V343.118C366.263 341.74 366.812 340.419 367.787 339.444C368.761 338.469 370.082 337.921 371.461 337.918H442.001C443.379 337.921 444.7 338.469 445.675 339.444C446.649 340.419 447.198 341.74 447.201 343.118V399.818C447.201 400.282 447.109 400.741 446.932 401.169C446.755 401.597 446.495 401.986 446.167 402.314C445.839 402.642 445.45 402.902 445.022 403.079C444.593 403.257 444.134 403.348 443.671 403.348ZM371.461 338.918C370.348 338.921 369.281 339.364 368.494 340.151C367.707 340.938 367.263 342.005 367.261 343.118V399.818C367.261 400.487 367.526 401.129 367.998 401.603C368.471 402.078 369.111 402.345 369.781 402.348H443.671C444.341 402.345 444.983 402.078 445.457 401.604C445.931 401.13 446.198 400.488 446.201 399.818V343.118C446.198 342.005 445.755 340.938 444.968 340.151C444.181 339.364 443.114 338.921 442.001 338.918H371.461Z" fill="#263238"/>
<path d="M381.231 338.418H451.771C453.017 338.418 454.213 338.913 455.094 339.795C455.975 340.676 456.471 341.871 456.471 343.118V399.818C456.471 400.614 456.154 401.377 455.592 401.939C455.029 402.502 454.266 402.818 453.471 402.818H379.541C378.745 402.818 377.982 402.502 377.419 401.939C376.857 401.377 376.541 400.614 376.541 399.818V343.118C376.541 341.873 377.034 340.679 377.914 339.798C378.793 338.917 379.986 338.421 381.231 338.418Z" fill="#8A8A8A"/>
<path d="M453.451 403.348H379.541C378.605 403.348 377.707 402.976 377.045 402.314C376.383 401.652 376.011 400.754 376.011 399.818V343.118C376.016 341.74 376.566 340.421 377.54 339.447C378.514 338.473 379.833 337.923 381.211 337.918H451.751C453.13 337.921 454.452 338.469 455.428 339.443C456.405 340.418 456.955 341.739 456.961 343.118V399.818C456.958 400.75 456.588 401.643 455.931 402.304C455.274 402.965 454.383 403.34 453.451 403.348ZM381.231 338.918C380.118 338.921 379.051 339.364 378.264 340.151C377.477 340.938 377.033 342.005 377.031 343.118V399.818C377.033 400.488 377.301 401.13 377.775 401.604C378.249 402.078 378.891 402.345 379.561 402.348H453.451C454.121 402.345 454.763 402.078 455.237 401.604C455.711 401.13 455.978 400.488 455.981 399.818V343.118C455.978 342.003 455.533 340.935 454.744 340.147C453.955 339.36 452.886 338.918 451.771 338.918H381.231Z" fill="#263238"/>
<path fill-rule="evenodd" clip-rule="evenodd" d="M133.88 58.4001C134.317 56.6505 134.99 54.9684 135.88 53.4001L133.17 49.2501L138.87 43.3601L143.1 45.9401C144.63 45.0123 146.278 44.2958 148 43.8101L149 38.9601L157.19 38.8301L158.37 43.6401C160.118 44.0807 161.8 44.7533 163.37 45.6401L167.51 42.9301L173.4 48.6301L170.83 52.8601C171.751 54.3923 172.463 56.0401 172.95 57.7601L177.8 58.7601L177.94 66.9501L173.12 68.1301C172.68 69.8786 172.007 71.5602 171.12 73.1301L173.83 77.2701L168.13 83.1601L163.94 80.5701C162.408 81.4933 160.76 82.2095 159.04 82.7001L157.94 87.5701L149.74 87.7101L148.57 82.9001C146.822 82.4585 145.14 81.7859 143.57 80.9001L139.42 83.6101L133.53 77.9101L136.11 73.6701C135.179 72.1421 134.462 70.4934 133.98 68.7701L129.13 67.7701L129 59.5701L133.81 58.4001H133.88ZM144.68 63.0401C144.706 64.7811 145.248 66.4753 146.237 67.9082C147.226 69.3412 148.618 70.4485 150.237 71.0899C151.856 71.7314 153.629 71.8782 155.331 71.5117C157.033 71.1453 158.588 70.2822 159.8 69.0315C161.011 67.7808 161.825 66.1988 162.137 64.4857C162.449 62.7727 162.245 61.0056 161.553 59.4081C160.86 57.8106 159.709 56.4544 158.245 55.5113C156.782 54.5682 155.071 54.0806 153.33 54.1101C152.176 54.1283 151.036 54.3738 149.977 54.8325C148.917 55.2911 147.958 55.954 147.155 56.7833C146.352 57.6125 145.72 58.5919 145.295 59.6655C144.871 60.739 144.661 61.8857 144.68 63.0401Z" fill="#D6EAF9"/>
<path fill-rule="evenodd" clip-rule="evenodd" d="M24.88 354.4C25.317 352.65 25.9899 350.968 26.88 349.4L24.17 345.25L29.87 339.36L34.1 341.94C35.6298 341.012 37.2781 340.296 39 339.81L40 334.96L48.19 334.83L49.37 339.64C51.1184 340.081 52.8 340.753 54.37 341.64L58.51 338.93L64.4 344.63L61.83 348.86C62.7506 350.392 63.4635 352.04 63.95 353.76L68.8 354.76L68.94 362.95L64.12 364.13C63.6796 365.879 63.0069 367.56 62.12 369.13L64.83 373.27L59.13 379.16L54.94 376.57C53.4079 377.493 51.7602 378.209 50.04 378.7L48.94 383.57L40.74 383.71L39.57 378.9C37.8219 378.459 36.1404 377.786 34.57 376.9L30.42 379.61L24.53 373.91L27.11 369.67C26.1786 368.142 25.4619 366.493 24.98 364.77L20.13 363.77L20 355.57L24.81 354.4H24.88ZM35.68 359.04C35.706 360.781 36.2479 362.475 37.2371 363.908C38.2263 365.341 39.6184 366.448 41.2372 367.09C42.856 367.731 44.6286 367.878 46.3309 367.512C48.0331 367.145 49.5884 366.282 50.7999 365.031C52.0113 363.781 52.8246 362.199 53.1366 360.486C53.4486 358.773 53.2454 357.006 52.5527 355.408C51.8601 353.811 50.709 352.454 49.2453 351.511C47.7816 350.568 46.071 350.081 44.33 350.11C43.1756 350.128 42.0362 350.374 40.9767 350.832C39.9172 351.291 38.9585 351.954 38.1552 352.783C37.3519 353.613 36.7199 354.592 36.2952 355.665C35.8705 356.739 35.6615 357.886 35.68 359.04Z" fill="#D6EAF9"/>
<path fill-rule="evenodd" clip-rule="evenodd" d="M371.22 294.42C371.696 292.502 372.426 290.655 373.39 288.93L370.39 284.35L376.69 277.84L381.36 280.68C383.055 279.664 384.878 278.877 386.78 278.34L387.9 272.98L396.95 272.83L398.25 278.15C400.168 278.628 402.014 279.357 403.74 280.32L408.32 277.32L414.82 283.61L411.98 288.29C413.003 289.98 413.793 291.799 414.33 293.7L419.69 294.83L419.83 303.83L414.52 305.12C414.046 307.039 413.316 308.886 412.35 310.61L415.35 315.19L409.05 321.7L404.38 318.86C402.685 319.879 400.862 320.669 398.96 321.21L397.88 326.62L388.88 326.77L387.58 321.45C385.661 320.977 383.814 320.247 382.09 319.28L377.51 322.28L371.01 315.98L373.85 311.3C372.827 309.61 372.037 307.791 371.5 305.89L366.15 304.77L366 295.71L371.31 294.42H371.22ZM383.16 299.55C383.192 301.47 383.792 303.338 384.886 304.916C385.979 306.495 387.516 307.714 389.302 308.42C391.088 309.125 393.043 309.285 394.92 308.88C396.797 308.474 398.512 307.521 399.847 306.141C401.182 304.761 402.078 303.016 402.422 301.126C402.766 299.237 402.541 297.288 401.777 295.526C401.013 293.764 399.744 292.269 398.13 291.228C396.516 290.187 394.63 289.649 392.71 289.68C391.434 289.7 390.175 289.971 389.005 290.477C387.834 290.984 386.775 291.717 385.887 292.634C385 293.551 384.303 294.634 383.835 295.82C383.367 297.007 383.137 298.275 383.16 299.55Z" fill="#D6EAF9"/>
<path d="M346.445 428.56C504.644 428.56 632.89 423.492 632.89 417.24C632.89 410.988 504.644 405.92 346.445 405.92C188.246 405.92 60 410.988 60 417.24C60 423.492 188.246 428.56 346.445 428.56Z" fill="#F5F5F5"/>
<path fill-rule="evenodd" clip-rule="evenodd" d="M515.478 42.6234C516.069 40.2427 516.974 37.9514 518.171 35.8103L514.448 30.1265L522.266 22.0475L528.062 25.572C530.166 24.3112 532.428 23.3348 534.788 22.668L536.178 16.0162L547.409 15.8301L549.023 22.4322C551.403 23.025 553.694 23.9305 555.836 25.1252L561.519 21.4022L569.586 29.2081L566.062 35.0161C567.331 37.113 568.312 39.3712 568.978 41.7299L575.63 43.1323L575.804 54.3013L569.214 55.9022C568.625 58.2837 567.72 60.5752 566.521 62.7154L570.244 68.3992L562.425 76.4782L556.63 72.9537C554.526 74.2185 552.265 75.1992 549.904 75.8701L548.563 82.5839L537.394 82.7701L535.781 76.1679C533.399 75.5804 531.108 74.6746 528.968 73.4749L523.284 77.1979L515.217 69.3796L518.742 63.5717C517.473 61.4748 516.492 59.2165 515.826 56.8578L509.186 55.4679L509 44.2244L515.59 42.6234H515.478ZM530.296 48.9898C530.335 51.3727 531.081 53.6902 532.437 55.6495C533.794 57.6089 535.701 59.1219 537.918 59.9973C540.134 60.8728 542.561 61.0713 544.89 60.5679C547.219 60.0644 549.347 58.8816 551.004 57.1689C552.661 55.4562 553.773 53.2906 554.2 50.9459C554.626 48.6012 554.348 46.1827 553.4 43.9962C552.452 41.8097 550.877 39.9534 548.874 38.662C546.871 37.3706 544.53 36.7021 542.147 36.7411C540.564 36.7653 539.002 37.1016 537.549 37.7306C536.096 38.3596 534.781 39.2691 533.681 40.4068C532.58 41.5446 531.714 42.8884 531.133 44.3612C530.552 45.834 530.268 47.4069 530.296 48.9898Z" fill="#D6EAF9"/>
<path d="M204.43 313.19V315.51H195V301.92H204.26V304.24H197.64V307.51H203.36V309.65H197.64V313.19H204.43Z" fill="#263238"/>
<path d="M206.5 315.51V301.92H212.5C213.099 301.915 213.691 302.048 214.23 302.31C214.745 302.555 215.21 302.894 215.6 303.31C215.982 303.737 216.287 304.228 216.5 304.76C216.752 305.409 216.853 306.106 216.794 306.799C216.735 307.493 216.518 308.163 216.16 308.76C215.747 309.459 215.119 310.006 214.37 310.32L217.47 315.43H214.47L211.69 310.87H209.09V315.43L206.5 315.51ZM209.14 308.64H212.45C212.687 308.639 212.921 308.581 213.13 308.47C213.342 308.35 213.529 308.191 213.68 308C213.837 307.788 213.959 307.551 214.04 307.3C214.129 307.022 214.173 306.732 214.17 306.44C214.173 306.14 214.122 305.842 214.02 305.56C213.926 305.304 213.787 305.067 213.61 304.86C213.447 304.668 213.246 304.512 213.02 304.4C212.809 304.295 212.576 304.241 212.34 304.24H209.14V308.64Z" fill="#263238"/>
<path d="M219.22 315.51V301.92H225.22C225.822 301.914 226.418 302.047 226.96 302.31C227.47 302.558 227.931 302.897 228.32 303.31C228.709 303.732 229.014 304.224 229.22 304.76C229.435 305.28 229.547 305.837 229.55 306.4C229.559 307.246 229.331 308.078 228.89 308.8C228.474 309.498 227.847 310.044 227.1 310.36L230.2 315.47H227.2L224.43 310.91H221.83V315.47L219.22 315.51ZM221.87 308.64H225.18C225.417 308.64 225.65 308.581 225.86 308.47C226.071 308.353 226.254 308.193 226.4 308C226.561 307.79 226.683 307.553 226.76 307.3C226.852 307.023 226.9 306.732 226.9 306.44C226.903 306.14 226.852 305.842 226.75 305.56C226.652 305.304 226.51 305.067 226.33 304.86C226.166 304.668 225.966 304.512 225.74 304.4C225.529 304.294 225.296 304.24 225.06 304.24H221.87V308.64Z" fill="#263238"/>
<path d="M237.75 315.601C236.814 315.616 235.887 315.418 235.04 315.021C234.25 314.648 233.543 314.121 232.96 313.471C232.373 312.827 231.915 312.076 231.61 311.261C231.292 310.448 231.13 309.583 231.13 308.711C231.128 307.819 231.301 306.936 231.64 306.111C231.964 305.298 232.435 304.552 233.03 303.911C233.631 303.271 234.351 302.754 235.15 302.391C235.984 302.009 236.893 301.818 237.81 301.831C238.741 301.819 239.662 302.025 240.5 302.431C241.288 302.815 241.991 303.352 242.57 304.011C243.148 304.663 243.602 305.415 243.91 306.231C244.563 307.875 244.563 309.707 243.91 311.351C243.599 312.152 243.145 312.891 242.57 313.531C241.971 314.166 241.255 314.679 240.46 315.041C239.61 315.428 238.684 315.62 237.75 315.601ZM233.81 308.731C233.81 309.311 233.898 309.887 234.07 310.441C234.239 310.968 234.503 311.459 234.85 311.891C235.192 312.304 235.614 312.644 236.09 312.891C236.612 313.148 237.188 313.279 237.77 313.271C238.357 313.283 238.938 313.149 239.46 312.881C239.947 312.624 240.373 312.266 240.71 311.831C241.047 311.392 241.304 310.898 241.47 310.371C241.641 309.834 241.729 309.274 241.73 308.711C241.732 308.132 241.637 307.558 241.45 307.011C241.281 306.483 241.017 305.992 240.67 305.561C240.33 305.141 239.904 304.8 239.42 304.561C238.897 304.31 238.325 304.18 237.745 304.18C237.165 304.18 236.593 304.31 236.07 304.561C235.586 304.8 235.159 305.141 234.82 305.561C234.484 305.995 234.23 306.486 234.07 307.011C233.887 307.565 233.799 308.147 233.81 308.731Z" fill="#263238"/>
<path d="M246.42 315.51V301.92H252.42C253.019 301.915 253.611 302.048 254.15 302.31C254.665 302.555 255.13 302.894 255.52 303.31C255.902 303.737 256.207 304.228 256.42 304.76C256.672 305.409 256.773 306.106 256.714 306.799C256.655 307.493 256.438 308.163 256.08 308.76C255.667 309.459 255.039 310.006 254.29 310.32L257.39 315.43H254.39L251.61 310.87H249.01V315.43L246.42 315.51ZM249.06 308.64H252.37C252.607 308.639 252.84 308.581 253.05 308.47C253.262 308.35 253.449 308.191 253.6 308C253.757 307.788 253.879 307.551 253.96 307.3C254.049 307.022 254.093 306.732 254.09 306.44C254.093 306.14 254.042 305.842 253.94 305.56C253.846 305.304 253.707 305.067 253.53 304.86C253.367 304.668 253.166 304.512 252.94 304.4C252.728 304.295 252.496 304.241 252.26 304.24H249.06V308.64Z" fill="#263238"/>
<path d="M472.87 376.36L475.356 355.092L451.132 352.824C451.132 352.824 452.1 369.232 451.929 376.746C451.845 380.292 449.325 386.953 449.325 386.953C449.325 386.953 459.45 392.259 464.717 390.118C469.983 387.978 473.498 379.703 473.383 378.183C473.267 376.663 472.87 376.36 472.87 376.36Z" fill="#FFBDA7"/>
<path d="M421.129 409.711C420.792 409.71 420.527 412.797 422.319 414.323C427.289 417.732 433.361 419.145 439.325 418.278C447.435 417.1 451.81 414.594 455.028 411.867C458.246 409.14 462.746 405.296 466.416 404.441C469.717 403.501 472.804 401.926 475.502 399.804C476.579 398.746 476.354 394.126 476.354 394.126L421.129 409.711Z" fill="#263238"/>
<path d="M472.881 376.36C473.172 376.376 473.45 376.49 473.668 376.683C473.887 376.877 474.033 377.139 474.084 377.426C474.357 378.693 474.681 382.397 475.265 384.486C476.158 388.155 476.487 391.939 476.239 395.707C475.821 398.118 469.37 401.027 465.831 402.414C461.675 404.267 457.824 406.739 454.407 409.744C450.633 412.903 442.636 416.24 437.329 416.282C431.057 416.321 423.971 414.414 422.304 411.574C420.254 408.057 418.712 403.963 427.967 399.532C429.719 398.694 435.847 395.012 437.926 393.668C443.583 390.069 447.539 386.766 450.034 380.442C450.24 379.671 450.702 378.992 451.343 378.517C451.912 378.268 452.545 378.202 453.153 378.33C454.708 378.517 460.894 379.274 462.315 379.918C463.736 380.562 465.362 381.135 465.357 382.715C465.331 383.263 465.22 383.804 465.025 384.318C464.928 384.643 464.842 385.077 465.131 385.259C465.419 385.441 465.758 385.261 466 385.009C466.888 384.078 467.698 383.077 468.423 382.014C469.147 381.059 469.932 380.151 470.772 379.296C471.321 378.985 471.849 378.64 472.356 378.264C473.009 377.796 472.854 377.108 472.881 376.36Z" fill="#455A64"/>
<path d="M454.431 409.753C456.028 408.42 457.733 407.123 459.45 405.959C459.45 405.959 448.571 412.664 444.142 409.741C441.266 407.874 442.589 405.526 442.64 404.779C442.691 404.031 432.564 398.93 429.791 398.643C429.03 399.075 428.401 399.434 427.991 399.614C420.743 402.568 419.862 406.268 421.137 410.892C422.791 413.732 429.138 416.601 437.244 416.484C442.551 416.406 450.657 412.912 454.431 409.753Z" fill="#37474F"/>
<path d="M443.372 402.589C437.622 404.982 440.103 405.98 441.731 406.202C443.358 406.425 453.004 400.669 458.87 395.961C464.99 391.049 469.765 384.504 471.991 382.739C472.838 382.066 473.757 381.249 474.556 380.48C474.391 379.273 474.251 378.066 474.12 377.487C474.07 377.2 473.923 376.938 473.705 376.744C473.486 376.551 473.209 376.437 472.918 376.421C472.915 377.157 473.045 377.845 472.488 378.41C471.982 378.786 471.453 379.13 470.905 379.442C470.065 380.297 469.28 381.205 468.555 382.16C467.828 383.22 467.018 384.222 466.133 385.155C461.105 391.494 449.121 400.233 443.372 402.589Z" fill="#37474F"/>
<path d="M442.131 405.345C442.263 405.342 442.39 405.296 442.493 405.213C442.55 405.166 442.598 405.108 442.632 405.042C442.667 404.976 442.688 404.903 442.693 404.829C442.699 404.755 442.69 404.68 442.667 404.609C442.643 404.539 442.605 404.473 442.556 404.418C440.898 402.47 433.086 397.908 428.838 398.424C428.69 398.441 428.554 398.517 428.461 398.634C428.368 398.751 428.325 398.9 428.342 399.049C428.349 399.124 428.371 399.198 428.407 399.264C428.444 399.33 428.493 399.389 428.553 399.435C428.613 399.482 428.681 399.515 428.755 399.535C428.828 399.554 428.904 399.557 428.979 399.546C432.949 399.065 440.364 403.602 441.685 405.138C441.74 405.203 441.808 405.255 441.885 405.291C441.962 405.327 442.046 405.345 442.131 405.345Z" fill="#263238"/>
<path d="M447.124 402.214C447.256 402.213 447.384 402.167 447.486 402.083C447.544 402.036 447.593 401.978 447.628 401.913C447.664 401.847 447.686 401.775 447.693 401.701C447.7 401.627 447.692 401.552 447.669 401.48C447.647 401.409 447.61 401.344 447.561 401.287C445.891 399.339 438.091 394.777 433.844 395.293C433.765 395.295 433.688 395.313 433.617 395.347C433.546 395.381 433.482 395.429 433.431 395.488C433.379 395.547 433.341 395.617 433.318 395.692C433.294 395.767 433.287 395.846 433.296 395.924C433.305 396.002 433.33 396.078 433.37 396.145C433.409 396.213 433.463 396.272 433.526 396.318C433.59 396.364 433.662 396.397 433.739 396.414C433.816 396.43 433.895 396.431 433.972 396.415C437.942 395.946 445.369 400.471 446.678 402.008C446.733 402.073 446.801 402.125 446.878 402.16C446.955 402.196 447.039 402.215 447.124 402.214Z" fill="#263238"/>
<path d="M452.128 399.201C452.26 399.199 452.388 399.153 452.49 399.069C452.605 398.973 452.678 398.836 452.692 398.687C452.706 398.538 452.66 398.389 452.565 398.273C450.895 396.326 443.095 391.763 438.835 392.279C438.758 392.283 438.682 392.304 438.612 392.339C438.543 392.373 438.481 392.422 438.431 392.482C438.381 392.542 438.344 392.611 438.323 392.686C438.301 392.76 438.294 392.839 438.304 392.916C438.314 392.993 438.339 393.067 438.379 393.134C438.419 393.201 438.472 393.259 438.535 393.305C438.598 393.35 438.669 393.382 438.745 393.399C438.821 393.416 438.9 393.416 438.976 393.401C442.946 392.921 450.373 397.457 451.682 398.994C451.738 399.058 451.806 399.109 451.883 399.145C451.96 399.18 452.043 399.199 452.128 399.201Z" fill="#263238"/>
<path d="M456.759 395.878C456.89 395.875 457.018 395.829 457.121 395.747C457.178 395.699 457.226 395.641 457.26 395.575C457.295 395.509 457.315 395.436 457.321 395.362C457.327 395.288 457.318 395.213 457.294 395.143C457.271 395.072 457.233 395.007 457.184 394.951C455.526 393.003 447.702 388.441 443.466 388.957C443.392 388.964 443.32 388.986 443.255 389.022C443.189 389.057 443.131 389.106 443.085 389.164C443.039 389.222 443.005 389.289 442.985 389.361C442.965 389.433 442.96 389.508 442.97 389.582C442.978 389.657 443.002 389.729 443.039 389.795C443.075 389.86 443.125 389.918 443.184 389.964C443.244 390.01 443.312 390.044 443.384 390.064C443.457 390.084 443.533 390.089 443.607 390.079C447.565 389.61 454.992 394.135 456.313 395.672C456.368 395.737 456.436 395.789 456.513 395.824C456.59 395.86 456.674 395.878 456.759 395.878Z" fill="#263238"/>
<path d="M461.283 392.504C461.415 392.503 461.543 392.456 461.645 392.372C461.703 392.327 461.752 392.27 461.787 392.206C461.822 392.141 461.844 392.07 461.851 391.997C461.858 391.923 461.85 391.849 461.828 391.779C461.805 391.709 461.769 391.644 461.72 391.589C459.438 388.831 451.273 385.039 447.026 385.507C446.953 385.516 446.883 385.539 446.819 385.576C446.755 385.612 446.699 385.661 446.654 385.719C446.609 385.777 446.576 385.844 446.557 385.914C446.537 385.985 446.532 386.059 446.541 386.132C446.551 386.205 446.574 386.276 446.611 386.339C446.647 386.403 446.696 386.459 446.754 386.504C446.812 386.549 446.878 386.582 446.949 386.602C447.02 386.621 447.094 386.626 447.167 386.617C450.992 386.16 458.808 389.805 460.838 392.249C460.886 392.324 460.952 392.387 461.029 392.431C461.107 392.475 461.194 392.5 461.283 392.504Z" fill="#263238"/>
<path d="M512.988 386.532L507.311 360.965L532.534 357.121L532.856 382.343C532.856 382.343 534.75 389.129 533.331 391.464C531.912 393.799 516.742 396.231 515.36 394.634C513.978 393.037 512.988 386.532 512.988 386.532Z" fill="#FFBDA7"/>
<path d="M515.382 426.816C516.025 432.548 517.207 436.255 519.681 439.375C522.154 442.496 526.567 443.018 530.939 441.513C535.31 440.009 540.871 436.663 541.914 431.528C542.957 426.393 542.534 423.015 541.286 417.775L515.382 426.816Z" fill="#263238"/>
<path d="M532.868 382.344C534.69 382.254 534.18 386.763 535.022 394.498C535.921 402.86 539.662 409.422 540.977 416.133C542.483 423.798 542.145 427.343 539.305 432.423C536.464 437.503 525.721 443.436 519.989 437.313C515.35 432.328 514.889 426.247 514.928 418.407C515.143 411.78 514.977 405.147 514.43 398.539C513.811 392.735 511.393 387.371 512.952 386.533C513.118 387.377 514.641 393.257 515.667 393.164C515.72 392.427 515.694 391.687 515.59 390.956C515.518 390.622 515.518 390.276 515.59 389.941C515.662 389.607 515.804 389.291 516.007 389.016C516.879 388.333 517.877 387.828 518.943 387.53C520.73 387.006 523.905 386.341 525.715 385.986C526.62 385.808 527.538 385.666 528.443 385.561C529.215 385.449 529.999 385.452 530.771 385.569C530.981 385.599 531.182 385.675 531.359 385.793C531.536 385.91 531.684 386.066 531.793 386.248C531.897 386.525 531.941 386.822 531.923 387.117C531.952 387.656 532.056 388.188 532.231 388.698C532.303 388.916 532.495 389.182 532.761 389.098C532.853 389.05 532.928 388.974 532.976 388.881C533.024 388.789 533.042 388.684 533.028 388.58C533.043 387.652 532.927 382.839 532.868 382.344Z" fill="#455A64"/>
<path d="M540.466 413.985C540.703 415.095 542.113 422.434 539.888 424.03C537.469 425.783 535.837 420.084 535.837 420.084C535.837 420.084 529.954 419.195 521.64 423.485C522.131 424.692 521.007 428.79 518.644 428.215C516.282 427.639 514.997 419.216 514.973 419.107C514.947 426.622 515.53 432.498 520.036 437.338C525.732 443.461 536.44 437.528 539.352 432.448C542.265 427.368 542.53 423.822 541.025 416.158C540.835 415.373 540.632 414.649 540.466 413.985Z" fill="#37474F"/>
<path d="M535.196 420.633C535.367 423.456 538.471 422.128 538.425 418.123C538.379 414.119 536.314 404.414 535.54 397.874C535.042 388.464 534.69 382.19 532.868 382.341C532.868 382.437 532.867 382.534 532.867 382.63C532.867 382.727 533.029 387.986 533.052 388.589C533.369 394.344 533.403 405.477 534.181 410.691C534.728 413.98 535.067 417.301 535.196 420.633Z" fill="#37474F"/>
<path d="M522.619 423.272C521.691 420.102 520.961 416.876 520.434 413.615C519.559 408.474 516.519 398.187 515.018 392.657C514.527 391.739 513.001 386.619 513.001 386.619C511.733 386.977 512.982 391.902 513.565 394.208C514.148 396.514 514.863 399.037 515.588 402.308C517.459 408.828 517.606 418.611 518.811 422.366C520.016 426.122 523.346 425.989 522.619 423.272Z" fill="#37474F"/>
<path d="M521.47 423.711C521.555 423.692 521.637 423.659 521.712 423.615C525.983 421.289 530.842 420.262 535.69 420.66C535.865 420.682 536.043 420.642 536.191 420.545C536.34 420.448 536.449 420.302 536.5 420.132C536.518 420.053 536.518 419.971 536.501 419.892C536.483 419.812 536.449 419.738 536.4 419.673C536.351 419.608 536.288 419.555 536.216 419.518C536.144 419.48 536.064 419.459 535.983 419.455C530.796 418.996 525.59 420.104 521.04 422.636C520.966 422.671 520.9 422.721 520.847 422.783C520.793 422.845 520.753 422.917 520.729 422.995C520.705 423.073 520.697 423.156 520.707 423.237C520.716 423.318 520.742 423.397 520.783 423.467C520.862 423.57 520.968 423.648 521.09 423.692C521.212 423.735 521.344 423.742 521.47 423.711Z" fill="#263238"/>
<path d="M519.671 417.774C519.747 417.757 519.82 417.729 519.889 417.691C524.738 415.231 530.151 414.093 535.58 414.392C535.757 414.407 535.933 414.361 536.079 414.26C536.225 414.159 536.331 414.011 536.378 413.84C536.393 413.761 536.39 413.679 536.369 413.601C536.349 413.523 536.311 413.45 536.26 413.388C536.208 413.326 536.144 413.275 536.071 413.241C535.998 413.206 535.919 413.188 535.838 413.187C530.109 412.853 524.396 414.058 519.289 416.675C519.215 416.712 519.149 416.763 519.095 416.826C519.041 416.888 519 416.961 518.974 417.039C518.948 417.117 518.937 417.2 518.943 417.282C518.949 417.365 518.971 417.445 519.009 417.519C519.083 417.62 519.185 417.697 519.303 417.743C519.42 417.788 519.548 417.799 519.671 417.774Z" fill="#263238"/>
<path d="M534.84 408.62C534.965 408.597 535.082 408.541 535.18 408.459C535.277 408.377 535.352 408.271 535.396 408.151C535.42 408.074 535.427 407.993 535.416 407.913C535.405 407.833 535.377 407.757 535.333 407.689C535.29 407.621 535.232 407.564 535.164 407.52C535.097 407.477 535.02 407.449 534.94 407.438C526.659 405.962 518.742 410.602 518.416 410.794C518.342 410.831 518.276 410.882 518.222 410.945C518.169 411.008 518.129 411.081 518.105 411.16C518.081 411.239 518.073 411.322 518.083 411.405C518.092 411.487 518.118 411.566 518.16 411.638C518.27 411.771 518.425 411.859 518.596 411.887C518.767 411.914 518.942 411.878 519.088 411.786C519.16 411.786 526.847 407.241 534.55 408.631C534.646 408.645 534.745 408.641 534.84 408.62Z" fill="#263238"/>
<path d="M534.123 403.191C534.245 403.169 534.36 403.115 534.456 403.035C534.551 402.955 534.624 402.851 534.667 402.734C534.693 402.658 534.702 402.577 534.692 402.497C534.683 402.417 534.656 402.341 534.614 402.272C534.572 402.204 534.514 402.146 534.447 402.103C534.379 402.059 534.303 402.031 534.223 402.021C528.37 401.021 522.353 402.216 517.325 405.376C517.253 405.415 517.19 405.469 517.141 405.534C517.091 405.599 517.056 405.674 517.037 405.754C517.019 405.833 517.017 405.916 517.033 405.996C517.049 406.077 517.082 406.153 517.129 406.219C517.248 406.347 517.409 406.426 517.583 406.442C517.756 406.458 517.929 406.41 518.07 406.307C518.142 406.307 525.323 401.508 533.761 403.201C533.881 403.224 534.004 403.22 534.123 403.191Z" fill="#263238"/>
<path d="M533.288 397.072C533.409 397.049 533.522 396.996 533.617 396.919C533.712 396.841 533.786 396.741 533.833 396.627C533.861 396.551 533.871 396.47 533.864 396.39C533.856 396.309 533.831 396.231 533.79 396.162C533.748 396.092 533.692 396.033 533.625 395.988C533.557 395.943 533.481 395.914 533.401 395.902C524.855 394.111 516.768 399.21 516.43 399.462C516.357 399.5 516.293 399.553 516.242 399.617C516.191 399.682 516.155 399.757 516.135 399.837C516.115 399.916 516.113 399.999 516.128 400.08C516.143 400.161 516.175 400.238 516.222 400.305C516.335 400.435 516.493 400.518 516.664 400.539C516.836 400.56 517.009 400.516 517.15 400.417C517.234 400.417 525.044 395.439 532.975 397.107C533.08 397.114 533.187 397.102 533.288 397.072Z" fill="#263238"/>
<path d="M523.853 189.577C527.169 234.941 528.454 302.6 528.454 302.6C528.755 306.039 530.705 310.87 532.238 327.859C533.864 345.788 533.715 371.371 533.715 371.371C533.715 371.371 518.543 377.783 509.135 374.41C509.135 374.41 499.148 335.994 494.336 314.881C489.762 294.891 486.469 263.639 486.469 263.639L480.864 293.775C480.864 293.775 481.507 306.707 481.15 315.752C480.739 326.269 474.943 366.535 474.943 366.535C474.943 366.535 460.837 374.929 451.071 366.85C451.071 366.85 446.512 307.731 446.242 295.041C445.701 270.216 445.159 221.388 448.201 189.374L523.853 189.577Z" fill="#37474F"/>
<path d="M486.468 263.577L481.622 231.307C481.622 231.307 470.23 229.53 464.388 223.877C464.388 223.877 468.161 231.356 478.898 234.276L483.717 263.652L480.863 293.652L486.468 263.577Z" fill="#263238"/>
<path d="M533.964 372.179C529.719 375.481 517.394 378.273 508.973 375.192L507.297 368.07C513.659 370.239 526.774 368.921 533.846 364.543L533.964 372.179Z" fill="#455A64"/>
<path d="M474.915 367.248C472.047 370.132 458.807 372.475 451.007 367.876L450.465 360.722C456.375 364.047 469.983 363.527 475.796 360.158L474.915 367.248Z" fill="#455A64"/>
<path d="M527.623 260.368C527.623 260.368 528.827 292.276 528.711 294.603C528.594 296.931 511.245 301.454 510.804 299.981C510.065 297.566 510.277 292.03 508.861 265.598C523.269 263.79 527.623 260.368 527.623 260.368Z" fill="#455A64"/>
<path d="M511.554 274.704C512.087 274.577 512.637 274.534 513.183 274.577C513.822 274.579 514.462 274.581 515.089 274.487C516.436 274.371 517.774 274.17 519.096 273.886C520.587 273.553 522.052 273.11 523.479 272.562C524.687 272.12 525.738 271.533 526.909 271.102C527.018 271.103 527.029 271.272 526.969 271.32C525.842 272.083 524.624 272.703 523.344 273.165C522.168 273.651 520.957 274.05 519.721 274.358C518.407 274.68 517.072 274.913 515.726 275.056C515.063 275.126 514.387 275.172 513.712 275.194C513.002 275.316 512.272 275.26 511.589 275.03C511.457 274.945 511.446 274.74 511.554 274.704Z" fill="#37474F"/>
<path d="M518.914 271.097C518.905 271.232 518.927 271.368 518.979 271.494C519.031 271.619 519.111 271.731 519.213 271.822C519.408 271.957 519.639 272.031 519.877 272.035C520.115 272.039 520.349 271.973 520.549 271.845C520.749 271.717 520.907 271.532 521.003 271.315C521.098 271.097 521.128 270.856 521.087 270.622C521.068 270.478 521.019 270.339 520.945 270.215C520.871 270.09 520.772 269.982 520.655 269.896C520.405 269.714 520.094 269.635 519.787 269.676C519.413 269.675 519.28 269.916 519.11 270.253C518.979 270.515 518.912 270.804 518.914 271.097ZM519.64 270.363C519.78 270.264 519.953 270.221 520.123 270.244C520.666 270.307 520.759 271.163 520.312 271.451C520.17 271.529 520.005 271.555 519.846 271.524C519.688 271.492 519.545 271.406 519.444 271.279C519.363 271.13 519.339 270.957 519.375 270.791C519.411 270.625 519.505 270.478 519.64 270.375L519.64 270.363Z" fill="#37474F"/>
<path d="M441.434 126.855C436.588 133.026 426.574 147.875 426.574 147.875C426.574 147.875 404.469 132.468 402.357 129.457C398.132 123.52 397.112 118.583 391.544 117.177C385.976 115.771 378.987 114.009 378.987 114.009L384.131 140.045C386.534 142.767 389.457 141.643 395.395 147.514C399.807 151.871 410.582 161.209 419.881 168.357C427.712 174.415 433.344 171.13 437.002 166.692C445.977 155.867 453.559 147.113 453.559 147.113L466.968 106.499C459.072 108.425 453.125 112.132 441.434 126.855Z" fill="#FFA8A7"/>
<path d="M469.685 105.43C458.299 105.077 450.971 110.528 443.757 121.322C439.392 127.857 426.468 146.894 426.468 146.894L410.717 135.863C410.717 135.863 408.497 143.092 403.66 146.694C399.463 149.815 395.947 148.054 395.947 148.054C401.169 153.862 406.859 159.231 412.959 164.107C424.867 173.798 428.904 174.644 434.226 170.634C436.862 168.641 438.606 166.476 443.62 160.728C449.675 153.813 454.001 147.966 454.001 147.966L469.685 105.43Z" fill="#263238"/>
<path d="M481.507 105.185C481.507 105.185 507.772 106.736 514.299 109.738C517.286 111.111 523.821 118.926 522.405 137.653C521.824 145.19 518.707 160.558 518.687 166.203C518.575 174.199 525.541 200.156 525.541 200.156C500.846 215.22 457.295 210.425 448.494 202.301C448.494 202.301 451.602 168.792 452.603 151.559C452.603 151.559 447.902 143.594 448.307 138.276C448.901 130.426 450.551 127.633 457.77 118.877C461.604 114.168 465.724 109.698 470.108 105.495L481.507 105.185Z" fill="#455A64"/>
<path d="M505.3 51.1592C513.74 52.1293 515.779 65.9834 513.737 73.7924C509.801 88.844 499.627 90.63 499.182 97.0092L483.979 88.0185L472.159 81.0299C471.076 80.3869 469.992 79.7438 468.933 79.0526C467.874 78.3614 467.117 77.5868 466.118 76.9923C465.348 76.5313 464.563 76.7939 463.707 76.5618C462.875 76.1713 462.176 75.5436 461.699 74.7576C461.073 73.9396 460.576 73.0309 460.225 72.0627C459.529 70.1746 459.397 68.1246 459.847 66.1631C459.104 67.0076 458.501 67.9668 458.064 69.0035C457.638 70.0558 457.587 71.2226 457.92 72.308C454.418 69.9558 454.112 60.9325 460.865 57.7234C462.074 57.1607 462.84 55.1852 463.291 54.0047C463.643 52.9868 464.112 52.013 464.688 51.1026C465.307 50.266 465.97 49.463 466.674 48.6972C468.078 47.1711 469.617 45.7755 471.272 44.5277C476.11 40.9259 483.359 37.4531 489.59 38.8498C496.364 40.3328 503.322 44.1806 505.3 51.1592Z" fill="#263238"/>
<path d="M498.835 103.038L499.728 89.0619C500.959 89.7115 502.375 89.92 503.741 89.6526C505.107 89.3853 506.34 88.6581 507.235 87.5923C511.424 83.2766 511.85 78.5619 509.581 75.5386C507.084 72.1767 501.507 73.4359 499.092 77.5044C495.471 78.3603 493.993 73.1565 496.774 67.8469C496.774 67.8469 479.172 68.992 471.064 55.5752C470.574 55.0704 469.971 54.69 469.304 54.4658C468.637 54.2415 467.926 54.1799 467.231 54.2861C466.535 54.3922 465.875 54.6631 465.306 55.0761C464.736 55.489 464.273 56.0322 463.956 56.6602C463.081 58.6473 461.948 61.9604 462.708 68.7177C463.001 71.2034 461.785 74.1785 461.869 77.544C462.197 90.8132 465.21 95.1297 468.845 97.3859C471.908 98.9625 475.319 99.7418 478.764 99.6517L478.462 103.269C478.37 105.211 477.912 105.27 476.223 105.36L473.701 105.496C473.701 105.496 463.465 118.331 476.172 120.124C490.12 122.102 504.134 112.429 507.189 107.965C507.189 107.965 506.068 107.768 502.981 107.311C499.895 106.854 499.079 105.645 498.835 103.038Z" fill="#FFBDA7"/>
<path d="M482.882 84.1697L475.637 86.4845C475.769 86.9676 475.997 87.4193 476.308 87.8125C476.618 88.2058 477.004 88.5328 477.443 88.7739C477.882 89.0151 478.365 89.1656 478.864 89.2164C479.362 89.2673 479.865 89.2175 480.344 89.07C481.318 88.7396 482.127 88.0447 482.6 87.1311C483.073 86.2174 483.174 85.1561 482.882 84.1697Z" fill="#B16668"/>
<path d="M482.418 85.8417C481.453 85.816 480.509 86.1266 479.747 86.7204C478.986 87.3142 478.455 88.1542 478.245 89.0966C478.933 89.3038 479.666 89.3063 480.356 89.1039C481.045 88.873 481.656 88.4547 482.12 87.8958C482.584 87.337 482.884 86.6598 482.984 85.9402C482.798 85.8954 482.609 85.8625 482.418 85.8417Z" fill="#F0997A"/>
<path d="M465.178 66.0157L470.011 63.8972C469.889 63.5785 469.702 63.2882 469.464 63.044C469.225 62.7999 468.939 62.607 468.623 62.4771C468.308 62.3473 467.969 62.2832 467.627 62.2889C467.286 62.2946 466.949 62.3699 466.638 62.5102C465.989 62.7925 465.474 63.3152 465.202 63.9688C464.93 64.6224 464.921 65.356 465.178 66.0157Z" fill="#263238"/>
<path d="M470.435 70.0866C470.481 70.6708 470.296 71.2495 469.92 71.6991C469.544 72.1486 469.007 72.4334 468.424 72.4924C468.143 72.5248 467.858 72.5003 467.586 72.4203C467.315 72.3403 467.062 72.2064 466.843 72.0267C466.624 71.847 466.444 71.625 466.312 71.3741C466.181 71.1232 466.102 70.8484 466.079 70.5661C466.036 69.9827 466.223 69.4056 466.598 68.9568C466.973 68.5079 467.508 68.2224 468.09 68.1604C468.371 68.128 468.656 68.1525 468.928 68.2325C469.199 68.3125 469.452 68.4464 469.671 68.6261C469.89 68.8058 470.07 69.0278 470.201 69.2787C470.333 69.5296 470.412 69.8044 470.435 70.0866Z" fill="#263238"/>
<path d="M488.053 68.0231L483.406 65.4735C483.556 65.1628 483.768 64.8861 484.029 64.6604C484.29 64.4346 484.594 64.2646 484.924 64.1607C485.253 64.0567 485.599 64.0212 485.943 64.0561C486.286 64.091 486.619 64.1957 486.92 64.3638C487.543 64.7111 488.009 65.285 488.22 65.9664C488.431 66.6478 488.371 67.3844 488.053 68.0231Z" fill="#263238"/>
<path d="M486.959 70.6103C487.001 71.1938 486.815 71.7708 486.44 72.2197C486.065 72.6685 485.53 72.9541 484.948 73.0161C484.662 73.0573 484.371 73.0394 484.092 72.9634C483.813 72.8875 483.553 72.7551 483.327 72.5745C483.102 72.3939 482.916 72.1689 482.781 71.9135C482.645 71.6581 482.564 71.3776 482.542 71.0896C482.5 70.5061 482.686 69.929 483.061 69.4802C483.436 69.0313 483.971 68.7458 484.553 68.6838C484.839 68.6407 485.131 68.6573 485.411 68.7325C485.69 68.8078 485.951 68.94 486.177 69.1209C486.403 69.3019 486.589 69.5276 486.724 69.7839C486.858 70.0402 486.938 70.3215 486.959 70.6103Z" fill="#263238"/>
<path d="M478.663 66.181L477.055 81.096L469.796 77.223L478.663 66.181Z" fill="#F0997A"/>
<path d="M478.788 99.6033C488.437 99.7936 494.48 96.2925 497.142 90.5C497.142 90.5 496.302 95.937 492.384 98.8665C487.994 102.144 478.538 102.232 478.538 102.232L478.788 99.6033Z" fill="#F0997A"/>
<path d="M476.248 105.276C464.448 117.064 456.988 132.501 455.085 149.071C453.635 163.541 453.042 223.281 453.042 223.281C453.042 223.281 444.683 223.252 440.821 220.44C443.204 187.302 445.632 154.852 447.306 138.261C448.003 132.888 449.972 127.759 453.051 123.3C457.48 116.396 463.115 110.344 469.686 105.434L476.248 105.276Z" fill="#0069BD"/>
<path d="M443.541 183.26C446.868 184.162 450.239 184.89 453.641 185.442L453.768 180.329C450.455 179.763 447.175 179.015 443.945 178.087C443.806 179.836 443.74 181.56 443.541 183.26Z" fill="#FAFAFA"/>
<path d="M453.394 198.255C449.754 197.619 446.156 196.765 442.619 195.697C442.493 197.409 442.366 199.145 442.239 200.882C445.88 201.915 449.579 202.733 453.316 203.333C453.321 201.728 453.327 200.016 453.394 198.255Z" fill="#FAFAFA"/>
<path d="M499.371 105.221C498.556 117.666 494.774 133.454 494.558 146.89C494.184 171.242 501.523 225.317 501.523 225.317C501.523 225.317 519.05 225.124 530.04 217.455C530.133 211.605 525.235 191.011 522.804 182.45C520.373 173.89 519.458 163.079 522.701 149.533C525.945 135.987 523.7 119.129 517.436 109.638L499.371 105.221Z" fill="#0069BD"/>
<path d="M499.234 206.904C513.603 205.833 522.699 202.101 527.134 199.764C526.79 198.183 526.457 196.638 526.053 195.044C520.277 197.991 508.373 201.146 498.66 201.969C498.859 203.658 499.047 205.312 499.234 206.904Z" fill="#FAFAFA"/>
<path d="M522.84 182.428C522.482 181.22 522.161 179.844 521.876 178.48C513.71 181.096 505.222 182.573 496.652 182.867C496.815 184.569 496.978 186.258 497.153 187.935C505.97 187.596 514.701 186.076 523.114 183.418C523.018 183.068 522.923 182.742 522.84 182.428Z" fill="#FAFAFA"/>
<path d="M515.16 70.1284C514.684 72.7842 513.826 75.357 512.612 77.7667C512.084 76.9809 511.484 76.2068 510.859 75.4448C507.249 71.2206 502.915 67.6727 498.062 64.9668C486.842 58.5351 472.692 55.5067 460.973 57.7216C461.587 55.4915 462.486 53.35 463.648 51.3502C466.915 45.671 472.082 41.3268 478.237 39.0827C484.393 36.8386 491.143 36.8386 497.299 39.0826C503.454 41.3266 508.621 45.6707 511.888 51.3499C515.155 57.029 516.314 63.6789 515.16 70.1284Z" fill="#0069BD"/>
<path d="M505.49 41.5442C504.154 40.7555 497.336 38.0783 496.794 37.8954C493.265 36.484 487.441 36.0778 481.105 40.4946C476.111 43.9931 472.386 49.0165 470.489 54.8113L477.716 57.7674L480.127 58.1859C481.46 52.811 489.653 41.646 499.795 42.0431C500.272 42.0537 500.748 42.0997 501.218 42.1807C502.548 42.3613 503.844 42.7398 505.062 43.3037C506.338 44.3825 507.543 45.5431 508.668 46.778C508.632 45.7062 508.321 44.6617 507.764 43.7451C507.208 42.8284 506.425 42.0705 505.49 41.5442Z" fill="#0069BD"/>
<path opacity="0.45" d="M505.49 41.5442C504.154 40.7555 497.336 38.0783 496.794 37.8954C493.265 36.484 487.441 36.0778 481.105 40.4946C476.111 43.9931 472.386 49.0165 470.489 54.8113L477.716 57.7674L480.127 58.1859C481.46 52.811 489.653 41.646 499.795 42.0431C500.272 42.0537 500.748 42.0997 501.218 42.1807C502.548 42.3613 503.844 42.7398 505.062 43.3037C506.338 44.3825 507.543 45.5431 508.668 46.778C508.632 45.7062 508.321 44.6617 507.764 43.7451C507.208 42.8284 506.425 42.0705 505.49 41.5442Z" fill="white"/>
<path d="M480.017 58.1749C481.583 51.9081 492.524 37.7131 504.953 43.2806C506.255 44.3561 507.483 45.5168 508.632 46.7551C508.592 45.6918 508.283 44.656 507.733 43.7448C507.183 42.8336 506.411 42.0769 505.489 41.5456C502.275 39.6648 495.67 38.3151 488.271 43.4277C483.283 46.9275 479.566 51.9515 477.679 57.7446L480.017 58.1749Z" fill="#0069BD"/>
<path opacity="0.3" d="M480.017 58.1749C481.583 51.9081 492.524 37.7131 504.953 43.2806C506.255 44.3561 507.483 45.5168 508.632 46.7551C508.592 45.6918 508.283 44.656 507.733 43.7448C507.183 42.8336 506.411 42.0769 505.489 41.5456C502.275 39.6648 495.67 38.3151 488.271 43.4277C483.283 46.9275 479.566 51.9515 477.679 57.7446L480.017 58.1749Z" fill="black"/>
<path d="M498.431 62.8374C497.926 62.317 495.811 56.532 486.99 50.8323C481.598 47.2916 469.902 46.1654 464.717 45.8338C455.54 45.2109 453.194 46.9999 452.972 48.326C452.91 48.6394 452.664 50.1101 452.591 50.4475C452.516 50.7454 452.558 51.0605 452.708 51.3285C453.907 53.5279 461.009 57.738 461.009 57.738C472.728 55.5231 486.878 58.5515 498.098 64.9832L498.431 62.8374Z" fill="#0069BD"/>
<path opacity="0.15" d="M498.431 62.8374C497.926 62.317 495.811 56.532 486.99 50.8323C481.598 47.2916 469.902 46.1654 464.717 45.8338C455.54 45.2109 453.194 46.9999 452.972 48.326C452.91 48.6394 452.664 50.1101 452.591 50.4475C452.516 50.7454 452.558 51.0605 452.708 51.3285C453.907 53.5279 461.009 57.738 461.009 57.738C472.728 55.5231 486.878 58.5515 498.098 64.9832L498.431 62.8374Z" fill="black"/>
<path d="M498.037 64.9694C486.818 58.5377 472.668 55.5093 460.948 57.7242C460.948 57.7242 453.846 53.514 452.648 51.3146C452.012 50.1062 452.915 47.2145 464.263 47.9776C469.508 48.3336 481.144 49.4595 486.608 52.9764C491.427 55.8736 495.375 60.0167 498.037 64.9694Z" fill="#0069BD"/>
<path opacity="0.3" d="M498.037 64.9694C486.818 58.5377 472.668 55.5093 460.948 57.7242C460.948 57.7242 453.846 53.514 452.648 51.3146C452.012 50.1062 452.915 47.2145 464.263 47.9776C469.508 48.3336 481.144 49.4595 486.608 52.9764C491.427 55.8736 495.375 60.0167 498.037 64.9694Z" fill="black"/>
<path d="M387.698 71.6275L381.661 73.259L393.363 100.378L390.7 110.103L386.481 109.329L374.623 81.9553L368.586 83.5868C368.318 84.3096 368.087 85.0446 367.879 85.8279C364.104 99.6376 369.271 119.135 379.416 129.387C384.536 134.567 389.933 136.371 394.509 135.145L400.546 133.513C400.92 133.415 401.287 133.291 401.645 133.143L508.781 239.901C509.417 251.337 514.127 263.56 521.471 270.968C525.281 274.817 529.231 276.808 532.897 277.038L538.933 275.395L527.195 248.287L529.858 238.55L534.065 239.337L545.971 266.759L552.008 265.115C552.264 264.404 552.495 263.657 552.715 262.874C556.49 249.076 551.323 229.566 541.178 219.315C536.118 214.207 530.781 212.379 526.242 213.534L526.133 213.533L526.049 213.533L520.205 215.117C519.765 215.229 519.333 215.373 518.913 215.547L411.777 108.765C411.141 97.3403 406.419 85.1173 399.075 77.6979C395.325 73.8975 391.376 71.9056 387.698 71.6275Z" fill="#0069BD"/>
<path opacity="0.2" d="M387.698 71.6275L381.661 73.259L393.363 100.378L390.7 110.103L386.481 109.329L374.623 81.9553L368.586 83.5868C368.318 84.3096 368.087 85.0446 367.879 85.8279C364.104 99.6376 369.271 119.135 379.416 129.387C384.536 134.567 389.933 136.371 394.509 135.145L400.546 133.513C400.92 133.415 401.287 133.291 401.645 133.143L508.781 239.901C509.417 251.337 514.127 263.56 521.471 270.968C525.281 274.817 529.231 276.808 532.897 277.038L538.933 275.395L527.195 248.287L529.858 238.55L534.065 239.337L545.971 266.759L552.008 265.115C552.264 264.404 552.495 263.657 552.715 262.874C556.49 249.076 551.323 229.566 541.178 219.315C536.118 214.207 530.781 212.379 526.242 213.534L526.133 213.533L526.049 213.533L520.205 215.117C519.765 215.229 519.333 215.373 518.913 215.547L411.777 108.765C411.141 97.3403 406.419 85.1173 399.075 77.6979C395.325 73.8975 391.376 71.9056 387.698 71.6275Z" fill="white"/>
<path opacity="0.4" d="M393.363 100.381L399.436 98.7372L396.052 111.101L390.7 110.105L393.363 100.381Z" fill="#0069BD"/>
<path opacity="0.4" d="M534.089 239.387L540.162 237.743L530.591 235.973L529.87 238.6L534.089 239.387Z" fill="#0069BD"/>
<path opacity="0.4" d="M508.757 239.904L514.829 238.272L406.178 129.99L400.093 131.621L508.757 239.904Z" fill="#0069BD"/>
<path d="M520.475 217.084L411.824 108.801C411.188 97.3763 406.466 85.1533 399.122 77.7339C395.323 73.8971 391.374 71.9053 387.696 71.6633L399.399 98.7346L396.027 111.098L386.444 109.328L374.585 81.9548C374.33 82.6656 374.098 83.4126 373.878 84.1959C370.103 98.0056 375.27 117.503 385.415 127.755C392.855 135.271 400.887 135.697 406.141 129.986L514.829 238.269C515.464 249.693 520.186 261.929 527.518 269.336C531.329 273.185 535.278 275.165 538.956 275.406L527.217 248.299L530.589 235.935L540.16 237.705L552.006 265.115C552.262 264.404 552.494 263.657 552.714 262.874C556.489 249.076 551.322 229.566 541.177 219.315C533.761 211.81 525.729 211.372 520.475 217.084Z" fill="#0069BD"/>
<path opacity="0.6" d="M520.475 217.084L411.824 108.801C411.188 97.3763 406.466 85.1533 399.122 77.7339C395.323 73.8971 391.374 71.9053 387.696 71.6633L399.399 98.7346L396.027 111.098L386.444 109.328L374.585 81.9548C374.33 82.6656 374.098 83.4126 373.878 84.1959C370.103 98.0056 375.27 117.503 385.415 127.755C392.855 135.271 400.887 135.697 406.141 129.986L514.829 238.269C515.464 249.693 520.186 261.929 527.518 269.336C531.329 273.185 535.278 275.165 538.956 275.406L527.217 248.299L530.589 235.935L540.16 237.705L552.006 265.115C552.262 264.404 552.494 263.657 552.714 262.874C556.489 249.076 551.322 229.566 541.177 219.315C533.761 211.81 525.729 211.372 520.475 217.084Z" fill="white"/>
<path opacity="0.2" d="M420.369 124.56L509.62 213.476C510.811 214.722 511.694 216.229 512.2 217.877C512.705 219.525 512.818 221.268 512.53 222.967C511.772 225.847 509.238 226.273 506.882 223.912L417.608 134.924C416.416 133.686 415.531 132.186 415.026 130.543C414.52 128.901 414.408 127.163 414.697 125.469C415.467 122.613 418.001 122.2 420.369 124.56Z" fill="#0069BD"/>
<path opacity="0.2" d="M506.517 214.31L417.267 125.394C416.732 124.832 416.084 124.39 415.365 124.097C415.058 124.512 414.831 124.982 414.697 125.481C414.41 127.173 414.523 128.909 415.028 130.549C415.534 132.189 416.417 133.688 417.608 134.924L506.882 223.9C507.414 224.457 508.058 224.895 508.771 225.186C509.079 224.763 509.302 224.284 509.427 223.777C509.715 222.081 509.602 220.342 509.097 218.698C508.591 217.054 507.708 215.551 506.517 214.31Z" fill="#0069BD"/>
<path opacity="0.2" d="M529.87 238.6L530.591 235.973L540.162 237.743L552.032 265.117L545.947 266.76L534.089 239.387L529.87 238.6Z" fill="#0069BD"/>
<path opacity="0.2" d="M387.697 71.6289L399.435 98.7364L396.051 111.1L400.521 98.7643L387.697 71.6289Z" fill="white"/>
<path opacity="0.2" d="M538.946 275.445L525.868 248.344L530.591 235.973L527.219 248.337L538.946 275.445Z" fill="white"/>
<path d="M485.023 179.68C481.631 176.761 480.716 176.444 477.11 176.299C473.504 176.154 471.852 176.064 470.452 176.131C468 176.399 465.591 176.974 463.282 177.843C461.614 178.875 464.186 181.393 466.888 181.33C469.59 181.267 473.138 180.917 473.138 180.917L485.023 179.68Z" fill="#F0997A"/>
<path d="M517.856 110.234C528.786 113.179 535.129 117.061 537.377 122.738C541.346 132.799 550.2 164.082 551.571 172.241C552.941 180.399 552.222 182.544 545.491 186.235C539.896 189.316 516.677 196.231 505.956 199.041C504.522 199.414 503.021 199.449 501.572 199.143C500.122 198.836 498.763 198.197 497.603 197.275L487.788 189.449L528.466 170.399L519.371 142.819C519.371 142.819 510.61 123.103 517.856 110.234Z" fill="#FFBDA7"/>
<path d="M517.472 109.618C524.641 111.694 530.628 113.922 534.03 117.419C538.837 122.345 538.21 122.259 544.557 142.581C550.903 162.903 552.738 172.957 553.17 177.023C553.602 181.09 553.053 182.873 546.745 186.325C540.437 189.777 522.787 194.251 522.787 194.251C522.564 190.213 521.727 186.232 520.307 182.445C518.106 177.131 514.923 176.794 514.923 176.794L527.334 169.998C527.334 169.998 519.845 148.55 517.084 141.4C514.322 134.25 511 121.839 517.472 109.618Z" fill="#263238"/>
<path d="M500.562 192.712C499.356 192.491 498.963 187.52 496.963 186.801C494.964 186.083 494.685 186.371 493.691 184.438C492.696 182.505 491.288 181.752 490.021 181.856C488.754 181.96 489.257 179.67 486.979 179.095C484.043 178.715 481.075 178.656 478.126 178.92C476.051 179.118 471.324 182.105 469.293 183.545C467.261 184.985 468.668 186.353 469.944 187.021C471.22 187.689 473.743 187.107 473.743 187.107C473.743 187.107 471.662 188.945 472.142 189.803C472.777 190.927 474.909 191.911 477.892 190.643C475.946 191.987 476.158 193.291 477.772 193.948C478.977 194.458 480.799 194.224 482.9 193.459C485.545 192.491 489.083 191.321 491.167 192.185L493.224 193.808L500.562 192.712Z" fill="#FFBDA7"/>
<path d="M500.561 192.714C500.031 192.712 499.743 192.12 499.479 191.745C499.229 191.33 499.008 190.898 498.82 190.452C498.484 189.617 498.084 188.809 497.622 188.035C497.435 187.711 497.16 187.447 496.829 187.273L495.528 186.75C495.019 186.58 494.576 186.253 494.265 185.816C494.012 185.387 493.823 184.923 493.703 184.439C493.991 184.811 494.308 185.159 494.652 185.48C494.976 185.75 495.367 185.926 495.784 185.991C496.23 186.089 496.7 186.211 497.17 186.357C497.707 186.573 498.165 186.949 498.481 187.435C498.992 188.287 499.371 189.212 499.605 190.177L499.962 191.541C500.013 191.992 500.226 192.408 500.561 192.714Z" fill="#F0997A"/>
<path d="M473.732 187.107C474.797 186.267 475.861 185.438 476.973 184.706C478.08 183.882 479.262 183.163 480.503 182.559C481.855 182.206 483.245 182.016 484.642 181.995C485.996 181.903 487.354 181.908 488.707 182.009C487.379 182.31 486.051 182.559 484.724 182.755L482.744 183.086C482.116 183.168 481.494 183.299 480.886 183.478C479.762 183.968 478.577 184.736 477.393 185.347C476.214 186.016 474.991 186.604 473.732 187.107Z" fill="#F0997A"/>
<path d="M492.212 186.484C490.945 186.673 489.63 186.693 488.412 186.773C487.203 186.9 486.026 187.238 484.935 187.774C482.627 188.767 480.32 189.845 477.881 190.644C479.946 189.125 482.176 187.842 484.528 186.82C485.732 186.239 487.054 185.946 488.391 185.965C489.674 186.058 490.951 186.231 492.212 186.484Z" fill="#F0997A"/>
<path d="M372.69 124.735C370.12 121.385 369.87 120.515 369.93 117.114C369.99 113.713 369.947 112.157 370.12 110.83C370.506 108.54 371.174 106.306 372.11 104.179C373.176 102.663 375.399 105.216 375.197 107.808C374.995 110.401 374.477 113.668 374.477 113.668L372.69 124.735Z" fill="#F0997A"/>
<path d="M384.143 140.042C383.99 138.908 379.324 138.265 378.764 136.345C378.204 134.425 378.482 134.173 376.712 133.141C376.019 132.832 375.435 132.32 375.037 131.673C374.639 131.026 374.445 130.274 374.481 129.515C374.63 128.37 372.47 128.688 372.08 126.503C371.868 123.719 371.967 120.92 372.374 118.158C372.67 116.217 375.737 111.945 377.227 110.105C378.717 108.265 379.906 109.668 380.456 110.9C380.75 112.094 380.712 113.345 380.347 114.519C380.347 114.519 382.175 112.667 382.957 113.165C383.98 113.819 384.806 115.873 383.445 118.618C384.814 116.85 386.032 117.119 386.569 118.629C386.888 120.274 386.626 121.978 385.829 123.451C384.783 125.86 383.673 129.402 384.366 131.419L386.382 134.357L384.143 140.042Z" fill="#FFBDA7"/>
<path d="M380.287 114.496C379.427 115.458 378.592 116.42 377.804 117.418C376.973 118.421 376.235 119.496 375.598 120.631C375.204 121.885 374.953 123.179 374.849 124.488C374.714 125.762 374.657 127.043 374.679 128.323C375.033 127.118 375.339 125.853 375.608 124.612L376.013 122.768C376.126 122.182 376.286 121.605 376.489 121.044C377.011 120.009 377.787 118.938 378.43 117.855C379.12 116.776 379.74 115.654 380.287 114.496Z" fill="#F0997A"/>
<path d="M378.78 131.861C379.025 130.656 379.102 129.45 379.251 128.304C379.43 127.17 379.81 126.077 380.371 125.076C381.428 122.969 382.557 120.85 383.446 118.597C381.909 120.45 380.583 122.468 379.493 124.614C378.883 125.725 378.54 126.963 378.491 128.229C378.513 129.445 378.61 130.658 378.78 131.861Z" fill="#F0997A"/>
<path d="M189.52 237.13L189.97 223.99L181.91 221.35C181.564 216.897 180.841 212.481 179.75 208.15L186.59 203.15L181.95 190.81L173.49 191.49C171.484 187.514 169.142 183.717 166.49 180.14L170.87 172.83L161.87 163.22L154.31 167.09C150.91 164.184 147.278 161.562 143.45 159.25L144.67 150.85L132.67 145.41L127.17 151.85C122.927 150.493 118.579 149.489 114.17 148.85L112.17 140.62L98.99 140.17L96.39 148.24C91.9413 148.59 87.5295 149.309 83.2 150.39L78.12 143.59L65.78 148.2L66.46 156.66C62.4863 158.696 58.6898 161.061 55.11 163.73L47.75 159.25L38.1 168.25L41.97 175.85C39.0634 179.232 36.4537 182.859 34.17 186.69L25.78 185.43L20.3 197.43L26.78 202.92C25.4131 207.16 24.4095 211.509 23.78 215.92L15.45 218.01L15 231.15L23.1 233.79C23.435 238.24 24.1544 242.653 25.25 246.98L18.41 251.98L23.06 264.33L31.52 263.65C33.5207 267.629 35.8628 271.426 38.52 275L34.13 282.31L43.13 291.92L50.69 288.05C54.0806 290.955 57.7064 293.574 61.53 295.88L60.27 304.27L72.27 309.72L77.8 303.28C82.0429 304.649 86.3907 305.67 90.8 306.33L92.8 314.56L105.98 315.01L108.58 306.94C113.031 306.586 117.446 305.867 121.78 304.79L126.78 311.59L139.12 306.98L138.48 298.52C142.446 296.471 146.242 294.106 149.83 291.45L157.1 295.83L166.75 286.83L162.88 279.23C165.788 275.848 168.397 272.221 170.68 268.39L179.07 269.65L184.55 257.65L178.07 252.15C179.46 247.913 180.48 243.563 181.12 239.15L189.52 237.13ZM100.73 279.7C90.4179 279.352 80.4409 275.953 72.0608 269.933C63.6807 263.914 57.2742 255.544 53.6516 245.883C50.029 236.222 49.3531 225.703 51.7094 215.658C54.0657 205.613 59.3483 196.492 66.889 189.449C74.4297 182.407 83.8897 177.759 94.0724 176.094C104.255 174.428 114.703 175.82 124.094 180.094C133.486 184.367 141.399 191.33 146.832 200.101C152.266 208.872 154.976 219.058 154.62 229.37C154.145 243.189 148.202 256.255 138.096 265.693C127.99 275.131 114.55 280.169 100.73 279.7Z" fill="#EBEBEB"/>
<path d="M414.45 193.67L417.76 190.58L416.45 187.97C417.449 186.801 418.349 185.55 419.14 184.23L422.04 184.66L423.91 180.52L421.69 178.63C422.168 177.166 422.52 175.664 422.74 174.14L425.59 173.43L425.73 168.89L422.95 167.99C422.828 166.453 422.581 164.928 422.21 163.43L424.56 161.68L422.96 157.43L420.05 157.66C419.348 156.29 418.536 154.978 417.62 153.74L419.13 151.24L416.02 147.92L413.42 149.25C412.249 148.253 410.998 147.354 409.68 146.56L410.1 143.66L405.97 141.77L404.07 144C402.604 143.544 401.102 143.209 399.58 143L398.87 140.16L394.33 139.99L393.42 142.79C391.889 142.907 390.37 143.155 388.88 143.53L387.14 141.18L382.88 142.77L383.12 145.69C381.746 146.385 380.434 147.198 379.2 148.12L376.68 146.61L373.36 149.7L374.65 152.25C373.644 153.416 372.74 154.668 371.95 155.99L369.06 155.56L367.18 159.7L369.41 161.6C368.948 163.062 368.613 164.561 368.41 166.08L365.55 166.79L365.41 171.33L368.2 172.23C368.314 173.768 368.558 175.294 368.93 176.79L366.57 178.53L368.17 182.78L371.09 182.56C371.792 183.931 372.605 185.242 373.52 186.48L372.01 188.98L375.12 192.3L377.72 190.97C378.889 191.97 380.14 192.87 381.46 193.66L381.03 196.55L385.17 198.44L387.07 196.22C388.538 196.672 390.039 197.007 391.56 197.22L392.27 200.06L396.81 200.23L397.72 197.43C399.252 197.314 400.771 197.066 402.26 196.69L404 199.04L408.26 197.45L408.03 194.53C409.401 193.834 410.709 193.021 411.94 192.1L414.45 193.67ZM390.83 174.54C389.957 173.605 389.381 172.431 389.175 171.168C388.969 169.904 389.142 168.608 389.672 167.444C390.203 166.279 391.067 165.298 392.156 164.624C393.244 163.951 394.508 163.615 395.787 163.66C397.066 163.705 398.303 164.128 399.342 164.876C400.38 165.624 401.174 166.663 401.621 167.862C402.069 169.061 402.151 170.366 401.857 171.612C401.564 172.857 400.907 173.988 399.97 174.86C399.349 175.446 398.617 175.903 397.818 176.205C397.018 176.506 396.167 176.646 395.313 176.616C394.46 176.586 393.62 176.388 392.844 176.031C392.067 175.675 391.369 175.168 390.79 174.54H390.83Z" fill="#EBEBEB"/>
<path d="M317.001 266.25H316.931L299.611 265.66C299.26 265.654 298.916 265.559 298.612 265.384C298.308 265.209 298.053 264.96 297.871 264.66L293.201 256.81C290.683 255.889 288.248 254.759 285.921 253.43L278.451 254.72C278.103 254.784 277.744 254.758 277.408 254.647C277.073 254.535 276.771 254.34 276.531 254.08L264.701 241.42C264.452 241.158 264.276 240.836 264.188 240.486C264.101 240.135 264.105 239.768 264.201 239.42L266.091 232.01C264.92 229.609 263.962 227.109 263.231 224.54L255.701 219.34C255.409 219.139 255.172 218.868 255.013 218.552C254.854 218.235 254.777 217.884 254.791 217.53L255.381 200.21C255.392 199.86 255.49 199.519 255.664 199.215C255.838 198.912 256.084 198.656 256.381 198.47L264.251 193.8C265.158 191.289 266.286 188.863 267.621 186.55L266.241 179.02C266.176 178.67 266.201 178.31 266.313 177.973C266.425 177.635 266.62 177.332 266.881 177.09L279.541 165.27C279.802 165.021 280.124 164.843 280.474 164.754C280.824 164.664 281.191 164.667 281.541 164.76L288.981 166.66C291.376 165.488 293.868 164.528 296.431 163.79L301.631 156.26C301.824 155.961 302.094 155.719 302.412 155.559C302.73 155.399 303.085 155.327 303.441 155.35L320.751 155.95C321.102 155.957 321.447 156.053 321.753 156.227C322.058 156.402 322.315 156.651 322.501 156.95L327.171 164.81C329.67 165.727 332.085 166.858 334.391 168.19L341.951 166.8C342.299 166.735 342.657 166.76 342.993 166.872C343.329 166.984 343.631 167.179 343.871 167.44L355.701 180.1C355.947 180.363 356.123 180.685 356.21 181.035C356.297 181.385 356.294 181.752 356.201 182.1L354.301 189.53C355.472 191.926 356.436 194.419 357.181 196.98L364.701 202.18C364.993 202.38 365.229 202.652 365.388 202.968C365.547 203.284 365.624 203.636 365.611 203.99L365.021 221.3C365.009 221.651 364.911 221.994 364.737 222.299C364.563 222.604 364.317 222.862 364.021 223.05L356.151 227.72C355.237 230.225 354.109 232.648 352.781 234.96L354.161 242.5C354.225 242.848 354.2 243.207 354.088 243.543C353.977 243.878 353.781 244.18 353.521 244.42L340.781 256.25C340.518 256.498 340.196 256.675 339.846 256.762C339.496 256.85 339.129 256.846 338.781 256.75L331.381 254.86C328.969 256.026 326.464 256.986 323.891 257.73L318.741 265.25C318.555 265.547 318.299 265.793 317.996 265.968C317.692 266.142 317.35 266.239 317.001 266.25ZM300.911 261.48L315.911 261.99L320.911 254.8C321.188 254.38 321.612 254.08 322.101 253.96C324.915 253.19 327.645 252.142 330.251 250.83C330.705 250.611 331.221 250.558 331.711 250.68L338.711 252.47L349.711 242.22L348.451 234.99C348.353 234.485 348.446 233.961 348.711 233.52C350.196 231.044 351.419 228.42 352.361 225.69C352.519 225.195 352.854 224.775 353.301 224.51L360.831 220.05L361.341 205.05L354.141 200.05C353.761 199.791 353.477 199.415 353.331 198.98C353.331 198.93 353.331 198.87 353.331 198.81C352.56 196.046 351.515 193.366 350.211 190.81C349.979 190.352 349.922 189.826 350.051 189.33L351.851 182.25L341.601 171.25L334.411 172.57C333.908 172.661 333.39 172.569 332.951 172.31C330.47 170.822 327.843 169.592 325.111 168.64C324.954 168.59 324.803 168.523 324.661 168.44C324.372 168.26 324.132 168.013 323.961 167.72L319.451 160.17L304.451 159.65L299.451 166.86C299.152 167.283 298.712 167.584 298.211 167.71C295.426 168.471 292.725 169.513 290.151 170.82C289.697 171.052 289.174 171.108 288.681 170.98L281.601 169.18L270.601 179.43L271.921 186.6C271.999 187.052 271.932 187.518 271.731 187.93L271.631 188.1C270.143 190.586 268.92 193.22 267.981 195.96C267.815 196.43 267.489 196.826 267.061 197.08L259.531 201.55L259.021 216.55L266.231 221.55C266.642 221.831 266.939 222.249 267.071 222.73C267.82 225.538 268.863 228.26 270.181 230.85C270.252 230.997 270.309 231.152 270.351 231.31C270.426 231.639 270.426 231.981 270.351 232.31L268.551 239.31L278.801 250.31L285.941 249C286.439 248.909 286.954 249.001 287.391 249.26C289.891 250.745 292.534 251.975 295.281 252.93C295.776 253.077 296.195 253.41 296.451 253.86L300.911 261.48ZM310.181 242.51C309.811 242.51 309.441 242.51 309.071 242.51C300.758 242.364 292.839 238.94 287.038 232.984C281.237 227.028 278.024 219.021 278.097 210.707C278.17 202.393 281.524 194.445 287.429 188.592C293.334 182.739 301.311 179.455 309.626 179.455C317.94 179.455 325.917 182.739 331.822 188.592C337.727 194.445 341.081 202.393 341.154 210.707C341.227 219.021 338.014 227.028 332.213 232.984C326.412 238.94 318.493 242.364 310.181 242.51ZM310.181 183.42C302.916 183.545 295.995 186.535 290.924 191.739C285.854 196.942 283.044 203.938 283.107 211.203C283.169 218.469 286.099 225.415 291.259 230.53C296.419 235.646 303.39 238.516 310.656 238.516C317.921 238.516 324.893 235.646 330.052 230.53C335.212 225.415 338.142 218.469 338.205 211.203C338.267 203.938 335.457 196.942 330.387 191.739C325.316 186.535 318.395 183.545 311.131 183.42H310.181Z" fill="#EBEBEB"/>
<path d="M350.03 130.25L355.29 124.99L362.45 126.9L364.38 134.07L359.12 139.33L351.95 137.4L350.03 130.25ZM359.58 134.55C360.048 134.082 360.367 133.485 360.496 132.835C360.625 132.185 360.559 131.512 360.305 130.9C360.051 130.288 359.622 129.765 359.071 129.397C358.52 129.029 357.873 128.833 357.21 128.833C356.548 128.833 355.9 129.029 355.349 129.397C354.799 129.765 354.369 130.288 354.116 130.9C353.862 131.512 353.795 132.185 353.924 132.835C354.053 133.485 354.372 134.082 354.84 134.55C355.474 135.172 356.327 135.518 357.214 135.514C358.102 135.511 358.952 135.157 359.58 134.53V134.55Z" fill="#F0F0F0"/>
<path d="M60.1704 156.899C59.1704 152.489 59.6104 148.789 61.5104 145.769C63.4104 142.749 66.5104 140.769 70.9204 139.769C75.3304 138.769 79.1404 139.169 82.1204 141.029C85.1004 142.889 87.1204 146.029 88.1204 150.329C88.8264 152.983 88.8847 155.768 88.2904 158.449C87.709 160.676 86.4806 162.681 84.7604 164.209C82.7172 165.93 80.2649 167.094 77.6404 167.589C75.0677 168.272 72.3738 168.365 69.7604 167.859C67.4887 167.307 65.434 166.088 63.8604 164.359C61.9804 162.251 60.7055 159.673 60.1704 156.899ZM68.5104 155.039C69.1304 157.759 70.0804 159.599 71.3604 160.559C72.0211 161 72.7641 161.302 73.5447 161.448C74.3253 161.594 75.1274 161.581 75.9027 161.409C76.6781 161.237 77.4106 160.91 78.0564 160.448C78.7021 159.986 79.2477 159.398 79.6604 158.719C80.3804 157.329 80.3904 155.119 79.7104 152.109C79.1304 149.569 78.1937 147.829 76.9004 146.889C76.2492 146.422 75.5016 146.107 74.7124 145.966C73.9232 145.826 73.1127 145.865 72.3404 146.079C71.5674 146.224 70.8374 146.542 70.2052 147.01C69.5729 147.478 69.055 148.083 68.6904 148.779C67.9504 150.249 67.8804 152.249 68.5104 155.039Z" fill="#263238"/>
<path d="M92.0406 153.6C91.6854 152.237 91.622 150.815 91.8547 149.426C92.0873 148.037 92.6107 146.713 93.3906 145.54C94.2649 144.294 95.3766 143.234 96.6619 142.418C97.9473 141.603 99.3809 141.05 100.881 140.79C104.794 139.904 108.007 140.367 110.521 142.18C112.636 143.82 114.074 146.18 114.561 148.812C115.047 151.444 114.549 154.162 113.161 156.45C111.601 158.83 109.061 160.417 105.541 161.21C102.829 161.968 99.9354 161.734 97.3806 160.55C96.0145 159.883 94.8214 158.908 93.895 157.702C92.9686 156.496 92.3339 155.092 92.0406 153.6ZM99.5506 151.87C99.7529 153.268 100.435 154.551 101.481 155.5C101.895 155.814 102.373 156.034 102.88 156.144C103.388 156.254 103.914 156.253 104.421 156.14C104.928 156.026 105.405 155.804 105.817 155.488C106.23 155.172 106.569 154.77 106.811 154.31C107.334 152.967 107.384 151.485 106.951 150.11C106.74 148.746 106.066 147.495 105.041 146.57C104.643 146.248 104.176 146.021 103.677 145.909C103.177 145.796 102.658 145.8 102.161 145.92C101.642 146.028 101.154 146.252 100.735 146.576C100.316 146.9 99.9756 147.315 99.7406 147.79C99.2021 149.086 99.1348 150.53 99.5506 151.87Z" fill="#263238"/>
<path d="M122.03 164.82L115.9 137.82L122.9 136.22L123.56 139.11C124.054 137.958 124.771 136.915 125.67 136.04C126.657 135.203 127.835 134.622 129.1 134.35C130.269 134.032 131.5 134.014 132.678 134.297C133.856 134.58 134.944 135.156 135.84 135.97C137.817 137.818 139.158 140.244 139.67 142.9C140.41 146.15 140.19 148.81 139.03 150.9C138.479 151.9 137.716 152.767 136.796 153.442C135.875 154.117 134.819 154.584 133.7 154.81C132.622 155.066 131.505 155.11 130.41 154.94C129.36 154.757 128.36 154.358 127.47 153.77L129.59 163.1L122.03 164.82ZM125.64 145.96C125.824 147.209 126.448 148.352 127.4 149.18C127.782 149.473 128.225 149.675 128.696 149.772C129.167 149.869 129.654 149.858 130.12 149.74C130.553 149.654 130.96 149.466 131.307 149.194C131.655 148.921 131.933 148.57 132.12 148.17C132.546 146.919 132.546 145.562 132.12 144.31C131.938 143.055 131.335 141.899 130.41 141.03C130.067 140.746 129.664 140.543 129.23 140.439C128.797 140.335 128.345 140.332 127.91 140.43C127.451 140.53 127.02 140.731 126.649 141.021C126.279 141.31 125.978 141.679 125.77 142.1C125.281 143.333 125.235 144.698 125.64 145.96Z" fill="#263238"/>
<path d="M142.88 146.55L150.161 144.16C150.548 144.863 151.151 145.424 151.88 145.76C152.666 145.987 153.497 146.005 154.292 145.812C155.086 145.619 155.817 145.222 156.411 144.66C156.576 144.483 156.697 144.269 156.761 144.035C156.826 143.802 156.832 143.556 156.781 143.32C156.72 143.049 156.581 142.802 156.379 142.612C156.178 142.421 155.924 142.295 155.65 142.25C154.521 142.126 153.38 142.126 152.251 142.25C150.354 142.411 148.447 142.411 146.551 142.25C145.44 142.089 144.399 141.613 143.551 140.88C142.645 140.096 142.019 139.038 141.769 137.867C141.518 136.696 141.655 135.476 142.161 134.39C142.744 133.228 143.65 132.259 144.771 131.6C146.366 130.693 148.099 130.055 149.9 129.71C151.62 129.243 153.399 129.027 155.18 129.07C156.299 129.142 157.384 129.485 158.34 130.07C159.36 130.757 160.225 131.65 160.88 132.69L153.88 135C153.619 134.479 153.184 134.065 152.65 133.83C151.921 133.569 151.13 133.534 150.38 133.73C149.718 133.822 149.104 134.127 148.63 134.6C148.48 134.761 148.371 134.956 148.314 135.169C148.256 135.381 148.252 135.605 148.301 135.82C148.355 136.056 148.479 136.271 148.658 136.435C148.836 136.599 149.06 136.705 149.301 136.74C150.418 136.869 151.549 136.846 152.661 136.67C154.589 136.39 156.545 136.363 158.48 136.59C159.698 136.762 160.838 137.287 161.76 138.1C162.594 138.856 163.174 139.851 163.42 140.95C163.677 142.127 163.583 143.355 163.15 144.48C162.622 145.812 161.701 146.952 160.51 147.75C158.757 148.896 156.792 149.682 154.73 150.06C151.164 150.873 148.497 150.943 146.73 150.27C145.009 149.582 143.627 148.246 142.88 146.55Z" fill="#263238"/>
<path d="M167.3 121.82H175.51V128.12L174 140.79H168.92L167.3 128.14V121.82ZM167.7 142.7H175.36V149.48H167.7V142.7Z" fill="#263238"/>
<path d="M102.13 207.829H101.95C97.4504 206.079 94.7604 204.379 93.3604 202.329C92.2646 202.537 91.1308 202.382 90.1304 201.889C88.9586 201.315 87.9864 200.402 87.3404 199.269C87.0009 199.529 86.601 199.7 86.178 199.765C85.7549 199.829 85.3223 199.786 84.9204 199.639C83.688 199.178 82.6364 198.333 81.9204 197.229C81.4726 197.563 80.9159 197.716 80.3604 197.659C77.3604 197.419 73.3604 191.499 73.0704 185.199C73.0675 185.066 73.1156 184.937 73.2049 184.838C73.2942 184.74 73.4178 184.679 73.5504 184.669C73.6161 184.666 73.6817 184.677 73.7434 184.699C73.8051 184.722 73.8617 184.757 73.91 184.801C73.9583 184.846 73.9973 184.899 74.0248 184.959C74.0524 185.019 74.0679 185.083 74.0704 185.149C74.3504 191.149 78.1804 196.479 80.4504 196.659C80.6156 196.677 80.7828 196.663 80.9424 196.617C81.102 196.57 81.2509 196.493 81.3804 196.389C80.5983 194.963 80.1072 193.396 79.9355 191.779C79.7639 190.162 79.9151 188.527 80.3804 186.969C81.2404 183.969 82.0004 182.789 82.9204 182.969C84.6404 183.399 84.4104 189.969 83.5004 194.259C83.3625 195.033 83.0774 195.773 82.6604 196.439C83.2499 197.427 84.1399 198.202 85.2004 198.649C85.4831 198.757 85.7907 198.781 86.0867 198.719C86.3828 198.657 86.6548 198.511 86.8704 198.299C86.0904 196.369 85.8704 193.729 86.9904 190.369C88.3904 185.939 88.9904 185.819 89.3004 185.739C89.417 185.714 89.5381 185.722 89.6508 185.761C89.7635 185.799 89.8636 185.868 89.9404 185.959C90.8704 187.009 89.7604 193.889 88.6004 197.289C88.4646 197.698 88.2763 198.088 88.0404 198.449C88.577 199.53 89.451 200.408 90.5304 200.949C91.2384 201.293 92.0257 201.442 92.8104 201.379C92.7204 201.189 92.6404 200.999 92.5604 200.799C91.7704 198.649 92.1604 196.179 93.7504 193.219C94.8004 191.269 95.6604 190.349 96.4604 190.349C96.6728 190.352 96.8799 190.415 97.0571 190.532C97.2344 190.649 97.3744 190.815 97.4604 191.009C98.3304 192.619 97.7004 197.929 95.9804 200.569C95.5777 201.174 95.0176 201.658 94.3604 201.969C95.7004 203.729 98.2504 205.279 102.36 206.859C102.422 206.881 102.479 206.915 102.527 206.96C102.575 207.004 102.614 207.058 102.641 207.118C102.668 207.177 102.682 207.242 102.684 207.307C102.686 207.373 102.674 207.438 102.65 207.499C102.612 207.603 102.54 207.692 102.446 207.751C102.352 207.811 102.241 207.838 102.13 207.829ZM96.4504 191.359C96.4504 191.359 95.8804 191.359 94.6204 193.709C93.1704 196.389 92.8004 198.599 93.4904 200.459C93.5741 200.689 93.6743 200.913 93.7904 201.129C94.3321 200.905 94.7926 200.521 95.1104 200.029C96.5104 197.889 97.1804 193.489 96.6604 191.769C96.5904 191.419 96.4504 191.359 96.4504 191.359ZM89.2704 187.149C88.7291 188.287 88.281 189.468 87.9304 190.679C87.1635 192.778 87.0313 195.056 87.5504 197.229L87.6404 196.969C88.6906 193.799 89.2503 190.488 89.3004 187.149H89.2704ZM82.6904 183.999C82.5204 184.149 82.0304 184.779 81.3404 187.219C80.5244 189.957 80.7818 192.904 82.0604 195.459C82.2656 195.012 82.4167 194.542 82.5104 194.059C83.5804 189.149 83.2804 184.709 82.7204 183.999H82.6904Z" fill="#263238"/>
<path d="M140.15 260.249C138.552 260.264 136.978 259.854 135.59 259.059C135.476 258.99 135.393 258.88 135.36 258.751C135.326 258.622 135.344 258.485 135.41 258.369C135.443 258.313 135.487 258.263 135.539 258.224C135.592 258.185 135.651 258.157 135.715 258.141C135.778 258.125 135.844 258.122 135.908 258.132C135.973 258.142 136.035 258.165 136.09 258.199C139.66 260.289 144.27 258.829 145.22 257.299C145.289 257.203 145.338 257.094 145.363 256.979C145.389 256.864 145.392 256.745 145.37 256.629C143.545 256.734 141.737 256.22 140.24 255.169C137.69 253.579 137.49 253.099 137.51 252.719C137.515 252.61 137.549 252.504 137.609 252.413C137.669 252.321 137.752 252.247 137.85 252.199C138.85 251.699 143.36 253.769 145.24 255.009C145.466 255.159 145.674 255.333 145.86 255.529C146.599 255.362 147.265 254.962 147.76 254.389C148.039 254.061 148.241 253.675 148.35 253.259H148.15C146.55 253.419 144.95 252.729 143.24 251.149C142.06 250.069 141.61 249.319 141.76 248.729C141.806 248.563 141.898 248.414 142.025 248.299C142.153 248.184 142.311 248.107 142.48 248.079C143.86 247.729 147.28 249.189 148.67 250.719C148.98 251.052 149.201 251.458 149.31 251.899C150.62 251.289 152 249.899 153.63 247.629C153.668 247.575 153.717 247.529 153.772 247.494C153.828 247.458 153.89 247.434 153.955 247.423C154.02 247.412 154.087 247.414 154.151 247.429C154.216 247.443 154.277 247.471 154.33 247.509C154.437 247.587 154.51 247.704 154.532 247.835C154.555 247.965 154.525 248.1 154.45 248.209C152.56 250.849 150.98 252.349 149.4 252.959C149.319 253.698 149.015 254.395 148.53 254.959C147.954 255.629 147.197 256.118 146.35 256.369C146.398 256.608 146.398 256.854 146.35 257.092C146.302 257.331 146.207 257.557 146.07 257.759C145.23 259.189 142.81 260.249 140.15 260.249ZM139.26 253.309C139.6 253.559 140.08 253.889 140.77 254.309C141.846 255.034 143.081 255.487 144.37 255.629C142.761 254.664 141.046 253.886 139.26 253.309ZM142.75 249.059C143.038 249.6 143.437 250.074 143.92 250.449C145.4 251.819 146.75 252.449 148.05 252.289H148.37C148.299 251.979 148.148 251.692 147.93 251.459C146.53 249.879 143.45 248.899 142.75 249.059Z" fill="#263238"/>
<path d="M153.391 258.88L137.811 261.71L123.661 184.49L93.6006 189.95L44.6006 276.95L49.8606 305.66L112.711 294.25L117.011 317.73L147.071 312.25L142.771 288.77L158.351 285.94L153.391 258.88ZM74.5406 273.25L100.541 227.68L107.791 267.22L74.5406 273.25Z" fill="#0069BD"/>
<path d="M278.881 179.25C278.408 174.395 277.333 169.619 275.681 165.03C273.981 160.634 271.621 156.523 268.681 152.84C265.2 148.554 260.878 145.028 255.981 142.48C250.647 139.553 243.574 137.516 234.761 136.37C216.461 133.983 202.201 137.23 191.981 146.11C181.761 154.99 175.027 171.99 171.781 197.11C170.484 206.498 170.149 215.994 170.781 225.45C171.447 234.116 173.041 241.093 175.561 246.38C178.767 253.509 183.826 259.649 190.211 264.16C196.524 268.593 205.191 271.523 216.211 272.95C235.797 275.503 250.321 271.74 259.781 261.66C269.241 251.58 275.507 234.546 278.581 210.56C279.947 200.174 280.048 189.66 278.881 179.25Z" fill="#0069BD"/>
<path d="M225.221 262.68C222.811 262.6 220.221 262.38 217.611 262.04C208.451 260.85 201.371 258.53 196.551 255.15C191.744 251.756 187.943 247.126 185.551 241.75L185.501 241.64C183.581 237.64 182.321 231.89 181.771 224.64C181.188 215.931 181.496 207.186 182.691 198.54C186.261 170.82 193.631 159.25 199.181 154.43C205.661 148.81 214.411 146.27 225.911 146.67C228.271 146.75 230.771 146.96 233.341 147.29C240.721 148.29 246.571 149.89 250.711 152.15C254.288 153.992 257.455 156.54 260.021 159.64C262.266 162.439 264.07 165.565 265.371 168.91C266.699 172.639 267.559 176.519 267.931 180.46C268.997 190.009 268.9 199.653 267.641 209.18C264.871 230.72 259.511 245.86 251.721 254.18C245.941 260.34 237.271 263.18 225.211 262.72L225.221 262.68Z" fill="#263238"/>
<path d="M244.791 179.54L244.921 175.75L242.591 174.99C242.491 173.708 242.284 172.437 241.971 171.19L243.971 169.73L242.631 166.17L240.191 166.37C239.617 165.226 238.948 164.132 238.191 163.1L239.451 160.99L236.851 158.22L234.671 159.34C233.695 158.502 232.651 157.746 231.551 157.08L231.901 154.66L228.441 153.09L226.861 154.95C225.637 154.554 224.383 154.259 223.111 154.07L222.521 151.7L218.721 151.57L217.971 153.89C216.689 153.993 215.418 154.2 214.171 154.51L212.701 152.51L209.141 153.84L209.341 156.28C208.197 156.855 207.103 157.524 206.071 158.28L203.971 157.01L201.191 159.6L202.311 161.79C201.469 162.765 200.717 163.813 200.061 164.92L197.641 164.55L196.061 168.01L197.931 169.59C197.525 170.815 197.23 172.073 197.051 173.35L194.671 173.95L194.541 177.73L196.871 178.49C196.968 179.776 197.176 181.05 197.491 182.3L195.491 183.75L196.831 187.31L199.271 187.11C199.839 188.258 200.508 189.352 201.271 190.38L200.001 192.49L202.601 195.26L204.781 194.15C205.756 194.986 206.8 195.738 207.901 196.4L207.541 198.82L211.001 200.39L212.591 198.54C213.817 198.935 215.075 199.226 216.351 199.41L216.941 201.79L220.731 201.92L221.481 199.59C222.766 199.493 224.041 199.285 225.291 198.97L226.741 200.97L230.301 199.64L230.111 197.21C231.25 196.629 232.344 195.96 233.381 195.21L235.481 196.47L238.261 193.88L237.151 191.69C237.988 190.719 238.738 189.675 239.391 188.57L241.811 188.93L243.391 185.47L241.531 183.89C241.928 182.668 242.22 181.413 242.401 180.14L244.791 179.54ZM219.191 191.81C216.229 191.702 213.365 190.719 210.962 188.985C208.558 187.251 206.722 184.843 205.686 182.067C204.649 179.29 204.458 176.268 205.137 173.383C205.816 170.498 207.335 167.879 209.501 165.857C211.667 163.834 214.384 162.498 217.309 162.018C220.234 161.538 223.235 161.936 225.934 163.16C228.634 164.384 230.91 166.381 232.475 168.897C234.041 171.414 234.825 174.338 234.731 177.3C234.667 179.275 234.215 181.217 233.399 183.017C232.583 184.816 231.419 186.436 229.975 187.784C228.531 189.132 226.835 190.182 224.985 190.873C223.134 191.564 221.165 191.882 219.191 191.81Z" fill="#0069BD"/>
<path opacity="0.3" d="M260.57 249.121L260.85 246.561L259.31 245.941C259.308 245.069 259.234 244.2 259.09 243.341L260.48 242.451L259.77 239.981H258.11C257.782 239.177 257.384 238.404 256.92 237.671L257.86 236.311L256.26 234.311L254.73 234.951C254.11 234.337 253.442 233.775 252.73 233.271L253.1 231.651L250.85 230.411L249.67 231.601C248.867 231.27 248.037 231.006 247.19 230.811L246.91 229.181L244.36 228.891L243.73 230.431C242.862 230.435 241.995 230.515 241.14 230.671L240.25 229.251L237.78 229.981V231.641C236.977 231.972 236.204 232.374 235.47 232.841L234.11 231.841L232.11 233.441L232.75 234.971C232.141 235.591 231.582 236.26 231.08 236.971L229.46 236.611L228.23 238.861L229.41 240.031C229.075 240.836 228.811 241.669 228.62 242.521L226.98 242.791L226.71 245.341L228.24 245.981C228.241 246.846 228.318 247.709 228.47 248.561L227.06 249.451L227.78 251.921H229.45C229.784 252.72 230.186 253.49 230.65 254.221L229.65 255.581L231.25 257.581L232.8 256.931C233.416 257.546 234.085 258.105 234.8 258.601L234.45 260.251L236.7 261.481L237.87 260.311C238.675 260.634 239.504 260.891 240.35 261.081L240.64 262.721L243.19 263.001L243.81 261.471C244.695 261.469 245.578 261.396 246.45 261.251L247.34 262.661L249.8 261.941V260.281C250.604 259.943 251.38 259.541 252.12 259.081L253.46 260.081L255.46 258.471L254.81 256.941C255.427 256.32 255.992 255.652 256.5 254.941L258.11 255.301L259.35 253.051L258.17 251.891C258.492 251.086 258.749 250.256 258.94 249.411L260.57 249.121ZM247.7 248.121C247.277 248.895 246.634 249.526 245.852 249.935C245.07 250.343 244.184 250.511 243.307 250.416C242.43 250.321 241.6 249.968 240.924 249.402C240.247 248.835 239.754 248.081 239.506 247.234C239.258 246.387 239.267 245.486 239.532 244.644C239.797 243.802 240.305 243.058 240.993 242.505C241.68 241.953 242.517 241.616 243.396 241.539C244.275 241.461 245.157 241.647 245.93 242.071C246.965 242.641 247.732 243.597 248.063 244.731C248.395 245.864 248.265 247.083 247.7 248.121Z" fill="#0069BD"/>
<path d="M274.741 205.9L271.741 203.84C271.445 202.769 271.043 201.73 270.541 200.74L271.301 197.74L266.981 193.11L263.981 193.67C263.029 193.103 262.024 192.631 260.981 192.26L259.131 189.14L252.801 188.93L250.741 191.93C249.668 192.22 248.629 192.623 247.641 193.13L244.641 192.36L240.011 196.69L240.571 199.69C239.996 200.637 239.523 201.643 239.161 202.69L236.051 204.54L235.831 210.87L238.831 212.93C239.121 214.008 239.523 215.054 240.031 216.05L239.271 219.05L243.591 223.68L246.591 223.13C247.543 223.695 248.547 224.168 249.591 224.54L251.431 227.65L257.771 227.87L259.821 224.87C260.902 224.576 261.95 224.174 262.951 223.67L265.951 224.43L270.581 220.11L270.031 217.11C270.599 216.159 271.071 215.154 271.441 214.11L274.551 212.26L274.741 205.9ZM255.011 215.52C253.603 215.471 252.242 215.007 251.098 214.185C249.955 213.363 249.081 212.22 248.587 210.901C248.093 209.582 248.001 208.146 248.324 206.776C248.646 205.405 249.367 204.16 250.396 203.199C251.426 202.238 252.717 201.604 254.107 201.377C255.497 201.15 256.923 201.34 258.205 201.924C259.486 202.507 260.566 203.458 261.308 204.655C262.049 205.852 262.419 207.242 262.371 208.65C262.303 210.536 261.49 212.318 260.11 213.606C258.731 214.894 256.897 215.582 255.011 215.52Z" fill="white"/>
<path d="M296.451 155.369L296.971 154.119C297.324 153.92 297.659 153.689 297.971 153.429H299.131L300.491 151.429L300.051 150.359C300.219 150.003 300.353 149.631 300.451 149.249L301.451 148.329L301.031 145.979L299.771 145.459C299.573 145.105 299.342 144.77 299.081 144.459V143.299L297.131 141.939L296.051 142.389C295.656 142.25 295.247 142.156 294.831 142.109L293.911 141.109L291.571 141.529L291.041 142.789C290.67 142.982 290.318 143.209 289.991 143.469H288.841L287.481 145.469L287.921 146.539C287.786 146.936 287.692 147.344 287.641 147.759L286.641 148.689L287.061 151.029L288.321 151.549C288.511 151.906 288.739 152.241 289.001 152.549V153.699L291.001 155.059L292.071 154.619C292.471 154.749 292.883 154.84 293.301 154.889L294.221 155.889L296.451 155.369ZM291.451 148.889C291.356 148.368 291.418 147.83 291.63 147.343C291.841 146.857 292.192 146.444 292.638 146.157C293.084 145.871 293.605 145.722 294.135 145.732C294.665 145.741 295.181 145.908 295.616 146.21C296.052 146.513 296.388 146.938 296.582 147.431C296.776 147.925 296.819 148.465 296.706 148.983C296.593 149.501 296.329 149.974 295.947 150.342C295.565 150.709 295.083 150.956 294.561 151.049C293.862 151.172 293.144 151.014 292.561 150.609C291.979 150.205 291.58 149.587 291.451 148.889Z" fill="#0069BD"/>
<path d="M269.061 148.74L268.291 148.09C269.941 146.043 271.98 144.344 274.291 143.09L274.761 143.97C272.563 145.166 270.625 146.788 269.061 148.74Z" fill="#0069BD"/>
<path d="M277.04 143.05L276.65 142.13C280.343 140.526 284.381 139.879 288.39 140.25L288.29 141.25C284.448 140.888 280.578 141.508 277.04 143.05Z" fill="#0069BD"/>
<path d="M275.151 149.97L274.331 149.41C276.74 146.156 280.246 143.886 284.201 143.02L284.391 144.02C280.695 144.827 277.414 146.939 275.151 149.97Z" fill="#0069BD"/>
<path d="M208.791 246.25C208.654 246.246 208.525 246.188 208.431 246.09L206.341 243.93C205.275 243.833 204.221 243.639 203.191 243.35L199.921 244.79C199.849 244.829 199.768 244.85 199.686 244.85C199.604 244.85 199.523 244.829 199.451 244.79L193.971 241.16C193.9 241.113 193.843 241.049 193.804 240.974C193.765 240.899 193.747 240.814 193.751 240.73V237.17C193.082 236.333 192.493 235.436 191.991 234.49L189.181 233.41C189.102 233.379 189.032 233.329 188.978 233.265C188.924 233.2 188.887 233.123 188.871 233.04L187.571 226.6C187.553 226.518 187.557 226.432 187.582 226.352C187.606 226.272 187.651 226.199 187.711 226.14L189.871 224.05C189.974 222.985 190.168 221.931 190.451 220.9L189.011 217.63C188.971 217.558 188.951 217.477 188.951 217.395C188.951 217.313 188.971 217.232 189.011 217.16L192.641 211.68C192.686 211.608 192.749 211.549 192.825 211.51C192.901 211.472 192.986 211.454 193.071 211.46L196.631 211.51C197.465 210.838 198.362 210.248 199.311 209.75L200.401 206.94C200.429 206.862 200.478 206.793 200.541 206.738C200.604 206.684 200.679 206.647 200.761 206.63L207.201 205.33C207.283 205.312 207.368 205.315 207.449 205.34C207.53 205.364 207.602 205.409 207.661 205.47L209.751 207.63C210.819 207.727 211.877 207.921 212.911 208.21L216.171 206.77C216.245 206.731 216.327 206.71 216.411 206.71C216.494 206.71 216.577 206.731 216.651 206.77L222.121 210.4C222.19 210.448 222.247 210.513 222.287 210.587C222.327 210.662 222.349 210.745 222.351 210.83L222.291 214.39C222.963 215.226 223.555 216.123 224.061 217.07L226.861 218.16C226.939 218.189 227.008 218.237 227.062 218.3C227.116 218.363 227.154 218.439 227.171 218.52L228.481 224.96C228.496 225.042 228.491 225.127 228.467 225.207C228.443 225.287 228.399 225.36 228.341 225.42L226.171 227.52C226.071 228.582 225.877 229.632 225.591 230.66L227.031 233.93C227.07 234.004 227.091 234.086 227.091 234.17C227.091 234.254 227.07 234.336 227.031 234.41L223.451 239.84C223.404 239.908 223.341 239.963 223.268 240.002C223.195 240.04 223.113 240.06 223.031 240.06L219.461 240.01C218.623 240.673 217.73 241.262 216.791 241.77L215.701 244.58C215.671 244.659 215.621 244.729 215.556 244.784C215.492 244.838 215.414 244.875 215.331 244.89L208.891 246.25H208.791ZM203.161 242.25C203.207 242.241 203.254 242.241 203.301 242.25C204.381 242.564 205.49 242.769 206.611 242.86C206.731 242.874 206.843 242.927 206.931 243.01L208.931 245.11L214.831 243.92L215.891 241.18C215.94 241.069 216.024 240.978 216.131 240.92C217.13 240.403 218.071 239.783 218.941 239.07C219.033 238.992 219.151 238.953 219.271 238.96L222.741 239.01L226.061 234.01L224.661 230.83C224.621 230.72 224.621 230.6 224.661 230.49C224.97 229.409 225.174 228.3 225.271 227.18C225.281 227.059 225.334 226.945 225.421 226.86L227.521 224.86L226.331 218.96L223.601 217.9C223.483 217.857 223.387 217.771 223.331 217.66C222.812 216.662 222.192 215.721 221.481 214.85C221.409 214.758 221.371 214.646 221.371 214.53V211.05L216.371 207.73L213.201 209.13C213.087 209.17 212.964 209.17 212.851 209.13C211.767 208.817 210.655 208.613 209.531 208.52C209.411 208.506 209.298 208.453 209.211 208.37L207.211 206.27L201.311 207.47L200.261 210.25C200.219 210.365 200.137 210.46 200.031 210.52C199.028 211.035 198.083 211.655 197.211 212.37C197.168 212.409 197.117 212.439 197.062 212.458C197.007 212.477 196.949 212.484 196.891 212.48L193.421 212.43L190.091 217.43L191.491 220.61C191.523 220.677 191.539 220.751 191.539 220.825C191.539 220.899 191.523 220.973 191.491 221.04C191.194 222.096 191 223.177 190.911 224.27C190.901 224.391 190.848 224.505 190.761 224.59L188.661 226.59L189.861 232.49L192.581 233.55C192.702 233.6 192.801 233.693 192.861 233.81C193.376 234.801 193.993 235.736 194.701 236.6C194.775 236.69 194.814 236.803 194.811 236.92V240.4L199.811 243.72L202.991 242.32C203.043 242.287 203.1 242.263 203.161 242.25ZM208.071 239.01C205.664 239.008 203.302 238.353 201.237 237.116C199.173 235.88 197.482 234.106 196.344 231.985C195.206 229.864 194.665 227.474 194.777 225.07C194.889 222.665 195.651 220.336 196.981 218.33C198.253 216.405 200.003 214.844 202.059 213.798C204.115 212.752 206.408 212.258 208.713 212.364C211.017 212.47 213.255 213.172 215.207 214.402C217.159 215.632 218.758 217.347 219.849 219.38C220.939 221.413 221.483 223.695 221.427 226.001C221.372 228.307 220.719 230.56 219.532 232.538C218.345 234.516 216.664 236.153 214.656 237.287C212.647 238.422 210.378 239.015 208.071 239.01ZM197.821 218.88C196.475 220.911 195.761 223.295 195.77 225.732C195.779 228.168 196.51 230.547 197.871 232.568C199.232 234.589 201.162 236.161 203.416 237.085C205.67 238.009 208.148 238.245 210.536 237.761C212.924 237.277 215.115 236.096 216.832 234.367C218.548 232.639 219.714 230.44 220.181 228.048C220.648 225.657 220.396 223.181 219.456 220.933C218.516 218.685 216.931 216.767 214.901 215.42C213.554 214.519 212.043 213.893 210.453 213.579C208.864 213.265 207.228 213.269 205.64 213.591C204.052 213.913 202.543 214.546 201.201 215.453C199.859 216.361 198.71 217.526 197.821 218.88Z" fill="white"/>
<path d="M399.281 267.901L383.581 265.781L393.961 187.971L363.681 183.891L290.231 251.511L286.371 280.441L349.661 288.981L346.501 312.651L376.781 316.731L379.941 293.071L395.641 295.191L399.281 267.901ZM319.861 257.181L358.621 221.851L353.301 261.691L319.861 257.181Z" fill="#0069BD"/>
<path d="M367.58 315.989H367.45C367.321 315.965 367.206 315.89 367.131 315.781C367.056 315.673 367.027 315.539 367.05 315.409L390.45 187.469C390.477 187.34 390.552 187.227 390.66 187.153C390.768 187.078 390.901 187.048 391.03 187.069C391.16 187.093 391.275 187.168 391.35 187.276C391.425 187.385 391.454 187.519 391.43 187.649L368.08 315.579C368.057 315.695 367.995 315.799 367.904 315.873C367.813 315.948 367.698 315.989 367.58 315.989Z" fill="#263238"/>
<path d="M388.281 189.62C388.273 189.838 388.179 190.043 388.019 190.191C387.86 190.339 387.648 190.418 387.431 190.41C387.213 190.402 387.008 190.308 386.86 190.149C386.711 189.989 386.633 189.778 386.641 189.56C386.649 189.343 386.743 189.137 386.902 188.989C387.061 188.841 387.273 188.762 387.491 188.77C387.708 188.778 387.914 188.872 388.062 189.031C388.21 189.191 388.289 189.403 388.281 189.62Z" fill="#263238"/>
<path d="M384.95 206.919C384.944 207.081 384.891 207.237 384.796 207.369C384.7 207.5 384.569 207.601 384.417 207.657C384.265 207.713 384.099 207.724 383.942 207.686C383.784 207.649 383.641 207.565 383.53 207.447C383.42 207.328 383.347 207.179 383.322 207.019C383.296 206.859 383.318 206.695 383.385 206.547C383.453 206.4 383.562 206.276 383.7 206.191C383.838 206.105 383.998 206.063 384.16 206.069C384.268 206.073 384.374 206.098 384.472 206.143C384.57 206.187 384.658 206.251 384.732 206.33C384.805 206.409 384.862 206.502 384.9 206.603C384.937 206.704 384.954 206.811 384.95 206.919Z" fill="#263238"/>
<path d="M381.621 224.249C381.617 224.357 381.592 224.463 381.547 224.561C381.502 224.659 381.438 224.747 381.359 224.82C381.28 224.894 381.188 224.951 381.087 224.988C380.986 225.026 380.878 225.043 380.771 225.039C380.663 225.036 380.558 225.013 380.46 224.969C380.362 224.925 380.273 224.862 380.2 224.784C380.126 224.706 380.069 224.614 380.032 224.514C379.994 224.413 379.977 224.306 379.981 224.199C379.983 224.09 380.007 223.983 380.051 223.884C380.096 223.785 380.159 223.696 380.238 223.621C380.317 223.547 380.41 223.489 380.512 223.451C380.614 223.413 380.722 223.395 380.831 223.399C381.047 223.409 381.251 223.504 381.399 223.663C381.546 223.822 381.626 224.032 381.621 224.249Z" fill="#263238"/>
<path d="M375.061 242.25C375.039 242.451 374.943 242.636 374.793 242.771C374.642 242.905 374.448 242.98 374.246 242.98C374.044 242.98 373.849 242.905 373.699 242.771C373.548 242.636 373.453 242.451 373.431 242.25C373.418 242.136 373.43 242.02 373.465 241.91C373.5 241.8 373.558 241.699 373.635 241.613C373.712 241.527 373.806 241.458 373.911 241.411C374.016 241.364 374.13 241.34 374.246 241.34C374.361 241.34 374.475 241.364 374.58 241.411C374.686 241.458 374.78 241.527 374.857 241.613C374.934 241.699 374.992 241.8 375.027 241.91C375.062 242.02 375.073 242.136 375.061 242.25Z" fill="#263238"/>
<path d="M374.951 258.82C374.948 258.928 374.924 259.035 374.879 259.133C374.835 259.232 374.771 259.321 374.692 259.394C374.613 259.468 374.52 259.525 374.418 259.562C374.317 259.599 374.209 259.616 374.101 259.61C373.938 259.604 373.782 259.55 373.651 259.455C373.519 259.36 373.419 259.228 373.362 259.076C373.306 258.924 373.296 258.759 373.333 258.601C373.371 258.444 373.454 258.3 373.573 258.19C373.692 258.08 373.84 258.007 374 257.981C374.161 257.955 374.325 257.978 374.472 258.045C374.62 258.112 374.744 258.222 374.829 258.36C374.914 258.498 374.956 258.658 374.951 258.82Z" fill="#263238"/>
<path d="M371.621 276.12C371.617 276.282 371.564 276.44 371.47 276.573C371.377 276.705 371.245 276.807 371.094 276.865C370.942 276.923 370.776 276.935 370.618 276.899C370.459 276.862 370.315 276.78 370.204 276.661C370.092 276.543 370.019 276.394 369.992 276.233C369.965 276.073 369.987 275.908 370.054 275.76C370.122 275.612 370.231 275.488 370.369 275.402C370.508 275.316 370.668 275.274 370.831 275.28C371.046 275.288 371.25 275.38 371.398 275.538C371.546 275.695 371.626 275.904 371.621 276.12Z" fill="#263238"/>
<path d="M368.29 293.42C368.283 293.638 368.189 293.844 368.03 293.994C367.871 294.144 367.659 294.225 367.44 294.22C367.333 294.216 367.227 294.191 367.129 294.146C367.031 294.101 366.943 294.037 366.869 293.958C366.796 293.879 366.739 293.787 366.701 293.686C366.664 293.585 366.646 293.477 366.65 293.37C366.654 293.262 366.678 293.156 366.722 293.058C366.767 292.959 366.83 292.871 366.908 292.797C366.987 292.723 367.079 292.666 367.18 292.627C367.281 292.589 367.388 292.571 367.495 292.575C367.603 292.578 367.709 292.602 367.807 292.647C367.906 292.691 367.994 292.754 368.068 292.832C368.142 292.911 368.199 293.003 368.238 293.104C368.276 293.205 368.294 293.312 368.29 293.42Z" fill="#263238"/>
<path d="M364.95 310.729C364.944 310.891 364.891 311.048 364.796 311.179C364.7 311.311 364.569 311.411 364.417 311.468C364.265 311.524 364.099 311.534 363.942 311.497C363.784 311.459 363.641 311.376 363.53 311.257C363.42 311.138 363.347 310.99 363.322 310.83C363.296 310.669 363.318 310.505 363.385 310.358C363.453 310.21 363.562 310.086 363.7 310.001C363.838 309.916 363.998 309.874 364.16 309.879C364.269 309.882 364.375 309.906 364.474 309.951C364.572 309.995 364.661 310.059 364.735 310.138C364.808 310.217 364.865 310.31 364.902 310.412C364.94 310.513 364.956 310.621 364.95 310.729Z" fill="#263238"/>
<path d="M374.241 242.7C374.128 242.7 374.019 242.661 373.931 242.59C373.844 242.519 373.784 242.42 373.761 242.31C373.746 242.246 373.744 242.179 373.755 242.114C373.766 242.049 373.79 241.987 373.826 241.931C373.861 241.875 373.907 241.827 373.961 241.789C374.015 241.751 374.076 241.724 374.141 241.71L376.621 241.18C376.686 241.166 376.753 241.164 376.819 241.176C376.884 241.188 376.947 241.212 377.003 241.249C377.059 241.285 377.107 241.332 377.144 241.387C377.182 241.443 377.208 241.505 377.221 241.57C377.234 241.635 377.234 241.701 377.222 241.765C377.209 241.83 377.184 241.891 377.148 241.946C377.112 242.001 377.065 242.048 377.011 242.085C376.956 242.121 376.895 242.147 376.831 242.16L374.351 242.69L374.241 242.7Z" fill="#263238"/>
<path d="M382.531 233.49C381.351 236.55 380.349 239.675 379.531 242.85C378.781 246.38 378.741 254.28 378.741 254.28" fill="#263238"/>
<path d="M378.741 254.78C378.608 254.775 378.482 254.719 378.389 254.624C378.296 254.529 378.243 254.402 378.241 254.27C378.241 253.95 378.301 246.27 379.051 242.75C379.865 239.547 380.866 236.395 382.051 233.31C382.071 233.244 382.104 233.183 382.149 233.131C382.193 233.078 382.248 233.036 382.31 233.006C382.372 232.975 382.439 232.958 382.508 232.956C382.577 232.953 382.645 232.964 382.71 232.989C382.774 233.014 382.832 233.051 382.881 233.1C382.93 233.148 382.968 233.206 382.994 233.27C383.019 233.334 383.031 233.402 383.029 233.471C383.027 233.54 383.01 233.608 382.981 233.67C381.802 236.706 380.801 239.808 379.981 242.96C379.251 246.4 379.201 254.2 379.191 254.28C379.191 254.404 379.146 254.524 379.062 254.617C378.979 254.709 378.864 254.767 378.741 254.78Z" fill="#263238"/>
</svg>
