<svg width="500" height="500" viewBox="0 0 500 500" fill="none" xmlns="http://www.w3.org/2000/svg">
<path d="M500 382.4H0V382.65H500V382.4Z" fill="#EBEBEB"/>
<path d="M237 337.8H43.91C42.3973 337.797 40.9475 337.195 39.8788 336.124C38.8102 335.053 38.21 333.603 38.21 332.09V60.66C38.2231 59.156 38.8292 57.718 39.8964 56.6582C40.9637 55.5985 42.4059 55.0026 43.91 55H237C238.514 55 239.967 55.6016 241.038 56.6724C242.108 57.7433 242.71 59.1956 242.71 60.71V332.09C242.71 333.604 242.108 335.057 241.038 336.128C239.967 337.198 238.514 337.8 237 337.8ZM43.91 55.2C42.4636 55.2026 41.0774 55.7791 40.0556 56.8027C39.0338 57.8264 38.46 59.2136 38.46 60.66V332.09C38.46 333.536 39.0338 334.924 40.0556 335.947C41.0774 336.971 42.4636 337.547 43.91 337.55H237C238.447 337.547 239.834 336.971 240.858 335.948C241.881 334.924 242.457 333.537 242.46 332.09V60.66C242.457 59.2127 241.881 57.8255 240.858 56.8021C239.834 55.7787 238.447 55.2026 237 55.2H43.91Z" fill="#EBEBEB"/>
<path d="M453.31 337.8H260.21C258.696 337.797 257.246 337.195 256.175 336.125C255.105 335.054 254.503 333.604 254.5 332.09V60.66C254.516 59.1551 255.124 57.7171 256.193 56.6576C257.262 55.5981 258.705 55.0025 260.21 55H453.31C454.812 55.0052 456.252 55.6022 457.317 56.6617C458.382 57.7212 458.987 59.1578 459 60.66V332.09C459 333.601 458.401 335.05 457.335 336.121C456.268 337.191 454.821 337.795 453.31 337.8ZM260.21 55.2C258.763 55.2026 257.375 55.7787 256.352 56.8021C255.329 57.8255 254.753 59.2127 254.75 60.66V332.09C254.753 333.537 255.329 334.924 256.352 335.948C257.375 336.971 258.763 337.547 260.21 337.55H453.31C454.757 337.547 456.145 336.971 457.168 335.948C458.191 334.924 458.767 333.537 458.77 332.09V60.66C458.767 59.2127 458.191 57.8255 457.168 56.8021C456.145 55.7787 454.757 55.2026 453.31 55.2H260.21Z" fill="#EBEBEB"/>
<path d="M77.2798 391.92H51.2798V392.17H77.2798V391.92Z" fill="#EBEBEB"/>
<path d="M190.18 389.211H145.15V389.461H190.18V389.211Z" fill="#EBEBEB"/>
<path d="M139.07 401.211H78.2798V401.461H139.07V401.211Z" fill="#EBEBEB"/>
<path d="M448.72 399.529H429.49V399.779H448.72V399.529Z" fill="#EBEBEB"/>
<path d="M420.58 399.529H365.29V399.779H420.58V399.529Z" fill="#EBEBEB"/>
<path d="M331.52 395.311H257.05V395.561H331.52V395.311Z" fill="#EBEBEB"/>
<path d="M190.83 215.439L178.18 382.439H300.18L312.83 215.439H190.83ZM267.54 333.439C266.95 340.105 263.911 346.316 259.009 350.872C254.107 355.429 247.691 358.007 241 358.109C237.832 358.159 234.689 357.539 231.777 356.292C228.864 355.045 226.247 353.197 224.097 350.87C221.946 348.543 220.31 345.789 219.296 342.787C218.282 339.786 217.912 336.604 218.21 333.449L222.66 274.749C223.25 268.085 226.288 261.876 231.188 257.32C236.087 252.764 242.501 250.184 249.19 250.079C252.36 250.029 255.506 250.647 258.421 251.895C261.336 253.142 263.955 254.99 266.108 257.318C268.26 259.646 269.897 262.402 270.913 265.405C271.928 268.409 272.299 271.593 272 274.749L267.54 333.439Z" fill="#E6E6E6"/>
<path d="M338.88 382.399H161L162.03 371.439H339.9L338.88 382.399Z" fill="#E6E6E6"/>
<path d="M407.22 320.41H423C423.211 320.41 423.421 320.367 423.615 320.284C423.809 320.2 423.984 320.078 424.129 319.924C424.274 319.771 424.387 319.589 424.459 319.39C424.531 319.192 424.562 318.981 424.55 318.77L424.49 317.65C424.465 317.212 424.274 316.8 423.957 316.497C423.639 316.195 423.219 316.024 422.78 316.02H407C406.789 316.018 406.579 316.06 406.385 316.142C406.19 316.224 406.014 316.345 405.868 316.498C405.722 316.651 405.609 316.831 405.535 317.029C405.461 317.228 405.429 317.439 405.44 317.65L405.5 318.77C405.525 319.21 405.717 319.624 406.036 319.929C406.356 320.233 406.779 320.405 407.22 320.41Z" fill="#E0E0E0"/>
<path d="M380.89 320.41H396.64C396.852 320.411 397.062 320.37 397.256 320.287C397.451 320.204 397.627 320.081 397.772 319.927C397.918 319.774 398.03 319.591 398.102 319.392C398.174 319.193 398.204 318.981 398.19 318.77L398.13 317.65C398.105 317.212 397.914 316.8 397.597 316.497C397.279 316.195 396.859 316.024 396.42 316.02H380.67C380.459 316.018 380.249 316.06 380.055 316.142C379.86 316.224 379.684 316.345 379.538 316.498C379.392 316.651 379.279 316.831 379.205 317.029C379.131 317.228 379.099 317.439 379.11 317.65L379.17 318.77C379.198 319.209 379.39 319.622 379.709 319.926C380.028 320.23 380.45 320.403 380.89 320.41Z" fill="#E0E0E0"/>
<path d="M435.23 319.171H67.6001C65.5339 319.149 63.5529 318.344 62.057 316.919C60.561 315.493 59.6616 313.553 59.5401 311.49L48.4701 90.6705C48.4082 89.6793 48.5514 88.6859 48.8908 87.7525C49.2302 86.8192 49.7585 85.9659 50.4428 85.246C51.127 84.5261 51.9523 83.9551 52.8673 83.5687C53.7822 83.1824 54.767 82.9889 55.7601 83.0005H423.39C425.455 83.0197 427.436 83.8224 428.933 85.2461C430.429 86.6699 431.329 88.6087 431.45 90.6705L442.52 311.49C442.582 312.482 442.439 313.476 442.1 314.41C441.76 315.344 441.232 316.198 440.548 316.918C439.864 317.639 439.039 318.211 438.124 318.598C437.209 318.986 436.224 319.181 435.23 319.171Z" fill="#E0E0E0"/>
<path d="M439.73 319.17H72.1099C70.0364 319.156 68.0456 318.356 66.5401 316.93C65.0345 315.504 64.1266 313.56 63.9999 311.49L52.9999 90.6703C52.9381 89.6807 53.0807 88.6891 53.4189 87.7571C53.7571 86.8251 54.2837 85.9727 54.9657 85.2532C55.6478 84.5336 56.4707 83.9622 57.3833 83.5746C58.2959 83.187 59.2785 82.9915 60.2699 83.0003H427.89C429.962 83.0116 431.953 83.8102 433.459 85.2343C434.965 86.6584 435.873 88.6016 436 90.6703L447 311.49C447.062 312.48 446.919 313.472 446.581 314.405C446.243 315.337 445.716 316.19 445.035 316.911C444.353 317.631 443.53 318.203 442.617 318.592C441.705 318.981 440.722 319.178 439.73 319.17Z" fill="#E6E6E6"/>
<path d="M74.2602 303.76L64.0002 98.4098C63.9632 97.7887 64.0542 97.1667 64.2677 96.5823C64.4811 95.9979 64.8123 95.4636 65.2409 95.0125C65.6694 94.5615 66.1861 94.2033 66.7588 93.9603C67.3315 93.7173 67.9481 93.5946 68.5702 93.5998H420.69C421.985 93.6104 423.228 94.1134 424.166 95.0067C425.104 95.9 425.667 97.1166 425.74 98.4098L436 303.76C436.039 304.38 435.949 305.002 435.737 305.587C435.524 306.171 435.194 306.705 434.766 307.157C434.339 307.608 433.823 307.966 433.25 308.209C432.678 308.452 432.062 308.575 431.44 308.57H79.3102C78.0158 308.557 76.7745 308.053 75.8371 307.16C74.8997 306.267 74.3362 305.052 74.2602 303.76Z" fill="#F5F5F5"/>
<path d="M85.66 104.1C85.6956 104.646 85.6185 105.195 85.4335 105.71C85.2485 106.226 84.9595 106.698 84.5844 107.098C84.2094 107.497 83.7563 107.815 83.2532 108.032C82.7501 108.249 82.2079 108.361 81.66 108.36C80.5143 108.346 79.4161 107.9 78.5867 107.109C77.7572 106.319 77.2582 105.243 77.1899 104.1C77.1558 103.554 77.2339 103.007 77.4196 102.492C77.6052 101.977 77.8944 101.506 78.2693 101.108C78.6442 100.71 79.0968 100.393 79.5992 100.176C80.1015 99.9597 80.6429 99.8485 81.1899 99.8496C82.3354 99.8579 83.4349 100.302 84.265 101.091C85.0952 101.88 85.5939 102.956 85.66 104.1Z" fill="white"/>
<path d="M104.93 104.1C104.966 104.646 104.888 105.195 104.703 105.71C104.518 106.226 104.229 106.698 103.854 107.098C103.479 107.497 103.026 107.815 102.523 108.032C102.02 108.249 101.478 108.361 100.93 108.36C99.7843 108.346 98.6861 107.9 97.8567 107.109C97.0273 106.319 96.5282 105.243 96.46 104.1C96.4258 103.554 96.5039 103.007 96.6896 102.492C96.8752 101.977 97.1645 101.506 97.5394 101.108C97.9143 100.71 98.3669 100.393 98.8692 100.176C99.3716 99.9597 99.913 99.8485 100.46 99.8496C101.605 99.8579 102.705 100.302 103.535 101.091C104.365 101.88 104.864 102.956 104.93 104.1Z" fill="white"/>
<path d="M124.21 104.1C124.246 104.646 124.169 105.195 123.984 105.71C123.799 106.226 123.51 106.698 123.134 107.098C122.759 107.497 122.306 107.815 121.803 108.032C121.3 108.249 120.758 108.361 120.21 108.36C119.065 108.349 117.966 107.902 117.138 107.111C116.31 106.32 115.813 105.243 115.75 104.1C115.716 103.554 115.794 103.007 115.98 102.492C116.165 101.977 116.454 101.506 116.829 101.108C117.204 100.71 117.657 100.393 118.159 100.176C118.662 99.9597 119.203 99.8485 119.75 99.8496C120.893 99.8628 121.989 100.309 122.816 101.097C123.644 101.886 124.142 102.959 124.21 104.1Z" fill="white"/>
<g opacity="0.6">
<path d="M110.88 308.57H161.63L208.03 93.5996H157.28L110.88 308.57Z" fill="white"/>
<path d="M329.28 308.57H342.13L388.53 93.5996H375.68L329.28 308.57Z" fill="white"/>
<path d="M172.91 308.57H244.91L291.31 93.5996H219.31L172.91 308.57Z" fill="white"/>
</g>
<path d="M250 427.56C357.082 427.56 443.89 422.492 443.89 416.24C443.89 409.988 357.082 404.92 250 404.92C142.917 404.92 56.1099 409.988 56.1099 416.24C56.1099 422.492 142.917 427.56 250 427.56Z" fill="#F5F5F5"/>
<path d="M360.6 263.052H360.24C333.6 260.872 315.24 238.052 314.5 237.132C313.818 236.199 313.524 235.038 313.679 233.893C313.833 232.749 314.426 231.708 315.331 230.99C316.236 230.272 317.385 229.933 318.535 230.043C319.685 230.153 320.748 230.705 321.5 231.582C321.71 231.852 337.4 251.192 359.13 253.952C366.13 246.952 372.13 228.472 371.46 222.882C371.46 222.822 371.46 222.772 371.46 222.722C371.32 220.922 370.98 214.722 372.75 211.072C373.333 210.133 374.243 209.444 375.305 209.137C376.366 208.83 377.503 208.927 378.497 209.409C379.491 209.891 380.272 210.724 380.688 211.748C381.104 212.771 381.126 213.913 380.75 214.952C380.31 215.872 380.1 219.182 380.31 221.952C381.31 231.152 373.31 254.372 363.31 262.142C362.531 262.733 361.579 263.053 360.6 263.052Z" fill="#263238"/>
<path d="M148.82 238.821C139.618 238.709 130.541 236.669 122.177 232.831C113.812 228.993 106.346 223.444 100.26 216.541C99.5726 215.775 99.1713 214.795 99.1239 213.767C99.0765 212.739 99.386 211.727 99.9999 210.901C107.22 201.191 120 178.261 122 170.791C121.051 168.989 119.617 167.49 117.86 166.461C117.157 166.133 116.552 165.628 116.105 164.995C115.658 164.362 115.384 163.622 115.31 162.851L114.59 155.531C114.52 154.377 114.9 153.241 115.65 152.361C116.4 151.482 117.461 150.927 118.611 150.813C119.762 150.699 120.911 151.035 121.819 151.751C122.727 152.466 123.322 153.506 123.48 154.651L123.98 159.741C126.936 162.011 129.277 164.984 130.79 168.391C131.09 169.104 131.2 169.882 131.11 170.651C130.19 178.581 117.32 201.551 109.4 213.161C127.89 231.591 149.99 229.911 150.96 229.821C152.125 229.74 153.276 230.119 154.165 230.875C155.055 231.632 155.613 232.707 155.72 233.87C155.827 235.033 155.475 236.192 154.739 237.098C154.002 238.005 152.94 238.587 151.78 238.721C151.52 238.741 150.49 238.821 148.82 238.821Z" fill="#263238"/>
<path d="M292.87 416.09H280.87C280.181 416.09 279.502 415.931 278.885 415.626C278.268 415.32 277.73 414.876 277.312 414.328C276.895 413.78 276.61 413.143 276.48 412.467C276.349 411.791 276.377 411.094 276.56 410.43C279.69 399.19 281.23 390.04 282.38 375.72C278.14 355.72 274.15 337.51 274.11 337.33C273.893 336.187 274.131 335.004 274.773 334.033C275.414 333.062 276.409 332.379 277.546 332.131C278.683 331.882 279.873 332.086 280.861 332.701C281.85 333.315 282.56 334.291 282.84 335.42C282.84 335.6 286.96 354.28 291.25 374.5C291.342 374.92 291.369 375.352 291.33 375.78C290.33 388.64 289.02 397.53 286.66 407.16H292.84C293.988 407.214 295.07 407.709 295.863 408.54C296.656 409.371 297.099 410.476 297.099 411.625C297.099 412.774 296.656 413.879 295.863 414.71C295.07 415.542 293.988 416.036 292.84 416.09H292.87Z" fill="#263238"/>
<path d="M200.32 416.09H193.56C192.921 416.092 192.289 415.957 191.707 415.693C191.126 415.429 190.607 415.043 190.188 414.561C189.769 414.079 189.458 413.513 189.277 412.9C189.096 412.287 189.05 411.643 189.14 411.01C190.29 402.81 196.14 387.88 202.44 372.87C204.67 353.07 206.49 336.07 206.51 335.87C206.559 335.274 206.728 334.694 207.006 334.164C207.283 333.635 207.664 333.166 208.126 332.786C208.588 332.407 209.122 332.123 209.695 331.954C210.269 331.784 210.871 331.731 211.465 331.798C212.059 331.865 212.634 332.05 213.155 332.343C213.677 332.636 214.134 333.031 214.5 333.504C214.866 333.977 215.133 334.519 215.286 335.097C215.439 335.675 215.474 336.278 215.39 336.87C215.39 337.04 213.51 354.43 211.24 374.52C211.194 374.94 211.086 375.351 210.92 375.74C206.49 386.37 201.43 398.89 199.12 407.18H200.32C200.924 407.152 201.528 407.246 202.094 407.457C202.661 407.669 203.179 407.993 203.617 408.411C204.054 408.828 204.403 409.33 204.641 409.886C204.879 410.442 205.001 411.04 205.001 411.645C205.001 412.25 204.879 412.849 204.641 413.405C204.403 413.961 204.054 414.462 203.617 414.88C203.179 415.297 202.661 415.622 202.094 415.833C201.528 416.045 200.924 416.139 200.32 416.11V416.09Z" fill="#263238"/>
<path d="M204.21 111L152.15 163.07C149.53 220.78 149.74 281.4 152.15 344.25H324.31C320.9 263.15 320.58 185.08 324.31 111H204.21Z" fill="white"/>
<path d="M324.31 345.13H152.15C151.918 345.13 151.695 345.041 151.527 344.881C151.359 344.721 151.26 344.502 151.25 344.27C148.76 279 148.76 218 151.25 163C151.263 162.777 151.36 162.566 151.52 162.41L203.58 110.34C203.663 110.257 203.761 110.192 203.869 110.147C203.977 110.103 204.093 110.08 204.21 110.08H324.31C324.431 110.08 324.552 110.105 324.663 110.154C324.775 110.202 324.876 110.272 324.96 110.36C325.043 110.447 325.108 110.551 325.149 110.665C325.191 110.778 325.208 110.899 325.2 111.02C321.61 182.36 321.61 258.63 325.2 344.19C325.204 344.31 325.184 344.429 325.141 344.541C325.098 344.652 325.033 344.754 324.95 344.84C324.87 344.931 324.771 345.003 324.661 345.053C324.551 345.103 324.431 345.13 324.31 345.13ZM153 343.34H323.38C319.84 258.48 319.83 182.75 323.38 111.87H204.58L153 163.43C150.55 218.07 150.55 278.59 153 343.34Z" fill="#263238"/>
<path d="M202.85 287.4L204.73 287.24C204.816 287.907 205.059 288.545 205.44 289.1C205.852 289.625 206.398 290.029 207.02 290.27C207.758 290.577 208.551 290.73 209.35 290.72C210.032 290.734 210.711 290.619 211.35 290.38C211.851 290.203 212.287 289.879 212.6 289.45C212.862 289.072 212.992 288.619 212.97 288.16C212.959 287.705 212.793 287.268 212.5 286.92C212.123 286.502 211.639 286.194 211.1 286.03C210.204 285.734 209.293 285.487 208.37 285.29C207.356 285.083 206.367 284.768 205.42 284.35C204.75 284.029 204.172 283.544 203.74 282.94C203.359 282.385 203.144 281.733 203.12 281.06C203.076 280.28 203.283 279.506 203.709 278.851C204.135 278.197 204.759 277.695 205.49 277.42C206.358 277.06 207.291 276.883 208.23 276.9C209.256 276.881 210.275 277.064 211.23 277.44C212.035 277.767 212.729 278.319 213.23 279.03C213.726 279.731 214.023 280.553 214.09 281.41L212.18 281.56C212.093 280.714 211.681 279.936 211.03 279.39C210.25 278.856 209.313 278.599 208.37 278.66C207.449 278.575 206.526 278.811 205.76 279.33C205.514 279.515 205.316 279.757 205.185 280.036C205.055 280.315 204.994 280.622 205.01 280.93C205.016 281.187 205.077 281.439 205.189 281.671C205.301 281.902 205.462 282.106 205.66 282.27C206.599 282.826 207.639 283.19 208.72 283.34C209.877 283.574 211.011 283.909 212.11 284.34C212.9 284.665 213.59 285.193 214.11 285.87C214.559 286.499 214.813 287.247 214.84 288.02C214.878 288.817 214.676 289.608 214.26 290.29C213.805 291.023 213.14 291.602 212.35 291.95C211.445 292.355 210.462 292.556 209.47 292.54C208.289 292.571 207.114 292.37 206.01 291.95C205.102 291.574 204.319 290.95 203.75 290.15C203.206 289.332 202.895 288.381 202.85 287.4Z" fill="#263238"/>
<path d="M224.91 288.731L226.84 288.971C226.649 289.996 226.095 290.919 225.28 291.571C224.391 292.225 223.303 292.553 222.2 292.501C221.487 292.531 220.775 292.416 220.107 292.161C219.44 291.907 218.832 291.519 218.32 291.021C217.277 289.896 216.705 288.414 216.72 286.881C216.541 285.35 216.976 283.811 217.93 282.601C218.383 282.093 218.942 281.693 219.568 281.429C220.194 281.164 220.871 281.042 221.55 281.071C222.229 281.053 222.905 281.177 223.534 281.435C224.162 281.693 224.73 282.08 225.2 282.571C226.243 283.718 226.812 285.22 226.79 286.771C226.79 286.881 226.79 287.041 226.79 287.261H218.63C218.694 288.281 219.107 289.249 219.8 290.001C220.099 290.318 220.46 290.571 220.861 290.743C221.262 290.915 221.694 291.003 222.13 291.001C222.748 291.021 223.355 290.831 223.85 290.461C224.376 290.009 224.747 289.404 224.91 288.731ZM218.68 285.731H224.79C224.724 284.979 224.447 284.261 223.99 283.661C223.703 283.318 223.343 283.045 222.936 282.86C222.53 282.675 222.087 282.583 221.64 282.591C221.249 282.579 220.859 282.648 220.496 282.794C220.133 282.941 219.804 283.161 219.53 283.441C218.957 284.067 218.652 284.892 218.68 285.741V285.731Z" fill="#263238"/>
<path d="M229.3 292.25L228.78 281.32H230.44L230.52 282.98C230.769 282.39 231.148 281.863 231.63 281.44C231.971 281.197 232.381 281.068 232.8 281.07C233.486 281.088 234.154 281.296 234.73 281.67L234.18 283.39C233.763 283.137 233.287 282.999 232.8 282.99C232.412 282.984 232.035 283.111 231.73 283.35C231.408 283.601 231.182 283.954 231.09 284.35C230.905 285.055 230.834 285.784 230.88 286.51L231.15 292.23L229.3 292.25Z" fill="#263238"/>
<path d="M239.38 292.25L234.7 281.32H236.7L239.36 287.87C239.65 288.58 239.92 289.31 240.17 290.07C240.31 289.5 240.5 288.8 240.76 287.99L242.87 281.32H244.78L241.16 292.25H239.38Z" fill="#263238"/>
<path d="M246.28 279.29L246.17 277.16H248L248.1 279.29H246.28ZM246.9 292.29L246.37 281.36H248.23L248.75 292.29H246.9Z" fill="#263238"/>
<path d="M258.51 288.25L260.35 288.49C260.274 289.613 259.778 290.666 258.96 291.44C258.134 292.166 257.059 292.546 255.96 292.5C255.278 292.523 254.599 292.405 253.966 292.152C253.332 291.899 252.758 291.517 252.28 291.03C251.25 289.875 250.69 288.377 250.71 286.83C250.638 285.777 250.788 284.721 251.15 283.73C251.461 282.885 252.059 282.177 252.84 281.73C253.625 281.28 254.516 281.049 255.42 281.06C256.493 281.01 257.552 281.327 258.42 281.96C259.228 282.602 259.784 283.508 259.99 284.52L258.21 284.8C258.053 284.158 257.705 283.579 257.21 283.14C256.755 282.772 256.185 282.578 255.6 282.59C255.176 282.572 254.754 282.653 254.367 282.826C253.98 283 253.639 283.261 253.37 283.59C252.752 284.527 252.496 285.658 252.65 286.77C252.617 287.918 252.969 289.045 253.65 289.97C253.931 290.291 254.279 290.547 254.67 290.72C255.06 290.893 255.483 290.978 255.91 290.97C256.571 290.989 257.214 290.749 257.7 290.3C258.207 289.736 258.495 289.008 258.51 288.25Z" fill="#263238"/>
<path d="M269.43 288.731L271.36 288.971C271.169 289.996 270.615 290.919 269.8 291.571C268.911 292.225 267.823 292.553 266.72 292.501C266.007 292.531 265.294 292.416 264.627 292.161C263.96 291.907 263.352 291.519 262.84 291.021C261.802 289.893 261.23 288.414 261.24 286.881C261.15 286.122 261.212 285.353 261.422 284.619C261.631 283.884 261.984 283.198 262.46 282.601C262.91 282.093 263.468 281.693 264.092 281.428C264.717 281.163 265.392 281.041 266.07 281.071C266.749 281.053 267.425 281.177 268.053 281.435C268.682 281.694 269.25 282.08 269.72 282.571C270.763 283.719 271.331 285.22 271.31 286.771C271.31 286.881 271.31 287.041 271.31 287.261H263.15C263.204 288.286 263.61 289.261 264.3 290.021C264.601 290.339 264.964 290.591 265.366 290.763C265.769 290.935 266.202 291.023 266.64 291.021C267.255 291.042 267.859 290.851 268.35 290.481C268.887 290.027 269.265 289.414 269.43 288.731ZM263.2 285.731H269.31C269.251 284.978 268.973 284.258 268.51 283.661C268.223 283.319 267.863 283.045 267.456 282.86C267.05 282.675 266.607 282.583 266.16 282.591C265.77 282.578 265.382 282.647 265.02 282.793C264.658 282.939 264.331 283.16 264.06 283.441C263.481 284.064 263.172 284.891 263.2 285.741V285.731Z" fill="#263238"/>
<path d="M193.52 313.34L193.44 311.73C193.095 312.315 192.6 312.797 192.005 313.124C191.41 313.451 190.738 313.612 190.06 313.59C189.431 313.591 188.809 313.465 188.23 313.22C187.73 313.021 187.286 312.702 186.94 312.29C186.635 311.879 186.421 311.409 186.31 310.91C186.187 310.341 186.12 309.762 186.11 309.18L185.78 302.41H187.64L187.93 308.47C187.936 309.142 188.006 309.812 188.14 310.47C188.261 310.934 188.541 311.34 188.93 311.62C189.35 311.9 189.846 312.043 190.35 312.03C190.897 312.035 191.434 311.886 191.9 311.6C192.36 311.344 192.715 310.933 192.9 310.44C193.095 309.745 193.162 309.02 193.1 308.3L192.82 302.45H194.67L195.19 313.38L193.52 313.34Z" fill="#263238"/>
<path d="M198.08 313.34L197.55 302.41H199.22L199.3 303.96C199.647 303.379 200.146 302.905 200.744 302.588C201.341 302.27 202.014 302.122 202.69 302.16C203.317 302.155 203.939 302.274 204.52 302.51C205.027 302.701 205.473 303.026 205.81 303.45C206.115 303.858 206.333 304.324 206.45 304.82C206.567 305.413 206.631 306.016 206.64 306.62L206.96 313.34H205.11L204.79 306.69C204.79 306.113 204.688 305.541 204.49 305C204.328 304.618 204.043 304.301 203.68 304.1C203.285 303.871 202.836 303.754 202.38 303.76C201.64 303.748 200.925 304.02 200.38 304.52C200.064 304.917 199.835 305.376 199.709 305.867C199.584 306.358 199.563 306.87 199.65 307.37L199.94 313.37L198.08 313.34Z" fill="#263238"/>
<path d="M216.88 312.001C216.318 312.529 215.663 312.949 214.95 313.241C214.311 313.483 213.633 313.605 212.95 313.601C211.934 313.66 210.932 313.347 210.13 312.721C209.804 312.442 209.54 312.098 209.356 311.71C209.171 311.322 209.071 310.9 209.06 310.471C209.025 309.964 209.125 309.457 209.35 309.001C209.564 308.578 209.876 308.211 210.26 307.931C210.659 307.664 211.098 307.462 211.56 307.331C212.1 307.202 212.648 307.108 213.2 307.051C214.309 306.951 215.405 306.737 216.47 306.411C216.47 306.161 216.47 306.001 216.47 305.931C216.483 305.638 216.436 305.345 216.333 305.07C216.23 304.795 216.073 304.544 215.87 304.331C215.269 303.951 214.578 303.735 213.868 303.705C213.157 303.675 212.451 303.832 211.82 304.161C211.358 304.585 211.06 305.159 210.98 305.781L209.15 305.541C209.237 304.865 209.487 304.219 209.88 303.661C210.285 303.143 210.835 302.757 211.46 302.551C212.252 302.285 213.084 302.156 213.92 302.171C214.697 302.147 215.472 302.258 216.21 302.501C216.703 302.633 217.15 302.897 217.503 303.266C217.856 303.634 218.1 304.093 218.21 304.591C218.309 305.156 218.366 305.728 218.38 306.301L218.5 308.771C218.523 309.866 218.613 310.958 218.77 312.041C218.879 312.504 219.062 312.946 219.31 313.351H217.37C217.123 312.936 216.957 312.478 216.88 312.001ZM216.52 307.861C215.552 308.216 214.545 308.451 213.52 308.561C212.974 308.623 212.437 308.747 211.92 308.931C211.628 309.055 211.383 309.269 211.22 309.541C211.06 309.806 210.983 310.113 211 310.421C211.011 310.659 211.071 310.891 211.178 311.103C211.285 311.315 211.436 311.502 211.62 311.651C212.099 312.011 212.692 312.189 213.29 312.151C213.947 312.163 214.596 312.001 215.17 311.681C215.689 311.393 216.099 310.944 216.34 310.401C216.533 309.801 216.605 309.169 216.55 308.541L216.52 307.861Z" fill="#263238"/>
<path d="M224.57 313.34L219.89 302.41H221.89L224.5 309C224.79 309.71 225.06 310.45 225.31 311.21C225.45 310.63 225.64 309.94 225.9 309.13L228.01 302.46H229.91L226.3 313.39L224.57 313.34Z" fill="#263238"/>
<path d="M239.15 312.001C238.588 312.529 237.933 312.949 237.22 313.241C236.581 313.483 235.903 313.605 235.22 313.601C234.207 313.659 233.208 313.347 232.41 312.721C232.079 312.446 231.811 312.102 231.625 311.714C231.439 311.326 231.338 310.902 231.33 310.471C231.295 309.964 231.395 309.457 231.62 309.001C231.834 308.578 232.146 308.211 232.53 307.931C232.931 307.662 233.374 307.459 233.84 307.331C234.376 307.201 234.921 307.107 235.47 307.051C236.579 306.951 237.675 306.737 238.74 306.411C238.74 306.161 238.74 306.001 238.74 305.931C238.755 305.638 238.71 305.344 238.607 305.069C238.503 304.794 238.345 304.542 238.14 304.331C237.539 303.951 236.849 303.735 236.138 303.705C235.427 303.675 234.721 303.832 234.09 304.161C233.628 304.585 233.33 305.159 233.25 305.781L231.42 305.541C231.507 304.865 231.757 304.219 232.15 303.661C232.555 303.143 233.105 302.757 233.73 302.551C234.522 302.285 235.354 302.156 236.19 302.171C236.967 302.147 237.742 302.258 238.48 302.501C238.973 302.633 239.42 302.897 239.773 303.266C240.126 303.634 240.371 304.093 240.48 304.591C240.584 305.156 240.641 305.728 240.65 306.301L240.77 308.771C240.779 309.852 240.856 310.93 241 312.001C241.101 312.465 241.281 312.908 241.53 313.311H239.59C239.368 312.903 239.22 312.46 239.15 312.001ZM238.79 307.861C237.822 308.216 236.815 308.451 235.79 308.561C235.244 308.623 234.707 308.747 234.19 308.931C233.898 309.055 233.653 309.269 233.49 309.541C233.33 309.806 233.253 310.113 233.27 310.421C233.281 310.659 233.341 310.891 233.448 311.103C233.555 311.315 233.706 311.502 233.89 311.651C234.369 312.011 234.962 312.189 235.56 312.151C236.217 312.163 236.866 312.001 237.44 311.681C237.959 311.393 238.369 310.944 238.61 310.401C238.813 309.804 238.885 309.169 238.82 308.541L238.79 307.861Z" fill="#263238"/>
<path d="M243.19 300.38L243.09 298.25H244.94L245.05 300.38H243.19ZM243.81 313.38L243.29 302.45H245.14L245.67 313.38H243.81Z" fill="#263238"/>
<path d="M248.45 313.34L247.72 298.25H249.58L250.3 313.34H248.45Z" fill="#263238"/>
<path d="M260.24 312.001C259.681 312.528 259.03 312.948 258.32 313.241C257.681 313.482 257.003 313.604 256.32 313.601C255.307 313.658 254.309 313.346 253.51 312.721C253.184 312.442 252.92 312.098 252.735 311.71C252.551 311.322 252.45 310.9 252.44 310.471C252.406 309.98 252.499 309.489 252.709 309.045C252.919 308.6 253.24 308.217 253.64 307.931C254.038 307.662 254.477 307.459 254.94 307.331C255.48 307.201 256.027 307.108 256.58 307.051C257.689 306.95 258.784 306.735 259.85 306.411C259.85 306.161 259.85 306.001 259.85 305.931C259.863 305.638 259.816 305.345 259.713 305.07C259.61 304.795 259.452 304.544 259.25 304.331C258.634 303.874 257.875 303.65 257.11 303.701C256.441 303.65 255.772 303.811 255.2 304.161C254.737 304.586 254.437 305.159 254.35 305.781L252.53 305.541C252.618 304.866 252.864 304.222 253.25 303.661C253.661 303.145 254.213 302.759 254.84 302.551C255.632 302.285 256.464 302.156 257.3 302.171C258.076 302.147 258.851 302.259 259.59 302.501C260.083 302.632 260.53 302.897 260.883 303.265C261.236 303.634 261.48 304.093 261.59 304.591C261.689 305.156 261.746 305.728 261.76 306.301L261.88 308.771C261.903 309.866 261.993 310.958 262.15 312.041C262.256 312.503 262.435 312.945 262.68 313.351H260.75C260.499 312.936 260.327 312.478 260.24 312.001ZM259.89 307.861C258.922 308.214 257.914 308.449 256.89 308.561C256.344 308.623 255.807 308.747 255.29 308.931C254.996 309.052 254.75 309.267 254.59 309.541C254.43 309.806 254.353 310.112 254.37 310.421C254.378 310.659 254.438 310.892 254.545 311.104C254.652 311.316 254.804 311.503 254.99 311.651C255.469 312.011 256.061 312.188 256.66 312.151C257.317 312.163 257.966 312.001 258.54 311.681C259.058 311.395 259.466 310.945 259.7 310.401C259.903 309.803 259.974 309.169 259.91 308.541L259.89 307.861Z" fill="#263238"/>
<path d="M266.61 313.34H264.89L264.17 298.25H266L266.26 303.63C266.588 303.164 267.027 302.786 267.536 302.53C268.045 302.273 268.61 302.146 269.18 302.16C269.845 302.154 270.504 302.294 271.11 302.57C271.706 302.823 272.234 303.214 272.65 303.71C273.081 304.239 273.419 304.838 273.65 305.48C273.907 306.197 274.052 306.949 274.08 307.71C274.264 309.255 273.841 310.811 272.9 312.05C272.509 312.538 272.013 312.93 271.448 313.197C270.883 313.463 270.265 313.598 269.64 313.59C269.026 313.601 268.419 313.458 267.875 313.175C267.33 312.893 266.864 312.478 266.52 311.97L266.61 313.34ZM266.32 307.79C266.306 308.777 266.536 309.753 266.99 310.63C267.235 311.062 267.589 311.422 268.018 311.673C268.446 311.924 268.933 312.058 269.43 312.06C269.83 312.059 270.225 311.963 270.581 311.781C270.937 311.598 271.245 311.334 271.48 311.01C272.095 310.082 272.357 308.965 272.22 307.86C272.244 306.725 271.892 305.614 271.22 304.7C270.964 304.388 270.642 304.136 270.277 303.963C269.912 303.79 269.514 303.7 269.11 303.7C268.709 303.703 268.314 303.801 267.958 303.985C267.602 304.169 267.294 304.435 267.06 304.76C266.462 305.65 266.199 306.724 266.32 307.79Z" fill="#263238"/>
<path d="M276.59 313.34L275.86 298.25H277.72L278.44 313.34H276.59Z" fill="#263238"/>
<path d="M288.63 309.82L290.56 310.06C290.364 311.084 289.811 312.005 289 312.66C288.11 313.313 287.023 313.641 285.92 313.59C285.207 313.619 284.495 313.502 283.828 313.248C283.161 312.993 282.553 312.606 282.04 312.11C280.997 310.985 280.424 309.504 280.44 307.97C280.349 307.211 280.409 306.441 280.617 305.705C280.825 304.968 281.176 304.28 281.65 303.68C282.105 303.177 282.665 302.779 283.29 302.517C283.916 302.254 284.592 302.132 285.27 302.16C285.948 302.143 286.623 302.266 287.251 302.523C287.879 302.779 288.447 303.163 288.92 303.65C289.96 304.8 290.527 306.3 290.51 307.85C290.51 307.96 290.51 308.13 290.51 308.35H282.35C282.403 309.375 282.81 310.35 283.5 311.11C283.803 311.419 284.166 311.663 284.567 311.826C284.967 311.99 285.397 312.069 285.83 312.06C286.446 312.078 287.051 311.892 287.55 311.53C288.074 311.082 288.45 310.486 288.63 309.82ZM282.4 306.82H288.51C288.444 306.069 288.166 305.351 287.71 304.75C287.423 304.408 287.062 304.135 286.656 303.949C286.249 303.764 285.807 303.672 285.36 303.68C284.968 303.669 284.578 303.74 284.214 303.888C283.851 304.037 283.523 304.258 283.25 304.54C282.682 305.161 282.377 305.979 282.4 306.82Z" fill="#263238"/>
<path d="M293.44 319.461H274.66C274.482 319.461 274.312 319.39 274.186 319.265C274.06 319.139 273.99 318.969 273.99 318.791C273.99 318.703 274.007 318.617 274.041 318.536C274.075 318.455 274.124 318.382 274.187 318.321C274.249 318.259 274.323 318.211 274.404 318.178C274.485 318.146 274.572 318.13 274.66 318.131H293.44C293.527 318.13 293.614 318.146 293.695 318.178C293.777 318.211 293.851 318.259 293.913 318.321C293.975 318.382 294.025 318.455 294.059 318.536C294.092 318.617 294.11 318.703 294.11 318.791C294.11 318.879 294.092 318.966 294.059 319.047C294.025 319.129 293.976 319.202 293.914 319.265C293.851 319.327 293.777 319.376 293.696 319.41C293.615 319.444 293.528 319.461 293.44 319.461Z" fill="#0069BD"/>
<path d="M266.88 319.461H183C182.822 319.461 182.652 319.39 182.526 319.265C182.401 319.139 182.33 318.969 182.33 318.791C182.33 318.703 182.347 318.617 182.381 318.536C182.415 318.455 182.465 318.382 182.527 318.321C182.589 318.259 182.663 318.211 182.744 318.178C182.826 318.146 182.913 318.13 183 318.131H266.86C266.948 318.13 267.034 318.146 267.116 318.178C267.197 318.211 267.271 318.259 267.333 318.321C267.396 318.382 267.445 318.455 267.479 318.536C267.513 318.617 267.53 318.703 267.53 318.791C267.53 318.965 267.462 319.133 267.341 319.258C267.22 319.383 267.054 319.456 266.88 319.461Z" fill="#0069BD"/>
<path d="M214.28 219.19C214.08 214.83 211.61 211.39 208.75 211.49C205.89 211.59 203.75 215.2 203.93 219.56C204.11 223.92 206.6 227.36 209.46 227.25C212.32 227.14 214.48 223.54 214.28 219.19Z" fill="#0069BD"/>
<path d="M274.65 217.821C274.45 213.471 271.98 210.031 269.12 210.131C266.26 210.231 264.12 213.841 264.3 218.201C264.48 222.561 266.98 226.001 269.83 225.891C272.68 225.781 274.85 222.181 274.65 217.821Z" fill="#0069BD"/>
<path d="M229.35 237C233.964 235.277 238.878 234.504 243.798 234.727C248.718 234.95 253.542 236.166 257.98 238.3C258.127 238.382 258.257 238.491 258.361 238.623C258.466 238.755 258.543 238.906 258.589 239.068C258.634 239.23 258.647 239.399 258.627 239.566C258.607 239.733 258.553 239.894 258.47 240.04C258.3 240.334 258.022 240.55 257.695 240.642C257.368 240.733 257.018 240.693 256.72 240.53C256.57 240.45 242.32 232.77 225.31 241.53C225.007 241.684 224.656 241.713 224.331 241.612C224.006 241.511 223.733 241.288 223.57 240.99C223.492 240.841 223.445 240.679 223.43 240.511C223.416 240.344 223.435 240.175 223.486 240.015C223.537 239.856 223.62 239.707 223.728 239.579C223.837 239.451 223.97 239.346 224.12 239.27C225.81 238.395 227.557 237.637 229.35 237Z" fill="#0069BD"/>
<path d="M205.64 178.341C206.084 178.353 206.517 178.477 206.9 178.701C207.485 179.047 207.909 179.61 208.081 180.267C208.254 180.924 208.16 181.622 207.82 182.211C205.83 185.757 203.014 188.772 199.61 190.998C196.207 193.225 192.317 194.598 188.27 195.001C187.59 195.028 186.926 194.786 186.422 194.328C185.919 193.869 185.616 193.231 185.58 192.551C185.565 192.216 185.617 191.881 185.731 191.566C185.846 191.251 186.022 190.962 186.248 190.715C186.475 190.468 186.748 190.268 187.052 190.126C187.356 189.985 187.685 189.905 188.02 189.891C188.41 189.891 197.64 189.311 203.38 179.621C203.605 179.222 203.934 178.893 204.333 178.667C204.731 178.442 205.183 178.329 205.64 178.341Z" fill="#0069BD"/>
<path d="M266.05 176.871C266.468 176.788 266.899 176.811 267.306 176.937C267.713 177.063 268.082 177.287 268.38 177.591C276.38 185.591 285.52 183.981 285.9 183.911C286.562 183.792 287.244 183.933 287.803 184.306C288.362 184.679 288.756 185.254 288.9 185.911C288.967 186.239 288.968 186.578 288.904 186.907C288.84 187.235 288.711 187.548 288.525 187.827C288.339 188.106 288.1 188.345 287.821 188.531C287.542 188.717 287.229 188.846 286.9 188.911C286.4 189.001 274.76 191.221 264.69 181.161C264.361 180.835 264.128 180.426 264.014 179.978C263.901 179.529 263.912 179.058 264.047 178.615C264.182 178.173 264.435 177.775 264.779 177.466C265.124 177.157 265.546 176.948 266 176.861L266.05 176.871Z" fill="#0069BD"/>
<path opacity="0.2" d="M321.72 204.861L314.41 205.541C313.145 205.659 311.88 205.312 310.853 204.565C309.826 203.817 309.107 202.721 308.83 201.481L298.7 156.101C298.407 154.784 298.637 153.404 299.339 152.252C300.042 151.099 301.164 150.264 302.47 149.921L322.06 144.781L321.72 204.861Z" fill="black"/>
<path opacity="0.2" d="M209 167.69C203.91 153.8 198.82 131.57 204.19 110.98L152.13 163.05C166.86 168 190.32 170.11 209 167.69Z" fill="black"/>
<path d="M204.21 163.05C198.5 146.19 200.83 123.27 204.21 110.98L152.15 163.05C167.91 165.92 185.52 165.46 204.21 163.05Z" fill="white"/>
<path d="M176 165.92C167.956 165.98 159.923 165.31 152 163.92C151.839 163.894 151.689 163.823 151.566 163.716C151.443 163.609 151.352 163.47 151.303 163.315C151.254 163.159 151.25 162.993 151.29 162.835C151.33 162.677 151.413 162.534 151.53 162.42L203.59 110.35C203.729 110.209 203.911 110.118 204.107 110.092C204.303 110.066 204.502 110.106 204.673 110.205C204.844 110.305 204.977 110.459 205.051 110.643C205.124 110.827 205.135 111.03 205.08 111.22C201.94 122.66 199.33 145.82 205.08 162.76C205.12 162.886 205.132 163.019 205.117 163.15C205.101 163.281 205.058 163.407 204.99 163.52C204.921 163.632 204.828 163.728 204.717 163.799C204.606 163.87 204.481 163.915 204.35 163.93C194.952 165.199 185.483 165.863 176 165.92ZM154 162.46C167.84 164.75 183.91 164.7 203 162.3C198.29 147.36 199.36 127.59 202.52 113.9L154 162.46Z" fill="#263238"/>
<path d="M383.1 239.11C382.771 239.11 382.452 239.001 382.191 238.8C381.931 238.6 381.744 238.318 381.66 238L363.32 168.12C363.219 167.737 363.275 167.329 363.475 166.987C363.674 166.645 364.002 166.396 364.385 166.295C364.768 166.194 365.176 166.25 365.518 166.45C365.86 166.649 366.109 166.977 366.21 167.36L384.55 237.24C384.6 237.43 384.611 237.628 384.585 237.822C384.558 238.016 384.493 238.203 384.393 238.372C384.294 238.542 384.162 238.689 384.005 238.807C383.849 238.925 383.67 239.011 383.48 239.06C383.357 239.097 383.229 239.114 383.1 239.11Z" fill="#263238"/>
<path d="M417.26 138.729L416.29 138.979L417.667 144.323L418.637 144.073L417.26 138.729Z" fill="#0069BD"/>
<path d="M414.11 131.091L410.26 116.421C409.736 114.435 408.446 112.737 406.673 111.701C404.9 110.664 402.788 110.373 400.8 110.891L390.73 113.531L390.48 112.531L400.55 109.881C402.792 109.299 405.174 109.628 407.173 110.798C409.173 111.967 410.628 113.881 411.22 116.121L415.08 130.801L414.11 131.091Z" fill="#0069BD"/>
<path d="M401.443 113.335L306.099 138.348C303.3 139.082 301.626 141.947 302.36 144.746L314.427 190.74C315.161 193.539 318.026 195.213 320.825 194.479L416.168 169.466C418.968 168.731 420.642 165.867 419.907 163.067L407.841 117.074C407.107 114.275 404.242 112.601 401.443 113.335Z" fill="#0069BD"/>
<path d="M396.695 166.914L336.54 182.696C333.741 183.43 332.067 186.295 332.801 189.094L336.572 203.467C337.307 206.267 340.171 207.941 342.97 207.206L403.125 191.425C405.924 190.691 407.598 187.826 406.864 185.027L403.093 170.653C402.358 167.854 399.494 166.18 396.695 166.914Z" fill="#0069BD"/>
<path d="M342.15 187.941L350.38 185.801L350.93 187.921L345.78 189.261L346.19 190.841L351 189.601L351.53 191.601L346.75 192.851L347.26 194.801L352.56 193.431L353.14 195.681L344.77 197.861L342.15 187.941Z" fill="white"/>
<path d="M354.81 195.26L352.22 185.32L357.34 183.99C358.066 183.773 358.821 183.665 359.58 183.67C360.116 183.698 360.626 183.906 361.03 184.26C361.428 184.638 361.721 185.114 361.879 185.64C362.037 186.167 362.054 186.725 361.93 187.26C361.802 187.726 361.554 188.15 361.21 188.49C360.915 188.767 360.577 188.993 360.21 189.16C360.488 189.148 360.765 189.191 361.026 189.287C361.287 189.383 361.526 189.53 361.73 189.72C361.942 189.871 362.143 190.038 362.33 190.22L364.56 192.71L361.09 193.62L358.68 191C358.476 190.743 358.221 190.531 357.93 190.38C357.663 190.295 357.376 190.295 357.11 190.38L356.84 190.45L357.89 194.45L354.81 195.26ZM356.35 188.54L357.65 188.21C357.92 188.117 358.181 188 358.43 187.86C358.618 187.772 358.765 187.614 358.84 187.42C358.942 187.188 358.953 186.926 358.869 186.686C358.786 186.447 358.614 186.248 358.39 186.13C357.996 186.005 357.573 186.005 357.18 186.13L355.83 186.48L356.35 188.54Z" fill="white"/>
<path d="M365.6 192.451L363 182.511L368.12 181.181C368.848 180.969 369.602 180.861 370.36 180.861C370.893 180.89 371.4 181.098 371.8 181.451C372.245 181.841 372.554 182.363 372.68 182.941C372.82 183.438 372.82 183.964 372.68 184.461C372.549 184.921 372.305 185.341 371.97 185.681C371.672 185.956 371.335 186.185 370.97 186.361C371.273 186.364 371.573 186.415 371.86 186.511C372.084 186.622 372.295 186.756 372.49 186.911C372.7 187.061 372.897 187.229 373.08 187.411L375.32 189.911L371.85 190.811L369.42 188.201C369.216 187.941 368.956 187.729 368.66 187.581C368.397 187.496 368.113 187.496 367.85 187.581L367.58 187.651L368.63 191.651L365.6 192.451ZM367.15 185.741L368.45 185.401C368.716 185.305 368.973 185.188 369.22 185.051C369.316 185.009 369.402 184.949 369.474 184.873C369.546 184.798 369.603 184.709 369.64 184.611C369.74 184.38 369.749 184.121 369.665 183.883C369.582 183.646 369.412 183.449 369.19 183.331C368.795 183.196 368.365 183.196 367.97 183.331L366.63 183.681L367.15 185.741Z" fill="white"/>
<path d="M374.45 184.85C374.202 184.176 374.106 183.456 374.169 182.741C374.232 182.026 374.452 181.334 374.815 180.715C375.177 180.095 375.672 179.564 376.264 179.158C376.857 178.753 377.531 178.483 378.24 178.37C378.923 178.146 379.643 178.061 380.359 178.119C381.075 178.178 381.772 178.378 382.41 178.71C383.003 179.089 383.513 179.584 383.909 180.164C384.306 180.745 384.582 181.4 384.72 182.09C385.009 183.063 385.064 184.091 384.88 185.09C384.69 185.925 384.255 186.684 383.63 187.27C382.892 187.93 381.997 188.392 381.03 188.61C380.083 188.89 379.084 188.952 378.11 188.79C377.261 188.617 376.483 188.192 375.88 187.57C375.172 186.805 374.679 185.866 374.45 184.85ZM377.52 184.07C377.651 184.846 378.046 185.553 378.64 186.07C378.89 186.227 379.17 186.331 379.461 186.377C379.753 186.423 380.051 186.409 380.337 186.336C380.623 186.263 380.892 186.132 381.126 185.953C381.36 185.773 381.556 185.547 381.7 185.29C381.952 184.489 381.931 183.627 381.64 182.84C381.513 182.095 381.123 181.421 380.54 180.94C380.293 180.774 380.012 180.666 379.718 180.623C379.424 180.58 379.124 180.602 378.84 180.69C378.555 180.753 378.287 180.88 378.059 181.062C377.83 181.244 377.646 181.476 377.52 181.74C377.251 182.493 377.251 183.316 377.52 184.07Z" fill="white"/>
<path d="M387.73 186.69L385.14 176.76L390.26 175.43C390.986 175.207 391.741 175.1 392.5 175.11C393.037 175.136 393.548 175.344 393.95 175.7C394.35 176.077 394.644 176.553 394.8 177.08C394.956 177.607 394.97 178.166 394.84 178.7C394.71 179.163 394.466 179.586 394.13 179.93C393.836 180.207 393.498 180.433 393.13 180.6C393.436 180.611 393.739 180.664 394.03 180.76C394.252 180.865 394.46 180.996 394.65 181.15C394.863 181.3 395.061 181.471 395.24 181.66L397.48 184.15L394.01 185.06L391.58 182.45C391.373 182.19 391.114 181.976 390.82 181.82C390.556 181.74 390.274 181.74 390.01 181.82L389.74 181.89L390.79 185.89L387.73 186.69ZM389.27 179.98L390.57 179.65C390.838 179.552 391.099 179.435 391.35 179.3C391.536 179.209 391.682 179.052 391.76 178.86C391.863 178.628 391.873 178.366 391.79 178.126C391.706 177.887 391.535 177.688 391.31 177.57C390.917 177.44 390.493 177.44 390.1 177.57L388.75 177.92L389.27 179.98Z" fill="white"/>
<path d="M318.74 148.241L339.44 142.801L341.26 149.801L327.26 153.481L327.75 158.391C328.555 157.705 329.43 157.105 330.36 156.601C331.223 156.14 332.135 155.778 333.08 155.521C334.464 155.097 335.919 154.952 337.359 155.097C338.8 155.241 340.197 155.671 341.47 156.361C342.674 157.036 343.725 157.954 344.555 159.058C345.385 160.162 345.976 161.426 346.29 162.771C346.81 164.818 346.81 166.963 346.29 169.011C345.803 171.087 344.701 172.969 343.13 174.411C341.199 176.055 338.896 177.202 336.42 177.751C334.638 178.25 332.8 178.522 330.95 178.561C329.503 178.579 328.067 178.317 326.72 177.791C325.542 177.314 324.456 176.638 323.51 175.791C322.5 174.834 321.635 173.736 320.94 172.531L329.51 169.251C329.945 170.433 330.771 171.431 331.85 172.081C332.793 172.601 333.902 172.73 334.94 172.441C335.517 172.303 336.055 172.036 336.514 171.661C336.973 171.285 337.341 170.809 337.59 170.271C338.155 168.855 338.194 167.283 337.7 165.841C337.437 164.335 336.624 162.981 335.42 162.041C334.899 161.714 334.314 161.504 333.705 161.424C333.096 161.345 332.477 161.398 331.89 161.581C331.038 161.807 330.255 162.24 329.61 162.841C328.983 163.452 328.474 164.175 328.11 164.971L320.4 165.851L318.74 148.241Z" fill="white"/>
<path d="M348.53 157.051C346.956 151.091 346.933 146.634 348.46 143.681C349.986 140.728 352.946 138.678 357.34 137.531C359.093 137.013 360.926 136.817 362.75 136.951C364.098 137.075 365.408 137.47 366.6 138.111C367.608 138.668 368.523 139.38 369.31 140.221C370.095 141.104 370.767 142.082 371.31 143.131C372.531 145.369 373.469 147.751 374.1 150.221C375.6 155.908 375.733 160.328 374.5 163.481C373.266 166.634 370.293 168.824 365.58 170.051C363.401 170.72 361.094 170.86 358.85 170.461C356.976 170.042 355.249 169.127 353.85 167.811C352.598 166.579 351.581 165.128 350.85 163.531C349.859 161.455 349.082 159.284 348.53 157.051ZM357.18 154.801C358.226 158.801 359.296 161.438 360.39 162.711C360.783 163.278 361.337 163.714 361.981 163.962C362.625 164.21 363.328 164.258 364 164.101C364.842 163.876 365.562 163.325 366 162.571C366.537 161.552 366.77 160.399 366.67 159.251C366.492 157.083 366.093 154.938 365.48 152.851C364.393 148.691 363.306 145.984 362.22 144.731C361.801 144.159 361.218 143.727 360.549 143.491C359.88 143.255 359.155 143.228 358.47 143.411C357.784 143.581 357.169 143.962 356.711 144.5C356.254 145.038 355.977 145.707 355.92 146.411C355.76 148.061 356.14 150.851 357.18 154.801Z" fill="white"/>
<path d="M384.52 140.671L375.89 141.361C375.807 138.796 376.648 136.288 378.26 134.291C379.84 132.381 382.41 130.951 385.98 130.021C390.08 128.941 393.243 128.941 395.47 130.021C396.513 130.475 397.438 131.161 398.175 132.028C398.912 132.894 399.44 133.918 399.72 135.021C400.078 136.338 400.026 137.734 399.57 139.021C399.014 140.466 398.123 141.758 396.97 142.791C398 142.743 399.032 142.851 400.03 143.111C401.209 143.462 402.275 144.117 403.12 145.011C404.027 146.011 404.663 147.226 404.97 148.541C405.448 150.389 405.431 152.331 404.92 154.171C404.406 156.113 403.318 157.856 401.8 159.171C399.838 160.748 397.538 161.85 395.08 162.391C392.814 163.08 390.44 163.337 388.08 163.151C386.334 162.95 384.668 162.306 383.24 161.281C381.72 160.141 380.451 158.701 379.51 157.051L387.92 153.611C388.427 154.919 389.315 156.044 390.47 156.841C391.392 157.328 392.469 157.436 393.47 157.141C394.024 157.006 394.542 156.752 394.987 156.396C395.433 156.04 395.795 155.591 396.05 155.081C396.619 153.919 396.716 152.582 396.32 151.351C396.079 150.103 395.361 148.999 394.32 148.271C393.82 147.966 393.26 147.773 392.678 147.704C392.097 147.635 391.507 147.692 390.95 147.871C390.004 148.172 389.1 148.592 388.26 149.121L387.08 142.781C387.47 142.741 387.857 142.678 388.24 142.591C388.769 142.467 389.269 142.24 389.71 141.923C390.151 141.605 390.525 141.204 390.81 140.741C391.089 140.32 391.276 139.845 391.357 139.347C391.438 138.848 391.411 138.338 391.28 137.851C391.189 137.427 391.013 137.025 390.762 136.671C390.511 136.317 390.19 136.017 389.82 135.791C389.428 135.579 388.998 135.448 388.554 135.407C388.111 135.366 387.664 135.415 387.24 135.551C386.776 135.652 386.338 135.845 385.95 136.118C385.562 136.391 385.232 136.739 384.98 137.141C384.461 138.24 384.3 139.475 384.52 140.671Z" fill="white"/>
</svg>
