<svg width="500" height="500" viewBox="0 0 500 500" fill="none" xmlns="http://www.w3.org/2000/svg">
<path d="M159.46 450.05C164.089 454.922 168.972 459.545 174.09 463.9H394.73C419.06 440.77 442.09 407.57 462.27 361.68C462.27 361.68 498.01 271.19 489.69 191.87C481.37 112.55 429.27 49.8703 355.47 36.5203C281.67 23.1703 216.07 96.3803 133.7 121.76C51.33 147.14 -8.99998 215.16 12.68 306.4C34.36 397.64 94.9 381.94 159.46 450.05Z" fill="#DCDCDC"/>
<path d="M367.23 163.35C370.44 164.75 378.29 164.57 378.29 164.57C378.29 164.57 376.6 159.43 376.46 159.12C374.73 155.52 369.29 149.57 364.85 150.12C364.118 150.24 363.419 150.513 362.799 150.922C362.179 151.33 361.652 151.864 361.252 152.489C360.852 153.115 360.589 153.817 360.478 154.551C360.367 155.285 360.412 156.034 360.61 156.75C361.34 159.87 364.49 162.15 367.23 163.35Z" fill="#C2C2C2"/>
<path d="M446.63 165.069C446.69 165.119 448.05 159.859 448.1 159.519C448.65 155.519 447.39 147.589 443.36 145.649C442.683 145.344 441.949 145.186 441.206 145.184C440.463 145.182 439.728 145.336 439.049 145.637C438.369 145.938 437.761 146.379 437.263 146.93C436.766 147.482 436.39 148.132 436.16 148.839C435.08 151.839 436.45 155.439 438.07 157.949C440 160.889 446.62 165.069 446.63 165.069Z" fill="#C2C2C2"/>
<path d="M470.06 136.629C465.61 136.149 460.33 142.239 458.7 145.889C458.56 146.209 456.93 151.389 457.01 151.389H457.11C456.27 152.389 455.38 153.389 454.42 154.529C452.69 156.659 450.74 159.089 448.8 161.879C446.676 164.859 444.729 167.961 442.97 171.169C440.972 174.753 439.299 178.508 437.97 182.389C437.964 182.436 437.964 182.483 437.97 182.529C437.97 181.219 437.97 177.529 437.9 177.269C437.38 173.269 434.06 165.959 429.66 165.149C428.924 165.033 428.172 165.074 427.453 165.269C426.734 165.464 426.065 165.809 425.489 166.281C424.912 166.753 424.443 167.342 424.11 168.009C423.778 168.675 423.59 169.405 423.56 170.149C423.3 173.299 425.56 176.449 427.81 178.439C430.32 180.679 437.28 182.849 437.81 183.019C436.561 187 435.576 191.059 434.86 195.169C434.44 197.559 434.08 199.979 433.76 202.419C433.76 201.289 433.76 200.269 433.7 200.129C433.18 196.129 429.86 188.819 425.47 188.009C424.734 187.893 423.981 187.934 423.262 188.129C422.542 188.324 421.872 188.668 421.295 189.141C420.718 189.613 420.248 190.201 419.914 190.868C419.581 191.535 419.392 192.264 419.36 193.009C419.1 196.159 421.36 199.309 423.61 201.299C425.86 203.289 431.77 205.299 433.34 205.779L432.98 208.589C432.45 213.069 431.93 217.589 431.29 221.939C431.07 223.479 430.79 224.989 430.52 226.499C430.52 225.499 430.52 224.649 430.46 224.499C429.95 220.499 426.63 213.189 422.23 212.379C421.494 212.263 420.742 212.304 420.023 212.499C419.304 212.694 418.635 213.039 418.059 213.511C417.482 213.983 417.013 214.572 416.68 215.239C416.348 215.905 416.16 216.635 416.13 217.379C415.87 220.519 418.13 223.669 420.38 225.659C422.63 227.649 427.96 229.449 429.82 230.049C429.49 231.589 429.17 233.139 428.82 234.619C428.54 235.619 428.33 236.619 427.99 237.619C427.65 238.619 427.35 239.619 427.04 240.559C426.37 242.409 425.69 244.319 424.98 246.099C424.51 247.349 424.03 248.519 423.55 249.709C423.79 248.179 424.2 245.169 424.21 244.909C424.161 241.395 423.211 237.951 421.45 234.909C421.462 234.518 421.438 234.126 421.38 233.739C421.288 233.002 421.041 232.293 420.657 231.657C420.272 231.021 419.757 230.474 419.147 230.05C418.537 229.627 417.844 229.337 417.114 229.198C416.384 229.06 415.633 229.078 414.91 229.249C410.59 230.399 407.84 237.989 407.64 241.979C407.64 242.209 407.78 244.779 407.91 246.399C407.69 245.459 407.49 244.539 407.25 243.579C406.8 241.669 406.25 239.769 405.75 237.729L404.86 234.729C404.58 233.729 404.16 232.729 403.81 231.729C402.96 229.399 401.98 227.069 400.94 224.729C402.61 224.329 408.53 222.819 410.94 220.989C413.35 219.159 415.81 216.209 415.79 213.049C415.811 212.307 415.675 211.569 415.391 210.882C415.108 210.196 414.683 209.577 414.144 209.066C413.605 208.554 412.965 208.162 412.265 207.915C411.565 207.667 410.82 207.57 410.08 207.629C405.63 208.109 401.77 215.199 400.96 219.109C400.96 219.349 400.65 222.219 400.54 223.799C399.9 222.409 399.27 221.019 398.54 219.629C396.54 215.629 394.41 211.629 392.3 207.629C391.65 206.409 391.02 205.189 390.38 203.959C390.98 203.829 398.06 202.189 400.72 200.139C403.08 198.329 405.59 195.359 405.57 192.199C405.591 191.457 405.455 190.719 405.171 190.032C404.888 189.346 404.463 188.727 403.924 188.216C403.385 187.704 402.745 187.312 402.045 187.065C401.345 186.817 400.6 186.72 399.86 186.779C395.41 187.259 391.55 194.349 390.74 198.259C390.68 198.549 390.31 202.689 390.27 203.739C388.87 201.049 387.5 198.349 386.27 195.629C384.573 191.971 383.117 188.207 381.91 184.359C382.19 184.289 389.58 182.609 392.31 180.519C394.67 178.709 397.18 175.739 397.16 172.579C397.181 171.836 397.045 171.097 396.761 170.41C396.476 169.722 396.05 169.103 395.511 168.592C394.971 168.08 394.33 167.688 393.628 167.441C392.927 167.195 392.181 167.098 391.44 167.159C387 167.639 383.14 174.729 382.33 178.639C382.28 178.889 381.99 182.039 381.89 183.539H381.64C380.525 179.635 379.761 175.639 379.36 171.599C379.11 169.379 379 167.239 378.93 165.159C380.34 164.989 386.77 164.159 389.43 162.519C392.09 160.879 394.81 158.299 395.13 155.159C395.23 154.424 395.174 153.676 394.966 152.964C394.758 152.251 394.402 151.591 393.922 151.025C393.442 150.459 392.848 150 392.18 149.679C391.511 149.358 390.782 149.181 390.04 149.159C385.57 149.159 380.96 155.769 379.73 159.569C379.66 159.779 379.21 161.949 378.91 163.569C378.91 162.629 378.86 161.659 378.86 160.759C378.86 157.379 379.08 154.279 379.3 151.539C379.43 149.979 379.58 148.539 379.74 147.259C381.03 146.369 386.2 142.719 387.79 140.109C389.38 137.499 390.62 133.889 389.46 130.949C389.211 130.249 388.817 129.609 388.304 129.07C387.792 128.532 387.171 128.108 386.484 127.825C385.796 127.542 385.057 127.407 384.314 127.428C383.571 127.449 382.84 127.627 382.17 127.949C378.17 129.949 377.17 137.949 377.81 141.949C377.87 142.289 379.37 147.509 379.44 147.469L379.51 147.409C379.34 148.679 379.17 150.029 379.01 151.509C378.74 154.249 378.45 157.349 378.37 160.749C378.25 164.418 378.34 168.091 378.64 171.749C378.941 175.835 379.61 179.884 380.64 183.849C380.64 183.849 380.64 183.939 380.64 183.989C379.94 182.879 377.87 179.859 377.64 179.639C375.03 176.639 368.21 172.319 364.09 174.069C363.414 174.378 362.81 174.825 362.318 175.383C361.826 175.94 361.458 176.595 361.236 177.304C361.014 178.014 360.944 178.762 361.031 179.501C361.118 180.239 361.36 180.951 361.74 181.589C363.26 184.359 366.91 185.719 369.86 186.159C373.19 186.639 380.19 184.609 380.75 184.439C381.899 188.451 383.319 192.38 385 196.199C386 198.429 387 200.649 388.07 202.859C387.43 201.919 386.85 201.089 386.76 200.979C384.15 197.979 377.32 193.659 373.21 195.409C372.534 195.718 371.93 196.165 371.438 196.723C370.946 197.28 370.578 197.935 370.356 198.644C370.134 199.354 370.064 200.102 370.151 200.841C370.238 201.579 370.48 202.291 370.86 202.929C372.38 205.699 376.02 207.069 378.97 207.499C381.92 207.929 387.97 206.319 389.56 205.869C389.98 206.719 390.39 207.559 390.81 208.399C392.81 212.399 394.88 216.469 396.81 220.469C397.47 221.879 398.07 223.299 398.68 224.709C398.11 223.879 397.62 223.179 397.54 223.089C394.93 220.089 388.1 215.769 383.99 217.519C383.314 217.827 382.71 218.273 382.219 218.83C381.727 219.386 381.358 220.04 381.136 220.749C380.915 221.458 380.845 222.205 380.932 222.943C381.018 223.68 381.26 224.391 381.64 225.029C383.16 227.799 386.8 229.169 389.75 229.599C392.7 230.029 398.17 228.599 400.06 228.049C400.63 229.519 401.22 230.989 401.71 232.429C402.03 233.429 402.4 234.369 402.66 235.379C402.92 236.389 403.21 237.379 403.49 238.379C403.95 240.289 404.43 242.259 404.83 244.129C405.12 245.439 405.37 246.679 405.63 247.939C404.98 246.519 403.63 243.779 403.53 243.569C401.4 240.189 395.31 234.899 390.97 236.009C390.256 236.212 389.592 236.563 389.023 237.039C388.454 237.515 387.991 238.106 387.665 238.773C387.34 239.441 387.159 240.169 387.134 240.911C387.109 241.653 387.24 242.392 387.52 243.079C388.6 246.079 391.99 247.949 394.84 248.829C397.99 249.829 404.94 248.909 405.84 248.829C406.25 250.909 406.64 252.939 406.97 254.829C407.55 258.089 407.97 261.089 408.39 263.759H411.28C410.82 260.959 410.28 257.759 409.58 254.339C409.16 252.229 408.68 249.989 408.16 247.679C410.249 246.838 412.289 245.88 414.27 244.809C416.56 247.289 422.43 250.189 423.19 250.559C422.39 252.559 421.59 254.419 420.81 256.199C419.61 258.959 418.46 261.489 417.39 263.759H420.48C421.37 261.759 422.3 259.579 423.25 257.229C424.07 255.229 424.91 253.099 425.75 250.889C426.59 251.069 433.47 252.469 436.68 251.739C439.59 251.079 443.11 249.439 444.41 246.559C444.741 245.894 444.927 245.166 444.957 244.424C444.987 243.682 444.861 242.941 444.585 242.251C444.309 241.561 443.891 240.937 443.358 240.42C442.825 239.903 442.188 239.504 441.49 239.249C437.25 237.819 430.78 242.639 428.41 245.849C428.27 246.039 426.98 248.269 426.19 249.689C426.53 248.779 426.87 247.909 427.19 246.969C427.87 245.129 428.49 243.269 429.19 241.269C429.48 240.269 429.78 239.269 430.07 238.269C430.36 237.269 430.6 236.209 430.87 235.169C431.45 232.749 431.87 230.269 432.33 227.759C433.94 228.349 439.71 230.359 442.7 230.149C445.69 229.939 449.41 228.839 451.13 226.149C451.558 225.541 451.853 224.849 451.995 224.118C452.138 223.388 452.125 222.636 451.957 221.911C451.789 221.187 451.47 220.505 451.021 219.912C450.571 219.319 450.002 218.827 449.35 218.469C445.35 216.469 438.25 220.199 435.42 223.019C435.25 223.199 433.42 225.449 432.48 226.699C432.71 225.189 432.96 223.699 433.15 222.149C433.7 217.709 434.15 213.209 434.56 208.719C434.69 207.339 434.84 205.969 434.98 204.599C435.56 204.809 442.36 207.349 445.71 207.109C448.71 206.899 452.42 205.809 454.14 203.109C454.568 202.501 454.863 201.81 455.005 201.081C455.147 200.351 455.134 199.6 454.966 198.876C454.798 198.152 454.479 197.472 454.03 196.879C453.581 196.287 453.012 195.796 452.36 195.439C448.36 193.389 441.26 197.169 438.43 199.989C438.22 200.199 435.63 203.439 435.01 204.299C435.33 201.299 435.67 198.299 436.14 195.299C436.74 191.311 437.599 187.366 438.71 183.489C438.98 183.589 446.07 186.269 449.5 186.019C452.5 185.819 456.21 184.719 457.93 182.079C458.358 181.471 458.653 180.779 458.795 180.048C458.938 179.318 458.925 178.566 458.757 177.841C458.589 177.117 458.27 176.435 457.821 175.842C457.371 175.249 456.802 174.757 456.15 174.399C452.15 172.399 445.05 176.129 442.22 178.949C442.04 179.129 440.06 181.599 439.15 182.799L438.92 182.679C440.15 178.808 441.719 175.054 443.61 171.459C444.61 169.459 445.71 167.629 446.81 165.859C448.08 166.489 453.91 169.319 457.02 169.449C460.13 169.579 463.83 168.889 465.83 166.449C466.321 165.892 466.689 165.237 466.911 164.528C467.132 163.819 467.202 163.072 467.115 162.334C467.028 161.596 466.787 160.885 466.407 160.247C466.027 159.609 465.517 159.057 464.91 158.629C461.18 156.159 453.69 159.129 450.56 161.629C450.39 161.759 448.82 163.329 447.69 164.489C448.2 163.699 448.69 162.869 449.2 162.119C451.07 159.299 452.96 156.839 454.65 154.669C455.65 153.439 456.52 152.349 457.38 151.339C458.95 151.339 465.27 151.119 468.04 149.829C470.81 148.539 473.83 146.189 474.48 143.099C474.652 142.381 474.671 141.636 474.537 140.91C474.404 140.184 474.119 139.495 473.703 138.885C473.287 138.276 472.748 137.76 472.12 137.372C471.493 136.983 470.791 136.73 470.06 136.629Z" fill="#C2C2C2"/>
<path d="M23.2601 235.89C26.4701 237.29 34.3201 237.11 34.3201 237.11C34.3201 237.11 32.6301 231.98 32.4901 231.66C30.7601 228.06 25.3201 222.11 20.8801 222.71C20.1477 222.831 19.4488 223.104 18.829 223.512C18.2091 223.92 17.682 224.455 17.2821 225.08C16.8822 225.705 16.6184 226.408 16.5078 227.142C16.3972 227.876 16.4423 228.625 16.6401 229.34C17.3701 232.41 20.5201 234.69 23.2601 235.89Z" fill="#C2C2C2"/>
<path d="M102.66 237.62C102.72 237.62 104.08 232.4 104.13 232.06C104.68 228.06 103.42 220.14 99.3902 218.19C98.7126 217.885 97.9784 217.727 97.2355 217.725C96.4926 217.723 95.7576 217.877 95.0784 218.178C94.3991 218.479 93.7909 218.92 93.2933 219.471C92.7957 220.023 92.4198 220.673 92.1902 221.38C91.1102 224.38 92.4802 227.99 94.1002 230.49C96.0002 233.43 102.65 237.61 102.66 237.62Z" fill="#C2C2C2"/>
<path d="M126.09 209.169C121.64 208.689 116.36 214.779 114.73 218.429C114.59 218.749 112.96 223.929 113.04 223.929H113.14C112.3 224.879 111.41 225.929 110.45 227.069C108.72 229.209 106.77 231.639 104.83 234.419C102.709 237.401 100.763 240.503 99 243.709C97.0023 247.293 95.329 251.048 94 254.929C93.9943 254.976 93.9943 255.023 94 255.069C94 253.759 94 250.069 93.93 249.809C93.41 245.809 90.09 238.499 85.69 237.689C84.9544 237.574 84.2029 237.616 83.4846 237.812C82.7663 238.008 82.0974 238.353 81.5217 238.825C80.9459 239.297 80.4762 239.885 80.1434 240.551C79.8105 241.217 79.6219 241.945 79.59 242.689C79.33 245.829 81.59 248.979 83.84 250.969C86.35 253.209 93.31 255.379 93.84 255.549C92.5919 259.53 91.6065 263.589 90.89 267.699C90.47 270.089 90.11 272.519 89.79 274.949C89.79 273.819 89.79 272.799 89.73 272.659C89.21 268.659 85.89 261.349 81.5 260.539C80.7639 260.424 80.0119 260.466 79.2931 260.662C78.5742 260.858 77.9047 261.203 77.3282 261.674C76.7517 262.146 76.2811 262.734 75.9471 263.4C75.6131 264.066 75.4233 264.795 75.39 265.539C75.13 268.679 77.39 271.829 79.64 273.819C81.89 275.809 87.8 277.819 89.37 278.309L89.01 281.109C88.48 285.599 88.01 290.109 87.32 294.459C87.1 295.999 86.82 297.509 86.55 299.029C86.55 298.029 86.55 297.169 86.49 297.029C85.98 293.029 82.66 285.719 78.26 284.909C77.5244 284.794 76.7729 284.836 76.0546 285.032C75.3363 285.228 74.6674 285.573 74.0917 286.045C73.5159 286.517 73.0462 287.105 72.7134 287.771C72.3805 288.437 72.1919 289.165 72.16 289.909C71.9 293.049 74.16 296.199 76.41 298.189C78.66 300.179 83.99 301.979 85.85 302.579C85.52 304.129 85.2 305.669 84.85 307.149C84.57 308.149 84.36 309.149 84.02 310.149C83.68 311.149 83.38 312.149 83.07 313.089C82.4 314.939 81.72 316.849 81.01 318.629C80.54 319.879 80.01 321.059 79.58 322.239C79.82 320.709 80.23 317.699 80.24 317.439C80.1926 313.924 79.2422 310.481 77.48 307.439C77.4919 307.044 77.4685 306.65 77.41 306.259C77.3162 305.523 77.0687 304.814 76.6836 304.179C76.2984 303.544 75.7842 302.998 75.1742 302.574C74.5642 302.151 73.8721 301.861 73.1426 301.722C72.4132 301.583 71.6628 301.599 70.94 301.769C66.62 302.929 63.87 310.509 63.67 314.499C63.67 314.729 63.81 317.299 63.94 318.919C63.72 317.979 63.52 317.059 63.28 316.099C62.83 314.189 62.28 312.289 61.78 310.249L60.89 307.299C60.61 306.299 60.19 305.299 59.89 304.299C59.04 301.969 58.06 299.639 57.02 297.299C58.69 296.899 64.61 295.389 67.02 293.559C69.43 291.729 71.89 288.779 71.87 285.619C71.8906 284.877 71.7547 284.138 71.4711 283.452C71.1875 282.766 70.7626 282.147 70.2239 281.635C69.6853 281.124 69.0451 280.732 68.3449 280.485C67.6447 280.237 66.9003 280.14 66.16 280.199C61.71 280.689 57.85 287.769 57.04 291.679C57.04 291.919 56.73 294.789 56.62 296.379C55.98 294.979 55.35 293.589 54.67 292.209C52.67 288.209 50.54 284.209 48.43 280.209C47.78 278.979 47.15 277.759 46.51 276.539C47.11 276.399 54.19 274.759 56.85 272.719C59.21 270.899 61.72 267.929 61.7 264.769C61.7206 264.027 61.5847 263.288 61.3011 262.602C61.0175 261.916 60.5926 261.297 60.0539 260.785C59.5153 260.274 58.8751 259.882 58.1749 259.635C57.4747 259.387 56.7303 259.29 55.99 259.349C51.54 259.839 47.68 266.919 46.87 270.829C46.81 271.129 46.44 275.259 46.4 276.309C45 273.619 43.63 270.919 42.4 268.199C40.7013 264.542 39.2448 260.777 38.04 256.929C38.32 256.869 45.71 255.189 48.44 253.089C50.8 251.279 53.31 248.309 53.29 245.149C53.3108 244.406 53.1746 243.667 52.8904 242.979C52.6062 242.292 52.1803 241.673 51.6406 241.161C51.1009 240.65 50.4594 240.258 49.758 240.011C49.0566 239.765 48.3111 239.668 47.57 239.729C43.13 240.209 39.27 247.299 38.46 251.209C38.46 251.469 38.12 254.619 38.02 256.119H37.77C36.6535 252.215 35.8904 248.219 35.49 244.179C35.24 241.959 35.13 239.819 35.06 237.739C36.47 237.569 42.9 236.739 45.56 235.099C48.22 233.459 50.94 230.879 51.26 227.739C51.3599 227.004 51.304 226.256 51.0959 225.543C50.8878 224.831 50.5322 224.171 50.0521 223.605C49.5721 223.039 48.9784 222.58 48.3096 222.259C47.6407 221.937 46.9118 221.76 46.17 221.739C41.7 221.739 37.09 228.349 35.86 232.149C35.79 232.359 35.34 234.529 35.04 236.149C35.04 235.209 35.04 234.239 35.04 233.339C35.04 229.959 35.26 226.859 35.48 224.119C35.61 222.559 35.76 221.119 35.92 219.849C37.21 218.959 42.38 215.299 43.92 212.689C45.46 210.079 46.75 206.469 45.59 203.539C45.3408 202.839 44.947 202.198 44.4342 201.66C43.9214 201.122 43.3011 200.697 42.6136 200.414C41.9261 200.131 41.1867 199.996 40.4435 200.018C39.7004 200.039 38.9701 200.217 38.3 200.539C34.3 202.599 33.3 210.539 33.94 214.539C34 214.879 35.5 220.109 35.57 220.059L35.64 220.009C35.47 221.269 35.3 222.619 35.14 224.099C34.87 226.849 34.58 229.949 34.5 233.339C34.3798 237.008 34.47 240.681 34.77 244.339C35.0709 248.424 35.7402 252.474 36.77 256.439C36.77 256.489 36.77 256.529 36.77 256.579C36.07 255.469 34 252.449 33.77 252.229C31.16 249.229 24.34 244.919 20.22 246.659C19.5437 246.968 18.9399 247.415 18.4481 247.973C17.9563 248.53 17.5875 249.185 17.3658 249.894C17.1441 250.604 17.0744 251.352 17.1613 252.09C17.2481 252.829 17.4896 253.54 17.87 254.179C19.39 256.949 23.04 258.319 25.99 258.749C29.32 259.229 36.32 257.199 36.88 257.039C38.031 261.047 39.4509 264.972 41.13 268.789C42.13 271.019 43.13 273.239 44.2 275.449C43.56 274.519 42.98 273.679 42.89 273.579C40.28 270.579 33.45 266.259 29.34 267.999C28.681 268.31 28.0934 268.754 27.614 269.303C27.1346 269.851 26.7737 270.493 26.554 271.188C26.3343 271.883 26.2606 272.616 26.3373 273.34C26.414 274.065 26.6397 274.766 27 275.399C28.52 278.169 32.16 279.539 35.11 279.969C38.06 280.399 44.11 278.789 45.7 278.339L46.95 280.879C48.95 284.879 51.02 288.939 52.95 292.939C53.61 294.359 54.21 295.769 54.82 297.179C54.25 296.349 53.76 295.659 53.68 295.559C51.07 292.559 44.24 288.239 40.13 289.989C39.4537 290.298 38.8499 290.745 38.3581 291.303C37.8663 291.86 37.4975 292.515 37.2758 293.224C37.0541 293.934 36.9844 294.682 37.0713 295.42C37.1581 296.159 37.3996 296.87 37.78 297.509C39.3 300.269 42.94 301.639 45.89 302.069C48.84 302.499 54.31 301.069 56.2 300.529C56.77 301.989 57.36 303.459 57.85 304.909C58.17 305.909 58.54 306.839 58.8 307.849C59.06 308.859 59.35 309.849 59.63 310.849C60.09 312.759 60.57 314.729 60.97 316.609C61.26 317.909 61.51 319.149 61.77 320.409C61.12 318.999 59.77 316.259 59.67 316.039C57.54 312.659 51.45 307.379 47.11 308.479C46.3955 308.683 45.7318 309.035 45.1624 309.512C44.5929 309.989 44.1304 310.581 43.8049 311.249C43.4794 311.917 43.2983 312.646 43.2733 313.389C43.2484 314.131 43.3801 314.871 43.66 315.559C44.74 318.559 48.13 320.429 50.98 321.299C54.13 322.299 61.08 321.379 61.98 321.299C62.39 323.379 62.78 325.409 63.11 327.299C63.69 330.559 64.11 333.559 64.53 336.229H67.42C66.96 333.429 66.42 330.229 65.72 326.819C65.3 324.709 64.82 322.459 64.3 320.149C66.3928 319.317 68.4332 318.358 70.41 317.279C72.7 319.759 78.57 322.659 79.33 323.029C78.53 325.029 77.73 326.889 76.95 328.669C75.75 331.439 74.6 333.959 73.53 336.229H76.62C77.51 334.229 78.44 332.049 79.39 329.699C80.21 327.699 81.05 325.569 81.89 323.359C82.73 323.539 89.61 324.939 92.82 324.209C95.73 323.559 99.25 321.909 100.55 319.029C100.881 318.364 101.067 317.636 101.097 316.894C101.127 316.151 101 315.411 100.725 314.721C100.449 314.031 100.031 313.407 99.4978 312.89C98.9645 312.372 98.328 311.974 97.63 311.719C93.39 310.299 86.92 315.109 84.55 318.319C84.41 318.509 83.12 320.739 82.33 322.159C82.67 321.249 83.01 320.379 83.33 319.439C84.01 317.599 84.63 315.739 85.33 313.739C85.62 312.739 85.92 311.739 86.21 310.739C86.5 309.739 86.74 308.679 87.01 307.639C87.59 305.219 88.01 302.739 88.47 300.229C90.08 300.819 95.85 302.829 98.84 302.619C101.83 302.409 105.55 301.319 107.27 298.669C107.698 298.061 107.993 297.37 108.135 296.641C108.277 295.911 108.264 295.16 108.096 294.436C107.928 293.712 107.609 293.031 107.16 292.439C106.711 291.847 106.142 291.356 105.49 290.999C101.49 288.949 94.39 292.729 91.56 295.539C91.39 295.719 89.56 297.969 88.62 299.219C88.85 297.709 89.1 296.219 89.29 294.669C89.84 290.239 90.29 285.729 90.7 281.239C90.83 279.859 90.98 278.489 91.12 277.119C91.7 277.339 98.5 279.869 101.85 279.629C104.85 279.429 108.56 278.329 110.28 275.689C110.708 275.081 111.003 274.389 111.145 273.658C111.288 272.928 111.275 272.176 111.107 271.451C110.939 270.726 110.62 270.045 110.17 269.452C109.721 268.859 109.152 268.367 108.5 268.009C104.5 265.959 97.4 269.739 94.57 272.559C94.36 272.769 91.77 276.009 91.15 276.869C91.47 273.869 91.81 270.869 92.28 267.869C92.8812 263.881 93.7397 259.936 94.85 256.059C95.12 256.159 102.21 258.839 105.64 258.599C108.64 258.389 112.35 257.289 114.07 254.599C114.498 253.991 114.793 253.3 114.935 252.571C115.077 251.841 115.064 251.09 114.896 250.366C114.728 249.642 114.409 248.961 113.96 248.369C113.511 247.777 112.942 247.286 112.29 246.929C108.29 244.879 101.19 248.649 98.36 251.469C98.18 251.659 96.2 254.119 95.29 255.319L95.06 255.199C96.2878 251.331 97.8573 247.579 99.75 243.989C100.75 241.989 101.85 240.149 102.95 238.379C104.22 239.009 110.05 241.849 113.16 241.969C116.27 242.089 119.97 241.409 121.97 238.969C122.461 238.412 122.829 237.757 123.051 237.048C123.272 236.339 123.341 235.592 123.255 234.854C123.168 234.116 122.927 233.405 122.547 232.767C122.167 232.128 121.657 231.577 121.05 231.149C117.32 228.679 109.83 231.649 106.7 234.149C106.53 234.289 104.96 235.849 103.83 237.009C104.34 236.219 104.83 235.389 105.34 234.639C107.21 231.819 109.1 229.359 110.79 227.189C111.79 225.969 112.66 224.879 113.52 223.869C115.09 223.869 121.41 223.649 124.18 222.349C126.95 221.049 129.97 218.709 130.62 215.629C130.79 214.904 130.805 214.151 130.664 213.42C130.522 212.688 130.228 211.995 129.801 211.385C129.373 210.776 128.821 210.263 128.182 209.881C127.543 209.499 126.83 209.256 126.09 209.169Z" fill="#C2C2C2"/>
<path d="M66.2601 192.471H441.26C444.034 192.471 446.695 193.573 448.656 195.534C450.618 197.496 451.72 200.157 451.72 202.931V449.431H55.8101V202.921C55.8127 200.15 56.9145 197.494 58.8737 195.534C60.8329 193.575 63.4894 192.473 66.2601 192.471Z" fill="white" stroke="#DCDCDC" stroke-linecap="round" stroke-linejoin="round"/>
<path d="M435.63 212.541H71.8701V418.111H435.63V212.541Z" stroke="#DCDCDC" stroke-linecap="round" stroke-linejoin="round"/>
<path d="M390.69 437.061H118.62V450.461H390.69V437.061Z" fill="#DCDCDC" stroke="#DCDCDC" stroke-linecap="round" stroke-linejoin="round"/>
<path d="M390.69 443.51H118.62V450.46H390.69V443.51Z" fill="white" stroke="#DCDCDC" stroke-linecap="round" stroke-linejoin="round"/>
<path d="M23.79 458.4C23.79 458.4 28.26 463.87 41.67 468.33H467.67C467.67 468.33 477.6 465.85 482.07 458.9L23.79 458.4Z" fill="#DCDCDC" stroke="#DCDCDC" stroke-linecap="round" stroke-linejoin="round"/>
<path d="M481.11 448.621H24.7801C23.7363 448.621 22.8901 449.467 22.8901 450.511V457.171C22.8901 458.215 23.7363 459.061 24.7801 459.061H481.11C482.154 459.061 483 458.215 483 457.171V450.511C483 449.467 482.154 448.621 481.11 448.621Z" fill="white" stroke="#DCDCDC" stroke-linecap="round" stroke-linejoin="round"/>
<path d="M257.14 200.24C257.142 199.551 256.94 198.877 256.559 198.304C256.177 197.73 255.635 197.283 254.999 197.018C254.363 196.753 253.663 196.683 252.987 196.816C252.312 196.949 251.691 197.279 251.203 197.766C250.715 198.252 250.383 198.872 250.248 199.547C250.113 200.223 250.181 200.923 250.444 201.559C250.707 202.196 251.153 202.74 251.726 203.123C252.298 203.506 252.971 203.71 253.66 203.71C254.581 203.71 255.465 203.345 256.117 202.694C256.77 202.044 257.138 201.161 257.14 200.24Z" fill="white" stroke="#DCDCDC" stroke-linecap="round" stroke-linejoin="round"/>
<path d="M10 468.33H497" stroke="#DCDCDC" stroke-linecap="round" stroke-linejoin="round"/>
<path d="M285.22 251.12C286.431 249.912 287.326 248.425 287.827 246.789C288.327 245.153 288.418 243.419 288.09 241.74L281.54 248.28C281.166 248.647 280.664 248.852 280.14 248.852C279.617 248.852 279.114 248.647 278.74 248.28L273.3 242.84C272.934 242.466 272.729 241.964 272.729 241.44C272.729 240.917 272.934 240.414 273.3 240.04L279.84 233.49C278.011 233.139 276.121 233.283 274.366 233.907C272.611 234.532 271.055 235.614 269.859 237.041C268.663 238.469 267.87 240.191 267.562 242.028C267.255 243.865 267.444 245.751 268.11 247.49L251.21 264L249.58 262.37L252.24 259.71C252.365 259.574 252.435 259.395 252.435 259.21C252.435 259.025 252.365 258.847 252.24 258.71L250.18 256.66C250.046 256.531 249.867 256.458 249.68 256.458C249.494 256.458 249.315 256.531 249.18 256.66L248.18 257.66L245.95 255.44L246.81 254.58C246.985 254.395 247.082 254.15 247.082 253.895C247.082 253.641 246.985 253.396 246.81 253.21L228.37 234.77C227.931 234.331 227.41 233.983 226.836 233.745C226.262 233.507 225.647 233.385 225.025 233.385C224.404 233.385 223.789 233.507 223.215 233.745C222.641 233.983 222.12 234.331 221.68 234.77L219.8 236.65C219.361 237.09 219.012 237.611 218.775 238.185C218.537 238.759 218.415 239.374 218.415 239.995C218.415 240.617 218.537 241.232 218.775 241.806C219.012 242.38 219.361 242.901 219.8 243.34L238.24 261.78C238.426 261.955 238.671 262.052 238.925 262.052C239.18 262.052 239.425 261.955 239.61 261.78L240.46 260.92L242.69 263.15L241.69 264.15C241.561 264.285 241.488 264.464 241.488 264.65C241.488 264.837 241.561 265.016 241.69 265.15L243.69 267.21C243.827 267.335 244.005 267.405 244.19 267.405C244.375 267.405 244.554 267.335 244.69 267.21L247.35 264.55L248.95 266.15L234.95 279.82C233.211 279.151 231.324 278.959 229.485 279.265C227.647 279.571 225.923 280.364 224.495 281.561C223.066 282.758 221.984 284.316 221.36 286.072C220.737 287.829 220.596 289.72 220.95 291.55L227.5 285.01C227.874 284.644 228.377 284.439 228.9 284.439C229.424 284.439 229.926 284.644 230.3 285.01L235.74 290.45C236.107 290.824 236.312 291.327 236.312 291.85C236.312 292.374 236.107 292.876 235.74 293.25L229.2 299.8C231.03 300.152 232.919 300.008 234.674 299.383C236.429 298.759 237.985 297.677 239.182 296.249C240.378 294.821 241.171 293.1 241.478 291.263C241.786 289.426 241.597 287.54 240.93 285.8L254.93 272.14L274.03 291.24C273.757 291.948 273.695 292.719 273.851 293.461C274.007 294.203 274.375 294.883 274.91 295.42L279.52 300.03L285.05 294.5L280.44 289.89C279.903 289.355 279.223 288.987 278.481 288.831C277.739 288.675 276.968 288.737 276.26 289.01L257.16 270L274.05 253.51C275.943 254.239 278.007 254.401 279.991 253.977C281.974 253.552 283.791 252.56 285.22 251.12Z" fill="#DCDCDC" stroke="#DCDCDC" stroke-linecap="round" stroke-linejoin="round"/>
<path d="M331.24 337.621H171.72V347.131H331.24V337.621Z" fill="#A3BED3"/>
<path d="M234.11 337.621H223.49L218.04 347.121H228.66L234.11 337.621Z" fill="#DCDCDC"/>
<path d="M331.24 347.121V338.541L326.32 347.121H331.24Z" fill="#DCDCDC"/>
<path d="M255.76 337.621H245.14L239.7 347.121H250.32L255.76 337.621Z" fill="#DCDCDC"/>
<path d="M212.45 337.621H201.83L196.38 347.121H207.01L212.45 337.621Z" fill="#DCDCDC"/>
<path d="M174.73 347.121H185.35L190.8 337.621H180.17L174.73 347.121Z" fill="#DCDCDC"/>
<path d="M320.73 337.621H310.11L304.67 347.121H315.29L320.73 337.621Z" fill="#DCDCDC"/>
<path d="M277.42 337.621H266.8L261.35 347.121H271.98L277.42 337.621Z" fill="#DCDCDC"/>
<path d="M299.08 337.621H288.45L283.01 347.121H293.63L299.08 337.621Z" fill="#DCDCDC"/>
<path d="M99.2399 357.75L71.9199 462.12H132.85L105.53 357.75C105.364 357.04 104.963 356.408 104.392 355.955C103.821 355.502 103.114 355.256 102.385 355.256C101.656 355.256 100.949 355.502 100.378 355.955C99.8071 356.408 99.406 357.04 99.2399 357.75Z" fill="#A3BED3" stroke="#DCDCDC" stroke-linecap="round" stroke-linejoin="round"/>
<path d="M71.9199 462.119H121.56L96.7399 367.289L71.9199 462.119Z" fill="#DCDCDC" stroke="#DCDCDC" stroke-linecap="round" stroke-linejoin="round"/>
<path d="M139 459.83H63C60.7909 459.83 59 461.621 59 463.83V464.34C59 466.549 60.7909 468.34 63 468.34H139C141.209 468.34 143 466.549 143 464.34V463.83C143 461.621 141.209 459.83 139 459.83Z" fill="#A3BED3" stroke="#DCDCDC" stroke-linecap="round" stroke-linejoin="round"/>
<path d="M112.99 459.83H63C60.7909 459.83 59 461.621 59 463.83V464.34C59 466.549 60.7909 468.34 63 468.34H112.99C115.199 468.34 116.99 466.549 116.99 464.34V463.83C116.99 461.621 115.199 459.83 112.99 459.83Z" fill="#DCDCDC" stroke="#DCDCDC" stroke-linecap="round" stroke-linejoin="round"/>
<path d="M82.8198 420.49H121.95L117.22 402.41H87.5498L82.8198 420.49Z" fill="white" stroke="#DCDCDC" stroke-linecap="round" stroke-linejoin="round"/>
<path d="M82.8198 420.49H110.67L105.94 402.41H87.5498L82.8198 420.49Z" fill="#BABABA" stroke="#DCDCDC" stroke-linecap="round" stroke-linejoin="round"/>
<path d="M260.083 138.871C263.508 135.446 263.508 129.893 260.083 126.469C256.659 123.044 251.106 123.044 247.681 126.469C244.256 129.893 244.256 135.446 247.681 138.871C251.106 142.296 256.659 142.296 260.083 138.871Z" fill="white" stroke="#DCDCDC" stroke-linecap="round" stroke-linejoin="round"/>
<path d="M254.13 61.8391V20.8691" stroke="#DCDCDC" stroke-width="2" stroke-linecap="round" stroke-linejoin="round"/>
<path d="M254.13 88.8998V61.8398" stroke="#808080" stroke-width="2" stroke-miterlimit="10"/>
<path d="M240.54 88.8984L213.47 135.798H294.23L267.15 88.8984H240.54Z" fill="#A3BED3" stroke="#DCDCDC" stroke-width="0.972732" stroke-miterlimit="10"/>
<path d="M243.26 88.8984L221.71 135.798H285.99L264.44 88.8984H243.26Z" fill="#DCDCDC" stroke="#DCDCDC" stroke-linecap="round" stroke-linejoin="round"/>
<path d="M179.69 192.471H66.2601C63.4885 192.471 60.8305 193.572 58.8708 195.531C56.911 197.491 55.8101 200.149 55.8101 202.921V401.001L179.69 192.471Z" fill="#808080" stroke="#DCDCDC" stroke-miterlimit="10"/>
<path d="M327.8 192.471H441.23C444.001 192.471 446.659 193.572 448.619 195.531C450.579 197.491 451.68 200.149 451.68 202.921V401.611L327.8 192.471Z" fill="#808080" stroke="#DCDCDC" stroke-miterlimit="10"/>
<path d="M179.69 192.471L55.8101 401.031" stroke="#DCDCDC" stroke-linecap="round" stroke-linejoin="round"/>
<path d="M327.8 192.471L451.68 401.611" stroke="#DCDCDC" stroke-linecap="round" stroke-linejoin="round"/>
<path d="M71.8701 374.311V212.541H167.31" stroke="#DCDCDC" stroke-linecap="round" stroke-linejoin="round"/>
<path d="M339.91 212.541H435.62V375.131" stroke="#DCDCDC" stroke-linecap="round" stroke-linejoin="round"/>
<path d="M327.8 192.471L294.23 135.801H213.47L179.69 192.471" fill="white" fill-opacity="0.3"/>
<path d="M327.8 192.471L294.23 135.801H213.47L179.69 192.471" stroke="#DCDCDC" stroke-miterlimit="10"/>
<path d="M221.432 326.168C219.864 326.168 218.424 325.8 217.112 325.064C215.8 324.328 214.76 323.312 213.992 322.016C213.224 320.704 212.84 319.224 212.84 317.576C212.84 315.944 213.224 314.48 213.992 313.184C214.76 311.872 215.8 310.848 217.112 310.112C218.424 309.376 219.864 309.008 221.432 309.008C223.016 309.008 224.456 309.376 225.752 310.112C227.064 310.848 228.096 311.872 228.848 313.184C229.616 314.48 230 315.944 230 317.576C230 319.224 229.616 320.704 228.848 322.016C228.096 323.312 227.064 324.328 225.752 325.064C224.44 325.8 223 326.168 221.432 326.168ZM221.432 323.168C222.44 323.168 223.328 322.944 224.096 322.496C224.864 322.032 225.464 321.376 225.896 320.528C226.328 319.68 226.544 318.696 226.544 317.576C226.544 316.456 226.328 315.48 225.896 314.648C225.464 313.8 224.864 313.152 224.096 312.704C223.328 312.256 222.44 312.032 221.432 312.032C220.424 312.032 219.528 312.256 218.744 312.704C217.976 313.152 217.376 313.8 216.944 314.648C216.512 315.48 216.296 316.456 216.296 317.576C216.296 318.696 216.512 319.68 216.944 320.528C217.376 321.376 217.976 322.032 218.744 322.496C219.528 322.944 220.424 323.168 221.432 323.168ZM240.276 326.168C238.708 326.168 237.268 325.8 235.956 325.064C234.644 324.328 233.604 323.312 232.836 322.016C232.068 320.704 231.684 319.224 231.684 317.576C231.684 315.944 232.068 314.48 232.836 313.184C233.604 311.872 234.644 310.848 235.956 310.112C237.268 309.376 238.708 309.008 240.276 309.008C241.86 309.008 243.3 309.376 244.596 310.112C245.908 310.848 246.94 311.872 247.692 313.184C248.46 314.48 248.844 315.944 248.844 317.576C248.844 319.224 248.46 320.704 247.692 322.016C246.94 323.312 245.908 324.328 244.596 325.064C243.284 325.8 241.844 326.168 240.276 326.168ZM240.276 323.168C241.284 323.168 242.172 322.944 242.94 322.496C243.708 322.032 244.308 321.376 244.74 320.528C245.172 319.68 245.388 318.696 245.388 317.576C245.388 316.456 245.172 315.48 244.74 314.648C244.308 313.8 243.708 313.152 242.94 312.704C242.172 312.256 241.284 312.032 240.276 312.032C239.268 312.032 238.372 312.256 237.588 312.704C236.82 313.152 236.22 313.8 235.788 314.648C235.356 315.48 235.14 316.456 235.14 317.576C235.14 318.696 235.356 319.68 235.788 320.528C236.22 321.376 236.82 322.032 237.588 322.496C238.372 322.944 239.268 323.168 240.276 323.168ZM263.56 314.432C263.56 315.328 263.344 316.168 262.911 316.952C262.496 317.736 261.832 318.368 260.92 318.848C260.024 319.328 258.888 319.568 257.512 319.568H254.704V326H251.344V309.248H257.512C258.808 309.248 259.912 309.472 260.824 309.92C261.736 310.368 262.416 310.984 262.864 311.768C263.328 312.552 263.56 313.44 263.56 314.432ZM257.368 316.856C258.296 316.856 258.984 316.648 259.432 316.232C259.88 315.8 260.104 315.2 260.104 314.432C260.104 312.8 259.192 311.984 257.368 311.984H254.704V316.856H257.368ZM271.729 326.168C270.561 326.168 269.505 325.968 268.561 325.568C267.633 325.168 266.897 324.592 266.353 323.84C265.809 323.088 265.529 322.2 265.513 321.176H269.113C269.161 321.864 269.401 322.408 269.833 322.808C270.281 323.208 270.889 323.408 271.657 323.408C272.441 323.408 273.057 323.224 273.505 322.856C273.953 322.472 274.177 321.976 274.177 321.368C274.177 320.872 274.025 320.464 273.721 320.144C273.417 319.824 273.033 319.576 272.569 319.4C272.121 319.208 271.497 319 270.697 318.776C269.609 318.456 268.721 318.144 268.033 317.84C267.361 317.52 266.777 317.048 266.281 316.424C265.801 315.784 265.561 314.936 265.561 313.88C265.561 312.888 265.809 312.024 266.305 311.288C266.801 310.552 267.497 309.992 268.393 309.608C269.289 309.208 270.313 309.008 271.465 309.008C273.193 309.008 274.593 309.432 275.665 310.28C276.753 311.112 277.353 312.28 277.465 313.784H273.769C273.737 313.208 273.489 312.736 273.025 312.368C272.577 311.984 271.977 311.792 271.225 311.792C270.569 311.792 270.041 311.96 269.641 312.296C269.257 312.632 269.065 313.12 269.065 313.76C269.065 314.208 269.209 314.584 269.497 314.888C269.801 315.176 270.169 315.416 270.601 315.608C271.049 315.784 271.673 315.992 272.473 316.232C273.561 316.552 274.449 316.872 275.137 317.192C275.825 317.512 276.417 317.992 276.913 318.632C277.409 319.272 277.657 320.112 277.657 321.152C277.657 322.048 277.425 322.88 276.961 323.648C276.497 324.416 275.817 325.032 274.921 325.496C274.025 325.944 272.961 326.168 271.729 326.168ZM284.914 308.96L284.53 320.552H281.698L281.29 308.96H284.914ZM283.186 326.168C282.578 326.168 282.074 325.984 281.674 325.616C281.29 325.232 281.098 324.76 281.098 324.2C281.098 323.64 281.29 323.176 281.674 322.808C282.074 322.424 282.578 322.232 283.186 322.232C283.778 322.232 284.266 322.424 284.65 322.808C285.034 323.176 285.226 323.64 285.226 324.2C285.226 324.76 285.034 325.232 284.65 325.616C284.266 325.984 283.778 326.168 283.186 326.168Z" fill="#0069BD"/>
<path d="M148.96 372.112C148.181 372.112 147.477 371.979 146.848 371.712C146.229 371.445 145.739 371.061 145.376 370.56C145.013 370.059 144.827 369.467 144.816 368.784H147.216C147.248 369.243 147.408 369.605 147.696 369.872C147.995 370.139 148.4 370.272 148.912 370.272C149.435 370.272 149.845 370.149 150.144 369.904C150.443 369.648 150.592 369.317 150.592 368.912C150.592 368.581 150.491 368.309 150.288 368.096C150.085 367.883 149.829 367.717 149.52 367.6C149.221 367.472 148.805 367.333 148.272 367.184C147.547 366.971 146.955 366.763 146.496 366.56C146.048 366.347 145.659 366.032 145.328 365.616C145.008 365.189 144.848 364.624 144.848 363.92C144.848 363.259 145.013 362.683 145.344 362.192C145.675 361.701 146.139 361.328 146.736 361.072C147.333 360.805 148.016 360.672 148.784 360.672C149.936 360.672 150.869 360.955 151.584 361.52C152.309 362.075 152.709 362.853 152.784 363.856H150.32C150.299 363.472 150.133 363.157 149.824 362.912C149.525 362.656 149.125 362.528 148.624 362.528C148.187 362.528 147.835 362.64 147.568 362.864C147.312 363.088 147.184 363.413 147.184 363.84C147.184 364.139 147.28 364.389 147.472 364.592C147.675 364.784 147.92 364.944 148.208 365.072C148.507 365.189 148.923 365.328 149.456 365.488C150.181 365.701 150.773 365.915 151.232 366.128C151.691 366.341 152.085 366.661 152.416 367.088C152.747 367.515 152.912 368.075 152.912 368.768C152.912 369.365 152.757 369.92 152.448 370.432C152.139 370.944 151.685 371.355 151.088 371.664C150.491 371.963 149.781 372.112 148.96 372.112ZM160.038 372.112C158.993 372.112 158.033 371.867 157.158 371.376C156.283 370.885 155.59 370.208 155.078 369.344C154.566 368.469 154.31 367.483 154.31 366.384C154.31 365.296 154.566 364.32 155.078 363.456C155.59 362.581 156.283 361.899 157.158 361.408C158.033 360.917 158.993 360.672 160.038 360.672C161.094 360.672 162.054 360.917 162.918 361.408C163.793 361.899 164.481 362.581 164.982 363.456C165.494 364.32 165.75 365.296 165.75 366.384C165.75 367.483 165.494 368.469 164.982 369.344C164.481 370.208 163.793 370.885 162.918 371.376C162.043 371.867 161.083 372.112 160.038 372.112ZM160.038 370.112C160.71 370.112 161.302 369.963 161.814 369.664C162.326 369.355 162.726 368.917 163.014 368.352C163.302 367.787 163.446 367.131 163.446 366.384C163.446 365.637 163.302 364.987 163.014 364.432C162.726 363.867 162.326 363.435 161.814 363.136C161.302 362.837 160.71 362.688 160.038 362.688C159.366 362.688 158.769 362.837 158.246 363.136C157.734 363.435 157.334 363.867 157.046 364.432C156.758 364.987 156.614 365.637 156.614 366.384C156.614 367.131 156.758 367.787 157.046 368.352C157.334 368.917 157.734 369.355 158.246 369.664C158.769 369.963 159.366 370.112 160.038 370.112ZM179.593 360.832V372H177.353V364.736L174.361 372H172.665L169.657 364.736V372H167.417V360.832H169.961L173.513 369.136L177.065 360.832H179.593ZM184.047 362.64V365.44H187.807V367.216H184.047V370.176H188.287V372H181.807V360.816H188.287V362.64H184.047ZM197.923 360.832V362.64H194.947V372H192.707V362.64H189.731V360.832H197.923ZM208.821 360.832V372H206.581V367.248H201.797V372H199.557V360.832H201.797V365.424H206.581V360.832H208.821ZM213.266 360.832V372H211.026V360.832H213.266ZM225.031 372H222.791L217.719 364.336V372H215.479V360.816H217.719L222.791 368.496V360.816H225.031V372ZM235.021 364.192C234.765 363.723 234.413 363.365 233.965 363.12C233.517 362.875 232.994 362.752 232.397 362.752C231.735 362.752 231.149 362.901 230.637 363.2C230.125 363.499 229.725 363.925 229.437 364.48C229.149 365.035 229.005 365.675 229.005 366.4C229.005 367.147 229.149 367.797 229.437 368.352C229.735 368.907 230.146 369.333 230.669 369.632C231.191 369.931 231.799 370.08 232.493 370.08C233.346 370.08 234.045 369.856 234.589 369.408C235.133 368.949 235.49 368.315 235.661 367.504H231.821V365.792H237.869V367.744C237.719 368.523 237.399 369.243 236.909 369.904C236.418 370.565 235.783 371.099 235.005 371.504C234.237 371.899 233.373 372.096 232.413 372.096C231.335 372.096 230.359 371.856 229.485 371.376C228.621 370.885 227.938 370.208 227.437 369.344C226.946 368.48 226.701 367.499 226.701 366.4C226.701 365.301 226.946 364.32 227.437 363.456C227.938 362.581 228.621 361.904 229.485 361.424C230.359 360.933 231.33 360.688 232.397 360.688C233.655 360.688 234.749 360.997 235.677 361.616C236.605 362.224 237.245 363.083 237.597 364.192H235.021ZM258.266 360.832L255.146 372H252.506L250.41 364.048L248.218 372L245.594 372.016L242.586 360.832H244.986L246.954 369.504L249.226 360.832H251.722L253.866 369.456L255.85 360.832H258.266ZM261.969 362.64V365.44H265.729V367.216H261.969V370.176H266.209V372H259.729V360.816H266.209V362.64H261.969ZM277.797 372H275.557L270.485 364.336V372H268.245V360.816H270.485L275.557 368.496V360.816H277.797V372ZM287.61 360.832V362.64H284.634V372H282.394V362.64H279.418V360.832H287.61ZM307.985 360.832L304.865 372H302.225L300.129 364.048L297.937 372L295.313 372.016L292.305 360.832H294.705L296.673 369.504L298.945 360.832H301.441L303.585 369.456L305.569 360.832H307.985ZM315.208 372L312.744 367.648H311.688V372H309.448V360.832H313.64C314.504 360.832 315.24 360.987 315.848 361.296C316.456 361.595 316.909 362.005 317.208 362.528C317.517 363.04 317.672 363.616 317.672 364.256C317.672 364.992 317.458 365.659 317.032 366.256C316.605 366.843 315.97 367.248 315.128 367.472L317.8 372H315.208ZM311.688 365.968H313.56C314.168 365.968 314.621 365.824 314.92 365.536C315.218 365.237 315.368 364.827 315.368 364.304C315.368 363.792 315.218 363.397 314.92 363.12C314.621 362.832 314.168 362.688 313.56 362.688H311.688V365.968ZM324.882 372.112C323.836 372.112 322.876 371.867 322.002 371.376C321.127 370.885 320.434 370.208 319.922 369.344C319.41 368.469 319.154 367.483 319.154 366.384C319.154 365.296 319.41 364.32 319.922 363.456C320.434 362.581 321.127 361.899 322.002 361.408C322.876 360.917 323.836 360.672 324.882 360.672C325.938 360.672 326.898 360.917 327.762 361.408C328.636 361.899 329.324 362.581 329.826 363.456C330.338 364.32 330.594 365.296 330.594 366.384C330.594 367.483 330.338 368.469 329.826 369.344C329.324 370.208 328.636 370.885 327.762 371.376C326.887 371.867 325.927 372.112 324.882 372.112ZM324.882 370.112C325.554 370.112 326.146 369.963 326.658 369.664C327.17 369.355 327.57 368.917 327.858 368.352C328.146 367.787 328.29 367.131 328.29 366.384C328.29 365.637 328.146 364.987 327.858 364.432C327.57 363.867 327.17 363.435 326.658 363.136C326.146 362.837 325.554 362.688 324.882 362.688C324.21 362.688 323.612 362.837 323.09 363.136C322.578 363.435 322.178 363.867 321.89 364.432C321.602 364.987 321.458 365.637 321.458 366.384C321.458 367.131 321.602 367.787 321.89 368.352C322.178 368.917 322.578 369.355 323.09 369.664C323.612 369.963 324.21 370.112 324.882 370.112ZM341.812 372H339.572L334.5 364.336V372H332.26V360.816H334.5L339.572 368.496V360.816H341.812V372ZM351.802 364.192C351.546 363.723 351.194 363.365 350.746 363.12C350.298 362.875 349.775 362.752 349.178 362.752C348.517 362.752 347.93 362.901 347.418 363.2C346.906 363.499 346.506 363.925 346.218 364.48C345.93 365.035 345.786 365.675 345.786 366.4C345.786 367.147 345.93 367.797 346.218 368.352C346.517 368.907 346.927 369.333 347.45 369.632C347.973 369.931 348.581 370.08 349.274 370.08C350.127 370.08 350.826 369.856 351.37 369.408C351.914 368.949 352.271 368.315 352.442 367.504H348.602V365.792H354.65V367.744C354.501 368.523 354.181 369.243 353.69 369.904C353.199 370.565 352.565 371.099 351.786 371.504C351.018 371.899 350.154 372.096 349.194 372.096C348.117 372.096 347.141 371.856 346.266 371.376C345.402 370.885 344.719 370.208 344.218 369.344C343.727 368.48 343.482 367.499 343.482 366.4C343.482 365.301 343.727 364.32 344.218 363.456C344.719 362.581 345.402 361.904 346.266 361.424C347.141 360.933 348.111 360.688 349.178 360.688C350.437 360.688 351.53 360.997 352.458 361.616C353.386 362.224 354.026 363.083 354.378 364.192H351.802Z" fill="#0069BD"/>
</svg>
