0
SECTION
2
ENTITIES
0
CIRCLE
8
0
10
0
20
0
40
27.0
0
ARC
8
0
10
0
20
0
40
17.5
50
114.911067
51
145.088933
0
LINE
8
0
10
7.371193
20
15.871847
11
9.630192
21
15.522902
0
LINE
8
0
10
14.350724
20
10.015325
11
13.614808
21
12.179411
0
LINE
8
0
10
9.630192
20
15.522902
11
13.431632
21
19.889476
0
LINE
8
0
10
13.614808
20
12.179411
11
17.254932
21
16.681347
0
ARC
8
0
10
0
20
0
40
17.5
50
154.911067
51
185.088933
0
LINE
8
0
10
15.848888
20
7.420429
11
17.355084
21
5.701064
0
LINE
8
0
10
17.431019
20
-1.552283
11
18.258323
21
0.57854
0
LINE
8
0
10
17.355084
20
5.701064
11
23.073936
21
6.602536
0
LINE
8
0
10
18.258323
20
0.57854
11
23.940608
21
1.687397
0
ARC
8
0
10
0
20
0
40
17.5
50
194.911067
51
225.088933
0
LINE
8
0
10
16.910712
20
-4.50309
11
16.959339
21
-6.788364
0
LINE
8
0
10
12.355147
20
-12.393561
11
14.358565
21
-11.293036
0
LINE
8
0
10
16.959339
20
-6.788364
11
21.919689
21
-9.773804
0
LINE
8
0
10
14.358565
20
-11.293036
11
19.424207
21
-14.096105
0
ARC
8
0
10
0
20
0
40
17.5
50
234.911067
51
265.088933
0
LINE
8
0
10
10.059826
20
-14.319563
11
8.628131
21
-16.101442
0
LINE
8
0
10
1.498164
20
-17.435754
11
3.740275
21
-17.880476
0
LINE
8
0
10
8.628131
20
-16.101442
11
10.508975
21
-21.576873
0
LINE
8
0
10
3.740275
20
-17.880476
11
5.819004
21
-23.283883
0
ARC
8
0
10
0
20
0
40
17.5
50
274.911067
51
305.088933
0
LINE
8
0
10
-1.498164
20
-17.435754
11
-3.740275
21
-17.880476
0
LINE
8
0
10
-10.059826
20
-14.319563
11
-8.628131
21
-16.101442
0
LINE
8
0
10
-3.740275
20
-17.880476
11
-5.819004
21
-23.283883
0
LINE
8
0
10
-8.628131
20
-16.101442
11
-10.508975
21
-21.576873
0
ARC
8
0
10
0
20
0
40
17.5
50
314.911067
51
345.088933
0
LINE
8
0
10
-12.355147
20
-12.393561
11
-14.358565
21
-11.293036
0
LINE
8
0
10
-16.910712
20
-4.50309
11
-16.959339
21
-6.788364
0
LINE
8
0
10
-14.358565
20
-11.293036
11
-19.424207
21
-14.096105
0
LINE
8
0
10
-16.959339
20
-6.788364
11
-21.919689
21
-9.773804
0
ARC
8
0
10
0
20
0
40
17.5
50
354.911067
51
385.088933
0
LINE
8
0
10
-17.431019
20
-1.552283
11
-18.258323
21
0.57854
0
LINE
8
0
10
-15.848888
20
7.420429
11
-17.355084
21
5.701064
0
LINE
8
0
10
-18.258323
20
0.57854
11
-23.940608
21
1.687397
0
LINE
8
0
10
-17.355084
20
5.701064
11
-23.073936
21
6.602536
0
ARC
8
0
10
0
20
0
40
17.5
50
394.911067
51
425.088933
0
LINE
8
0
10
-14.350724
20
10.015325
11
-13.614808
21
12.179411
0
LINE
8
0
10
-7.371193
20
15.871847
11
-9.630192
21
15.522902
0
LINE
8
0
10
-13.614808
20
12.179411
11
-17.254932
21
16.681347
0
LINE
8
0
10
-9.630192
20
15.522902
11
-13.431632
21
19.889476
0
ARC
8
0
10
0
20
0
40
17.5
50
434.911067
51
465.088933
0
LINE
8
0
10
-4.555565
20
16.896651
11
-2.600774
21
18.081401
0
LINE
8
0
10
4.555565
20
16.896651
11
2.600774
21
18.081401
0
LINE
8
0
10
-2.600774
20
18.081401
11
-2.495481
21
23.869909
0
LINE
8
0
10
2.600774
20
18.081401
11
2.495481
21
23.869909
0
ARC
8
0
10
0
20
0
40
24.0
50
135.96831
51
164.03169
0
ARC
8
0
10
0
20
0
40
24.0
50
175.96831
51
204.03169
0
ARC
8
0
10
0
20
0
40
24.0
50
215.96831
51
244.03169
0
ARC
8
0
10
0
20
0
40
24.0
50
255.96831
51
284.03169
0
ARC
8
0
10
0
20
0
40
24.0
50
295.96831
51
324.03169
0
ARC
8
0
10
0
20
0
40
24.0
50
335.96831
51
364.03169
0
ARC
8
0
10
0
20
0
40
24.0
50
375.96831
51
404.03169
0
ARC
8
0
10
0
20
0
40
24.0
50
415.96831
51
444.03169
0
ARC
8
0
10
0
20
0
40
24.0
50
455.96831
51
124.03169
0
LINE
8
0
62
5
10
-4.701919
20
20.210256
11
4.701919
21
20.210256
0
LINE
8
0
62
5
10
-4.626386
20
19.885593
11
4.626386
21
19.885593
0
LINE
8
0
62
5
10
-4.550853
20
19.560931
11
4.550853
21
19.560931
0
LINE
8
0
62
5
10
-4.475321
20
19.236268
11
4.475321
21
19.236268
0
POINT
8
0
10
-4.475321
20
19.236268
0
TEXT
8
0
10
-4.475321
20
17.236268
1
V-
40
2
41
2
72
0
73
0
11
-4.475321
21
17.236268
0
POINT
8
0
10
4.475321
20
19.236268
0
TEXT
8
0
10
4.475321
20
17.236268
1
V+
40
2
41
2
72
0
73
0
11
4.475321
21
17.236268
0
LINE
8
0
62
3
10
9.389023
20
18.50429
11
16.592781
21
12.459619
0
LINE
8
0
62
3
10
9.238196
20
18.207032
11
16.326231
21
12.259465
0
LINE
8
0
62
3
10
9.087368
20
17.909774
11
16.05968
21
12.05931
0
LINE
8
0
62
3
10
8.93654
20
17.612517
11
15.793129
21
11.859156
0
POINT
8
0
10
8.93654
20
17.612517
0
TEXT
8
0
10
8.93654
20
15.612517
1
W-
40
2
41
2
72
0
73
0
11
8.93654
21
15.612517
0
POINT
8
0
10
15.793129
20
11.859156
0
TEXT
8
0
10
15.793129
20
9.859156
1
W+
40
2
41
2
72
0
73
0
11
15.793129
21
9.859156
0
LINE
8
0
62
1
10
19.086737
20
8.139961
11
20.719697
21
-1.121012
0
LINE
8
0
62
1
10
18.780123
20
8.009198
11
20.38685
21
-1.103004
0
LINE
8
0
62
1
10
18.473509
20
7.878436
11
20.054004
21
-1.084996
0
LINE
8
0
62
1
10
18.166895
20
7.747673
11
19.721157
21
-1.066987
0
POINT
8
0
10
18.166895
20
7.747673
0
TEXT
8
0
10
18.166895
20
5.747673
1
U-
40
2
41
2
72
0
73
0
11
18.166895
21
5.747673
0
POINT
8
0
10
19.721157
20
-1.066987
0
TEXT
8
0
10
19.721157
20
-3.066987
1
U+
40
2
41
2
72
0
73
0
11
19.721157
21
-3.066987
0
LINE
8
0
62
5
10
19.853555
20
-6.033147
11
15.151636
21
-14.177109
0
LINE
8
0
62
5
10
19.534622
20
-5.936229
11
14.908236
21
-13.949365
0
LINE
8
0
62
5
10
19.21569
20
-5.839311
11
14.664836
21
-13.72162
0
LINE
8
0
62
5
10
18.896757
20
-5.742393
11
14.421436
21
-13.493875
0
POINT
8
0
10
18.896757
20
-5.742393
0
TEXT
8
0
10
18.896757
20
-7.742393
1
V-
40
2
41
2
72
0
73
0
11
18.896757
21
-7.742393
0
POINT
8
0
10
14.421436
20
-13.493875
0
TEXT
8
0
10
14.421436
20
-15.493875
1
V+
40
2
41
2
72
0
73
0
11
14.421436
21
-15.493875
0
LINE
8
0
62
3
10
11.330673
20
-17.383278
11
2.493956
21
-20.59958
0
LINE
8
0
62
3
10
11.148655
20
-17.104028
11
2.453893
21
-20.268663
0
LINE
8
0
62
3
10
10.966636
20
-16.824779
11
2.413829
21
-19.937746
0
LINE
8
0
62
3
10
10.784617
20
-16.545529
11
2.373765
21
-19.606829
0
POINT
8
0
10
10.784617
20
-16.545529
0
TEXT
8
0
10
10.784617
20
-18.545529
1
W-
40
2
41
2
72
0
73
0
11
10.784617
21
-18.545529
0
POINT
8
0
10
2.373765
20
-19.606829
0
TEXT
8
0
10
2.373765
20
-21.606829
1
W+
40
2
41
2
72
0
73
0
11
2.373765
21
-21.606829
0
LINE
8
0
62
1
10
-2.493956
20
-20.59958
11
-11.330673
21
-17.383278
0
LINE
8
0
62
1
10
-2.453893
20
-20.268663
11
-11.148655
21
-17.104028
0
LINE
8
0
62
1
10
-2.413829
20
-19.937746
11
-10.966636
21
-16.824779
0
LINE
8
0
62
1
10
-2.373765
20
-19.606829
11
-10.784617
21
-16.545529
0
POINT
8
0
10
-2.373765
20
-19.606829
0
TEXT
8
0
10
-2.373765
20
-21.606829
1
U-
40
2
41
2
72
0
73
0
11
-2.373765
21
-21.606829
0
POINT
8
0
10
-10.784617
20
-16.545529
0
TEXT
8
0
10
-10.784617
20
-18.545529
1
U+
40
2
41
2
72
0
73
0
11
-10.784617
21
-18.545529
0
LINE
8
0
62
5
10
-15.151636
20
-14.177109
11
-19.853555
21
-6.033147
0
LINE
8
0
62
5
10
-14.908236
20
-13.949365
11
-19.534622
21
-5.936229
0
LINE
8
0
62
5
10
-14.664836
20
-13.72162
11
-19.21569
21
-5.839311
0
LINE
8
0
62
5
10
-14.421436
20
-13.493875
11
-18.896757
21
-5.742393
0
POINT
8
0
10
-14.421436
20
-13.493875
0
TEXT
8
0
10
-14.421436
20
-15.493875
1
V-
40
2
41
2
72
0
73
0
11
-14.421436
21
-15.493875
0
POINT
8
0
10
-18.896757
20
-5.742393
0
TEXT
8
0
10
-18.896757
20
-7.742393
1
V+
40
2
41
2
72
0
73
0
11
-18.896757
21
-7.742393
0
LINE
8
0
62
3
10
-20.719697
20
-1.121012
11
-19.086737
21
8.139961
0
LINE
8
0
62
3
10
-20.38685
20
-1.103004
11
-18.780123
21
8.009198
0
LINE
8
0
62
3
10
-20.054004
20
-1.084996
11
-18.473509
21
7.878436
0
LINE
8
0
62
3
10
-19.721157
20
-1.066987
11
-18.166895
21
7.747673
0
POINT
8
0
10
-19.721157
20
-1.066987
0
TEXT
8
0
10
-19.721157
20
-3.066987
1
W-
40
2
41
2
72
0
73
0
11
-19.721157
21
-3.066987
0
POINT
8
0
10
-18.166895
20
7.747673
0
TEXT
8
0
10
-18.166895
20
5.747673
1
W+
40
2
41
2
72
0
73
0
11
-18.166895
21
5.747673
0
LINE
8
0
62
1
10
-16.592781
20
12.459619
11
-9.389023
21
18.50429
0
LINE
8
0
62
1
10
-16.326231
20
12.259465
11
-9.238196
21
18.207032
0
LINE
8
0
62
1
10
-16.05968
20
12.05931
11
-9.087368
21
17.909774
0
LINE
8
0
62
1
10
-15.793129
20
11.859156
11
-8.93654
21
17.612517
0
POINT
8
0
10
-15.793129
20
11.859156
0
TEXT
8
0
10
-15.793129
20
9.859156
1
U-
40
2
41
2
72
0
73
0
11
-15.793129
21
9.859156
0
POINT
8
0
10
-8.93654
20
17.612517
0
TEXT
8
0
10
-8.93654
20
15.612517
1
U+
40
2
41
2
72
0
73
0
11
-8.93654
21
15.612517
0
ENDSEC
0
EOF
