<svg width="25" height="24" viewBox="0 0 25 24" fill="none" xmlns="http://www.w3.org/2000/svg">
<ellipse cx="12.8954" cy="12" rx="12.0243" ry="12" fill="#0069BD"/>
<path d="M14.3372 6.24078C14.3372 5.4455 13.6912 4.80078 12.8943 4.80078C12.0974 4.80078 11.4514 5.4455 11.4514 6.24078V10.5608H7.12261C6.32571 10.5608 5.67969 11.2055 5.67969 12.0008C5.67969 12.796 6.32571 13.4408 7.12261 13.4408H11.4514V17.7608C11.4514 18.556 12.0974 19.2008 12.8943 19.2008C13.6912 19.2008 14.3372 18.556 14.3372 17.7608V13.4408H18.6659C19.4628 13.4408 20.1089 12.796 20.1089 12.0008C20.1089 11.2055 19.4628 10.5608 18.6659 10.5608H14.3372V6.24078Z" fill="white"/>
</svg>
