<svg width="27" height="33" viewBox="0 0 27 33" fill="none" xmlns="http://www.w3.org/2000/svg">
<path d="M12.167 13.332C15.4807 13.332 18.167 10.6457 18.167 7.33203C18.167 4.01832 15.4807 1.33203 12.167 1.33203C8.85328 1.33203 6.16699 4.01832 6.16699 7.33203C6.16699 10.6457 8.85328 13.332 12.167 13.332Z" stroke="#222222" stroke-width="2.25"/>
<path d="M19.667 31.332C22.9807 31.332 25.667 28.6457 25.667 25.332C25.667 22.0183 22.9807 19.332 19.667 19.332C16.3533 19.332 13.667 22.0183 13.667 25.332C13.667 28.6457 16.3533 31.332 19.667 31.332Z" stroke="#222222" stroke-width="2.25"/>
<path d="M17.666 25.3334L18.9163 26.8333L21.6661 24" stroke="#222222" stroke-width="2.25" stroke-linecap="round" stroke-linejoin="round"/>
<path d="M15.167 29.5836C14.2164 29.7452 13.2095 29.832 12.167 29.832C6.368 29.832 1.66699 27.1457 1.66699 23.832C1.66699 20.5184 6.368 17.832 12.167 17.832C14.7372 17.832 17.0918 18.3597 18.917 19.2359" stroke="#222222" stroke-width="2.25"/>
</svg>
