<svg width="30" height="13" viewBox="0 0 30 13" fill="none" xmlns="http://www.w3.org/2000/svg">
<path d="M24.0273 0.46875C22.8499 0.46875 21.7532 0.811019 20.8279 1.39908L14.9998 5.67949L11.9279 3.42372C11.7428 3.72405 11.5563 4.02269 11.3781 4.33189C11.3351 4.40621 11.2952 4.48154 11.2529 4.55586L13.8206 6.44141L8.43263 10.398C7.69423 10.8582 6.84469 11.1016 5.97232 11.1016C3.40292 11.1016 1.31214 9.01115 1.31214 6.44141C1.31214 3.87167 3.40257 1.78124 5.97232 1.78124C6.84469 1.78124 7.69457 2.0243 8.43263 2.48486L8.96819 2.87793C9.18944 2.49543 9.41887 2.1218 9.65034 1.75089L9.17171 1.39942C8.24684 0.811019 7.14981 0.469091 5.97232 0.469091C2.67406 0.469091 0 3.14315 0 6.44141C0 9.73967 2.67372 12.4137 5.97232 12.4137C7.14981 12.4137 8.24684 12.0715 9.17171 11.4834L14.9998 7.20333L18.0837 9.46797C18.2725 9.15842 18.461 8.84786 18.6475 8.52434C18.6843 8.46025 18.7177 8.3965 18.7542 8.33241L16.1794 6.44141L21.567 2.48486C22.3054 2.02464 23.1553 1.78124 24.0273 1.78124C26.5971 1.78124 28.6875 3.87167 28.6875 6.44141C28.6875 9.01115 26.5971 11.1016 24.0273 11.1016C23.155 11.1016 22.3054 10.8585 21.567 10.398L21.0393 10.0103C20.8157 10.3966 20.5893 10.7719 20.3619 11.1408L20.8283 11.4831C21.7535 12.0715 22.8502 12.4134 24.0277 12.4134C27.3259 12.4134 30 9.73933 30 6.44107C29.9997 3.14281 27.3259 0.46875 24.0273 0.46875Z" fill="white"/>
<path d="M10.6717 3.35764L8.46102 3.29054L10.0446 1.23673L10.6717 3.35764Z" fill="white"/>
<path d="M19.7216 9.921L17.5508 9.8022L19.0546 7.85178L19.7216 9.921Z" fill="white"/>
</svg>
