<svg width="44" height="45" viewBox="0 0 44 45" fill="none" xmlns="http://www.w3.org/2000/svg">
<circle cx="22" cy="22" r="22" fill="#F0F7FD"/>
<path d="M37.2355 37.9487C32.9085 41.3406 27.5749 43.1949 22.0766 43.2189C16.5784 43.2428 11.2288 41.4351 6.87246 38.0811L13.369 34.9665C13.6784 34.8177 13.975 34.6439 14.256 34.4467C14.3413 34.3869 14.4265 34.3245 14.5077 34.2595C15.2129 33.7101 15.7913 33.0151 16.2033 32.2218C16.5147 31.6124 16.7193 30.9541 16.8083 30.2756C16.8699 29.8352 16.8992 29.391 16.8958 28.9464C16.8918 28.4826 16.8756 28.019 16.8555 27.5554C16.8434 27.2525 16.8327 26.9483 16.826 26.6455C16.8169 26.2211 16.8088 25.7962 16.8014 25.3709L17.0707 25.5026L17.771 25.857L18.0946 25.9091L21.8377 26.5117L26.0159 27.1855L26.1796 31.4735L26.2334 32.8751L26.2595 33.5558L26.2599 33.5974L26.3944 33.6525L27.8837 34.2426L37.2355 37.9487Z" fill="#F2A196"/>
<path d="M26.2578 33.5982C25.7623 33.6602 24.9161 33.4759 24.4473 33.2267C22.6961 32.2796 21.8192 31.5072 20.8896 30.8344C19.7831 30.0318 16.8646 27.4515 16.8646 27.4515C16.8526 27.1487 16.832 26.9478 16.8254 26.6476C16.8163 26.2232 16.8081 25.7984 16.8008 25.373L17.0701 25.5047L17.7703 25.8592L18.0939 25.9113L21.8371 26.5138L26.0152 27.1876L26.1789 31.4756L26.2327 32.8773L26.2588 33.558L26.2592 33.5982L26.2578 33.5982Z" fill="#E88870"/>
<path d="M37.2358 37.9481C33 42 27.4983 43.976 22 44C16.5017 44.024 10.5 41.5 6.87278 38.0805L13.3693 34.9659C13.6787 34.8172 13.9753 34.6433 14.2563 34.4461C14.3416 34.3864 14.4268 34.3239 14.5081 34.2589C17.6849 36.4776 22.006 37.8566 25.7181 36.1471C26.6021 35.7372 27.4115 35.0813 27.8868 34.2434L37.2358 37.9481Z" fill="#0069BD"/>
<path d="M34.6006 11.1257C34.5892 11.2049 34.5751 11.2827 34.5584 11.3606C34.4689 11.7599 34.3228 12.1444 34.1246 12.5025L34.1141 12.5213C34.0388 12.656 33.9582 12.7908 33.8709 12.9256C33.6392 13.2718 33.386 13.603 33.1127 13.9175L32.9495 14.1026C32.8393 14.2282 32.7277 14.3512 32.6162 14.4728C33.2116 14.3335 33.7943 14.8847 33.9054 15.4842C34.0166 16.0838 33.7819 16.6917 33.4904 17.2305C32.9799 18.184 32.2374 18.8218 31.5864 19.6519C31.0984 20.2701 30.8313 20.999 30.2989 21.5908L30.2591 21.6354C28.8524 23.1383 26.614 23.5065 24.7535 24.1595C24.0852 24.3959 16.8346 26.5238 16.8386 26.9742C16.8377 26.8763 16.1197 26.1762 15.2153 25.3249C11.971 22.2985 10.8719 17.5884 12.7508 13.5238C14.7704 9.14957 19.4164 6.00029 23.8541 4.46809C25.2415 3.98944 26.818 3.66195 28.1428 4.29642C29.4676 4.9309 30.1421 6.92896 29.0568 7.91701C29.7402 7.39051 30.5938 7.13437 31.4543 7.1976C32.249 7.24038 33.0009 7.57061 33.5701 8.12674C34.0209 8.57171 34.3471 9.12721 34.516 9.73771C34.6412 10.1893 34.67 10.6622 34.6006 11.1257Z" fill="#845161"/>
<path d="M34.6015 11.1297C34.5901 11.2089 34.576 11.2868 34.5593 11.3647C34.5474 11.3876 34.5356 11.4118 34.5237 11.4387C34.3753 11.7858 34.3088 12.1591 34.1309 12.5065L34.1203 12.5253C34.0451 12.66 33.9645 12.7948 33.8772 12.9296C33.6477 13.2774 33.3944 13.6088 33.119 13.9215L32.9504 14.1066C32.8402 14.2322 32.7286 14.3552 32.6171 14.4768C33.2125 14.3375 33.7952 14.8887 33.9063 15.4883C34.0175 16.0878 33.7829 16.6958 33.4913 17.2345C32.9808 18.188 32.2383 18.8259 31.5873 19.656C31.0993 20.2742 30.8322 21.0031 30.2998 21.5948C29.6692 20.8583 29.2638 19.9558 29.132 18.9952C28.8966 17.2198 29.0137 15.2819 28.9375 13.4836C28.8901 12.3527 28.5236 12.1468 29.1939 11.2254C29.7335 10.5478 30.3592 9.94342 31.0551 9.42762C31.5989 9.06227 32.3022 8.9998 32.9559 9.08656C33.5255 9.15934 34.0643 9.38637 34.5142 9.74311C34.6401 10.1941 34.6698 10.6665 34.6015 11.1297Z" fill="#69303A"/>
<path d="M15.4694 23.9083C16.7281 23.8972 17.7394 22.8681 17.7284 21.6097C17.7174 20.3513 16.6881 19.3401 15.4294 19.3511C14.1707 19.3621 13.1593 20.3913 13.1704 21.6497C13.1814 22.9081 14.2107 23.9193 15.4694 23.9083Z" fill="#F2A196"/>
<path d="M16.1895 23.6617C17.3163 23.6518 18.2218 22.7305 18.212 21.6038C18.2021 20.4772 17.2805 19.5718 16.1537 19.5817C15.0268 19.5916 14.1213 20.513 14.1312 21.6396C14.1411 22.7663 15.0626 23.6716 16.1895 23.6617Z" fill="#E88870"/>
<path d="M16.1836 19.4787L16.8354 26.8455L25.7904 32.2467C26.4099 32.4712 27.0908 32.457 27.7004 32.2068C28.31 31.9566 28.8044 31.4884 29.0874 30.8934C29.7538 29.5025 30.3297 28.07 30.8115 26.6049C31.1562 25.551 31.4926 24.469 31.5163 23.3508C31.54 22.2327 31.2121 21.0747 30.8169 20.046C30.7758 19.9378 30.5583 19.6059 30.5761 19.4919C30.7175 18.597 30.8581 17.7048 30.9977 16.8153C31.1578 15.8072 31.3644 14.7545 31.1049 13.7447C30.8091 12.5865 29.9281 12.0996 29.1992 11.2387C27.3224 13.7002 24.2136 15.1094 21.5004 16.534C20.1059 17.2701 16.1836 19.4787 16.1836 19.4787Z" fill="#F2A196"/>
<path d="M31.0524 25.849C30.4945 28.122 29.8755 30.4638 29.4069 31.3071C29.0558 31.9361 28.5595 32.0611 27.7743 32.2597C26.8009 32.4915 25.7887 32.5088 24.8079 32.3105C23.8271 32.1121 22.9012 31.7029 22.0944 31.1112L16.817 26.9377C16.7296 26.149 16.6749 26.0288 16.6291 25.2356C16.6072 24.8766 16.4887 24.5184 16.5714 24.1638C16.5966 24.3495 16.6776 24.5231 16.8037 24.6617C17.4454 25.5167 18.1939 26.4819 19.2507 26.8266C20.3532 27.1855 21.6045 27.2322 22.6617 26.7028C23.5814 26.2417 24.4811 25.6426 25.4417 25.2615C26.0805 24.9913 26.7712 24.8657 27.4643 24.8939C28.4489 24.9523 28.8737 25.3923 29.5988 25.9717C29.8364 26.1626 30.1023 26.3614 30.4067 26.3668C30.7498 26.357 30.7647 26.0727 31.0524 25.849Z" fill="#845161"/>
<path d="M22.768 19.1232C23.5858 19.116 23.5968 20.3733 22.7791 20.3871L22.7416 20.3875C21.9238 20.3946 21.9128 19.1374 22.7305 19.1235L22.768 19.1232Z" fill="#00214E"/>
<path d="M29.4835 18.8775C30.2436 18.8776 30.2538 20.037 29.4937 20.0503L29.4602 20.0506C28.7015 20.0573 28.6912 18.8912 29.4499 18.8778L29.4835 18.8775Z" fill="#00214E"/>
<path d="M26.1706 18.7309C26.1603 18.7779 28.0042 23.5579 28.0042 23.5579L25.6002 23.6956" stroke="#00214E" stroke-width="0.278409" stroke-miterlimit="10"/>
<path d="M20.4668 17.852C21.7056 17.5849 22.9818 17.5379 24.237 17.713" stroke="#00214E" stroke-width="0.278409" stroke-miterlimit="10"/>
<path d="M28.3845 17.7973C29.1492 17.6129 29.9383 17.5512 30.7224 17.6146" stroke="#00214E" stroke-width="0.278409" stroke-miterlimit="10"/>
<path d="M25.4852 26.2281C26.241 26.482 27.0578 26.4899 27.8183 26.2505C27.8998 26.2243 27.8638 26.0946 27.7822 26.1168C27.045 26.3497 26.2528 26.3421 25.5203 26.0951C25.4382 26.0676 25.4045 26.1966 25.4853 26.2294L25.4852 26.2281Z" fill="#F2A196"/>
</svg>
