<svg width="20" height="22" viewBox="0 0 20 22" fill="none" xmlns="http://www.w3.org/2000/svg">
<path fill-rule="evenodd" clip-rule="evenodd" d="M17.13 9.44968L17.1299 11.644C17.13 14.2053 17.1299 15.486 16.6117 16.4554C16.2026 17.2209 15.5756 17.8478 14.8102 18.2569C14.7146 18.3081 14.6159 18.3542 14.5133 18.3957C13.5756 18.7751 12.3074 18.7751 9.99879 18.7751C7.43742 18.7751 6.15674 18.7751 5.18731 18.257C4.42184 17.8478 3.79489 17.2209 3.38574 16.4554C2.86755 15.4859 2.86756 14.2053 2.86756 11.6439L2.86756 9.44971C2.86756 9.08145 2.86756 8.73941 2.8691 8.42121C2.87827 6.52645 2.94208 5.46828 3.38574 4.63827C3.79487 3.8728 4.42183 3.24585 5.18733 2.8367C6.1567 2.31854 7.43744 2.31851 9.99879 2.31851C12.56 2.31854 13.8408 2.31852 14.8102 2.83669C15.5757 3.24585 16.2027 3.87279 16.6118 4.63827C17.1299 5.60771 17.1299 6.88838 17.13 9.44968ZM6.51092 11.262C6.51091 10.8076 6.87936 10.4392 7.33379 10.4392L12.8193 10.4392C13.2737 10.4392 13.6421 10.8076 13.6421 11.262C13.6421 11.7164 13.2737 12.0848 12.8193 12.0848L7.3337 12.0848C6.87927 12.0848 6.51093 11.7165 6.51092 11.262ZM6.51045 14.553C6.51044 14.0986 6.87879 13.7303 7.33323 13.7303L10.6246 13.7303C11.079 13.7303 11.4474 14.0986 11.4474 14.5531C11.4474 15.0075 11.0791 15.376 10.6246 15.376L7.33326 15.3759C6.87883 15.3759 6.51035 15.0075 6.51045 14.553Z" fill="#0069BD"/>
</svg>
