<svg width="16" height="14" viewBox="0 0 18 16" fill="none" xmlns="http://www.w3.org/2000/svg">
<path fill-rule="evenodd" clip-rule="evenodd" d="M5.544 0C5.06809 0.000153506 4.60067 0.126097 4.18911 0.36507C3.77754 0.604042 3.43645 0.947554 3.2004 1.3608L1.4067 4.5H0.36C0.264523 4.5 0.172955 4.53793 0.105442 4.60544C0.0379288 4.67295 4.34689e-07 4.76452 4.34689e-07 4.86V5.2875C-0.000176097 5.44821 0.0534207 5.60436 0.152257 5.73109C0.251093 5.85781 0.389486 5.94783 0.5454 5.9868L0.567001 5.9913C0.191193 6.7713 0.0483831 7.64316 0.155701 8.5023L0.8082 13.7232C0.862612 14.1586 1.0742 14.5592 1.40319 14.8495C1.73217 15.1399 2.1559 15.3001 2.5947 15.3H2.7C3.17739 15.3 3.63523 15.1104 3.97279 14.7728C4.31036 14.4352 4.5 13.9774 4.5 13.5H13.5C13.5 13.9774 13.6896 14.4352 14.0272 14.7728C14.3648 15.1104 14.8226 15.3 15.3 15.3H15.4053C15.8441 15.3001 16.2678 15.1399 16.5968 14.8495C16.9258 14.5592 17.1374 14.1586 17.1918 13.7232L17.8443 8.5032C17.9516 7.64406 17.8088 6.7722 17.433 5.9922L17.4546 5.9868C17.6105 5.94783 17.7489 5.85781 17.8477 5.73109C17.9466 5.60436 18.0002 5.44821 18 5.2875V4.86C18 4.76452 17.9621 4.67295 17.8946 4.60544C17.827 4.53793 17.7355 4.5 17.64 4.5H16.5933L14.7996 1.3608C14.5635 0.947554 14.2225 0.604042 13.8109 0.36507C13.3993 0.126097 12.9319 0.000153506 12.456 0H5.544ZM14.7798 4.9536L13.2372 2.2536C13.1584 2.11572 13.0446 2.00113 12.9072 1.92146C12.7699 1.8418 12.6139 1.79989 12.4551 1.8H5.5449C5.38611 1.79989 5.23012 1.8418 5.09276 1.92146C4.9554 2.00113 4.84156 2.11572 4.7628 2.2536L3.2202 4.9536C3.14203 5.09045 3.10116 5.24543 3.1017 5.40304C3.10223 5.56065 3.14414 5.71535 3.22323 5.85167C3.30233 5.98799 3.41584 6.10115 3.5524 6.17983C3.68896 6.25851 3.84379 6.29995 4.0014 6.3H13.9986C14.1562 6.29995 14.311 6.25851 14.4476 6.17983C14.5842 6.10115 14.6977 5.98799 14.7768 5.85167C14.8559 5.71535 14.8978 5.56065 14.8983 5.40304C14.8988 5.24543 14.858 5.09045 14.7798 4.9536ZM2.7 9.9351V9.3051C2.69996 9.22713 2.72017 9.1505 2.75866 9.0827C2.79715 9.01489 2.85259 8.95826 2.91956 8.91833C2.98652 8.87841 3.06271 8.85656 3.14066 8.85495C3.21861 8.85333 3.29564 8.87199 3.3642 8.9091L5.832 10.2411C6.1677 10.4229 6.0282 10.9332 5.6466 10.9179L3.564 10.8342C3.33191 10.8249 3.1124 10.7262 2.95137 10.5588C2.79035 10.3914 2.70028 10.1683 2.7 9.936V9.9351ZM15.3 9.3051V9.9351C15.3002 10.1677 15.2103 10.3913 15.0492 10.5591C14.8882 10.7269 14.6684 10.8258 14.436 10.8351L12.3534 10.9179C11.9718 10.9332 11.8314 10.4229 12.168 10.2411L14.6358 8.9091C14.7044 8.87199 14.7814 8.85333 14.8593 8.85495C14.9373 8.85656 15.0135 8.87841 15.0804 8.91833C15.1474 8.95826 15.2029 9.01489 15.2413 9.0827C15.2798 9.1505 15.3 9.22713 15.3 9.3051Z" fill="#009400"/>
</svg>
