<svg width="20" height="20" viewBox="0 0 20 20" fill="none" xmlns="http://www.w3.org/2000/svg">
<path d="M10.625 7.5C10.625 7.15482 10.3452 6.875 10 6.875C9.65483 6.875 9.375 7.15482 9.375 7.5V9.375H7.5C7.15482 9.375 6.875 9.65483 6.875 10C6.875 10.3452 7.15482 10.625 7.5 10.625H9.375V12.5C9.375 12.8452 9.65483 13.125 10 13.125C10.3452 13.125 10.625 12.8452 10.625 12.5V10.625H12.5C12.8452 10.625 13.125 10.3452 13.125 10C13.125 9.65483 12.8452 9.375 12.5 9.375H10.625V7.5Z" fill="white"/>
<path fill-rule="evenodd" clip-rule="evenodd" d="M10.0003 1.04102C5.05277 1.04102 1.04199 5.0518 1.04199 9.99935C1.04199 14.9469 5.05277 18.9577 10.0003 18.9577C14.9479 18.9577 18.9587 14.9469 18.9587 9.99935C18.9587 5.0518 14.9479 1.04102 10.0003 1.04102ZM2.29199 9.99935C2.29199 5.74216 5.74313 2.29102 10.0003 2.29102C14.2575 2.29102 17.7087 5.74216 17.7087 9.99935C17.7087 14.2565 14.2575 17.7077 10.0003 17.7077C5.74313 17.7077 2.29199 14.2565 2.29199 9.99935Z" fill="white"/>
</svg>
