<svg width="46" height="45" viewBox="0 0 46 45" fill="none" xmlns="http://www.w3.org/2000/svg">
<rect x="4" y="3.61719" width="38" height="38" rx="19" fill="#0069BD" fill-opacity="0.2"/>
<rect x="4" y="3.61719" width="38" height="38" rx="19" stroke="#ECF7FF" stroke-width="6.33333"/>
<g clip-path="url(#clip0_2998_4513)">
<path d="M23.6623 19.9655C23.6623 19.5995 23.3655 19.3027 22.9995 19.3027C22.6335 19.3027 22.3367 19.5995 22.3367 19.9655V21.9539H20.3483C19.9823 21.9539 19.6855 22.2507 19.6855 22.6167C19.6855 22.9827 19.9823 23.2795 20.3483 23.2795H22.3367V25.2679C22.3367 25.6339 22.6335 25.9306 22.9995 25.9306C23.3655 25.9306 23.6623 25.6339 23.6623 25.2679V23.2795H25.6507C26.0167 23.2795 26.3135 22.9827 26.3135 22.6167C26.3135 22.2507 26.0167 21.9539 25.6507 21.9539H23.6623V19.9655Z" fill="#0069BD"/>
<path fill-rule="evenodd" clip-rule="evenodd" d="M23 13.1172C17.7533 13.1172 13.5 17.3705 13.5 22.6172C13.5 27.8639 17.7533 32.1172 23 32.1172C28.2467 32.1172 32.5 27.8639 32.5 22.6172C32.5 17.3705 28.2467 13.1172 23 13.1172ZM14.8256 22.6172C14.8256 18.1026 18.4854 14.4428 23 14.4428C27.5146 14.4428 31.1744 18.1026 31.1744 22.6172C31.1744 27.1318 27.5146 30.7916 23 30.7916C18.4854 30.7916 14.8256 27.1318 14.8256 22.6172Z" fill="#0069BD"/>
</g>
<defs>
<clipPath id="clip0_2998_4513">
<rect width="19" height="19" fill="white" transform="translate(13.5 13.1172)"/>
</clipPath>
</defs>
</svg>
