<svg width="56" height="56" viewBox="0 0 56 56" fill="none" xmlns="http://www.w3.org/2000/svg">
<rect x="4" y="4" width="48" height="48" rx="24" fill="#0069BD" fill-opacity="0.2"/>
<rect x="4" y="4" width="48" height="48" rx="24" stroke="#ECF7FF" stroke-width="8"/>
<path d="M22.6663 34.6667H30.6663C31.02 34.6667 31.3591 34.5262 31.6091 34.2761C31.8592 34.0261 31.9997 33.687 31.9997 33.3333V25.3333C31.9997 24.9797 31.8592 24.6406 31.6091 24.3905C31.3591 24.1405 31.02 24 30.6663 24H22.6663C22.3127 24 21.9736 24.1405 21.7235 24.3905C21.4735 24.6406 21.333 24.9797 21.333 25.3333V33.3333C21.333 33.687 21.4735 34.0261 21.7235 34.2761C21.9736 34.5262 22.3127 34.6667 22.6663 34.6667ZM23.9997 28.6667H25.9997V26.6667H27.333V28.6667H29.333V30H27.333V32H25.9997V30H23.9997V28.6667Z" fill="#0069BD"/>
<path d="M33.333 21.334H25.333V22.6673H33.333V30.6673H34.6663V22.6673C34.6663 21.932 34.0683 21.334 33.333 21.334Z" fill="#0069BD"/>
</svg>
