<svg width="56" height="56" viewBox="0 0 56 56" fill="none" xmlns="http://www.w3.org/2000/svg">
<rect x="4" y="4" width="48" height="48" rx="24" fill="#0069BD" fill-opacity="0.2"/>
<rect x="4" y="4" width="48" height="48" rx="24" stroke="#ECF7FF" stroke-width="8"/>
<path d="M37 24.794L35.8866 26.7202L22.3807 18.9262L23.4941 17L26.8789 18.9485L28.3932 18.5365L33.2143 21.3201L33.6263 22.8455L37 24.794ZM21 36.0285V22.6674H26.6451L34.3612 27.1211V36.0285C34.3612 36.6191 34.1266 37.1855 33.7089 37.6032C33.2913 38.0208 32.7249 38.2554 32.1343 38.2554H23.2269C22.6363 38.2554 22.0699 38.0208 21.6522 37.6032C21.2346 37.1855 21 36.6191 21 36.0285ZM23.2269 36.0285H32.1343V28.4572L25.9659 24.8942H23.2269V36.0285Z" fill="#0069BD"/>
</svg>
