<svg width="10" height="10" viewBox="0 0 10 10" fill="none" xmlns="http://www.w3.org/2000/svg">
<path fill-rule="evenodd" clip-rule="evenodd" d="M8.45297 2.18522C8.61506 2.18522 8.75 2.3198 8.75 2.49105V2.64938C8.75 2.81646 8.61506 2.95521 8.45297 2.95521H1.54744C1.38494 2.95521 1.25 2.81646 1.25 2.64938V2.49105C1.25 2.3198 1.38494 2.18522 1.54744 2.18522H2.76232C3.0091 2.18522 3.22388 2.00981 3.27939 1.76231L3.34301 1.47814C3.44189 1.09107 3.76729 0.833984 4.1397 0.833984H5.8603C6.22866 0.833984 6.5577 1.09107 6.65293 1.45773L6.72101 1.76189C6.77612 2.00981 6.9909 2.18522 7.23809 2.18522H8.45297ZM7.83576 7.97316C7.9626 6.79108 8.18466 3.98278 8.18466 3.95445C8.19277 3.86861 8.16481 3.78737 8.10929 3.72195C8.04972 3.6607 7.97435 3.62445 7.89128 3.62445H2.11189C2.02841 3.62445 1.94898 3.6607 1.89387 3.72195C1.83795 3.78737 1.81039 3.86861 1.81445 3.95445C1.81519 3.95965 1.82316 4.05857 1.83648 4.22395C1.89566 4.95863 2.06049 7.00488 2.167 7.97316C2.24237 8.68648 2.71041 9.13481 3.38836 9.15106C3.91151 9.16314 4.45047 9.16731 5.00158 9.16731C5.52068 9.16731 6.04789 9.16314 6.58725 9.15106C7.2887 9.13898 7.75634 8.69857 7.83576 7.97316Z" fill="#E71D36"/>
</svg>
