<svg width="14" height="14" viewBox="0 0 14 14" fill="none" xmlns="http://www.w3.org/2000/svg">
<path fill-rule="evenodd" clip-rule="evenodd" d="M11.8342 3.05775C12.0611 3.05775 12.25 3.24616 12.25 3.48591V3.70757C12.25 3.94149 12.0611 4.13574 11.8342 4.13574H2.16641C1.93892 4.13574 1.75 3.94149 1.75 3.70757V3.48591C1.75 3.24616 1.93892 3.05775 2.16641 3.05775H3.86725C4.21275 3.05775 4.51343 2.81217 4.59115 2.46567L4.68022 2.06784C4.81865 1.52593 5.27421 1.16602 5.79557 1.16602H8.20442C8.72012 1.16602 9.18079 1.52593 9.31411 2.03926L9.40942 2.46509C9.48657 2.81217 9.78725 3.05775 10.1333 3.05775H11.8342ZM10.9701 11.1609C11.1476 9.50596 11.4585 5.57433 11.4585 5.53466C11.4699 5.4145 11.4307 5.30075 11.353 5.20917C11.2696 5.12342 11.1641 5.07267 11.0478 5.07267H2.95664C2.83977 5.07267 2.72858 5.12342 2.65142 5.20917C2.57313 5.30075 2.53455 5.4145 2.54022 5.53466C2.54127 5.54195 2.55242 5.68044 2.57107 5.91198C2.65392 6.94054 2.88468 9.80527 3.03379 11.1609C3.13932 12.1595 3.79457 12.7872 4.7437 12.8099C5.47612 12.8268 6.23066 12.8327 7.00221 12.8327C7.72895 12.8327 8.46704 12.8268 9.22215 12.8099C10.2042 12.793 10.8589 12.1764 10.9701 11.1609Z" fill="#E71D36"/>
</svg>
