<svg width="26" height="24" viewBox="0 0 26 24" fill="none" xmlns="http://www.w3.org/2000/svg">
<g clip-path="url(#clip0_2194_1869)">
<path d="M13.1137 7.5C14.0033 7.5 14.7245 6.82843 14.7245 6C14.7245 5.17157 14.0033 4.5 13.1137 4.5C12.2241 4.5 11.5029 5.17157 11.5029 6C11.5029 6.82843 12.2241 7.5 13.1137 7.5Z" fill="#222222"/>
<path d="M13.1137 13.5C14.0033 13.5 14.7245 12.8284 14.7245 12C14.7245 11.1716 14.0033 10.5 13.1137 10.5C12.2241 10.5 11.5029 11.1716 11.5029 12C11.5029 12.8284 12.2241 13.5 13.1137 13.5Z" fill="#222222"/>
<path d="M13.1137 19.5C14.0033 19.5 14.7245 18.8284 14.7245 18C14.7245 17.1716 14.0033 16.5 13.1137 16.5C12.2241 16.5 11.5029 17.1716 11.5029 18C11.5029 18.8284 12.2241 19.5 13.1137 19.5Z" fill="#222222"/>
</g>
<defs>
<clipPath id="clip0_2194_1869">
<rect width="25.7726" height="24" fill="white" transform="translate(0.227417)"/>
</clipPath>
</defs>
</svg>
