<svg width="30" height="24" viewBox="0 0 30 24" fill="none" xmlns="http://www.w3.org/2000/svg">
<line x1="1" x2="1" y2="23.8235" stroke="white" stroke-width="2"/>
<line y1="22.8242" x2="30" y2="22.8242" stroke="white" stroke-width="2"/>
<mask id="path-3-inside-1_2640_3816" fill="white">
<path d="M26.2713 20.7309H3.52921V4.41211L8.32926 8.80576L12.7962 7.18133L17.5218 12.5721L22.3585 10.8366L26.2725 14.8983V20.7321L26.2713 20.7309Z"/>
</mask>
<path d="M26.2713 20.7309H3.52921V4.41211L8.32926 8.80576L12.7962 7.18133L17.5218 12.5721L22.3585 10.8366L26.2725 14.8983V20.7321L26.2713 20.7309Z" fill="white"/>
<path d="M26.2713 20.7309V-4.26913H36.6162L43.9363 3.04061L26.2713 20.7309ZM3.52921 20.7309V45.7309H-21.4708V20.7309H3.52921ZM3.52921 4.41211H-21.4708V-52.3629L20.409 -14.029L3.52921 4.41211ZM8.32926 8.80576L16.8733 32.3004L2.62955 37.4803L-8.55049 27.2469L8.32926 8.80576ZM12.7962 7.18133L4.25208 -16.3133L20.323 -22.1577L31.5955 -9.29849L12.7962 7.18133ZM17.5218 12.5721L25.9651 36.1031L9.94326 41.8521L-1.27757 29.0519L17.5218 12.5721ZM22.3585 10.8366L13.9151 -12.6944L29.1379 -18.1567L40.3604 -6.51079L22.3585 10.8366ZM26.2725 14.8983L44.2744 -2.44911L51.2725 4.81303V14.8983H26.2725ZM26.2725 20.7321H51.2725V81.0266L8.6074 38.4223L26.2725 20.7321ZM26.2713 45.7309H3.52921V-4.26913H26.2713V45.7309ZM-21.4708 20.7309V4.41211H28.5292V20.7309H-21.4708ZM20.409 -14.029L25.209 -9.63534L-8.55049 27.2469L-13.3505 22.8532L20.409 -14.029ZM-0.214813 -14.6889L4.25208 -16.3133L21.3402 30.676L16.8733 32.3004L-0.214813 -14.6889ZM31.5955 -9.29849L36.3211 -3.90773L-1.27757 29.0519L-6.00319 23.6611L31.5955 -9.29849ZM9.07843 -10.959L13.9151 -12.6944L30.8018 34.3676L25.9651 36.1031L9.07843 -10.959ZM40.3604 -6.51079L44.2744 -2.44911L8.27056 32.2457L4.35656 28.184L40.3604 -6.51079ZM51.2725 14.8983V20.7321H1.27246V14.8983H51.2725ZM8.6074 38.4223L8.60621 38.4211L43.9363 3.04061L43.9375 3.04179L8.6074 38.4223Z" fill="white" mask="url(#path-3-inside-1_2640_3816)"/>
</svg>
