<svg width="14" height="14" viewBox="0 0 14 14" fill="none" xmlns="http://www.w3.org/2000/svg">
<path d="M2.33366 12.8333H9.33366C9.64308 12.8333 9.93982 12.7104 10.1586 12.4916C10.3774 12.2728 10.5003 11.9761 10.5003 11.6667V4.66667C10.5003 4.35725 10.3774 4.0605 10.1586 3.84171C9.93982 3.62292 9.64308 3.5 9.33366 3.5H2.33366C2.02424 3.5 1.72749 3.62292 1.5087 3.84171C1.28991 4.0605 1.16699 4.35725 1.16699 4.66667V11.6667C1.16699 11.9761 1.28991 12.2728 1.5087 12.4916C1.72749 12.7104 2.02424 12.8333 2.33366 12.8333ZM3.50033 7.58333H5.25033V5.83333H6.41699V7.58333H8.16699V8.75H6.41699V10.5H5.25033V8.75H3.50033V7.58333Z" fill="#0069BD"/>
<path d="M11.667 1.16602H4.66699V2.33268H11.667V9.33268H12.8337V2.33268C12.8337 1.68927 12.3104 1.16602 11.667 1.16602Z" fill="#0069BD"/>
</svg>
