<svg width="12" height="12" viewBox="0 0 12 12" fill="none" xmlns="http://www.w3.org/2000/svg">
<path fill-rule="evenodd" clip-rule="evenodd" d="M6 11.4008C6 11.0694 6.26862 10.8008 6.59999 10.8008H11.4C11.7313 10.8008 11.9999 11.0694 11.9999 11.4008C11.9999 11.7322 11.7313 12.0008 11.4 12.0008H6.59999C6.26862 12.0008 6 11.7322 6 11.4008Z" fill="white"/>
<path fill-rule="evenodd" clip-rule="evenodd" d="M11.2641 3.65993C12.2299 2.69026 12.1889 1.4169 11.4677 0.637091C11.116 0.256856 10.6155 0.0139781 10.0485 0.000586171C9.47949 -0.0128537 8.88994 0.204758 8.34592 0.659902C8.332 0.671542 8.31862 0.683806 8.30584 0.696658L0.524671 8.50888C0.188656 8.8462 0 9.30297 0 9.77913V10.7952C0 11.4561 0.535177 11.9999 1.20229 11.9999H2.20957C2.6882 11.9999 3.14712 11.8093 3.48488 11.4702L11.2641 3.65993ZM9.12418 2.27575C8.88988 2.04144 8.50996 2.04144 8.27566 2.27575C8.04137 2.51006 8.04137 2.88996 8.27566 3.12427L8.87566 3.72427C9.10996 3.95858 9.48987 3.95858 9.72417 3.72427C9.95847 3.48995 9.95847 3.11006 9.72417 2.87574L9.12418 2.27575Z" fill="white"/>
</svg>
