<svg width="25" height="25" viewBox="0 0 25 25" fill="none" xmlns="http://www.w3.org/2000/svg">
<circle cx="12.5" cy="12.5" r="12.5" fill="#0069BD"/>
<path d="M8.125 16.875H9.01562L15.125 10.7656L14.2344 9.875L8.125 15.9844V16.875ZM6.875 18.125V15.4688L15.125 7.23438C15.25 7.11979 15.3881 7.03125 15.5394 6.96875C15.6906 6.90625 15.8494 6.875 16.0156 6.875C16.1819 6.875 16.3433 6.90625 16.5 6.96875C16.6567 7.03125 16.7921 7.125 16.9062 7.25L17.7656 8.125C17.8906 8.23958 17.9819 8.375 18.0394 8.53125C18.0969 8.6875 18.1254 8.84375 18.125 9C18.125 9.16667 18.0965 9.32563 18.0394 9.47688C17.9823 9.62812 17.891 9.76604 17.7656 9.89062L9.53125 18.125H6.875ZM14.6719 10.3281L14.2344 9.875L15.125 10.7656L14.6719 10.3281Z" fill="white"/>
</svg>
