<svg width="22" height="21" viewBox="0 0 22 21" fill="none" xmlns="http://www.w3.org/2000/svg">
<path d="M4.27778 12.8333H17.7222V11.6111H4.27778V12.8333ZM4.27778 9.16667H17.7222V7.94445H4.27778V9.16667ZM4.27778 5.5H17.7222V4.27778H4.27778V5.5ZM22 20.872L18.2392 17.111H1.97512C1.41207 17.111 0.941929 16.9229 0.564668 16.5465C0.18741 16.17 -0.000812181 15.7003 2.63411e-06 15.1372V1.97389C2.63411e-06 1.41167 0.188632 0.941929 0.565891 0.564668C0.943151 0.18741 1.41248 -0.000812181 1.97389 2.63411e-06H20.0261C20.5883 2.63411e-06 21.0577 0.188225 21.434 0.564668C21.8105 0.941113 21.9992 1.41086 22 1.97389V20.872ZM1.97512 15.889H18.761L20.7778 17.8982V1.97512C20.7778 1.7869 20.6995 1.61415 20.5431 1.45689C20.3867 1.29963 20.2143 1.22141 20.0261 1.22223H1.97389C1.78648 1.22223 1.61415 1.30045 1.45689 1.45689C1.29963 1.61334 1.22141 1.78567 1.22223 1.97389V15.1372C1.22223 15.3246 1.30045 15.4969 1.45689 15.6542C1.61334 15.8115 1.7869 15.8896 1.97512 15.889Z" fill="#222222"/>
</svg>
