<svg width="30" height="30" viewBox="0 0 30 30" fill="none" xmlns="http://www.w3.org/2000/svg">
<path d="M18.7231 1.22708C18.9092 1.28912 18.9712 1.4132 18.9712 1.59933L17.8545 5.81822C17.7924 6.00435 17.6683 6.06639 17.4822 6.06639C17.2961 6.00435 17.234 5.88027 17.234 5.69414L18.3508 1.47525C18.3508 1.28912 18.5369 1.16503 18.7231 1.22708ZM28.774 11.278C28.836 11.4641 28.7119 11.5882 28.5258 11.6502L24.3069 12.767C24.1208 12.829 23.9967 12.7049 23.9346 12.5188C23.8726 12.3327 23.9967 12.2086 24.1828 12.1466L28.4017 11.0298C28.5878 11.0298 28.7119 11.1539 28.774 11.278ZM25.1135 25.1135C24.9894 25.2375 24.8032 25.2375 24.6792 25.1135L21.6391 22.0734C21.515 21.9493 21.515 21.7632 21.6391 21.6391C21.7632 21.515 21.9493 21.515 22.0734 21.6391L25.1135 24.6792C25.2375 24.8032 25.2375 24.9894 25.1135 25.1135ZM11.278 28.774C11.0918 28.7119 11.0298 28.5878 11.0298 28.4017L12.1466 24.1828C12.2086 23.9967 12.3327 23.9346 12.5188 23.9346C12.7049 23.9967 12.767 24.1208 12.767 24.3069L11.6502 28.5258C11.6502 28.7119 11.4641 28.836 11.278 28.774ZM1.22708 18.7231C1.16503 18.5369 1.28912 18.4129 1.47525 18.3508L5.69414 17.234C5.88027 17.172 6.00435 17.2961 6.06639 17.4822C6.12844 17.6683 6.00435 17.7924 5.81822 17.8545L1.59933 18.9712C1.4132 18.9712 1.28912 18.8472 1.22708 18.7231ZM4.88759 4.88759C5.01167 4.7635 5.1978 4.7635 5.32188 4.88759L8.36197 7.92767C8.48605 8.05176 8.48605 8.23788 8.36197 8.36197C8.23788 8.48605 8.05176 8.48605 7.92767 8.36197L4.88759 5.32188C4.7635 5.1978 4.7635 5.01167 4.88759 4.88759Z" fill="white"/>
<path d="M8.91907 8.91924L6.68553 17.2329L12.7657 23.3131L21.0794 21.0796L23.3129 12.7659L17.2328 6.68571L8.91907 8.91924ZM17.8532 5.56894L24.4297 12.1454C24.6158 12.3316 24.6779 12.5177 24.6158 12.7659L22.1962 21.762C22.1341 21.9482 21.948 22.1343 21.7619 22.1963L12.7657 24.616C12.5796 24.678 12.3314 24.616 12.1453 24.4299L5.56877 17.8534C5.38264 17.6672 5.3206 17.4811 5.38264 17.2329L7.8023 8.23677C7.86434 8.05064 8.05047 7.86451 8.2366 7.80247L17.2328 5.38281C17.4809 5.38281 17.6671 5.44485 17.8532 5.56894Z" fill="white"/>
<path d="M16.9259 7.80382C15.9332 7.55565 15.3128 6.50093 15.623 5.50825C15.9332 4.51557 16.9259 3.89514 17.9185 4.20535C18.9112 4.45352 19.5316 5.50825 19.2214 6.50093C18.9733 7.49361 17.9185 8.05199 16.9259 7.80382ZM22.1995 13.0774C21.9513 12.0848 22.5097 11.0921 23.5024 10.7819C24.4951 10.5337 25.4877 11.0921 25.7979 12.0848C26.0461 13.0774 25.4877 14.0701 24.495 14.3803C23.5024 14.6285 22.4476 14.0701 22.1995 13.0774ZM20.2762 20.2744C21.0207 19.5299 22.1995 19.5299 22.8819 20.2744C23.6265 21.0189 23.6265 22.1977 22.8819 22.8802C22.1374 23.6247 20.9586 23.6247 20.2762 22.8802C19.5316 22.1977 19.5316 21.0189 20.2762 20.2744ZM13.0792 22.1977C14.0719 22.4459 14.6923 23.5006 14.3821 24.4933C14.1339 25.4859 13.0792 26.1064 12.0865 25.7962C11.0939 25.548 10.4734 24.4933 10.7836 23.5006C11.0318 22.5079 12.0865 21.9495 13.0792 22.1977ZM7.80561 16.9241C8.05378 17.9168 7.49539 18.9094 6.50271 19.2196C5.51003 19.4678 4.51735 18.9094 4.20714 17.9168C3.95897 16.9241 4.51735 15.9314 5.51003 15.6212C6.50271 15.373 7.55744 15.9314 7.80561 16.9241ZM9.72893 9.72714C8.98442 10.4716 7.80561 10.4716 7.12314 9.72714C6.37863 8.98263 6.37863 7.80382 7.12314 7.12135C7.86765 6.37684 9.04646 6.37684 9.72893 7.12135C10.4114 7.86586 10.4734 8.98263 9.72893 9.72714Z" fill="white"/>
<path d="M13.8756 19.1943C14.4265 19.342 15.0011 19.3797 15.5666 19.3053C16.1321 19.2308 16.6774 19.0458 17.1713 18.7606C17.6653 18.4754 18.0982 18.0958 18.4455 17.6433C18.7927 17.1908 19.0474 16.6743 19.195 16.1234C19.3426 15.5725 19.3802 14.9979 19.3057 14.4324C19.2313 13.8669 19.0462 13.3216 18.7609 12.8277C18.4757 12.3338 18.096 11.9009 17.6435 11.5537C17.191 11.2065 16.6745 10.9519 16.1236 10.8043C15.5726 10.6567 14.998 10.619 14.4326 10.6934C13.8671 10.7678 13.3218 10.9529 12.8278 11.238C12.3339 11.5232 11.9009 11.9029 11.5537 12.3554C11.2065 12.8079 10.9518 13.3243 10.8042 13.8753C10.6566 14.4262 10.619 15.0008 10.6934 15.5663C10.7679 16.1317 10.953 16.677 11.2382 17.1709C11.5234 17.6649 11.9031 18.0978 12.3557 18.445C12.8082 18.7921 13.3247 19.0468 13.8756 19.1943Z" fill="white"/>
<path d="M18.3503 2.40537C17.6678 2.21924 17.2956 1.53677 17.4817 0.916345C17.6678 0.233877 18.3503 -0.138378 18.9707 0.0477498C19.6532 0.233877 20.0254 0.916345 19.8393 1.53677C19.6532 2.1572 19.0328 2.59149 18.3503 2.40537ZM27.5946 11.6497C27.4085 10.9672 27.7808 10.2848 28.4632 10.1607C29.1457 9.97456 29.8282 10.3468 29.9523 11.0293C30.1384 11.7117 29.7661 12.3942 29.0837 12.5183C28.4632 12.7044 27.7808 12.2701 27.5946 11.6497ZM24.1823 24.1823C24.6786 23.686 25.4231 23.686 25.9195 24.1823C26.4158 24.6786 26.4158 25.4231 25.9195 25.9195C25.4231 26.4158 24.6786 26.4158 24.1823 25.9195C23.686 25.4231 23.748 24.6786 24.1823 24.1823ZM11.6497 27.5946C12.3322 27.7808 12.7044 28.4632 12.5183 29.0837C12.3322 29.7661 11.6497 30.1384 11.0293 29.9523C10.3468 29.7661 9.97456 29.0837 10.1607 28.4632C10.2848 27.7808 10.9672 27.4085 11.6497 27.5946ZM2.40537 18.3503C2.59149 19.0328 2.21924 19.7152 1.53677 19.8393C0.854303 20.0254 0.171835 19.6532 0.0477498 18.9707C-0.138378 18.2883 0.233877 17.6058 0.916345 17.4817C1.53677 17.2956 2.21924 17.7299 2.40537 18.3503ZM5.81771 5.81771C5.32137 6.31405 4.57685 6.31405 4.08051 5.81771C3.58417 5.32137 3.58417 4.57685 4.08051 4.08051C4.57685 3.58417 5.32137 3.58417 5.81771 4.08051C6.252 4.51481 6.252 5.32137 5.81771 5.81771Z" fill="white"/>
</svg>
