<svg width="30" height="30" viewBox="0 0 30 30" fill="none" xmlns="http://www.w3.org/2000/svg">
<g clip-path="url(#clip0_2791_4780)">
<path d="M20.548 14.9844C20.5468 15.3005 20.3159 15.5741 19.9935 15.6066C19.9722 15.6079 19.9521 15.6092 19.9295 15.6092C19.6121 15.6092 19.3386 15.3683 19.3073 15.0446L19.301 14.9844H15.0629C15.1533 15.0107 15.2411 15.0509 15.3151 15.1199C15.5698 15.3545 15.5861 15.751 15.3502 16.0069L14.5147 16.9114C14.3905 17.0444 14.2236 17.1135 14.0542 17.1135C13.9025 17.1135 13.7494 17.0582 13.6289 16.9466C13.3742 16.712 13.3579 16.3155 13.5938 16.0596L14.4294 15.155C14.5147 15.0635 14.6239 15.0133 14.738 14.9844H10.7559L21.2167 28.174C21.2292 28.1715 21.2393 28.164 21.2518 28.164C21.5842 28.1364 21.9042 28.381 21.938 28.726L21.9794 29.135L22.135 29.3307L29.9035 14.9844H20.548ZM19.6824 18.8097L19.5569 17.5551C19.523 17.2114 19.774 16.9027 20.1177 16.8689C20.4828 16.84 20.7714 17.0859 20.804 17.4309L20.9294 18.6855C20.9633 19.0292 20.7123 19.3379 20.3686 19.3717C20.346 19.373 20.326 19.3743 20.3046 19.3743C19.9885 19.3755 19.7149 19.1346 19.6824 18.8097ZM20.0612 22.576L19.9345 21.3214C19.8994 20.9776 20.1502 20.669 20.4953 20.6351C20.8127 20.6025 21.1476 20.8509 21.1815 21.1972L21.3083 22.4518C21.3434 22.7955 21.0925 23.1041 20.7474 23.138C20.7261 23.1392 20.706 23.1405 20.6835 23.1405C20.3648 23.1405 20.0938 22.8996 20.0612 22.576ZM21.1226 26.9031C21.1 26.9043 21.08 26.9056 21.0586 26.9056C20.7399 26.9056 20.4677 26.6647 20.4363 26.3398L20.3109 25.0852C20.277 24.7415 20.528 24.4329 20.8717 24.399C21.2318 24.3752 21.5241 24.6161 21.558 24.961L21.6834 26.2156C21.7173 26.5606 21.4676 26.868 21.1226 26.9031Z" fill="white"/>
<path d="M20.8127 29.6876L12.4521 19.1465L12.008 19.6283C11.8837 19.7625 11.7169 19.8303 11.5475 19.8303C11.3957 19.8303 11.2427 19.775 11.1222 19.6647C10.8675 19.4288 10.8512 19.0323 11.0871 18.7776L11.6642 18.1516L9.64305 15.6035L6.425 23.8262L6.9093 23.3018C7.14518 23.0484 7.54162 23.032 7.79502 23.2667C8.04973 23.5013 8.06602 23.8977 7.83013 24.1537L6.99457 25.0582C6.87037 25.1912 6.70352 25.2602 6.53415 25.2602C6.38237 25.2602 6.22928 25.205 6.10884 25.0934C6.05738 25.047 6.02351 24.9893 5.99217 24.9328L5.46023 26.2928C5.5104 26.491 5.47276 26.708 5.3235 26.8686L5.16919 27.0355L4.94336 27.6126L21.0625 30L20.9759 29.8921C20.9068 29.8357 20.8516 29.7679 20.8127 29.6876ZM10.3368 21.4374L9.50126 22.3432C9.37706 22.4775 9.21021 22.5453 9.04084 22.5453C8.88906 22.5453 8.73597 22.49 8.61553 22.3796C8.36083 22.1438 8.34454 21.7473 8.58042 21.4926L9.41599 20.5868C9.65187 20.3321 10.0483 20.317 10.3017 20.5504C10.5564 20.7863 10.5726 21.1827 10.3368 21.4374Z" fill="white"/>
<path d="M13.2208 10.5917C13.2208 10.938 12.9398 11.219 12.5935 11.219H11.9173L10.5234 13.7283H15.9458C15.9546 13.5902 15.9998 13.4535 16.1014 13.3431L16.937 12.4373C17.1728 12.1826 17.5693 12.1675 17.8227 12.4009C18.0774 12.6368 18.0937 13.0332 17.8578 13.2879L17.4513 13.7295H19.1876C19.1864 13.4108 19.4185 13.1361 19.7434 13.1035C20.0596 13.0684 20.3958 13.3192 20.4297 13.6655L20.436 13.7295H26.0716L25.3991 13.4773C25.0755 13.3556 24.9099 12.9943 25.0328 12.6693C25.1545 12.3444 25.5134 12.1801 25.8408 12.3017L26.9499 12.717C27.2736 12.8387 27.4392 13.2 27.3162 13.525C27.2836 13.6115 27.2171 13.668 27.1569 13.7294H28.4742C28.6411 13.5363 28.9146 13.4547 29.1655 13.5488L29.6461 13.7294H29.8091L17.839 0.5625L17.696 0.817203L17.7449 1.01169C17.8277 1.3479 17.6233 1.68793 17.2883 1.77197C17.2431 1.78326 17.2005 1.78703 17.1565 1.78826L12.6124 9.96823C12.9499 9.97823 13.2208 10.2518 13.2208 10.5917ZM21.7094 11.4235C21.8311 11.0986 22.195 10.9355 22.5174 11.0572L23.6252 11.4725C23.9501 11.5941 24.1145 11.9555 23.9915 12.2804C23.8974 12.5326 23.6578 12.6869 23.4044 12.6869C23.3303 12.6869 23.2564 12.6744 23.1836 12.6468L22.0758 12.2315C21.7496 12.1098 21.5865 11.7485 21.7094 11.4235ZM19.9493 9.83274L20.022 10.1213L20.3005 10.2255C20.6255 10.3471 20.7898 10.7098 20.6669 11.0334C20.5815 11.2618 20.3721 11.3948 20.1449 11.4199C20.0671 11.6432 19.8689 11.8151 19.618 11.8402C19.5967 11.8414 19.5754 11.8427 19.554 11.8427C19.3897 11.8427 19.2379 11.775 19.125 11.6671C19.1049 11.6683 19.0873 11.6783 19.0673 11.6783C18.9155 11.6783 18.7624 11.6231 18.6419 11.5127C18.5077 11.3885 18.4437 11.2192 18.445 11.0498C18.3196 10.9356 18.238 10.7738 18.238 10.5906C18.238 10.2933 18.4488 10.0562 18.726 9.99093C18.7223 9.70612 18.9017 9.44518 19.189 9.37367C19.5252 9.28945 19.8652 9.49523 19.9493 9.83274ZM19.1225 6.52559L19.3985 7.62715C19.4813 7.96336 19.278 8.3034 18.9418 8.38744C18.8917 8.39996 18.8402 8.40626 18.79 8.40626C18.5077 8.40626 18.2518 8.21683 18.1815 7.93078L17.9055 6.82922C17.8227 6.49301 18.0247 6.15297 18.3622 6.06894C18.6922 5.98237 19.0384 6.18938 19.1225 6.52559ZM17.5354 2.76056C17.8641 2.67276 18.2116 2.881 18.2957 3.21721L18.5717 4.32001C18.6545 4.65622 18.4512 4.99625 18.115 5.08029C18.0649 5.09282 18.0134 5.09911 17.9632 5.09911C17.6809 5.09911 17.425 4.90969 17.3547 4.62364L17.0787 3.52085C16.9959 3.18457 17.1992 2.8446 17.5354 2.76056ZM15.1015 9.9657H16.3561C16.7024 9.9657 16.9834 10.2468 16.9834 10.593C16.9834 10.9393 16.7024 11.2203 16.3561 11.2203H15.1015C14.7552 11.2203 14.4742 10.9393 14.4742 10.593C14.4742 10.2468 14.7552 9.9657 15.1015 9.9657Z" fill="white"/>
<path d="M1.30038 9.96654C1.5325 9.96654 1.72568 10.097 1.8336 10.2839L3.29519 10.9338C3.22997 10.8347 3.18227 10.7218 3.18227 10.5939C3.18227 10.2476 3.46332 9.96654 3.80959 9.96654H5.06417C5.41044 9.96654 5.69149 10.2476 5.69149 10.5939C5.69149 10.9401 5.41044 11.2211 5.06417 11.2211H3.94256L9.1843 13.5509L10.74 10.7506C10.7262 10.6992 10.7086 10.6503 10.7086 10.5938C10.7086 10.3115 10.8981 10.0819 11.1553 10.0029L16.3682 0.618498C16.343 0.358796 16.4773 0.120442 16.7081 0.00623379L16.7119 0C16.6918 0.00876259 16.6705 0.0125264 16.6529 0.0238178L0.755859 9.80593L1.11971 9.96654H1.30038ZM7.57339 9.96654H8.82797C9.17424 9.96654 9.45529 10.2476 9.45529 10.5939C9.45529 10.9401 9.17424 11.2212 8.82797 11.2212H7.57339C7.22712 11.2212 6.94607 10.9401 6.94607 10.5939C6.94607 10.2476 7.22712 9.96654 7.57339 9.96654Z" fill="white"/>
<path d="M0.852945 11.221H0.673517C0.441397 11.221 0.248208 11.0905 0.140293 10.9036L0.0976562 10.8848L3.82382 27.0315L3.83134 27.0126C3.79747 26.8257 3.83764 26.6275 3.9769 26.4782L4.08481 26.3603L8.65154 14.6862L0.852945 11.221Z" fill="white"/>
</g>
<defs>
<clipPath id="clip0_2791_4780">
<rect width="30" height="30" fill="white"/>
</clipPath>
</defs>
</svg>
