<svg width="28" height="30" viewBox="0 0 28 30" fill="none" xmlns="http://www.w3.org/2000/svg">
<path d="M14.0011 10.9102C11.7453 10.9102 9.91016 12.7453 9.91016 15.0011C9.91016 17.257 11.7453 19.0921 14.0011 19.0921C16.257 19.0921 18.0921 17.257 18.0921 15.0011C18.0921 12.7453 16.257 10.9102 14.0011 10.9102ZM14.0011 18.0011C12.3469 18.0011 11.0011 16.6553 11.0011 15.0011C11.0011 13.347 12.347 12.0011 14.0011 12.0011C15.6553 12.0011 17.0011 13.347 17.0011 15.0011C17.0011 16.6553 15.6551 18.0011 14.0011 18.0011Z" fill="white"/>
<path d="M25.1656 18.1122C25.1668 18.0976 25.1741 18.0851 25.1741 18.0702V11.8858C26.4354 11.5312 27.3638 10.3733 27.3638 9C27.3638 7.34573 26.018 6 24.3638 6C23.5419 6 22.7966 6.33266 22.2542 6.86986C21.3802 6.3626 20.4416 5.80857 19.5226 5.26567C18.5935 4.71667 17.6928 4.18516 16.9065 3.7297C16.9654 3.49561 17.0001 3.25198 17.0001 2.99987C17.0003 1.34586 15.6543 0 14.0003 0C12.3462 0 11.0003 1.34586 11.0003 3C11.0003 3.27317 11.0402 3.53667 11.109 3.78825L5.74235 6.86642C5.20024 6.33133 4.45663 6 3.63672 6C1.98245 6 0.636719 7.34586 0.636719 9C0.636719 10.3732 1.56514 11.5312 2.82647 11.8858V18.0605C2.82647 18.0787 2.83508 18.0939 2.83681 18.1117C1.5703 18.463 0.636719 19.6231 0.636719 21.0001C0.636719 22.6544 1.98258 24.0001 3.63672 24.0001C4.44551 24.0001 5.17931 23.677 5.71943 23.1546C6.62374 23.6775 7.60501 24.248 8.56695 24.8073C9.45893 25.3259 10.3244 25.829 11.0931 26.2737C11.0349 26.5068 11.0005 26.7491 11.0005 27C11.0005 28.6543 12.3463 30 14.0005 30C15.6546 30 17.0005 28.6541 17.0005 27C17.0005 26.7337 16.9622 26.4767 16.8967 26.2307C17.7822 25.7205 18.7631 25.1581 19.7227 24.6086C20.6369 24.0847 21.5184 23.5794 22.2714 23.1455C22.8125 23.6733 23.5504 24.0001 24.3641 24.0001C26.0183 24.0001 27.3641 22.6543 27.3641 21.0001C27.3641 19.6239 26.4314 18.4641 25.1656 18.1122ZM24.3641 7.09097C25.4166 7.09097 26.2732 7.94745 26.2732 9.00013C26.2732 10.0528 25.4168 10.9093 24.3641 10.9093C23.3114 10.9093 22.4549 10.0528 22.4549 9.00013C22.4549 7.94745 23.3115 7.09097 24.3641 7.09097ZM14.0003 1.09097C15.0529 1.09097 15.9095 1.94745 15.9095 3.00013C15.9095 4.05282 15.053 4.9093 14.0003 4.9093C12.9476 4.9093 12.091 4.05255 12.091 3C12.091 1.94745 12.9478 1.09097 14.0003 1.09097ZM1.72742 9.00013C1.72742 7.94758 2.5839 7.09097 3.63659 7.09097C4.68927 7.09097 5.54575 7.94745 5.54575 9.00013C5.54575 10.0528 4.68927 10.9093 3.63659 10.9093C2.5839 10.9093 1.72742 10.0527 1.72742 9.00013ZM3.63659 22.9093C2.58404 22.9093 1.72742 22.0528 1.72742 21.0001C1.72742 19.9475 2.5839 19.091 3.63659 19.091C4.68927 19.091 5.54575 19.9475 5.54575 21.0001C5.54575 22.0528 4.68914 22.9093 3.63659 22.9093ZM14.0003 28.9093C12.9478 28.9093 12.0912 28.0528 12.0912 27.0001C12.0912 25.9475 12.9476 25.091 14.0003 25.091C15.053 25.091 15.9095 25.9475 15.9095 27.0001C15.9095 28.0528 15.0529 28.9093 14.0003 28.9093ZM21.3637 21.0001C21.3637 21.4466 21.4644 21.8689 21.6399 22.2501C20.9066 22.6727 20.0586 23.1585 19.1799 23.6622C18.2464 24.197 17.293 24.7435 16.4263 25.2427C15.8806 24.4914 14.9976 24.0001 14.0002 24.0001C12.9874 24.0001 12.092 24.5061 11.5484 25.277C10.8031 24.8456 9.97123 24.3621 9.11501 23.8643C8.18395 23.3228 7.23513 22.7713 6.35454 22.2617C6.53352 21.8775 6.63645 21.4511 6.63645 21.0001C6.63645 19.4407 5.44016 18.1565 3.91718 18.0143V11.9858C5.44016 11.8437 6.63659 10.5595 6.63659 9C6.63659 8.55964 6.53882 8.14259 6.36765 7.76542L11.5855 4.77271C12.1321 5.51526 13.0095 6 14.0002 6C15.0118 6 15.9061 5.49539 16.4497 4.72608C17.2126 5.16856 18.0762 5.67834 18.9675 6.20481C19.8626 6.73341 20.776 7.27247 21.6308 7.7694C21.4608 8.14537 21.3638 8.56123 21.3638 9C21.3638 10.5594 22.5601 11.8437 24.0831 11.9858V18.0143C22.5601 18.1565 21.3637 19.4406 21.3637 21.0001ZM24.3641 22.9093C23.3115 22.9093 22.4549 22.0528 22.4549 21.0001C22.4549 19.9475 23.3114 19.091 24.3641 19.091C25.4168 19.091 26.2732 19.9475 26.2732 21.0001C26.2732 22.0528 25.4166 22.9093 24.3641 22.9093Z" fill="white"/>
<circle cx="14.0012" cy="15.0188" r="3.01875" fill="white"/>
<circle cx="3.63125" cy="21.0004" r="1.9125" fill="white"/>
<circle cx="14.0004" cy="27.0004" r="1.9125" fill="white"/>
<circle cx="24.3871" cy="21.0004" r="1.9125" fill="white"/>
<circle cx="24.3871" cy="9.00039" r="1.9125" fill="white"/>
<circle cx="14.0004" cy="3.0375" r="1.9125" fill="white"/>
<circle cx="3.65078" cy="9.00039" r="1.9125" fill="white"/>
</svg>
