<svg width="24" height="24" viewBox="0 0 24 24" fill="none" xmlns="http://www.w3.org/2000/svg">
<path d="M1.40047 12.7197C0.98309 9.8189 0.774398 8.36853 1.3689 7.12846C1.96341 5.88838 3.22881 5.13459 5.7596 3.62701L7.28292 2.71957C9.58114 1.35053 10.7303 0.666016 12 0.666016C13.2697 0.666016 14.4189 1.35053 16.717 2.71957L18.2404 3.62701C20.7712 5.13459 22.0366 5.88838 22.6311 7.12846C23.2256 8.36853 23.0169 9.8189 22.5995 12.7197L22.2929 14.8507C21.7567 18.577 21.4886 20.4401 20.1961 21.553C18.9035 22.666 17.0079 22.666 13.2167 22.666H10.7833C6.9921 22.666 5.0965 22.666 3.80393 21.553C2.51135 20.4401 2.24327 18.577 1.70712 14.8507L1.40047 12.7197Z" stroke="currentColor" stroke-width="1.2"/>
<path d="M12 14.9668V18.2668" stroke="currentColor" stroke-width="1.2" stroke-linecap="round"/>
</svg>
