<svg width="18" height="18" viewBox="0 0 20 20" fill="none" xmlns="http://www.w3.org/2000/svg">
<g clip-path="url(#clip0_2312_1881)">
<path d="M18.75 13.3812L17.8688 12.5L15.625 14.7438L13.3812 12.5L12.5 13.3812L14.7438 15.625L12.5 17.8688L13.3812 18.75L15.625 16.5062L17.8688 18.75L18.75 17.8688L16.5062 15.625L18.75 13.3812Z" fill="#009400"/>
<path d="M8.75 16.25C6.76088 16.25 4.85322 15.4598 3.4467 14.0533C2.04018 12.6468 1.25 10.7391 1.25 8.75C1.25 6.76088 2.04018 4.85322 3.4467 3.4467C4.85322 2.04018 6.76088 1.25 8.75 1.25V16.25Z" fill="#009400"/>
<path d="M11.1411 2.97677C11.8987 3.29145 12.5872 3.7518 13.1675 4.3317L14.0508 3.44827C13.3546 2.75242 12.5285 2.19998 11.6196 1.82227L11.1411 2.97677Z" fill="#009400"/>
<path d="M16.2499 8.75011C16.2503 7.76524 16.0556 6.79005 15.677 5.88086L14.5225 6.35905C14.8379 7.11672 15.0002 7.92938 14.9999 8.75011H16.2499Z" fill="#009400"/>
</g>
<defs>
<clipPath id="clip0_2312_1881">
<rect width="20" height="20" fill="white"/>
</clipPath>
</defs>
</svg>
