<svg width="20" height="20" viewBox="0 0 20 20" fill="none" xmlns="http://www.w3.org/2000/svg">
<path fill-rule="evenodd" clip-rule="evenodd" d="M10 20C4.477 20 0 15.523 0 10C0 4.477 4.477 0 10 0C15.523 0 20 4.477 20 10C20 15.523 15.523 20 10 20ZM10 18.8C12.3339 18.8 14.5722 17.8729 16.2225 16.2225C17.8729 14.5722 18.8 12.3339 18.8 10C18.8 7.66609 17.8729 5.42778 16.2225 3.77746C14.5722 2.12714 12.3339 1.2 10 1.2C7.66609 1.2 5.42778 2.12714 3.77746 3.77746C2.12714 5.42778 1.2 7.66609 1.2 10C1.2 12.3339 2.12714 14.5722 3.77746 16.2225C5.42778 17.8729 7.66609 18.8 10 18.8ZM9.4 8H10.6V15H9.4V8ZM10 7C9.73478 7 9.48043 6.89464 9.29289 6.70711C9.10536 6.51957 9 6.26522 9 6C9 5.73478 9.10536 5.48043 9.29289 5.29289C9.48043 5.10536 9.73478 5 10 5C10.2652 5 10.5196 5.10536 10.7071 5.29289C10.8946 5.48043 11 5.73478 11 6C11 6.26522 10.8946 6.51957 10.7071 6.70711C10.5196 6.89464 10.2652 7 10 7Z" fill="#0069BD"/>
</svg>
