<svg width="56" height="57" viewBox="0 0 56 57" fill="none" xmlns="http://www.w3.org/2000/svg">
<rect x="4" y="4.40234" width="48" height="48" rx="24" fill="#0069BD" fill-opacity="0.2"/>
<rect x="4" y="4.40234" width="48" height="48" rx="24" stroke="#ECF7FF" stroke-width="8"/>
<path d="M23.7735 21.8477C22.1627 22.9166 20.9389 24.4759 20.2833 26.2946C19.6277 28.1133 19.5752 30.0947 20.1334 31.9456C20.6917 33.7965 21.8311 35.4184 23.383 36.5713C24.9349 37.7241 26.8168 38.3466 28.75 38.3466C30.6832 38.3466 32.5651 37.7241 34.117 36.5713C35.6689 35.4184 36.8083 33.7965 37.3666 31.9456C37.9248 30.0947 37.8723 28.1133 37.2167 26.2946C36.5611 24.4759 35.3373 22.9166 33.7265 21.8477M28.7505 18.3477V26.3477" stroke="#0069BD" stroke-width="2" stroke-linecap="round" stroke-linejoin="round"/>
</svg>
