<svg width="16" height="16" viewBox="0 0 16 16" fill="none" xmlns="http://www.w3.org/2000/svg">
<path d="M16 8C16 12.4182 12.4182 16 8 16C3.58172 16 0 12.4182 0 8C0 3.58172 3.58172 0 8 0C12.4182 0 16 3.58172 16 8Z" fill="#0069BD"/>
<path fill-rule="evenodd" clip-rule="evenodd" d="M8.00009 4.19922C8.33145 4.19922 8.60009 4.46785 8.60009 4.79922V7.75066L10.4243 9.57498C10.6586 9.8093 10.6586 10.1891 10.4243 10.4235C10.19 10.6578 9.81017 10.6578 9.57585 10.4235L7.57585 8.42346C7.46329 8.31098 7.40009 8.15834 7.40009 7.99922V4.79922C7.40009 4.46785 7.66873 4.19922 8.00009 4.19922Z" fill="white"/>
</svg>
