<svg width="30" height="31" viewBox="0 0 30 31" fill="none" xmlns="http://www.w3.org/2000/svg">
<path d="M26.0368 25.2521C26.1825 24.7029 26.3211 24.1272 26.4532 23.5295C26.477 23.4171 26.4403 23.298 26.356 23.2204C26.2701 23.1405 26.1518 23.1124 26.0393 23.1481C25.5064 23.3115 24.9376 23.4726 24.3356 23.6284C24.2172 23.6573 24.1261 23.7535 24.0997 23.8719C23.9676 24.461 23.8282 25.0263 23.6825 25.5662C23.6536 25.6786 23.6843 25.7978 23.7669 25.8794C23.8282 25.9425 23.9124 25.9766 23.9984 25.9766C24.0257 25.9766 24.0528 25.9731 24.0801 25.9664C24.6939 25.808 25.2747 25.6446 25.8178 25.4793C25.9243 25.4488 26.0079 25.3609 26.0368 25.2521Z" fill="white"/>
<path d="M27.1733 18.9194C27.2228 18.3865 27.2576 17.8449 27.279 17.2967C27.2831 17.1903 27.2346 17.0872 27.1504 17.0242C27.0636 16.9594 26.9521 16.939 26.8517 16.9739C26.3365 17.1424 25.7814 17.3152 25.188 17.4813C25.0535 17.519 24.9573 17.6388 24.9513 17.7786C24.9214 18.3234 24.8806 18.8599 24.8279 19.3877C24.8168 19.4949 24.8603 19.6006 24.9428 19.6705C25.0023 19.7208 25.0765 19.7472 25.1523 19.7472C25.182 19.7472 25.2118 19.7421 25.2426 19.7335C25.8572 19.5564 26.4286 19.3759 26.9529 19.1988C27.0754 19.1595 27.1623 19.0482 27.1733 18.9194Z" fill="white"/>
<path d="M26.749 22.0443C26.846 21.5002 26.9363 20.941 27.0113 20.3688C27.0257 20.2581 26.9822 20.1475 26.8963 20.0759C26.8103 20.0044 26.6962 19.9807 26.5872 20.0164C26.0618 20.185 25.4965 20.3537 24.8954 20.5189C24.7703 20.5529 24.6767 20.6585 24.6588 20.7879C24.5797 21.3532 24.4911 21.9059 24.3906 22.4431C24.3692 22.5537 24.4077 22.6669 24.4901 22.7427C24.5506 22.7989 24.6288 22.8295 24.7107 22.8295C24.7397 22.8295 24.7686 22.826 24.7984 22.8168C25.4156 22.6456 25.9938 22.4718 26.5283 22.2984C26.6433 22.2607 26.7284 22.1637 26.749 22.0443Z" fill="white"/>
<path d="M24.346 15.7926C24.3452 15.63 24.3401 15.4708 24.3366 15.3105L24.334 15.2306C24.3299 15.0535 24.185 14.9121 24.0079 14.9121H22.3544C22.266 14.9121 22.1824 14.948 22.1203 15.0101C22.0598 15.0731 22.0267 15.1583 22.0282 15.2461L22.03 15.326C22.0341 15.4784 22.0377 15.6325 22.0394 15.7875C22.0428 16.2455 22.0343 16.7003 22.0198 17.1488C22.0157 17.2493 22.0589 17.3455 22.1365 17.4103C22.1952 17.4598 22.2694 17.4871 22.3459 17.4871C22.3681 17.4871 22.3909 17.4836 22.4131 17.4793C22.9955 17.3559 23.5574 17.2246 24.0921 17.0867C24.2319 17.051 24.3323 16.9251 24.3356 16.7794C24.3445 16.4523 24.3486 16.1246 24.346 15.7926Z" fill="white"/>
<path d="M21.6108 23.5532C21.6312 23.5532 21.6516 23.5516 21.6721 23.5473C22.2613 23.4342 22.83 23.3114 23.3758 23.182C23.5001 23.153 23.5945 23.0544 23.62 22.9301C23.7316 22.38 23.8355 21.8165 23.9256 21.2356C23.9419 21.1266 23.9044 21.0194 23.8252 20.9444C23.7452 20.8712 23.6336 20.8439 23.528 20.8678C22.9915 20.9946 22.4331 21.1146 21.8532 21.2254C21.7187 21.2509 21.6139 21.3589 21.5927 21.4944C21.5014 22.065 21.401 22.6234 21.2895 23.1616C21.2681 23.2688 21.3022 23.3796 21.3771 23.4562C21.4413 23.5192 21.5238 23.5532 21.6108 23.5532Z" fill="white"/>
<path d="M21.0786 20.4652C21.1526 19.9178 21.2139 19.3584 21.2642 18.7905C21.2736 18.6909 21.2353 18.5902 21.1611 18.5222C21.0872 18.4541 20.9824 18.4227 20.8862 18.4404C20.3507 18.5291 19.799 18.6083 19.2335 18.677C19.0811 18.6958 18.9611 18.8183 18.9484 18.9725C18.8989 19.5336 18.8359 20.0811 18.7628 20.6201C18.7491 20.7206 18.7823 20.8202 18.853 20.8926C18.9152 20.9557 18.9996 20.9906 19.0872 20.9906C19.0999 20.9906 19.1127 20.9897 19.1263 20.9879C19.7036 20.9172 20.2639 20.833 20.8112 20.7418C20.9502 20.7206 21.059 20.6066 21.0786 20.4652Z" fill="white"/>
<path d="M22.8464 26.0894C23.0047 25.5428 23.1571 24.9672 23.3027 24.3635C23.3281 24.2545 23.2967 24.1388 23.2173 24.0579C23.1382 23.978 23.0241 23.9447 22.9143 23.9684C22.3763 24.086 21.8202 24.1976 21.2438 24.2989C21.1161 24.321 21.014 24.4173 20.9832 24.5441C20.8411 25.135 20.6912 25.6986 20.5379 26.2333C20.5072 26.3413 20.5337 26.4571 20.6095 26.5414C20.6708 26.6113 20.7603 26.6504 20.8513 26.6504C20.8691 26.6504 20.8872 26.6486 20.9058 26.6453C21.4892 26.5449 22.0561 26.436 22.6012 26.3184C22.7194 26.2928 22.814 26.2042 22.8464 26.0894Z" fill="white"/>
<path d="M25.1225 16.6704C25.1806 16.7139 25.2503 16.736 25.321 16.736C25.3517 16.736 25.3823 16.7325 25.4121 16.724C26.0116 16.5487 26.5718 16.3699 27.0817 16.1961C27.2154 16.1503 27.3047 15.9339 27.304 15.7926C27.3032 15.63 27.2989 15.4699 27.2947 15.309L27.2928 15.2306C27.2887 15.0535 27.1439 14.9121 26.9669 14.9121H25.3125C25.2248 14.9121 25.1413 14.948 25.0791 15.0101C25.0178 15.0731 24.9847 15.1583 24.9864 15.2461L24.9882 15.3245C24.9923 15.4786 24.9967 15.6318 24.9984 15.7875C25.0002 15.9944 24.9976 16.1996 24.9943 16.404C24.9923 16.5094 25.041 16.6074 25.1225 16.6704Z" fill="white"/>
<path d="M24.1185 19.8231C24.1815 19.2798 24.2351 18.7281 24.2734 18.1663C24.2802 18.0624 24.2368 17.9619 24.1567 17.8938C24.0768 17.8274 23.9694 17.8035 23.8689 17.8274C23.3385 17.9568 22.7825 18.0811 22.2061 18.1978C22.0632 18.226 21.9566 18.3476 21.9438 18.4933C21.9022 19.0484 21.8502 19.595 21.7836 20.1289C21.771 20.2336 21.8093 20.3376 21.8867 20.4081C21.9472 20.4635 22.0265 20.4949 22.1082 20.4949C22.1294 20.4949 22.1516 20.4931 22.1737 20.489C22.762 20.3663 23.3308 20.2379 23.8722 20.1023C24.0043 20.07 24.1023 19.9595 24.1185 19.8231Z" fill="white"/>
<path d="M14.6733 3.93498C14.6733 3.84734 14.6384 3.76431 14.5749 3.70264C14.5128 3.64131 14.4528 3.6081 14.3395 3.60941C13.996 3.61632 13.6541 3.62766 13.3139 3.64608C13.1816 3.65299 13.0656 3.74013 13.0227 3.86658C12.7629 4.62772 12.5209 5.41567 12.3029 6.20937C12.2747 6.31115 12.2973 6.42099 12.3645 6.50222C12.4267 6.57885 12.5199 6.62226 12.6164 6.62226C12.6241 6.62226 12.6322 6.62226 12.6391 6.62143C13.1946 6.58329 13.771 6.55796 14.3518 6.54744C14.5302 6.54399 14.6724 6.39847 14.6724 6.22055V3.93498H14.6733Z" fill="white"/>
<path d="M14.674 15.2393C14.674 15.0588 14.5275 14.9141 14.3471 14.9141H11.2582C11.0811 14.9141 10.9362 15.0553 10.9321 15.2317L10.9295 15.3092C10.926 15.471 10.9219 15.631 10.9209 15.7944C10.9155 16.4271 10.9319 17.0732 10.9712 17.7699C10.9811 17.93 11.1015 18.0585 11.2598 18.0764C12.2964 18.1956 13.3331 18.2653 14.3412 18.284C14.3429 18.284 14.3455 18.284 14.3471 18.284C14.4335 18.284 14.5145 18.2518 14.5759 18.1905C14.6393 18.1301 14.6742 18.0458 14.6742 17.9572L14.674 15.2393Z" fill="white"/>
<path d="M14.6749 11.1163C14.6749 11.0286 14.64 10.9443 14.5765 10.8821C14.5152 10.8218 14.4254 10.7817 14.3419 10.7902C13.4291 10.8073 12.4891 10.8668 11.55 10.9655C11.4001 10.9808 11.2805 11.0965 11.2605 11.2447C11.1375 12.1259 11.048 13.0225 10.991 13.9114C10.9849 14.0017 11.0165 14.0903 11.0791 14.1548C11.1404 14.2212 11.2264 14.2589 11.3162 14.2589H14.3478C14.5283 14.2589 14.6747 14.1123 14.6747 13.9318V11.1163H14.6749Z" fill="white"/>
<path d="M11.5348 6.50392C11.7409 5.7168 11.9707 4.93296 12.2185 4.17609C12.2526 4.07135 12.2325 3.95724 12.1636 3.87091C12.0947 3.78459 11.9849 3.742 11.8775 3.74874C11.1137 3.8229 10.3317 3.92336 9.5556 4.05063C9.43475 4.06888 9.33592 4.15455 9.29761 4.27031C9.03962 5.05234 8.80251 5.8587 8.59056 6.66457C8.56294 6.77276 8.59056 6.88688 8.66554 6.96909C8.72852 7.03684 8.81583 7.07433 8.90643 7.07433C8.92469 7.07433 8.9431 7.0735 8.96218 7.07005C9.72414 6.93851 10.4956 6.82966 11.256 6.74563C11.3893 6.73133 11.5011 6.63382 11.5348 6.50392Z" fill="white"/>
<path d="M11.1307 7.56078C11.06 7.48169 10.96 7.44157 10.8484 7.45604C10.069 7.55305 9.27954 7.67786 8.50492 7.82683C8.37765 7.85034 8.27537 7.949 8.24742 8.07512C8.06901 8.87112 7.91527 9.66384 7.79145 10.4335C7.77403 10.5383 7.80971 10.6456 7.88633 10.7196C7.94766 10.7775 8.02939 10.8117 8.11407 10.8117C8.13413 10.8117 8.15501 10.8083 8.17573 10.8048C8.92931 10.6583 9.70443 10.5315 10.4802 10.4294C10.6233 10.4115 10.7366 10.3008 10.7594 10.1578C10.885 9.39664 11.034 8.61856 11.2081 7.85133C11.232 7.74823 11.2022 7.63921 11.1307 7.56078Z" fill="white"/>
<path d="M18.5539 24.01C18.5667 24.01 18.5771 24.0092 18.5881 24.0084C19.1593 23.9471 19.7179 23.8739 20.262 23.7904C20.3957 23.77 20.502 23.6679 20.532 23.5376C20.6528 22.9884 20.7661 22.4231 20.8674 21.8399C20.8852 21.7368 20.8511 21.6312 20.7771 21.5563C20.704 21.4804 20.5992 21.4472 20.4961 21.4627C19.9598 21.5452 19.4089 21.6184 18.8452 21.6806C18.7004 21.6968 18.5838 21.8057 18.5591 21.9497C18.4621 22.5226 18.3523 23.0777 18.2355 23.6159C18.2143 23.7172 18.2415 23.8246 18.3123 23.902C18.3733 23.9709 18.4628 24.01 18.5539 24.01Z" fill="white"/>
<path d="M14.6743 7.52545C14.6743 7.43731 14.6394 7.3546 14.5767 7.29245C14.5146 7.23161 14.4538 7.20185 14.3413 7.19922C13.663 7.21237 12.9576 7.24904 12.2463 7.30906C12.1059 7.32139 11.9888 7.42153 11.9559 7.5585C11.7724 8.32901 11.6086 9.11581 11.472 9.89471C11.4537 9.99518 11.4843 10.0981 11.5529 10.1731C11.6159 10.2403 11.7032 10.278 11.7938 10.278C11.8031 10.278 11.813 10.278 11.8232 10.277C12.6639 10.1979 13.5155 10.1519 14.3515 10.1358C14.5296 10.1331 14.6724 9.98762 14.6724 9.8097V7.52528L14.6743 7.52545Z" fill="white"/>
<path d="M21.7364 2.46884C21.7066 2.39123 21.6487 2.32907 21.5747 2.29257C20.9795 2.00219 20.3461 1.74519 19.6922 1.5306C19.573 1.48966 19.4385 1.52469 19.3526 1.61709C19.2658 1.70868 19.2402 1.84351 19.2862 1.96141C19.4233 2.30408 19.5672 2.67882 19.7178 3.09811C19.7596 3.21272 19.8591 3.29444 19.9793 3.31105C20.5439 3.39145 21.0921 3.48222 21.6252 3.58137C21.6448 3.58482 21.6652 3.58729 21.6847 3.58729C21.7791 3.58729 21.8712 3.54569 21.9334 3.47153C22.01 3.38241 22.0314 3.25876 21.9914 3.14892C21.9033 2.90737 21.8189 2.68178 21.7364 2.46884Z" fill="white"/>
<path d="M25.249 12.3038C25.1441 12.274 25.0327 12.297 24.9502 12.3651C24.8667 12.435 24.8234 12.5404 24.8335 12.6488C24.8752 13.0753 24.9084 13.5112 24.9347 13.9532C24.9449 14.1252 25.088 14.2607 25.2608 14.2607H26.9109C27.0011 14.2607 27.0861 14.223 27.1483 14.1584C27.2096 14.0929 27.242 14.0035 27.2359 13.914C27.2206 13.6459 27.1993 13.3811 27.1781 13.1189C27.1662 12.9903 27.0801 12.8796 26.9566 12.8387C26.4324 12.6616 25.8618 12.481 25.249 12.3038Z" fill="white"/>
<path d="M25.4756 5.18638C24.929 5.02507 24.349 4.86722 23.7369 4.71463C23.6229 4.68651 23.5019 4.72154 23.4218 4.80572C23.3411 4.89139 23.312 5.01258 23.346 5.12488C23.5812 5.90872 23.7941 6.70817 23.9804 7.49908C24.0067 7.61747 24.0988 7.7107 24.2164 7.74046C24.8192 7.89387 25.3887 8.05255 25.9235 8.21566C25.9542 8.22553 25.9864 8.22964 26.0178 8.22964C26.0996 8.22964 26.1796 8.19889 26.2408 8.14151C26.3261 8.06143 26.3618 7.94271 26.3354 7.83024C26.1456 7.01072 25.93 6.19466 25.6967 5.40655C25.6627 5.30049 25.581 5.21746 25.4756 5.18638Z" fill="white"/>
<path d="M26.4272 9.07206C25.8906 8.89974 25.3118 8.7261 24.6936 8.5569C24.5864 8.52632 24.468 8.55526 24.3854 8.6327C24.3019 8.70933 24.2646 8.82394 24.2883 8.93542C24.4356 9.69163 24.5642 10.4689 24.6706 11.2445C24.6877 11.3739 24.7812 11.4811 24.9072 11.5161C25.5082 11.6804 26.0728 11.8508 26.5972 12.0185C26.6296 12.0295 26.6626 12.0348 26.6968 12.0348C26.7716 12.0348 26.8456 12.0093 26.9045 11.9598C26.9905 11.8882 27.0339 11.7777 27.0204 11.6679C26.9232 10.8921 26.7965 10.1029 26.6473 9.32249C26.6255 9.20492 26.5403 9.10856 26.4272 9.07206Z" fill="white"/>
<path d="M16.7036 6.58635C16.7097 6.58717 16.7156 6.58717 16.7199 6.58717C16.8179 6.58717 16.9124 6.54212 16.9746 6.46467C17.0394 6.38246 17.0622 6.27427 17.0341 6.17347C16.8144 5.37747 16.5734 4.59199 16.3154 3.83939C16.2705 3.71212 16.152 3.62317 16.0166 3.61889L15.6582 3.61133C15.5697 3.61297 15.4867 3.64224 15.4232 3.70374C15.3592 3.76458 15.3242 3.84942 15.3242 3.93739V6.2223C15.3242 6.40038 15.4665 6.54492 15.6435 6.54919C16.0012 6.55692 16.3555 6.56925 16.7036 6.58635Z" fill="white"/>
<path d="M7.33825 15.311C7.33398 15.472 7.33069 15.6311 7.32888 15.7946C7.32543 16.2561 7.33398 16.7151 7.35059 17.1687C7.35568 17.3187 7.46207 17.4438 7.60759 17.476C8.36035 17.6387 9.14155 17.7802 9.92868 17.8993C9.94529 17.9019 9.96189 17.9034 9.97768 17.9034C10.0586 17.9034 10.136 17.8736 10.1965 17.819C10.2697 17.7543 10.309 17.6581 10.3037 17.5604C10.2748 16.9403 10.2625 16.3615 10.2671 15.7893C10.2689 15.6328 10.2722 15.4804 10.2764 15.3263L10.2781 15.2479C10.2799 15.1594 10.2472 15.075 10.1849 15.0121C10.124 14.9497 10.0393 14.9141 9.95203 14.9141H7.66613C7.48937 14.9141 7.34467 15.0553 7.34006 15.2326L7.33825 15.311Z" fill="white"/>
<path d="M15.3262 9.81408C15.3262 9.99117 15.4674 10.1369 15.6454 10.1401C16.2891 10.1546 16.9208 10.1852 17.521 10.2296C17.5295 10.2296 17.5373 10.2296 17.545 10.2296C17.6377 10.2296 17.7247 10.1905 17.7869 10.1224C17.855 10.0474 17.8839 9.9471 17.866 9.8473C17.7323 9.08105 17.568 8.29722 17.3806 7.51519C17.3475 7.37543 17.2265 7.27512 17.0843 7.26493C16.616 7.235 16.1409 7.21429 15.659 7.2036C15.5695 7.1985 15.4865 7.235 15.4227 7.29633C15.3601 7.35717 15.3242 7.44202 15.3242 7.52966V9.81408H15.3262Z" fill="white"/>
<path d="M15.6453 24.8533C15.4674 24.8568 15.3262 25.0023 15.3262 25.1794V26.8331C15.3262 26.9207 15.361 27.0041 15.425 27.0662C15.485 27.1259 15.5667 27.1583 15.6532 27.1583C15.6559 27.1583 15.6573 27.1583 15.6605 27.1583C15.9043 27.1532 16.147 27.1455 16.3897 27.1345C16.5268 27.1276 16.646 27.0373 16.687 26.9046C16.8504 26.3776 17.0131 25.813 17.1689 25.2187C17.1954 25.1184 17.1724 25.011 17.1068 24.9291C17.0405 24.8484 16.9399 24.7997 16.8361 24.8099C16.4433 24.8305 16.0465 24.8441 15.6453 24.8533Z" fill="white"/>
<path d="M15.5947 29.2628C15.6146 29.2663 15.6328 29.2678 15.6522 29.2678C15.7866 29.2678 15.9101 29.1844 15.9587 29.055C16.0523 28.7978 16.1501 28.527 16.2499 28.2393C16.2848 28.1388 16.2677 28.0263 16.2041 27.9397C16.1419 27.8528 16.037 27.8066 15.9324 27.8066L15.6439 27.8117C15.4676 27.8168 15.3262 27.9617 15.3262 28.1371V28.9409C15.326 29.0994 15.44 29.2337 15.5947 29.2628Z" fill="white"/>
<path d="M15.5693 1.52428C15.5892 1.52083 15.6074 1.51935 15.6268 1.51935C15.7612 1.51935 15.8847 1.60271 15.9333 1.73212C16.0269 1.98929 16.1247 2.2601 16.2245 2.54786C16.2594 2.64832 16.2423 2.76079 16.1787 2.84744C16.1165 2.93426 16.0116 2.98047 15.907 2.98047L15.6185 2.97537C15.4422 2.97027 15.3008 2.82541 15.3008 2.64997V1.84623C15.3006 1.68772 15.4146 1.55338 15.5693 1.52428Z" fill="white"/>
<path d="M17.4988 23.8764C17.6241 23.3348 17.739 22.7697 17.8446 22.1897C17.8623 22.0901 17.8336 21.9878 17.7655 21.9128C17.6991 21.837 17.6011 21.7981 17.4989 21.8056C16.909 21.85 16.2856 21.8788 15.6455 21.8924C15.4676 21.8975 15.3262 22.0422 15.3262 22.2193V23.873C15.3262 23.9615 15.362 24.0448 15.4252 24.1061C15.485 24.1658 15.5667 24.1989 15.6534 24.1989C15.6559 24.1989 15.6583 24.1989 15.6601 24.1989C16.183 24.1879 16.6964 24.1632 17.203 24.13C17.3464 24.1198 17.4666 24.0169 17.4988 23.8764Z" fill="white"/>
<path d="M18.0644 20.8488C18.1443 20.3004 18.2142 19.741 18.2686 19.167C18.278 19.0717 18.244 18.9764 18.1759 18.9066C18.1078 18.8385 18.0149 18.8026 17.9163 18.812C17.1627 18.876 16.3989 18.9169 15.6455 18.9329C15.4684 18.9371 15.3262 19.0818 15.3262 19.2589V20.9124C15.3262 21.0011 15.362 21.0844 15.425 21.1466C15.485 21.2053 15.5667 21.2393 15.6532 21.2393C15.6559 21.2393 15.6583 21.2393 15.6605 21.2393C16.365 21.2222 17.0744 21.1857 17.7699 21.1269C17.9189 21.1135 18.0414 20.9986 18.0644 20.8488Z" fill="white"/>
<path d="M20.1482 7.59423C19.6049 7.51251 19.0464 7.44098 18.475 7.38047C18.3711 7.37028 18.2673 7.41023 18.1974 7.48867C18.1267 7.56776 18.1002 7.67513 18.1234 7.77806C18.2954 8.53428 18.4478 9.30972 18.5772 10.083C18.5994 10.2277 18.7169 10.3368 18.8624 10.3545C19.4252 10.4167 19.9769 10.4908 20.5142 10.5742C20.532 10.5768 20.5483 10.5785 20.5654 10.5785C20.6522 10.5785 20.7347 10.5434 20.7977 10.4813C20.8719 10.4065 20.9049 10.3026 20.8872 10.1986C20.7551 9.40427 20.5968 8.61238 20.4205 7.84532C20.3883 7.71262 20.2811 7.61347 20.1482 7.59423Z" fill="white"/>
<path d="M22.3008 14.2599H23.9509C24.0412 14.2599 24.127 14.224 24.1883 14.1576C24.2505 14.0922 24.2819 14.0027 24.2778 13.9141C24.2403 13.336 24.1901 12.7698 24.1288 12.2147C24.1125 12.0802 24.0157 11.9677 23.8836 11.9355C23.3422 11.8002 22.7742 11.669 22.1859 11.5488C22.0828 11.5249 21.9772 11.5575 21.899 11.6272C21.8223 11.6979 21.7832 11.8018 21.7951 11.9048C21.8751 12.5774 21.9348 13.2662 21.9756 13.955C21.9858 14.1254 22.1288 14.2599 22.3008 14.2599Z" fill="white"/>
<path d="M19.0858 3.85745C18.5502 3.79316 18.0028 3.73906 17.4459 3.69615C17.3334 3.68842 17.2313 3.73479 17.1649 3.82095C17.0976 3.90727 17.0781 4.02057 17.1121 4.12531C17.3591 4.87757 17.5906 5.65795 17.7966 6.44294C17.8317 6.57613 17.9456 6.67364 18.0827 6.68515C18.6405 6.73497 19.1828 6.79498 19.715 6.86651C19.7303 6.86898 19.744 6.86997 19.7584 6.86997C19.8512 6.86997 19.9414 6.83001 20.0036 6.7593C20.076 6.67676 20.1024 6.56396 20.0735 6.45873C19.8589 5.65878 19.6164 4.85768 19.3549 4.07647C19.3158 3.95792 19.2101 3.87324 19.0858 3.85745Z" fill="white"/>
<path d="M15.3265 13.9331C15.3265 14.1138 15.473 14.2601 15.6534 14.2601H18.0324C18.1226 14.2601 18.2085 14.2225 18.2698 14.156C18.3311 14.0914 18.3635 14.0028 18.3584 13.9133C18.3012 13.0041 18.2076 12.0854 18.0815 11.1863C18.0611 11.0355 17.9376 10.9189 17.786 10.9069C17.0829 10.8476 16.3677 10.8099 15.6605 10.793C15.5932 10.793 15.4885 10.8244 15.425 10.8865C15.3619 10.9479 15.3262 11.0314 15.3262 11.1199V13.9331H15.3265Z" fill="white"/>
<path d="M15.327 17.9536C15.327 18.0422 15.3627 18.1265 15.4258 18.1869C15.4858 18.2472 15.5676 18.2804 15.654 18.2804C15.6567 18.2804 15.6591 18.2804 15.6621 18.2804C16.4663 18.2619 17.2786 18.2157 18.0781 18.1408C18.2382 18.1264 18.3642 17.996 18.3735 17.8344C18.4153 17.1174 18.4331 16.4499 18.428 15.7926C18.4262 15.63 18.4229 15.4699 18.4178 15.309L18.416 15.2306C18.4117 15.0535 18.267 14.9121 18.0899 14.9121H15.6532C15.4725 14.9121 15.3262 15.0586 15.3262 15.239V17.9534L15.327 17.9536Z" fill="white"/>
<path d="M19.7271 26.6348C19.8887 26.0968 20.0499 25.5246 20.2048 24.9226C20.2303 24.8179 20.2048 24.7056 20.1314 24.6247C20.0599 24.5438 19.9527 24.5046 19.8437 24.5183C19.3126 24.5915 18.7675 24.6544 18.2106 24.7056C18.0726 24.7192 17.9578 24.8181 17.9238 24.9517C17.7765 25.5374 17.6232 26.0968 17.4665 26.6256C17.4358 26.7287 17.4588 26.8402 17.5269 26.9236C17.5892 27.0002 17.6819 27.0436 17.7798 27.0436C17.7883 27.0436 17.7977 27.0436 17.8071 27.0436C18.3691 26.9959 18.9191 26.9346 19.4571 26.8647C19.5847 26.8486 19.6896 26.7575 19.7271 26.6348Z" fill="white"/>
<path d="M18.865 11.139C18.7933 11.2105 18.7593 11.311 18.7722 11.4114C18.8829 12.2645 18.9646 13.1204 19.0141 13.9529C19.0243 14.1249 19.1674 14.2604 19.3402 14.2604H20.9902C21.0805 14.2604 21.1673 14.2227 21.2277 14.1563C21.289 14.0916 21.3204 14.003 21.3163 13.9136C21.2668 13.138 21.1902 12.3503 21.0897 11.5713C21.071 11.43 20.9621 11.3159 20.8197 11.2929C20.2723 11.2002 19.7111 11.1168 19.1348 11.0461C19.0396 11.0318 18.9365 11.0675 18.865 11.139Z" fill="white"/>
<path d="M22.2408 4.3768C21.695 4.26367 21.1322 4.15712 20.5508 4.06389C20.435 4.04268 20.3252 4.08642 20.251 4.17291C20.177 4.2589 20.153 4.3768 20.1871 4.48499C20.4299 5.24696 20.6555 6.03852 20.8597 6.8388C20.8897 6.96361 20.9928 7.05848 21.1204 7.08068C21.6959 7.17901 22.2544 7.28802 22.7916 7.4051C22.8138 7.4102 22.8368 7.41283 22.8599 7.41283C22.9475 7.41283 23.0318 7.37698 23.0948 7.31351C23.1733 7.2313 23.2047 7.11636 23.1765 7.00652C22.9723 6.19736 22.7398 5.38706 22.4869 4.59648C22.4485 4.485 22.3557 4.40015 22.2408 4.3768Z" fill="white"/>
<path d="M21.5613 7.8337C21.4532 7.81364 21.3441 7.8485 21.2667 7.92611C21.1909 8.00487 21.1585 8.11553 21.1807 8.2229C21.3451 8.98273 21.489 9.76262 21.6074 10.5366C21.6278 10.6737 21.7325 10.7818 21.868 10.8082C22.4476 10.9207 23.0072 11.0414 23.5419 11.1675C23.5674 11.1726 23.5937 11.1761 23.6185 11.1761C23.6994 11.1761 23.7787 11.1471 23.84 11.0901C23.9191 11.0169 23.9576 10.9087 23.9405 10.8015C23.8211 10.0098 23.6766 9.2149 23.5121 8.44258C23.485 8.3186 23.3896 8.22159 23.267 8.19396C22.7209 8.06488 22.1505 7.94436 21.5613 7.8337Z" fill="white"/>
<path d="M21.3543 17.4308C21.3797 16.8739 21.3909 16.3223 21.3857 15.7926C21.3848 15.63 21.3806 15.4708 21.3771 15.3105L21.3753 15.2306C21.3704 15.0535 21.2255 14.9121 21.0484 14.9121H19.3949C19.3063 14.9121 19.2237 14.948 19.1616 15.0101C19.0994 15.0731 19.0662 15.1583 19.068 15.2461L19.0707 15.326C19.0741 15.4784 19.0792 15.6325 19.08 15.7875C19.0843 16.3793 19.0707 16.988 19.0374 17.6531C19.0332 17.7493 19.0707 17.8429 19.1422 17.9085C19.2027 17.9639 19.2819 17.9961 19.3637 17.9961C19.3781 17.9961 19.3918 17.9945 19.4063 17.9927C19.9801 17.9177 20.542 17.8325 21.0861 17.7364C21.2359 17.7117 21.3473 17.5839 21.3543 17.4308Z" fill="white"/>
<path d="M4.13457 14.2596H6.41636C6.58884 14.2596 6.73108 14.1259 6.74127 13.9521C6.77712 13.3589 6.82776 12.7747 6.88991 12.2067C6.90093 12.1012 6.86015 11.9966 6.7809 11.9267C6.70049 11.8568 6.59147 11.8295 6.48805 11.8552C5.69879 12.0476 4.90525 12.2654 4.12783 12.5038C4.0022 12.542 3.9116 12.6536 3.89828 12.7849C3.8626 13.1561 3.83267 13.5324 3.80933 13.912C3.80324 14.0023 3.83531 14.0909 3.89746 14.1554C3.95813 14.2221 4.04462 14.2596 4.13457 14.2596Z" fill="white"/>
<path d="M5.65692 27.4657C5.67698 27.526 5.71447 27.5823 5.76675 27.6214C6.65089 28.3128 7.60886 28.9038 8.61517 29.3772C8.65956 29.3976 8.70758 29.4079 8.75345 29.4079C8.83402 29.4079 8.91229 29.3788 8.97313 29.3226C9.07113 29.2341 9.10517 29.0954 9.06044 28.9719C8.88812 28.4899 8.70593 27.962 8.52276 27.3864C8.48691 27.2723 8.39072 27.1872 8.27414 27.165C7.49294 27.0152 6.69841 26.8381 5.91573 26.638C5.80079 26.6066 5.67944 26.6439 5.59937 26.73C5.51797 26.8159 5.48953 26.9387 5.52439 27.051L5.65692 27.4657Z" fill="white"/>
<path d="M19.7351 30.0176C19.77 30.0176 19.8058 30.0125 19.8399 30.0005C20.4853 29.7808 21.1205 29.5161 21.7241 29.2121C21.7981 29.1746 21.8553 29.1108 21.8842 29.0332C22.0511 28.5794 22.2274 28.0831 22.4061 27.5329C22.442 27.4231 22.4171 27.3024 22.3407 27.2154C22.2641 27.1294 22.1448 27.0893 22.0334 27.1115C21.5004 27.2154 20.9476 27.3124 20.3799 27.3984C20.2572 27.4162 20.1559 27.5023 20.1184 27.6207C19.9081 28.272 19.6825 28.9115 19.4296 29.5756C19.3846 29.6932 19.4119 29.8275 19.4995 29.9178C19.5622 29.9828 19.6463 30.0176 19.7351 30.0176Z" fill="white"/>
<path d="M14.3471 30.7854C14.4318 30.7854 14.5127 30.7531 14.5748 30.6934C14.6383 30.632 14.674 30.5469 14.674 30.4584V28.1408C14.674 27.9619 14.5319 27.818 14.3543 27.8139C14.0385 27.807 13.7239 27.7984 13.4135 27.7848C13.3036 27.7729 13.2015 27.8292 13.1372 27.9142C13.0725 28.0018 13.055 28.1143 13.0899 28.2174C13.3752 29.0432 13.6782 29.8401 13.9916 30.5852C14.0418 30.7044 14.1856 30.7835 14.3137 30.7853L14.3469 30.4584L14.3359 30.7853C14.3395 30.7855 14.3437 30.7854 14.3471 30.7854Z" fill="white"/>
<path d="M14.3217 -0.000291586C14.4064 -0.000291586 14.4873 0.0321004 14.5495 0.0917885C14.6129 0.153121 14.6486 0.238293 14.6486 0.326756V2.64439C14.6486 2.82329 14.5065 2.96717 14.329 2.97128C14.0131 2.97818 13.6985 2.98673 13.3881 3.00038C13.2782 3.01222 13.1761 2.95599 13.1118 2.87098C13.0471 2.78333 13.0296 2.67087 13.0645 2.56777C13.3498 1.742 13.6528 0.945012 13.9662 0.199981C14.0164 0.08077 14.1602 0.00167751 14.2883 -0.00013113L14.3216 0.326756L14.3105 -0.00013113C14.3142 -0.000295639 14.3183 -0.000291586 14.3217 -0.000291586Z" fill="white"/>
<path d="M16.4992 30.7276C16.5103 30.7276 16.5206 30.7268 16.5316 30.725C17.0825 30.6687 17.6496 30.5768 18.2183 30.4525C18.3239 30.4303 18.4099 30.3571 18.4507 30.2568C18.7472 29.5322 19.0272 28.7796 19.2852 28.0166C19.3208 27.9111 19.3013 27.7943 19.2306 27.7077C19.1599 27.6209 19.0535 27.5747 18.9394 27.5883C18.415 27.647 17.8803 27.6973 17.3352 27.7348C17.2032 27.7434 17.09 27.831 17.0483 27.9563C16.7852 28.7447 16.4991 29.5273 16.196 30.279C16.1525 30.3846 16.1687 30.5054 16.2376 30.5965C16.2999 30.6791 16.3963 30.7276 16.4992 30.7276Z" fill="white"/>
<path d="M16.4738 0.0595202C16.4849 0.0595202 16.4952 0.0603411 16.5062 0.0621498C17.0571 0.118385 17.6242 0.210303 18.193 0.334612C18.2985 0.35681 18.3845 0.429981 18.4253 0.530283C18.7218 1.25492 19.0018 2.00752 19.2598 2.77047C19.2955 2.87603 19.2759 2.99278 19.2052 3.07943C19.1345 3.16625 19.0281 3.21246 18.914 3.19881C18.3896 3.14011 17.8549 3.08979 17.3098 3.0523C17.1778 3.04375 17.0646 2.95611 17.0229 2.83082C16.7598 2.04238 16.4737 1.25986 16.1706 0.508084C16.1271 0.40252 16.1433 0.281664 16.2122 0.19057C16.2746 0.108027 16.3709 0.0595202 16.4738 0.0595202Z" fill="white"/>
<path d="M10.1053 29.8595C10.1412 29.9498 10.2152 30.0196 10.3067 30.0492C11.1131 30.3158 11.9407 30.5124 12.7653 30.6359C12.7827 30.6394 12.7977 30.6394 12.8143 30.6394C12.9126 30.6394 13.0088 30.5943 13.0706 30.5159C13.143 30.4248 13.1604 30.3003 13.1178 30.1915C12.8237 29.4609 12.5448 28.693 12.2852 27.9095C12.2439 27.7862 12.1332 27.7002 12.0042 27.6874C11.2519 27.6218 10.4856 27.5289 9.72878 27.4139C9.61713 27.3968 9.50318 27.4386 9.43001 27.5264C9.35635 27.6132 9.33464 27.7324 9.37032 27.8398C9.59954 28.5269 9.84602 29.2064 10.1053 29.8595Z" fill="white"/>
<path d="M10.0799 0.925673C10.1158 0.835401 10.1898 0.76552 10.2814 0.735923C11.0877 0.469383 11.9153 0.272721 12.7399 0.149234C12.7573 0.145781 12.7723 0.145782 12.7889 0.145782C12.8872 0.145782 12.9834 0.190837 13.0453 0.26927C13.1176 0.360364 13.135 0.484836 13.0924 0.593688C12.7983 1.32425 12.5194 2.09214 12.2598 2.87564C12.2185 2.99896 12.1078 3.08496 11.9788 3.09779C11.2265 3.16339 10.4603 3.2563 9.70339 3.37123C9.59174 3.38833 9.47779 3.34657 9.40462 3.25876C9.33095 3.17194 9.30925 3.05273 9.34493 2.94536C9.57415 2.25821 9.82063 1.57879 10.0799 0.925673Z" fill="white"/>
<path d="M3.2282 25.1006C3.26815 25.151 3.32225 25.1883 3.38358 25.2087L3.82968 25.3517C3.86207 25.3619 3.89529 25.367 3.9285 25.367C4.01022 25.367 4.09079 25.3364 4.15163 25.2786C4.23796 25.1968 4.2738 25.076 4.24569 24.9609C4.10904 24.4212 3.97783 23.8592 3.8578 23.2742C3.83395 23.1584 3.74878 23.0655 3.63647 23.0298C3.13743 22.8723 2.67308 22.7158 2.24228 22.5623C2.11336 22.5198 1.97195 22.5564 1.88464 22.6595C1.79651 22.7634 1.78171 22.9098 1.84715 23.0282C2.24228 23.7461 2.70662 24.4424 3.2282 25.1006Z" fill="white"/>
<path d="M0.0421501 14.5654L0.0220894 14.8276C0.0132102 14.9672 0.102989 15.1001 0.230258 15.1545C0.230258 15.1545 0.242589 15.1588 0.242589 15.1596C0.282546 15.1767 0.325133 15.1841 0.368214 15.1841C0.431683 15.1841 0.495482 15.1664 0.549579 15.1305C0.64018 15.0693 0.694278 14.9671 0.694278 14.8582V14.5909C0.694278 14.4154 0.556321 14.2724 0.381861 14.2638C0.206908 14.2589 0.0557977 14.3907 0.0421501 14.5654Z" fill="white"/>
<path d="M0.138279 17.9009C0.154886 18.015 0.228879 18.112 0.335265 18.1564C1.10249 18.48 1.9202 18.7916 2.76866 19.0838C2.80352 19.0965 2.83936 19.1024 2.87504 19.1024C2.94657 19.1024 3.01678 19.0785 3.07466 19.0335C3.16247 18.9653 3.20884 18.8589 3.20029 18.7492C3.15721 18.2298 3.1258 17.701 3.10755 17.1654C3.10245 17.0309 3.01432 16.9117 2.88524 16.8683C2.04911 16.5881 1.23042 16.2808 0.451024 15.9598C0.350887 15.918 0.232168 15.9309 0.140581 15.993C0.0499804 16.056 -0.00329483 16.1607 0.000158189 16.2714C0.01693 16.818 0.0641213 17.3672 0.138279 17.9009Z" fill="white"/>
<path d="M7.72433 14.2606H10.0058C10.1786 14.2606 10.3217 14.127 10.3319 13.954C10.3809 13.1502 10.4583 12.3253 10.5639 11.5002C10.5772 11.3981 10.5413 11.2976 10.469 11.2261C10.3966 11.1554 10.2978 11.1222 10.1944 11.1358C9.42256 11.2465 8.63461 11.3844 7.85094 11.5487C7.71397 11.5768 7.61005 11.6901 7.59246 11.8289C7.50909 12.5083 7.44431 13.2098 7.39925 13.914C7.39284 14.0053 7.42441 14.0929 7.48739 14.1584C7.54806 14.2232 7.63537 14.2606 7.72433 14.2606Z" fill="white"/>
<path d="M23.3347 28.2059C23.4002 28.2059 23.4631 28.1871 23.5202 28.1478C23.9901 27.8226 24.4491 27.4642 24.8884 27.0802C25.0017 26.9797 25.0323 26.8145 24.9608 26.68C24.8892 26.5471 24.7385 26.4807 24.5887 26.5182C24.2378 26.6117 23.8787 26.7038 23.5039 26.7906C23.3914 26.817 23.3013 26.9031 23.2663 27.0136C23.1856 27.2783 23.1047 27.5296 23.0244 27.7766C22.9802 27.9086 23.0262 28.0558 23.1386 28.1393C23.1976 28.1837 23.2657 28.2059 23.3347 28.2059Z" fill="white"/>
<path d="M28.7349 14.9141H28.2733C28.1857 14.9141 28.1014 14.9481 28.04 15.0111C27.9797 15.0732 27.9465 15.1584 27.9473 15.2462L27.9507 15.4268C27.9534 15.5323 28.006 15.6302 28.0954 15.6907C28.149 15.7273 28.2138 15.7451 28.2776 15.7451C28.3168 15.7451 28.3561 15.7382 28.3942 15.7237L28.8566 15.5432C29.0021 15.4853 29.0856 15.332 29.0557 15.1788C29.0251 15.0229 28.8916 14.9141 28.7349 14.9141Z" fill="white"/>
<path d="M29.3086 14.615V14.8654C29.3086 14.9769 29.374 15.0755 29.4678 15.1352C29.5197 15.1693 29.5819 15.1855 29.6432 15.1855C29.6943 15.1855 29.7427 15.1745 29.7887 15.1541C29.9122 15.0997 29.988 14.9719 29.9795 14.8373L29.9607 14.5905C29.9462 14.4167 29.8305 14.2925 29.6227 14.2891C29.4465 14.2956 29.3086 14.4405 29.3086 14.615Z" fill="white"/>
<path d="M28.6939 9.87814C28.4359 9.77783 28.1641 9.67211 27.8612 9.56325C27.7522 9.52231 27.6305 9.54451 27.5419 9.61932C27.4516 9.69348 27.41 9.80924 27.4279 9.92418C27.5573 10.6759 27.6645 11.4448 27.7464 12.2111C27.7609 12.3354 27.8426 12.4409 27.9594 12.4834C28.4327 12.6555 28.8558 12.8198 29.2271 12.9696C29.2671 12.9875 29.3088 12.9942 29.3506 12.9942C29.4264 12.9942 29.5004 12.9679 29.5607 12.9176C29.6528 12.8392 29.6952 12.7167 29.6689 12.5991C29.4807 11.729 29.2141 10.8733 28.8762 10.0584C28.8427 9.97531 28.7772 9.91053 28.6939 9.87814Z" fill="white"/>
<path d="M27.619 7.66453C27.5314 7.53085 27.3635 7.4807 27.2181 7.54071C27.0724 7.60172 26.9907 7.75957 27.0256 7.91413L27.0657 8.08991C27.0928 8.20452 27.1201 8.31945 27.1456 8.43768C27.1678 8.5513 27.2495 8.64289 27.3585 8.67955L27.6149 8.77015C27.6506 8.78347 27.6881 8.78939 27.7237 8.78939C27.8183 8.78939 27.9112 8.74779 27.9734 8.6715C28.0618 8.56626 28.0746 8.41778 28.0066 8.29939C27.8829 8.08481 27.7543 7.8727 27.619 7.66453Z" fill="white"/>
<path d="M28.9617 21.3088C29.1991 20.7058 29.3984 20.0937 29.5516 19.4935C29.5824 19.3743 29.5431 19.2483 29.4513 19.1666C29.3593 19.0865 29.2266 19.0627 29.1149 19.1104C28.7685 19.2483 28.3835 19.3973 27.9544 19.553C27.8376 19.5956 27.7543 19.6995 27.7406 19.8237C27.6785 20.3771 27.6035 20.9194 27.5193 21.45C27.5022 21.564 27.5456 21.6798 27.635 21.7531C27.6946 21.8018 27.7679 21.8272 27.8419 21.8272C27.8802 21.8272 27.9177 21.8213 27.9544 21.8077C28.2549 21.6978 28.524 21.5931 28.7787 21.4926C28.861 21.4586 28.9276 21.3922 28.9617 21.3088Z" fill="white"/>
<path d="M2.77089 14.9141H1.30253C1.1455 14.9141 1.01051 15.0247 0.982389 15.1796C0.952956 15.3339 1.03731 15.4869 1.18414 15.5442C1.61117 15.7111 2.10363 15.8949 2.65381 16.0864C2.68867 16.0983 2.72452 16.1042 2.7602 16.1042C2.82663 16.1042 2.89207 16.0838 2.94798 16.0463C3.03398 15.985 3.08544 15.8862 3.08725 15.7824C3.0889 15.6053 3.09366 15.4299 3.09777 15.2495C3.10041 15.1601 3.06703 15.0757 3.00619 15.0129C2.94321 14.9497 2.85902 14.9141 2.77089 14.9141Z" fill="white"/>
<path d="M29.3001 13.9967C29.329 13.8441 29.2457 13.691 29.1018 13.6321C28.8642 13.5351 28.5993 13.4312 28.3142 13.324C28.2102 13.2849 28.0937 13.3 28.0042 13.3674C27.9148 13.4338 27.8663 13.5404 27.8738 13.6517L27.8934 13.9557C27.9054 14.1277 28.0468 14.2622 28.2188 14.2622H28.9799C29.1358 14.2606 29.2703 14.1499 29.3001 13.9967Z" fill="white"/>
<path d="M27.325 23.8823C27.3651 23.9001 27.4059 23.9063 27.4477 23.9063C27.5567 23.9063 27.6623 23.8517 27.7236 23.7547C27.8693 23.5232 28.0079 23.2881 28.1407 23.0496C28.2062 22.9298 28.1919 22.7823 28.1041 22.6785C28.0156 22.5746 27.8742 22.5387 27.7448 22.5831L27.4697 22.682C27.3599 22.7195 27.2781 22.813 27.2568 22.9271C27.2338 23.0411 27.2083 23.1501 27.1846 23.2599L27.1284 23.5118C27.0951 23.6677 27.1785 23.8228 27.325 23.8823Z" fill="white"/>
<path d="M29.86 17.9118C29.9348 17.3832 29.9825 16.8348 29.9996 16.2832C30.0031 16.1723 29.9503 16.0669 29.8584 16.004C29.7681 15.9426 29.6497 15.929 29.5484 15.9732C29.1543 16.1367 28.6945 16.3205 28.1614 16.518C28.0345 16.5648 27.9511 16.6824 27.9475 16.8167C27.934 17.3455 27.91 17.8684 27.8719 18.3834C27.8642 18.4941 27.9135 18.6023 28.0021 18.6694C28.0592 18.7111 28.1282 18.7333 28.1979 18.7333C28.2369 18.7333 28.2762 18.7266 28.3137 18.7121C28.8501 18.5102 29.3023 18.3229 29.6666 18.1664C29.7706 18.1215 29.8437 18.0253 29.86 17.9118Z" fill="white"/>
<path d="M1.21596 21.4733C1.86989 21.728 2.50459 21.9569 3.15836 22.1765C3.19256 22.1867 3.22742 22.1936 3.26146 22.1936C3.33808 22.1936 3.41389 22.1665 3.47423 22.1152C3.56105 22.0404 3.60232 21.9246 3.58407 21.8122C3.49347 21.2809 3.41454 20.735 3.34614 20.1774C3.33036 20.0523 3.24485 19.9467 3.12433 19.9074C2.36713 19.658 1.61272 19.3837 0.882163 19.0927C0.768872 19.0483 0.638972 19.0713 0.545412 19.1505C0.454811 19.2323 0.415513 19.3576 0.445439 19.4759C0.596221 20.0736 0.792385 20.685 1.03114 21.2886C1.06435 21.3728 1.13243 21.4399 1.21596 21.4733Z" fill="white"/>
<path d="M5.31738 25.7907C6.11338 26.0104 6.92238 26.207 7.7192 26.3756C7.74222 26.3798 7.76557 26.3825 7.78744 26.3825C7.8764 26.3825 7.96272 26.3458 8.02455 26.2803C8.10281 26.1968 8.13175 26.0793 8.10117 25.9694C7.9522 25.4322 7.80651 24.8651 7.66905 24.2768C7.64011 24.1533 7.54343 24.0589 7.41945 24.0324C6.62772 23.8631 5.83533 23.6681 5.0635 23.4551C4.95284 23.4211 4.83313 23.4517 4.75141 23.5327C4.66755 23.6118 4.63269 23.7284 4.659 23.8409C4.79383 24.442 4.93952 25.0167 5.08981 25.5651C5.12039 25.6725 5.20672 25.7601 5.31738 25.7907Z" fill="white"/>
<path d="M7.86103 20.4859C8.64816 20.6502 9.4366 20.7881 10.2028 20.8979C10.2186 20.8998 10.2342 20.9022 10.25 20.9022C10.3352 20.9022 10.4174 20.8682 10.4791 20.8077C10.5523 20.7353 10.5873 20.6339 10.5731 20.5328C10.5016 19.9962 10.4408 19.4464 10.3926 18.8868C10.3798 18.7344 10.2635 18.6135 10.1137 18.5922C9.36491 18.4866 8.59308 18.3529 7.82239 18.1964C7.72111 18.175 7.61768 18.2039 7.54188 18.2722C7.46394 18.3393 7.42398 18.4399 7.43286 18.542C7.47709 19.1073 7.53464 19.6624 7.60354 20.2075C7.6213 20.3461 7.72522 20.4578 7.86103 20.4859Z" fill="white"/>
<path d="M3.19635 13.28C3.20523 13.171 3.15721 13.0637 3.0699 12.9971C2.98226 12.9299 2.86683 12.9087 2.76423 12.946C2.12657 13.1657 1.50832 13.3964 0.925906 13.6289C0.781208 13.6868 0.697678 13.8399 0.726288 13.9941C0.75605 14.1483 0.891047 14.259 1.04725 14.259H2.82424C2.99657 14.259 3.1388 14.1245 3.14949 13.9507C3.16445 13.7261 3.17892 13.5031 3.19635 13.28Z" fill="white"/>
<path d="M8.38659 23.5531C9.16105 23.7029 9.94982 23.829 10.7328 23.9311C10.7468 23.9338 10.761 23.9338 10.7749 23.9338C10.8665 23.9338 10.9525 23.8963 11.0155 23.829C11.087 23.7514 11.1164 23.6424 11.0946 23.5395C10.9796 23.0015 10.8723 22.4463 10.7749 21.874C10.7511 21.7327 10.638 21.6237 10.4957 21.605C9.73195 21.5055 8.95667 21.3802 8.19305 21.2319C8.08963 21.2133 7.98061 21.2439 7.90399 21.3187C7.82687 21.3928 7.79102 21.5009 7.80944 21.6048C7.90662 22.1872 8.01383 22.7525 8.13041 23.3007C8.15639 23.4288 8.25767 23.5276 8.38659 23.5531Z" fill="white"/>
<path d="M4.13358 19.5276C4.91396 19.7651 5.70832 19.9831 6.4938 20.1763C6.5188 20.1814 6.54527 20.1849 6.57125 20.1849C6.64968 20.1849 6.72664 20.1576 6.78682 20.1032C6.86673 20.0333 6.90817 19.9279 6.89583 19.8221C6.83582 19.2909 6.78517 18.7478 6.74851 18.1986C6.73864 18.0555 6.63784 17.9353 6.49906 17.9021C5.73019 17.7191 4.95836 17.5112 4.201 17.284C4.09971 17.2526 3.98888 17.273 3.90601 17.3384C3.82265 17.4039 3.77611 17.5053 3.7817 17.6117C3.8085 18.1644 3.85027 18.7101 3.90437 19.2465C3.91736 19.3777 4.00714 19.4885 4.13358 19.5276Z" fill="white"/>
<path d="M4.4599 8.99508C4.30369 9.77201 4.17215 10.5629 4.06576 11.3481C4.04998 11.4571 4.09224 11.5677 4.1756 11.6393C4.23529 11.6912 4.31192 11.7177 4.38838 11.7177C4.41912 11.7177 4.44938 11.7142 4.47996 11.7042C5.25443 11.4776 6.03974 11.2732 6.81503 11.0945C6.94575 11.0656 7.0449 10.9566 7.06496 10.8239C7.1748 10.0626 7.31275 9.28233 7.47324 8.50804C7.49576 8.39902 7.46173 8.28573 7.38247 8.20828C7.30371 8.13166 7.1896 8.09844 7.08157 8.12344C6.28935 8.30316 5.4843 8.51346 4.68813 8.74597C4.57221 8.77967 4.48325 8.87669 4.4599 8.99508Z" fill="white"/>
<path d="M11.5143 26.9808C11.5266 26.9826 11.5373 26.9826 11.5493 26.9826C11.6455 26.9826 11.7378 26.94 11.7996 26.865C11.8695 26.7815 11.892 26.6684 11.8613 26.5636C11.7064 26.034 11.5534 25.4738 11.4069 24.8855C11.3742 24.7534 11.2622 24.6548 11.1272 24.6403C10.3694 24.5543 9.59558 24.442 8.82868 24.3075C8.71555 24.2888 8.60818 24.3261 8.53238 24.4063C8.4574 24.4871 8.42846 24.6013 8.45493 24.7085C8.60571 25.3105 8.76356 25.886 8.92323 26.4277C8.95808 26.5469 9.05822 26.6345 9.18122 26.6559C9.95453 26.7902 10.7395 26.8991 11.5143 26.9808Z" fill="white"/>
<path d="M5.44323 5.10241C5.20103 5.89841 4.97922 6.71365 4.7842 7.52265C4.75773 7.63512 4.79176 7.75384 4.8748 7.83293C4.93663 7.89212 5.01868 7.92451 5.10221 7.92451C5.13115 7.92451 5.15976 7.9204 5.18853 7.91267C5.97747 7.69645 6.76919 7.5044 7.54448 7.34227C7.66714 7.31629 7.76334 7.22223 7.79359 7.10089C7.98811 6.30916 8.20861 5.5143 8.44967 4.7382C8.48337 4.62754 8.45723 4.50701 8.37978 4.42233C8.30283 4.33633 8.18181 4.29753 8.07279 4.32137C7.27153 4.48366 6.46401 4.67177 5.67261 4.88207C5.56376 4.91118 5.47645 4.99421 5.44323 5.10241Z" fill="white"/>
<path d="M3.74815 15.3107C3.74354 15.4716 3.74009 15.6308 3.73828 15.7928L3.74091 16.2099C3.74091 16.3522 3.83546 16.4773 3.97046 16.5199C4.73242 16.7565 5.51116 16.9747 6.2825 17.1686C6.30897 17.1737 6.33479 17.1781 6.36208 17.1781C6.43526 17.1781 6.50678 17.1534 6.56515 17.1057C6.64523 17.0418 6.68979 16.9456 6.68815 16.8435C6.67927 16.4944 6.67417 16.1435 6.67664 15.7893C6.67746 15.6328 6.68173 15.4804 6.68519 15.3263L6.68733 15.2479C6.68979 15.1594 6.65658 15.075 6.59459 15.0121C6.53358 14.9497 6.44907 14.9141 6.36126 14.9141H4.07602C3.89893 14.9141 3.75407 15.0553 3.74996 15.2326L3.74815 15.3107Z" fill="white"/>
<path d="M4.58225 22.6226C5.37529 22.8576 6.17952 23.0679 6.97273 23.2517C6.99657 23.2576 7.02156 23.2602 7.0459 23.2602C7.12976 23.2602 7.21066 23.227 7.27281 23.1692C7.35289 23.0907 7.38775 22.9801 7.36604 22.8712C7.26048 22.3332 7.16297 21.7796 7.07566 21.2108C7.05642 21.0779 6.95678 20.9716 6.82622 20.9418C6.04748 20.7629 5.26216 20.5577 4.49247 20.3321C4.38428 20.2999 4.26983 20.3253 4.1863 20.3985C4.10162 20.4717 4.06249 20.5805 4.07729 20.6914C4.15819 21.2652 4.24961 21.8263 4.35353 22.3712C4.3754 22.4906 4.46435 22.5884 4.58225 22.6226Z" fill="white"/>
<path d="M8.75898 2.13763C8.02809 2.47142 7.32992 2.86128 6.6801 3.29439C6.54954 3.3817 6.49955 3.55074 6.56171 3.69461C6.61416 3.81678 6.73255 3.89258 6.86146 3.89258C6.88399 3.89258 6.9103 3.88995 6.93381 3.88403C7.49452 3.75677 8.07002 3.6346 8.66986 3.5264C8.78562 3.50634 8.88066 3.42413 8.91979 3.31363C9.01516 3.04446 9.10839 2.79074 9.19916 2.54985C9.2452 2.42554 9.21313 2.28594 9.1153 2.19616C9.02026 2.10524 8.87819 2.08139 8.75898 2.13763Z" fill="white"/>
<path d="M3.95531 5.62694C3.20551 6.44086 2.54105 7.34851 1.98035 8.32177C1.91359 8.43934 1.92543 8.58782 2.01175 8.69223C2.07572 8.76836 2.16895 8.81095 2.263 8.81095C2.29967 8.81095 2.33617 8.80487 2.3712 8.7927C2.79822 8.64372 3.25797 8.48916 3.7506 8.33591C3.86307 8.30089 3.94758 8.20864 3.97192 8.09535C4.1273 7.38682 4.30308 6.68192 4.50993 5.93738C4.55087 5.79169 4.48609 5.63812 4.35372 5.56396C4.22399 5.48898 4.05742 5.51529 3.95531 5.62694Z" fill="white"/>
<path d="M14.6743 19.2616C14.6743 19.0837 14.5313 18.938 14.3538 18.9347C13.3921 18.9169 12.4083 18.8556 11.4313 18.7533C11.3351 18.7446 11.2359 18.7772 11.1669 18.8453C11.0962 18.9151 11.0621 19.0105 11.072 19.1092C11.1269 19.6796 11.1958 20.2398 11.2734 20.7882C11.2941 20.9355 11.4138 21.0504 11.5628 21.0657C12.5012 21.1627 13.4365 21.2232 14.3415 21.241C14.3431 21.241 14.3458 21.241 14.3474 21.241C14.4337 21.241 14.5148 21.2078 14.5761 21.1474C14.6396 21.0861 14.6745 21.0026 14.6745 20.9141L14.6743 19.2616Z" fill="white"/>
<path d="M1.11672 10.0761C0.779143 10.8925 0.51507 11.7447 0.327456 12.6124C0.302462 12.7308 0.344063 12.8525 0.436473 12.9309C0.495996 12.9812 0.570976 13.0077 0.646778 13.0077C0.687721 13.0077 0.728993 13 0.768949 12.9845C1.51694 12.6841 2.30571 12.3962 3.11503 12.1306C3.23424 12.0907 3.32073 11.9851 3.33553 11.8591C3.42613 11.0962 3.54205 10.3212 3.67902 9.55943C3.69991 9.4463 3.65896 9.33038 3.57182 9.25425C3.4845 9.17845 3.36529 9.15757 3.25545 9.1916C2.59428 9.41046 1.95531 9.64033 1.30055 9.89569C1.21685 9.92792 1.15075 9.99254 1.11672 10.0761Z" fill="white"/>
<path d="M14.6744 22.2214C14.6744 22.0443 14.5314 21.8994 14.354 21.896C13.5123 21.8797 12.6686 21.833 11.8453 21.7564C11.746 21.7513 11.643 21.7853 11.5745 21.8603C11.5056 21.9359 11.4756 22.039 11.4932 22.1395C11.5988 22.7201 11.7137 23.2847 11.8375 23.8278C11.8691 23.965 11.9857 24.0671 12.1271 24.0807C12.87 24.1472 13.6145 24.1871 14.3416 24.2016C14.3433 24.2016 14.3459 24.2016 14.3476 24.2016C14.4339 24.2016 14.5149 24.1684 14.5763 24.108C14.6397 24.0467 14.6746 23.9633 14.6746 23.8747L14.6744 22.2214Z" fill="white"/>
<path d="M14.6739 25.1806C14.6739 25.0027 14.5308 24.8579 14.3534 24.8546C13.7255 24.8427 13.1047 24.8146 12.5067 24.7702C12.4028 24.7635 12.3002 24.8061 12.2313 24.8878C12.164 24.9687 12.1407 25.0767 12.1665 25.179C12.3244 25.7769 12.4867 26.3412 12.6506 26.8716C12.6897 27.001 12.8065 27.0939 12.9418 27.1015C13.4029 27.1304 13.8703 27.1526 14.3411 27.1596C14.3427 27.1596 14.3454 27.1596 14.347 27.1596C14.4333 27.1596 14.5144 27.1272 14.5766 27.0668C14.6392 27.0063 14.6741 26.922 14.6741 26.8343L14.6739 25.1806Z" fill="white"/>
</svg>
