<svg width="24" height="17" viewBox="0 0 24 17" fill="none" xmlns="http://www.w3.org/2000/svg">
<path d="M19.2 5.29175V3.52848H18V2.35297C18 1.72944 17.7471 1.13145 17.2971 0.690551C16.847 0.249649 16.2365 0.00195313 15.6 0.00195312H2.4C1.76348 0.00195313 1.15303 0.249649 0.702944 0.690551C0.252856 1.13145 0 1.72944 0 2.35297V10.5815C0 11.2051 0.252856 11.8031 0.702944 12.244C1.15303 12.6849 1.76348 12.9326 2.4 12.9326H15.6C16.2365 12.9326 16.847 12.6849 17.2971 12.244C17.7471 11.8031 18 11.2051 18 10.5815V9.40604H19.2V7.64277H24V5.29175H19.2ZM14.4 10.5815H3.6V9.40604H14.4V10.5815ZM14.4 8.23053H3.6V7.05501H14.4V8.23053ZM14.4 5.8795H3.6V4.70399H14.4V5.8795ZM14.4 3.52848H3.6V2.35297H14.4V3.52848ZM1.2 14.1081H16.8V16.4591H1.2V14.1081Z" fill="#0069BD"/>
</svg>
