<svg width="56" height="56" viewBox="0 0 56 56" fill="none" xmlns="http://www.w3.org/2000/svg">
<rect x="4" y="4" width="48" height="48" rx="24" fill="#0069BD" fill-opacity="0.2"/>
<rect x="4" y="4" width="48" height="48" rx="24" stroke="#ECF7FF" stroke-width="8"/>
<path d="M33.8 26.5265V25.351H33V24.5673C33 24.1517 32.8314 23.753 32.5314 23.4591C32.2313 23.1651 31.8243 23 31.4 23H22.6C22.1757 23 21.7687 23.1651 21.4686 23.4591C21.1686 23.753 21 24.1517 21 24.5673V30.0531C21 30.4687 21.1686 30.8674 21.4686 31.1613C21.7687 31.4553 22.1757 31.6204 22.6 31.6204H31.4C31.8243 31.6204 32.2313 31.4553 32.5314 31.1613C32.8314 30.8674 33 30.4687 33 30.0531V29.2694H33.8V28.0939H37V26.5265H33.8ZM30.6 30.0531H23.4V29.2694H30.6V30.0531ZM30.6 28.4857H23.4V27.702H30.6V28.4857ZM30.6 26.9184H23.4V26.1347H30.6V26.9184ZM30.6 25.351H23.4V24.5673H30.6V25.351ZM21.8 32.4041H32.2V33.9714H21.8V32.4041Z" fill="#0069BD"/>
</svg>
