<svg width="25" height="17" viewBox="0 0 25 17" fill="none" xmlns="http://www.w3.org/2000/svg">
<path d="M19.6221 4.32704H7.62V0H17.0092C18.7484 0 19.6221 0.8571 19.6221 2.57957V4.32704ZM6.24823 4.32704H0.000705719V2.57957C0.000705719 0.865407 0.86607 0 2.60519 0H6.24823V4.32704ZM6.24823 9.68588H0.000705719V5.62515H6.24823V9.68588ZM7.62 5.62515H19.6221V7.28938C17.7664 7.28938 16.1272 8.24629 15.1619 9.68588H7.62V5.62515ZM6.24823 15.3193H2.60519C0.86607 15.3193 0.000705719 14.4539 0.000705719 12.7397V10.9923H6.24823V15.3193ZM7.62 10.9923H14.5461C14.3548 11.5166 14.2549 12.074 14.2549 12.6565C14.2549 13.6301 14.5129 14.5288 14.9622 15.3193H7.62V10.9923Z" fill="#0069BD"/>
<path d="M23.2 10.9837V10.3224H22.75V9.88163C22.75 9.64781 22.6552 9.42356 22.4864 9.25822C22.3176 9.09289 22.0887 9 21.85 9H16.9C16.6613 9 16.4324 9.09289 16.2636 9.25822C16.0948 9.42356 16 9.64781 16 9.88163V12.9673C16 13.2012 16.0948 13.4254 16.2636 13.5908C16.4324 13.7561 16.6613 13.849 16.9 13.849H21.85C22.0887 13.849 22.3176 13.7561 22.4864 13.5908C22.6552 13.4254 22.75 13.2012 22.75 12.9673V12.5265H23.2V11.8653H25V10.9837H23.2ZM21.4 12.9673H17.35V12.5265H21.4V12.9673ZM21.4 12.0857H17.35V11.6449H21.4V12.0857ZM21.4 11.2041H17.35V10.7633H21.4V11.2041ZM21.4 10.3224H17.35V9.88163H21.4V10.3224ZM16.45 14.2898H22.3V15.1714H16.45V14.2898Z" fill="#0069BD"/>
</svg>
