<svg width="16" height="11" viewBox="0 0 18 13" fill="none" xmlns="http://www.w3.org/2000/svg">
<path d="M14.4 3.96735V2.6449H13.5V1.76327C13.5 1.29562 13.3104 0.847125 12.9728 0.516448C12.6352 0.185772 12.1774 0 11.7 0H1.8C1.32261 0 0.864773 0.185772 0.527208 0.516448C0.189642 0.847125 0 1.29562 0 1.76327V7.93469C0 8.40234 0.189642 8.85083 0.527208 9.18151C0.864773 9.51219 1.32261 9.69796 1.8 9.69796H11.7C12.1774 9.69796 12.6352 9.51219 12.9728 9.18151C13.3104 8.85083 13.5 8.40234 13.5 7.93469V7.05306H14.4V5.73061H18V3.96735H14.4ZM10.8 7.93469H2.7V7.05306H10.8V7.93469ZM10.8 6.17143H2.7V5.2898H10.8V6.17143ZM10.8 4.40816H2.7V3.52653H10.8V4.40816ZM10.8 2.6449H2.7V1.76327H10.8V2.6449ZM0.9 10.5796H12.6V12.3429H0.9V10.5796Z" fill="#009400"/>
</svg>
