<svg width="14" height="14" viewBox="0 0 14 14" fill="none" xmlns="http://www.w3.org/2000/svg">
<g clip-path="url(#clip0_3374_142)">
<path d="M7.02996 8.65059L7.85492 9.47555L10.3298 7.00067L7.85492 4.5258L7.02996 5.35076L8.09655 6.41734H3.69988V7.58401H8.09654L7.02996 8.65059Z" fill="white"/>
<path fill-rule="evenodd" clip-rule="evenodd" d="M11.5369 11.5379C14.0428 9.03205 14.0428 4.96925 11.5369 2.46338C9.03108 -0.0424817 4.96827 -0.0424817 2.46241 2.46338C-0.0434582 4.96925 -0.0434582 9.03205 2.46241 11.5379C4.96827 14.0438 9.03108 14.0438 11.5369 11.5379ZM10.712 10.713C12.7622 8.66271 12.7622 5.33859 10.712 3.28834C8.66173 1.23809 5.33762 1.23809 3.28736 3.28834C1.23711 5.33859 1.23711 8.66271 3.28736 10.713C5.33762 12.7632 8.66173 12.7632 10.712 10.713Z" fill="white"/>
</g>
<defs>
<clipPath id="clip0_3374_142">
<rect width="14" height="14" fill="white"/>
</clipPath>
</defs>
</svg>
