<svg width="16" height="16" viewBox="0 0 16 16" fill="none" xmlns="http://www.w3.org/2000/svg">
<path d="M0.937256 13.082C1.87452 13.9539 3.38301 13.9539 6.4 13.9539L11 13.9497C13.1087 13.9291 14.2833 13.8071 15.0627 13.082C16 12.2102 16 10.8069 16 8.00036C16 5.19388 16 3.79063 15.0627 2.91876C14.2833 2.19368 13.099 2.06743 10.9903 2.04688H6.4C3.38301 2.04688 1.87452 2.04687 0.937256 2.91874C9.53674e-08 3.79061 0 5.19386 0 8.00036C0 10.8068 9.53674e-08 12.2101 0.937256 13.082Z" fill="#0069BD"/>
<path d="M8.80001 8.00005C8.80001 7.58903 8.44185 7.25586 8.00001 7.25586C7.55817 7.25586 7.20001 7.58903 7.20001 8.00005C7.20001 8.41106 7.55817 8.74423 8.00001 8.74423C8.44185 8.74423 8.80001 8.41106 8.80001 8.00005Z" fill="white"/>
<path d="M4.8 8.74423C5.24182 8.74423 5.6 8.41106 5.6 8.00005C5.6 7.58903 5.24182 7.25586 4.8 7.25586C4.35818 7.25586 4 7.58903 4 8.00005C4 8.41106 4.35818 8.74423 4.8 8.74423Z" fill="white"/>
<path fill-rule="evenodd" clip-rule="evenodd" d="M10.4 0C10.7313 0 11 0.24989 11 0.55814V2.05067V13.9493V15.4419C11 15.7501 10.7313 16 10.4 16C10.0686 16 9.79999 15.7501 9.79999 15.4419V0.55814C9.79999 0.24989 10.0686 0 10.4 0Z" fill="white"/>
</svg>
