<svg width="56" height="56" viewBox="0 0 56 56" fill="none" xmlns="http://www.w3.org/2000/svg">
<rect x="4" y="4" width="48" height="48" rx="24" fill="#0069BD" fill-opacity="0.2"/>
<rect x="4" y="4" width="48" height="48" rx="24" stroke="#ECF7FF" stroke-width="8"/>
<path d="M20.9373 33.082C21.8745 33.9539 23.383 33.9539 26.4 33.9539L31 33.9497C33.1087 33.9291 34.2833 33.8071 35.0627 33.082C36 32.2102 36 30.8069 36 28.0004C36 25.1939 36 23.7906 35.0627 22.9188C34.2833 22.1937 33.099 22.0674 30.9903 22.0469H26.4C23.383 22.0469 21.8745 22.0469 20.9373 22.9187C20 23.7906 20 25.1939 20 28.0004C20 30.8068 20 32.2101 20.9373 33.082Z" fill="#0069BD"/>
<path d="M23.96 27.605L24.185 28.005L23.5 28.26L24.185 28.515L23.955 28.925L23.385 28.475L23.49 29.2H23.03L23.125 28.475L22.555 28.935L22.315 28.51L22.995 28.255L22.315 28.01L22.545 27.6L23.13 28.05L23.03 27.32H23.495L23.385 28.05L23.96 27.605Z" fill="white"/>
<path d="M27.96 27.605L28.185 28.005L27.5 28.26L28.185 28.515L27.955 28.925L27.385 28.475L27.49 29.2H27.03L27.125 28.475L26.555 28.935L26.315 28.51L26.995 28.255L26.315 28.01L26.545 27.6L27.13 28.05L27.03 27.32H27.495L27.385 28.05L27.96 27.605Z" fill="white"/>
<path fill-rule="evenodd" clip-rule="evenodd" d="M30.3998 20C30.7312 20 30.9998 20.2499 30.9998 20.5581V22.0507V33.9493V35.4419C30.9998 35.7501 30.7312 36 30.3998 36C30.0684 36 29.7998 35.7501 29.7998 35.4419V20.5581C29.7998 20.2499 30.0684 20 30.3998 20Z" fill="#CCE1F2"/>
</svg>
