<svg width="30" height="30" viewBox="0 0 30 30" fill="none" xmlns="http://www.w3.org/2000/svg">
<path d="M15 0C6.71566 0 0 6.71566 0 15C0 23.2843 6.71566 30 15 30C23.2843 30 30 23.2843 30 15C29.9999 6.71566 23.2843 0 15 0ZM16.4338 16.3199C15.657 17.0919 14.4014 17.088 13.6294 16.311C12.8573 15.5342 12.8613 14.2786 13.6383 13.5066C14.1055 13.0423 14.7455 12.8608 15.3496 12.9571L20.5305 9.45321L16.9939 14.6119C17.0866 15.2168 16.9011 15.8558 16.4338 16.3199ZM27.7779 11.1884C28.0376 11.9445 28.1878 12.6298 28.2852 13.1972C28.3084 13.3396 28.3304 13.4742 28.3511 13.601C28.3688 13.7321 28.3813 13.8606 28.3946 13.9775C28.4071 14.0952 28.4185 14.2042 28.4292 14.3039C28.4388 14.4017 28.441 14.4687 28.4465 14.5404C28.4647 14.8149 28.4742 14.9613 28.4742 14.9613L25.4243 15.0386C25.4243 15.0386 25.4266 14.8918 25.4307 14.6166C25.431 14.5508 25.4345 14.464 25.4325 14.3933C25.4302 14.3246 25.4278 14.2496 25.4253 14.1686C25.4228 14.0868 25.4202 13.9988 25.4175 13.905C25.4094 13.805 25.4006 13.6988 25.3915 13.5865C25.3522 13.1378 25.2803 12.5915 25.1239 11.9788C24.971 11.3659 24.742 10.6842 24.4044 9.97444C24.0688 9.26392 23.6115 8.53411 23.0398 7.82509C22.7495 7.47489 22.4359 7.12404 22.0829 6.79727C21.9119 6.62748 21.7235 6.47389 21.5377 6.31202C21.4433 6.23316 21.3438 6.15978 21.2463 6.08231C21.1493 6.00425 21.0495 5.92902 20.9455 5.85853C20.1305 5.27065 19.1976 4.77957 18.1903 4.42538C17.6872 4.24552 17.1627 4.11357 16.6299 4.00479C16.3621 3.95858 16.093 3.90913 15.8206 3.88246C15.6846 3.86566 15.5484 3.84796 15.4112 3.84173L15.2056 3.82757L15.1027 3.8204L15.0511 3.81676L15.0253 3.81491L15.0125 3.81401C15.0168 3.81357 14.9846 3.81372 15.0189 3.81282C14.7307 3.81097 14.4166 3.79617 14.1632 3.81177C13.8998 3.81421 13.6239 3.83999 13.3488 3.86332C12.8021 3.92618 12.257 4.01386 11.7271 4.1527C10.6664 4.42498 9.65515 4.84766 8.74812 5.38904C8.63267 5.45355 8.52115 5.52329 8.41223 5.59622C8.30285 5.66835 8.19134 5.737 8.08471 5.81128C7.87449 5.96412 7.66093 6.11013 7.46432 6.27349C7.06023 6.58755 6.69353 6.93127 6.34986 7.27982C5.6712 7.98536 5.10584 8.73371 4.67065 9.47873C4.23331 10.223 3.91342 10.9551 3.68356 11.6232C3.45001 12.2912 3.31471 12.8974 3.22608 13.3999C3.20489 13.5259 3.18475 13.6452 3.16571 13.7575C3.152 13.8705 3.13914 13.9765 3.12727 14.0752C3.1027 14.2726 3.0841 14.4412 3.07817 14.5783C3.06047 14.8536 3.05085 15.0001 3.05085 15.0001C3.05085 15.0001 3.04856 14.8533 3.04447 14.578C3.03929 14.4399 3.04417 14.2702 3.05255 14.0703C3.05654 13.9703 3.06082 13.8627 3.06521 13.748C3.07513 13.6336 3.0855 13.5118 3.09662 13.3834C3.14482 12.8698 3.23146 12.2447 3.41421 11.5437C3.59333 10.8428 3.85993 10.0638 4.2509 9.25455C4.63974 8.44468 5.16556 7.61397 5.82254 6.80928C6.15539 6.41133 6.51586 6.01422 6.9196 5.64353C7.11591 5.4518 7.33087 5.27683 7.54413 5.09423C7.65226 5.00499 7.76577 4.92139 7.87743 4.83416C7.9886 4.74612 8.10285 4.66102 8.22155 4.58111C9.1539 3.91646 10.22 3.36227 11.3697 2.96521C11.944 2.76386 12.5415 2.61561 13.1485 2.49602C13.453 2.44442 13.7572 2.39093 14.0792 2.36087C14.4094 2.31815 14.6829 2.31112 14.9809 2.28859L15.4682 2.28201C15.6246 2.27712 15.7807 2.28385 15.9366 2.29028C16.2496 2.29607 16.5608 2.32598 16.8725 2.35464C17.4931 2.42832 18.1114 2.53236 18.7126 2.69268C19.9159 3.00768 21.0602 3.49382 22.0846 4.11177C22.2146 4.1859 22.3408 4.26541 22.4638 4.34836C22.5874 4.43057 22.7128 4.50933 22.8332 4.59398C23.0709 4.76741 23.311 4.9349 23.5329 5.12025C23.9878 5.47827 24.4013 5.8683 24.7876 6.26462C25.5515 7.06561 26.1855 7.91512 26.6738 8.75944C27.1642 9.60286 27.5219 10.4321 27.7779 11.1884Z" fill="white"/>
</svg>
