<svg width="30" height="28" viewBox="0 0 30 28" fill="none" xmlns="http://www.w3.org/2000/svg">
<path d="M5 25.834C5 26.7506 4.25 27.5006 3.33333 27.5006H1.66667C0.75 27.5006 0 26.7506 0 25.834V16.6673C0 15.7507 0.75 15.0007 1.66667 15.0007H3.33333C4.25 15.0007 5 15.7507 5 16.6673V25.834ZM13.3333 25.834C13.3333 26.7506 12.5833 27.5006 11.6667 27.5006H10C9.08333 27.5006 8.33333 26.7506 8.33333 25.834V11.6673C8.33333 10.7507 9.08333 10.0007 10 10.0007H11.6667C12.5833 10.0007 13.3333 10.7507 13.3333 11.6673V25.834ZM21.6667 25.834C21.6667 26.7506 20.9167 27.5006 20 27.5006H18.3333C17.4167 27.5006 16.6667 26.7506 16.6667 25.834V1.66667C16.6667 0.75 17.4167 0 18.3333 0H20C20.9167 0 21.6667 0.75 21.6667 1.66667V25.834ZM30 25.834C30 26.7506 29.25 27.5006 28.3333 27.5006H26.6667C25.75 27.5006 25 26.7506 25 25.834V8C25 7.08333 25.75 6.33333 26.6667 6.33333H28.3333C29.25 6.33333 30 7.08333 30 8V25.834Z" fill="white"/>
</svg>
