<svg width="30" height="30" viewBox="0 0 30 30" fill="none" xmlns="http://www.w3.org/2000/svg">
<g clip-path="url(#clip0_2677_2060)">
<path d="M15 0C6.71566 0 0 6.71566 0 15C0 23.2843 6.71566 30 15 30C23.2843 30 30 23.2843 30 15C29.9999 6.71566 23.2843 0 15 0ZM15 16.9831C14.9318 16.9831 14.8644 16.9796 14.7978 16.9729L14.0315 19.0092C13.8829 19.4041 13.4423 19.6036 13.0474 19.455C12.6525 19.3064 12.453 18.8659 12.6016 18.4709C12.6118 18.4438 12.6236 18.4171 12.6367 18.3918L13.6372 16.4381C13.256 16.0766 13.017 15.5667 13.017 15C13.017 13.9048 13.9048 13.017 15 13.017C15.1269 13.017 15.2505 13.0301 15.3707 13.0528L18.7758 6.40365L16.1482 13.3852C16.6529 13.7446 16.9831 14.3333 16.9831 15C16.9831 16.0952 16.0952 16.9831 15 16.9831ZM26.9491 15.7627H24.1016C23.6804 15.7627 23.3389 15.4211 23.3389 15C23.3389 14.5788 23.6804 14.2373 24.1016 14.2373H26.1574C25.9873 11.7261 24.9855 9.44084 23.4251 7.65335L21.9751 9.10326C21.8261 9.25211 21.631 9.32654 21.4357 9.32654C21.2405 9.32654 21.0454 9.25211 20.8963 9.10326C20.5984 8.8053 20.5984 8.32235 20.8963 8.02459L22.3463 6.57469C20.5591 5.01417 18.2739 4.01242 15.7627 3.84233V5.89817C15.7627 6.31935 15.4212 6.66088 15 6.66088C14.5789 6.66088 14.2373 6.31935 14.2373 5.89817V3.84233C11.7261 4.01242 9.44089 5.01417 7.6534 6.57469L9.1033 8.02459C9.40121 8.32255 9.40121 8.80545 9.1033 9.10326C8.95425 9.25211 8.75914 9.32654 8.56392 9.32654C8.36866 9.32654 8.17354 9.25211 8.02454 9.10326L6.57464 7.65335C5.01427 9.44084 4.01252 11.7261 3.84243 14.2373H5.89826C6.31945 14.2373 6.66098 14.5788 6.66098 15C6.66098 15.4212 6.31945 15.7627 5.89826 15.7627H3.05085C2.62972 15.7627 2.28814 15.4211 2.28814 15C2.28814 11.5232 3.69228 8.36896 5.96197 6.07164C5.97842 6.05151 5.99248 6.03002 6.01123 6.01123C6.02997 5.99243 6.05136 5.97842 6.07145 5.96197C8.36876 3.69228 11.523 2.28814 15 2.28814C18.4768 2.28814 21.6311 3.69243 23.9285 5.96212C23.9486 5.97842 23.9699 5.99263 23.9887 6.01138C24.0075 6.03012 24.0216 6.05166 24.038 6.07179C26.3076 8.36906 27.7118 11.5232 27.7118 15.0001C27.7118 15.4212 27.3704 15.7627 26.9491 15.7627Z" fill="white"/>
</g>
<defs>
<clipPath id="clip0_2677_2060">
<rect width="30" height="30" fill="white"/>
</clipPath>
</defs>
</svg>
