<svg width="14" height="14" viewBox="0 0 14 14" fill="none" xmlns="http://www.w3.org/2000/svg">
<g clip-path="url(#clip0_3374_650)">
<path d="M6.97004 8.65059L6.14508 9.47555L3.67021 7.00067L6.14508 4.5258L6.97004 5.35076L5.90345 6.41734H10.3001V7.58401H5.90346L6.97004 8.65059Z" fill="white"/>
<path fill-rule="evenodd" clip-rule="evenodd" d="M2.46306 11.5379C-0.0428057 9.03205 -0.0428057 4.96925 2.46306 2.46338C4.96892 -0.0424817 9.03173 -0.0424817 11.5376 2.46338C14.0435 4.96925 14.0435 9.03205 11.5376 11.5379C9.03173 14.0438 4.96892 14.0438 2.46306 11.5379ZM3.28802 10.713C1.23776 8.66271 1.23776 5.33859 3.28802 3.28834C5.33827 1.23809 8.66238 1.23809 10.7126 3.28834C12.7629 5.33859 12.7629 8.66271 10.7126 10.713C8.66238 12.7632 5.33827 12.7632 3.28802 10.713Z" fill="white"/>
</g>
<defs>
<clipPath id="clip0_3374_650">
<rect width="14" height="14" fill="white" transform="matrix(-1 0 0 1 14 0)"/>
</clipPath>
</defs>
</svg>
