<svg width="18" height="18" viewBox="0 0 20 20" fill="none" xmlns="http://www.w3.org/2000/svg">
<g clip-path="url(#clip0_2312_1856)">
<path d="M18.6057 14.5992C18.5666 14.4606 18.4752 14.3426 18.3509 14.2701C18.2265 14.1975 18.0788 14.1761 17.939 14.2103L16.5557 14.5825C17.3126 13.4667 17.7716 12.1758 17.889 10.8325C18.0025 9.5758 17.8187 8.31001 17.3526 7.13742C16.8864 5.96484 16.151 4.91835 15.2057 4.08253C15.0964 3.99215 14.9567 3.94698 14.8152 3.95627C14.6737 3.96557 14.5411 4.02863 14.4445 4.13253C14.3474 4.2431 14.2982 4.38768 14.3075 4.53454C14.3169 4.6814 14.3842 4.81854 14.4945 4.91586C15.3091 5.63488 15.9428 6.5357 16.3444 7.5453C16.7459 8.55491 16.9039 9.64491 16.8057 10.727C16.7105 11.8667 16.3282 12.9638 15.6945 13.9159L15.5557 12.5214C15.5661 12.4394 15.5581 12.356 15.5323 12.2774C15.5064 12.1988 15.4633 12.127 15.4062 12.0672C15.349 12.0074 15.2792 11.9611 15.2019 11.9317C15.1245 11.9024 15.0416 11.8906 14.9591 11.8974C14.8767 11.9042 14.7968 11.9292 14.7253 11.9708C14.6537 12.0124 14.5924 12.0695 14.5458 12.1378C14.4991 12.2061 14.4683 12.284 14.4556 12.3657C14.4429 12.4475 14.4486 12.531 14.4723 12.6103L14.7501 16.1881L18.2223 15.2659C18.3599 15.2256 18.4765 15.1338 18.548 15.0096C18.6194 14.8853 18.6401 14.7383 18.6057 14.5992Z" fill="#009400"/>
<path d="M2.39446 9.48852C2.46829 9.536 2.55181 9.56637 2.6389 9.57741C2.78389 9.59643 2.93053 9.55751 3.04702 9.46911C3.1635 9.38071 3.24043 9.24994 3.26112 9.10519C3.49068 7.41027 4.35205 5.86463 5.67273 4.7778C6.99342 3.69096 8.67594 3.14315 10.3833 3.24407L9.1389 4.09407C9.05085 4.16041 8.98453 4.25144 8.94837 4.35558C8.91221 4.45972 8.90785 4.57227 8.93585 4.67889C8.96384 4.78552 9.02293 4.88141 9.10559 4.95435C9.18824 5.02729 9.29073 5.074 9.40001 5.08852C9.52517 5.09996 9.65052 5.06862 9.75557 4.99963L12.7167 2.9663L10.1833 0.421852C10.1383 0.352776 10.0784 0.294604 10.008 0.251561C9.93764 0.208517 9.85857 0.181683 9.77655 0.173005C9.69452 0.164327 9.61159 0.174024 9.53377 0.201391C9.45596 0.228759 9.38522 0.27311 9.32668 0.331225C9.26815 0.38934 9.22329 0.45976 9.19536 0.537374C9.16743 0.614987 9.15713 0.697846 9.16522 0.779934C9.17331 0.862022 9.19957 0.94128 9.2421 1.01195C9.28464 1.08263 9.34237 1.14294 9.41112 1.18852L10.3556 2.13296C8.38381 2.03868 6.44835 2.68705 4.93128 3.95008C3.41421 5.2131 2.42578 6.99899 2.16112 8.95519C2.14688 9.05697 2.16115 9.1607 2.20234 9.25486C2.24353 9.34902 2.31004 9.4299 2.39446 9.48852Z" fill="#009400"/>
<path d="M12.0723 16.6271C11.2047 16.9042 10.2896 17.0007 9.38337 16.9105C8.27968 16.8023 7.2189 16.4271 6.29262 15.8173C5.36633 15.2075 4.60238 14.3815 4.0667 13.4105L5.45003 13.9271C5.57755 13.9492 5.70878 13.9261 5.82109 13.8618C5.93339 13.7975 6.01972 13.696 6.06516 13.5748C6.1106 13.4536 6.11231 13.3204 6.06999 13.1981C6.02767 13.0758 5.94398 12.9721 5.83337 12.9049L3.28337 11.9605L2.4667 11.666L1.85003 15.1938C1.82865 15.3348 1.86229 15.4786 1.94399 15.5954C2.02569 15.7123 2.14918 15.7932 2.28892 15.8216H2.38337C2.51412 15.8239 2.64152 15.7801 2.74315 15.6978C2.84477 15.6155 2.9141 15.5 2.93892 15.3716L3.17225 14.0382C3.8006 15.1389 4.68318 16.0733 5.74629 16.7634C6.80941 17.4535 8.02219 17.8791 9.28337 18.0049C10.3378 18.1094 11.4024 17.9959 12.4111 17.6716C12.5396 17.6184 12.6434 17.519 12.7021 17.393C12.7609 17.267 12.7702 17.1235 12.7284 16.991C12.6865 16.8584 12.5965 16.7464 12.476 16.677C12.3556 16.6075 12.2135 16.5858 12.0778 16.616L12.0723 16.6271Z" fill="#009400"/>
<path d="M12.2222 7.22266H7.77772C7.63038 7.22266 7.48907 7.28119 7.38489 7.38537C7.2807 7.48956 7.22217 7.63087 7.22217 7.77821V12.2227C7.22217 12.37 7.2807 12.5113 7.38489 12.6155C7.48907 12.7197 7.63038 12.7782 7.77772 12.7782H12.2222C12.3695 12.7782 12.5108 12.7197 12.615 12.6155C12.7192 12.5113 12.7777 12.37 12.7777 12.2227V7.77821C12.7777 7.63087 12.7192 7.48956 12.615 7.38537C12.5108 7.28119 12.3695 7.22266 12.2222 7.22266ZM11.6666 11.6671H8.33328V8.33377H11.6666V11.6671Z" fill="#009400"/>
</g>
<defs>
<clipPath id="clip0_2312_1856">
<rect width="20" height="20" fill="white"/>
</clipPath>
</defs>
</svg>
