<svg width="56" height="56" viewBox="0 0 56 56" fill="none" xmlns="http://www.w3.org/2000/svg">
<rect x="4" y="4" width="48" height="48" rx="24" fill="#0069BD" fill-opacity="0.2"/>
<rect x="4" y="4" width="48" height="48" rx="24" stroke="#ECF7FF" stroke-width="8"/>
<path fill-rule="evenodd" clip-rule="evenodd" d="M24.4444 23.5556C24.4444 22.6126 24.819 21.7082 25.4858 21.0414C26.1526 20.3746 27.057 20 28 20C28.943 20 29.8474 20.3746 30.5142 21.0414C31.181 21.7082 31.5556 22.6126 31.5556 23.5556C31.5556 24.4985 31.181 25.4029 30.5142 26.0697C29.8474 26.7365 28.943 27.1111 28 27.1111C27.057 27.1111 26.1526 26.7365 25.4858 26.0697C24.819 25.4029 24.4444 24.4985 24.4444 23.5556ZM24.4444 28.8889C23.2657 28.8889 22.1352 29.3571 21.3017 30.1906C20.4683 31.0241 20 32.1546 20 33.3333C20 34.0406 20.281 34.7189 20.781 35.219C21.2811 35.719 21.9594 36 22.6667 36H33.3333C34.0406 36 34.7189 35.719 35.219 35.219C35.719 34.7189 36 34.0406 36 33.3333C36 32.1546 35.5317 31.0241 34.6983 30.1906C33.8648 29.3571 32.7343 28.8889 31.5556 28.8889H24.4444Z" fill="#0069BD"/>
</svg>
