<svg width="100" height="100" viewBox="0 0 100 100" fill="none" xmlns="http://www.w3.org/2000/svg">
<circle cx="50" cy="50" r="50" fill="white"/>
<g opacity="0.7">
<path fill-rule="evenodd" clip-rule="evenodd" d="M55.1075 44.1847C55.1478 44.2526 55.2183 44.301 55.309 44.301C57.7269 44.301 59.7015 46.2004 59.7015 48.5262V54.2825C59.7015 56.6082 57.7269 58.5076 55.309 58.5076H43.9448C41.5168 58.5076 39.5522 56.6082 39.5522 54.2825V48.5262C39.5522 46.2004 41.5168 44.301 43.9448 44.301C44.0254 44.301 44.106 44.2622 44.1362 44.1847L44.1966 44.0684C44.2314 43.998 44.267 43.9257 44.3032 43.8523C44.561 43.3295 44.8461 42.7512 45.0228 42.4113C45.4862 41.5391 46.272 41.0546 47.2493 41.0449H51.9944C52.9717 41.0546 53.7675 41.5391 54.231 42.4113C54.3897 42.7166 54.6314 43.2083 54.8644 43.6823C54.9125 43.78 54.9602 43.8771 55.0067 43.9715L55.1075 44.1847ZM54.372 47.9055C54.372 48.3901 54.775 48.7777 55.2787 48.7777C55.7824 48.7777 56.1955 48.3901 56.1955 47.9055C56.1955 47.421 55.7824 47.0237 55.2787 47.0237C54.775 47.0237 54.372 47.421 54.372 47.9055ZM47.8836 49.4078C48.3571 48.9523 48.9717 48.7101 49.6265 48.7101C50.2814 48.7101 50.8959 48.9523 51.3593 49.3981C51.8228 49.8439 52.0746 50.435 52.0746 51.0649C52.0646 52.3635 50.9765 53.4198 49.6265 53.4198C48.9717 53.4198 48.3571 53.1775 47.8937 52.7317C47.4302 52.2859 47.1784 51.6948 47.1784 51.0649V51.0552C47.1683 50.4447 47.4202 49.8536 47.8836 49.4078ZM52.4174 53.7594C51.7021 54.4474 50.7148 54.8738 49.6267 54.8738C48.5689 54.8738 47.5815 54.4765 46.8259 53.7594C46.0804 53.0326 45.6674 52.0829 45.6674 51.0653C45.6573 50.0575 46.0704 49.1078 46.8159 48.381C47.5715 47.6542 48.5689 47.2569 49.6267 47.2569C50.6845 47.2569 51.6819 47.6542 52.4274 48.3713C53.173 49.0981 53.586 50.0575 53.586 51.0653C53.576 52.1216 53.1327 53.0713 52.4174 53.7594Z" fill="#030229"/>
</g>
</svg>
