<svg width="16" height="16" viewBox="0 0 16 16" fill="none" xmlns="http://www.w3.org/2000/svg">
<path d="M15.5686 6.92548C15.748 6.79184 15.8811 6.6054 15.9492 6.39231C16.0172 6.17922 16.0169 5.95016 15.9483 5.73725C15.8796 5.52434 15.746 5.33826 15.5663 5.2051C15.3865 5.07194 15.1696 4.99837 14.9459 4.99472L10.6017 4.8306C10.5803 4.82913 10.5599 4.82151 10.5427 4.80866C10.5256 4.79582 10.5126 4.77829 10.5052 4.7582L9.004 0.703596C8.92857 0.497312 8.79158 0.319189 8.61157 0.193341C8.43156 0.067493 8.21723 0 7.99759 0C7.77795 0 7.56361 0.067493 7.3836 0.193341C7.20359 0.319189 7.0666 0.497312 6.99118 0.703596L5.49483 4.77268C5.48744 4.79277 5.47439 4.8103 5.45726 4.82314C5.44013 4.83599 5.41965 4.84361 5.39829 4.84508L1.05408 5.0092C0.830399 5.01285 0.613474 5.08642 0.433718 5.21958C0.253961 5.35274 0.120387 5.53882 0.0517238 5.75173C-0.0169391 5.96464 -0.0172472 6.1937 0.0508428 6.40679C0.118933 6.61988 0.252006 6.80632 0.431404 6.93996L3.8392 9.6189C3.85626 9.63232 3.86901 9.65045 3.87587 9.67104C3.88273 9.69163 3.88341 9.71377 3.87782 9.73475L2.70488 13.8907C2.6441 14.1023 2.64999 14.3276 2.72174 14.5357C2.7935 14.7439 2.92764 14.9249 3.10592 15.0541C3.2842 15.1834 3.49796 15.2545 3.71812 15.258C3.93828 15.2614 4.15416 15.1969 4.33637 15.0733L7.93725 12.6599C7.95499 12.6476 7.97603 12.641 7.99759 12.641C8.01914 12.641 8.04019 12.6476 8.05792 12.6599L11.6588 15.0733C11.8386 15.2011 12.0537 15.2698 12.2742 15.2698C12.4948 15.2698 12.7099 15.2011 12.8897 15.0733C13.068 14.9453 13.2023 14.7652 13.274 14.5577C13.3457 14.3503 13.3514 14.1257 13.2903 13.9148L12.1077 9.7444C12.1014 9.72346 12.1018 9.7011 12.1087 9.68037C12.1156 9.65964 12.1287 9.64154 12.1463 9.62855L15.5686 6.92548ZM11.1761 9.98092L12.3587 14.1514C12.3683 14.1737 12.37 14.1986 12.3635 14.222C12.357 14.2453 12.3427 14.2658 12.3229 14.2799C12.3032 14.294 12.2792 14.3009 12.255 14.2995C12.2307 14.2981 12.2077 14.2884 12.1898 14.272L8.58888 11.8586C8.4122 11.739 8.20371 11.6751 7.99035 11.6752V0.969076C8.01307 0.967231 8.03572 0.973489 8.05427 0.986741C8.07282 0.999993 8.08609 1.01938 8.09171 1.04148L9.59288 5.10091C9.6656 5.30098 9.79625 5.47486 9.96819 5.60038C10.1401 5.72589 10.3455 5.79735 10.5583 5.80564L14.9025 5.96975C14.9252 5.96939 14.9474 5.97632 14.9659 5.98952C14.9844 6.00272 14.9982 6.02151 15.0052 6.04311C15.0122 6.06471 15.0121 6.088 15.0049 6.10955C14.9977 6.1311 14.9838 6.14977 14.9652 6.16283L11.5574 8.84177C11.3868 8.97139 11.2592 9.14938 11.1912 9.35256C11.1232 9.55575 11.1179 9.77471 11.1761 9.98092Z" fill="#0069BD"/>
</svg>
