<svg width="22" height="28" viewBox="0 0 22 28" fill="none" xmlns="http://www.w3.org/2000/svg">
<path d="M8.0837 2.98633H2.76211C2.29517 2.98761 1.84771 3.17367 1.51752 3.50385C1.18734 3.83404 1.00128 4.28149 1 4.74844V24.8458C1.00128 25.3127 1.18734 25.7602 1.51752 26.0904C1.84771 26.4206 2.29517 26.6066 2.76211 26.6079H21" stroke="currentColor" stroke-width="1.2" stroke-miterlimit="10" stroke-linecap="round"/>
<path d="M13.9165 2.98633H19.2381C19.705 2.98761 20.1525 3.17367 20.4827 3.50385C20.8129 3.83404 20.9989 4.28149 21.0002 4.74844V21.9731" stroke="currentColor" stroke-width="1.2" stroke-miterlimit="10" stroke-linecap="round"/>
<path d="M4.7915 9.42578H17.2091" stroke="currentColor" stroke-width="1.2" stroke-miterlimit="10" stroke-linecap="round"/>
<path d="M4.7915 14.7969H17.2091" stroke="currentColor" stroke-width="1.2" stroke-miterlimit="10" stroke-linecap="round"/>
<path d="M17.209 20.166H13.9165" stroke="currentColor" stroke-width="1.2" stroke-miterlimit="10" stroke-linecap="round"/>
<path d="M11.6554 20.166H4.7915" stroke="currentColor" stroke-width="1.2" stroke-miterlimit="10" stroke-linecap="round"/>
<path d="M13.3133 2.00264H12.3564C12.3107 2.00213 12.2665 1.98664 12.2304 1.95855C12.1944 1.93046 12.1685 1.89132 12.1569 1.84714C12.0199 1.35947 11.5542 1 11.0001 1C10.4459 1 9.98023 1.35947 9.84322 1.84714C9.83156 1.89132 9.80573 1.93046 9.76968 1.95855C9.73363 1.98664 9.68936 2.00213 9.64367 2.00264H8.68684C8.54663 2.00264 8.41218 2.05834 8.31304 2.15748C8.2139 2.25661 8.1582 2.39107 8.1582 2.53128V3.36828C8.1582 3.50848 8.2139 3.64294 8.31304 3.74208C8.41218 3.84122 8.54663 3.89691 8.68684 3.89691H13.3124C13.4526 3.89691 13.5871 3.84122 13.6862 3.74208C13.7853 3.64294 13.841 3.50848 13.841 3.36828V2.53128C13.841 2.39123 13.7854 2.2569 13.6865 2.15779C13.5876 2.05867 13.4533 2.00288 13.3133 2.00264Z" stroke="currentColor" stroke-width="1.2" stroke-miterlimit="10" stroke-linecap="round"/>
</svg>
