<svg width="11" height="11" viewBox="0 0 11 11" fill="none" xmlns="http://www.w3.org/2000/svg">
  <g clip-path="url(#clip0_3473_3064)">
    <path d="M11 2.35331V9.88969C11 10.2059 10.8941 10.4702 10.6824 10.6824C10.4706 10.8946 10.2062 11.0005 9.889 11H1.111C0.794292 11 0.530062 10.8941 0.318312 10.6824C0.106562 10.4706 0.000458333 10.2062 0 9.889V1.111C0 0.794292 0.106104 0.530062 0.318312 0.318312C0.530521 0.106562 0.79475 0.000458333 1.111 0H8.64669L11 2.35331ZM5.49725 8.61988C5.87813 8.61988 6.20285 8.4865 6.47144 8.21975C6.74002 7.953 6.87454 7.62919 6.875 7.24831C6.87546 6.86744 6.74208 6.54248 6.47488 6.27344C6.20767 6.0044 5.88385 5.8701 5.50344 5.87056C5.12302 5.87102 4.79783 6.00417 4.52788 6.27C4.25792 6.53583 4.12362 6.8601 4.125 7.24281C4.12638 7.62552 4.25975 7.95048 4.52512 8.21769C4.7905 8.4849 5.11454 8.61942 5.49725 8.62125M1.90369 3.96688H7.007V1.90438H1.90437L1.90369 3.96688Z" fill="#FFFFFF"/>
  </g>
  <defs>
    <clipPath id="clip0_3473_3064">
      <rect width="11" height="11" fill="white"/>
    </clipPath>
  </defs>
</svg>
