<svg width="24" height="25" viewBox="0 0 24 25" fill="none" xmlns="http://www.w3.org/2000/svg">
<path d="M20.3962 13.3932C20.4443 13.0275 20.47 12.6593 20.4734 12.2906C20.47 11.9218 20.4443 11.5536 20.3962 11.188L22.7833 9.31908C22.8911 9.23674 22.9648 9.11755 22.9902 8.98431C23.0157 8.85107 22.9911 8.71313 22.9212 8.59688L20.6609 4.67717C20.5954 4.5596 20.4892 4.47003 20.3622 4.42535C20.2353 4.38067 20.0964 4.38396 19.9717 4.4346L17.1546 5.57027C16.5684 5.12288 15.9274 4.75234 15.2471 4.46768L14.8226 1.47414C14.8039 1.34168 14.7377 1.22054 14.6362 1.13331C14.5348 1.04608 14.4051 0.99871 14.2713 1.00003H9.73969C9.60591 0.99871 9.47623 1.04608 9.3748 1.13331C9.27337 1.22054 9.20711 1.34168 9.18839 1.47414L8.76389 4.46768C8.08276 4.75057 7.44151 5.12124 6.85641 5.57027L4.02826 4.4346C3.90359 4.38396 3.76469 4.38067 3.63776 4.42535C3.51082 4.47003 3.40461 4.5596 3.33915 4.67717L1.07883 8.59688C1.00893 8.71313 0.984347 8.85107 1.00977 8.98431C1.0352 9.11755 1.10886 9.23674 1.21666 9.31908L3.59825 11.188C3.55042 11.5536 3.52464 11.9218 3.52107 12.2906C3.52445 12.6593 3.55023 13.0275 3.59825 13.3932L1.21666 15.262C1.10886 15.3444 1.0352 15.4636 1.00977 15.5968C0.984347 15.7301 1.00893 15.868 1.07883 15.9842L3.33915 19.904C3.40461 20.0215 3.51082 20.1111 3.63776 20.1558C3.76469 20.2005 3.90359 20.1972 4.02826 20.1465L6.84539 19.0109C7.43158 19.4582 8.07262 19.8288 8.75287 20.1134L9.17737 23.107C9.19609 23.2394 9.26234 23.3606 9.36377 23.4478C9.4652 23.535 9.59489 23.5824 9.72866 23.5811H14.2493C14.3831 23.5824 14.5127 23.535 14.6142 23.4478C14.7156 23.3606 14.7819 23.2394 14.8006 23.107L15.2251 20.1134C15.9062 19.8306 16.5475 19.4599 17.1326 19.0109L19.9497 20.1465C20.0744 20.1972 20.2133 20.2005 20.3402 20.1558C20.4671 20.1111 20.5733 20.0215 20.6388 19.904L22.8991 15.9842C22.969 15.868 22.9936 15.7301 22.9682 15.5968C22.9427 15.4636 22.8691 15.3444 22.7613 15.262L20.3962 13.3932ZM12 16.2489C11.2169 16.25 10.451 16.0187 9.79939 15.5845C9.14772 15.1502 8.63952 14.5324 8.33908 13.8092C8.03864 13.086 7.95946 12.2899 8.11157 11.5217C8.26368 10.7535 8.64024 10.0477 9.1936 9.49357C9.74695 8.93944 10.4522 8.5619 11.2202 8.40873C11.9882 8.25555 12.7844 8.33361 13.508 8.63304C14.2316 8.93247 14.8501 9.43982 15.2853 10.0909C15.7205 10.7419 15.9528 11.5074 15.9528 12.2906C15.9535 12.8101 15.8518 13.3247 15.6535 13.8049C15.4552 14.2851 15.1641 14.7215 14.797 15.0892C14.4299 15.4568 13.9939 15.7485 13.5139 15.9475C13.034 16.1464 12.5196 16.2489 12 16.2489Z" stroke="currentColor" stroke-width="1.2" stroke-linecap="round" stroke-linejoin="round"/>
</svg>
