<svg width="14" height="14" viewBox="0 0 14 14" fill="none" xmlns="http://www.w3.org/2000/svg">
<path fill-rule="evenodd" clip-rule="evenodd" d="M8.05208 3.11046C8.05208 2.03657 8.92661 1.16602 10.0054 1.16602C11.0841 1.16602 11.9587 2.03657 11.9587 3.11046C11.9587 4.18435 11.0841 5.05491 10.0054 5.05491C9.46065 5.05491 8.96838 4.83283 8.61447 4.47554L5.91048 6.31656C5.93545 6.44081 5.94858 6.56914 5.94858 6.70022C5.94858 6.9598 5.89724 7.20795 5.80425 7.43475L8.76917 9.38273C9.10569 9.10874 9.53625 8.94377 10.0054 8.94377C11.0841 8.94377 11.9587 9.81434 11.9587 10.8883C11.9587 11.9621 11.0841 12.8327 10.0054 12.8327C8.92661 12.8327 8.05208 11.9621 8.05208 10.8883C8.05208 10.607 8.11228 10.3392 8.22048 10.0975L5.27953 8.16526C4.93647 8.4634 4.48709 8.64464 3.99527 8.64464C2.91651 8.64464 2.04199 7.77407 2.04199 6.70022C2.04199 5.62632 2.91651 4.75576 3.99527 4.75576C4.6156 4.75576 5.1678 5.04358 5.52534 5.49154L8.14593 3.70726C8.08498 3.51894 8.05208 3.31828 8.05208 3.11046Z" fill="#0069BD"/>
</svg>
