<svg width="46" height="46" viewBox="0 0 46 46" fill="none" xmlns="http://www.w3.org/2000/svg">
<rect x="4" y="4" width="38" height="38" rx="19" fill="#0069BD" fill-opacity="0.2"/>
<rect x="4" y="4" width="38" height="38" rx="19" stroke="#ECF7FF" stroke-width="6.33333"/>
<path fill-rule="evenodd" clip-rule="evenodd" d="M24.0521 19.1105C24.0521 18.0366 24.9266 17.166 26.0054 17.166C27.0841 17.166 27.9587 18.0366 27.9587 19.1105C27.9587 20.1843 27.0841 21.0549 26.0054 21.0549C25.4607 21.0549 24.9684 20.8328 24.6145 20.4755L21.9105 22.3166C21.9355 22.4408 21.9486 22.5691 21.9486 22.7002C21.9486 22.9598 21.8972 23.2079 21.8043 23.4347L24.7692 25.3827C25.1057 25.1087 25.5363 24.9438 26.0054 24.9438C27.0841 24.9438 27.9587 25.8143 27.9587 26.8883C27.9587 27.9621 27.0841 28.8327 26.0054 28.8327C24.9266 28.8327 24.0521 27.9621 24.0521 26.8883C24.0521 26.607 24.1123 26.3392 24.2205 26.0975L21.2795 24.1653C20.9365 24.4634 20.4871 24.6446 19.9953 24.6446C18.9165 24.6446 18.042 23.7741 18.042 22.7002C18.042 21.6263 18.9165 20.7558 19.9953 20.7558C20.6156 20.7558 21.1678 21.0436 21.5253 21.4915L24.1459 19.7073C24.085 19.5189 24.0521 19.3183 24.0521 19.1105Z" fill="#0069BD"/>
</svg>
