<svg width="232" height="170" viewBox="0 0 232 170" fill="none" xmlns="http://www.w3.org/2000/svg">
<path d="M166.142 115.492L147.835 121.824C138.535 137.74 123.618 149.601 106.016 155.078C88.4144 160.554 69.401 159.249 52.7127 151.419C36.0243 143.589 22.8679 129.801 15.8292 112.764C8.79041 95.7267 8.37831 76.6731 14.6739 59.3476C20.9695 42.0221 33.5175 27.6777 49.8517 19.1337C66.186 10.5897 85.1252 8.4639 102.947 13.1741C120.769 17.8844 136.185 29.09 146.165 44.5887C156.145 60.0874 159.967 78.7583 156.88 96.9319L166.142 115.492Z" fill="white"/>
<path d="M161.056 126.126C161.056 126.126 160.866 125.661 160.583 124.817C160.3 123.973 159.792 122.659 159.262 120.976L154.233 106.382L154.699 106.448C154.675 106.468 154.648 106.482 154.618 106.491C154.589 106.5 154.557 106.502 154.527 106.498C154.496 106.493 154.467 106.482 154.441 106.466C154.415 106.45 154.393 106.428 154.376 106.402C154.353 106.356 154.344 106.304 154.351 106.252C154.359 106.201 154.381 106.153 154.417 106.115C157.994 94.7073 158.75 82.6015 156.618 70.8371C155.146 63.1407 152.497 55.7171 148.763 48.8281C139.691 32.2664 124.566 19.8542 106.553 14.188C96.4455 10.8834 85.7295 9.87034 75.1821 11.2223C63.9695 12.6932 53.2364 16.6879 43.7905 22.9058C33.8837 29.4423 25.7592 38.3412 20.1492 48.8005C17.2583 54.108 15.0042 59.7382 13.4338 65.5742C12.8401 68.4867 12.1747 71.389 11.7601 74.3267L11.3582 78.7277L11.0498 80.913L11.1047 83.1131C11.0161 94.6656 13.5937 106.083 18.6368 116.477C23.3752 126.114 30.2094 134.569 38.6389 141.223C46.3752 147.412 55.2684 151.997 64.798 154.707C73.4147 157.122 82.3998 157.944 91.3117 157.134L97.4247 156.279C99.4453 155.943 101.209 155.352 103.276 154.949C106.93 154.016 110.501 152.784 113.953 151.267C124.897 146.438 134.498 139.014 141.926 129.638L156.002 126.984L159.747 126.343L161.056 126.126L159.885 126.399L156.125 127.147L142.06 130.241C134.675 139.62 125.109 147.051 114.195 151.886C110.718 153.455 107.115 154.731 103.426 155.701C101.467 156.119 99.6257 156.736 97.5335 157.062L91.3029 157.973C82.2255 158.908 73.0536 158.171 64.2421 155.798C54.5601 153.068 45.5134 148.451 37.6224 142.212C29.032 135.467 22.0652 126.879 17.2358 117.083C12.1385 106.629 9.509 95.145 9.54992 83.5149L9.53587 81.284L9.84934 79.0628L10.2613 74.5901C10.681 71.6166 11.3207 68.6376 11.9553 65.6944C13.5314 59.7468 15.8132 54.0091 18.752 48.6034C24.4837 37.8861 32.7904 28.7622 42.9243 22.0527C52.5478 15.7386 63.4756 11.6846 74.8887 10.1943C85.6206 8.85562 96.5159 9.91898 106.786 13.3075C116.287 16.4174 125.075 21.3836 132.64 27.9179C139.483 33.7915 145.184 40.8761 149.459 48.8167C153.207 55.7971 155.844 63.3193 157.274 71.1123C159.394 83.0039 158.534 95.2356 154.771 106.713L154.269 106.643C154.326 106.609 154.392 106.596 154.457 106.605C154.522 106.614 154.582 106.645 154.627 106.693C156.685 113.086 158.269 118.169 159.375 121.467L160.553 125.288C160.731 125.561 160.899 125.84 161.056 126.126Z" fill="#263238"/>
<path d="M51.8491 87.451L61.1114 77.5375L80.1423 93.3484L115.201 57.2402L124.391 66.5024L79.3825 111.837L51.8491 87.451Z" fill="#009400"/>
<path d="M225.776 99H118.872C115.629 99 113 101.629 113 104.872V124.429C113 127.672 115.629 130.301 118.872 130.301H225.776C229.019 130.301 231.648 127.672 231.648 124.429V104.872C231.648 101.629 229.019 99 225.776 99Z" fill="#D4ECFF"/>
<path d="M134.205 114.662L137.668 116.539L136.171 119.139L132.607 117.046L132.67 120.851H129.69V116.97L126.19 119.063L124.756 116.539L128.219 114.662L124.756 112.759L126.278 110.147L129.779 112.252V108.371H132.759L132.696 112.252L136.196 110.147L137.756 112.759L134.205 114.662Z" fill="#009400"/>
<path d="M154.765 114.662L158.227 116.539L156.68 119.139L153.18 117.046V120.851H150.199V116.97L146.711 119.063L145.177 116.463L148.639 114.586L145.177 112.683L146.711 110.071L150.199 112.176V108.295H153.18V112.176L156.68 110.071L158.227 112.683L154.765 114.662Z" fill="#009400"/>
<path d="M175.336 114.662L178.799 116.539L177.239 119.139L173.751 117.046L173.814 120.851H170.821V116.97L167.321 119.063L165.799 116.463L169.261 114.586L165.799 112.683L167.321 110.071L170.821 112.176V108.295H173.814L173.751 112.176L177.239 110.071L178.799 112.683L175.336 114.662Z" fill="#009400"/>
<path d="M195.909 114.662L199.371 116.539L197.811 119.139L194.311 117.046L194.374 120.851H191.394V116.97L187.906 119.063L186.384 116.463L189.846 114.586L186.384 112.683L187.906 110.071L191.394 112.176V108.295H194.374L194.311 112.176L197.811 110.071L199.371 112.683L195.909 114.662Z" fill="#009400"/>
<path d="M216.467 114.662L219.879 116.539L218.332 119.139L214.882 117.046L214.945 120.851H211.965V116.97L208.464 119.139L206.93 116.539L210.392 114.662L206.93 112.759L208.464 110.147L211.952 112.252V108.371H214.933L214.869 112.252L218.37 110.147L219.917 112.759L216.467 114.662Z" fill="#009400"/>
</svg>
