<svg width="22" height="30" viewBox="0 0 22 30" fill="none" xmlns="http://www.w3.org/2000/svg">
<path d="M12.9553 5.45455C12.9553 4.00791 12.3806 2.62053 11.3577 1.5976C10.3348 0.574674 8.94737 0 7.50073 0C6.0541 0 4.66671 0.574674 3.64379 1.5976C2.62086 2.62053 2.04619 4.00791 2.04619 5.45455V17.3864C1.38453 18.0615 0.863113 18.8609 0.512042 19.7386C0.16097 20.6163 -0.0128081 21.5548 0.000734817 22.5C0.000734817 24.4891 0.790911 26.3968 2.19743 27.8033C3.60396 29.2098 5.51161 30 7.50073 30C9.48986 30 11.3975 29.2098 12.804 27.8033C14.2106 26.3968 15.0007 24.4891 15.0007 22.5C15.0143 21.5548 14.8405 20.6163 14.4894 19.7386C14.1384 18.8609 13.6169 18.0615 12.9553 17.3864V5.45455ZM7.50073 27.2727C6.23493 27.2727 5.02097 26.7699 4.12591 25.8748C3.23085 24.9798 2.72801 23.7658 2.72801 22.5C2.72117 21.7336 2.90443 20.9775 3.26138 20.2993C3.61834 19.621 4.13786 19.0419 4.77346 18.6136V5.45455C4.77346 4.73123 5.0608 4.03754 5.57226 3.52607C6.08372 3.01461 6.77742 2.72727 7.50073 2.72727C8.22405 2.72727 8.91774 3.01461 9.42921 3.52607C9.94067 4.03754 10.228 4.73123 10.228 5.45455V18.6136C10.8636 19.0419 11.3831 19.621 11.7401 20.2993C12.097 20.9775 12.2803 21.7336 12.2735 22.5C12.2735 23.7658 11.7706 24.9798 10.8756 25.8748C9.9805 26.7699 8.76654 27.2727 7.50073 27.2727Z" fill="white"/>
<path d="M8.86452 19.3629V10.2266H6.13725V19.3629C5.53262 19.6361 5.01875 20.0765 4.65632 20.6323C4.29388 21.188 4.098 21.8358 4.0918 22.4993C4.0918 23.4034 4.45097 24.2706 5.0903 24.9099C5.72963 25.5492 6.59674 25.9084 7.50089 25.9084C8.40504 25.9084 9.27215 25.5492 9.91148 24.9099C10.5508 24.2706 10.91 23.4034 10.91 22.4993C10.9038 21.8358 10.7079 21.188 10.3455 20.6323C9.98302 20.0765 9.46916 19.6361 8.86452 19.3629Z" fill="white"/>
<path d="M20.4545 14.3184H16.3636C16.002 14.3184 15.6551 14.462 15.3994 14.7178C15.1437 14.9735 15 15.3203 15 15.682C15 16.0437 15.1437 16.3905 15.3994 16.6462C15.6551 16.902 16.002 17.0456 16.3636 17.0456H20.4545C20.8162 17.0456 21.1631 16.902 21.4188 16.6462C21.6745 16.3905 21.8182 16.0437 21.8182 15.682C21.8182 15.3203 21.6745 14.9735 21.4188 14.7178C21.1631 14.462 20.8162 14.3184 20.4545 14.3184Z" fill="white"/>
<path d="M20.4545 10.2266H16.3636C16.002 10.2266 15.6551 10.3702 15.3994 10.626C15.1437 10.8817 15 11.2285 15 11.5902C15 11.9519 15.1437 12.2987 15.3994 12.5544C15.6551 12.8102 16.002 12.9538 16.3636 12.9538H20.4545C20.8162 12.9538 21.1631 12.8102 21.4188 12.5544C21.6745 12.2987 21.8182 11.9519 21.8182 11.5902C21.8182 11.2285 21.6745 10.8817 21.4188 10.626C21.1631 10.3702 20.8162 10.2266 20.4545 10.2266Z" fill="white"/>
<path d="M20.4545 6.13672H16.3636C16.002 6.13672 15.6551 6.28039 15.3994 6.53612C15.1437 6.79185 15 7.1387 15 7.50036C15 7.86201 15.1437 8.20886 15.3994 8.46459C15.6551 8.72032 16.002 8.86399 16.3636 8.86399H20.4545C20.8162 8.86399 21.1631 8.72032 21.4188 8.46459C21.6745 8.20886 21.8182 7.86201 21.8182 7.50036C21.8182 7.1387 21.6745 6.79185 21.4188 6.53612C21.1631 6.28039 20.8162 6.13672 20.4545 6.13672Z" fill="white"/>
<path d="M16.3636 4.77219H20.4545C20.8162 4.77219 21.1631 4.62853 21.4188 4.37279C21.6745 4.11706 21.8182 3.77022 21.8182 3.40856C21.8182 3.0469 21.6745 2.70005 21.4188 2.44432C21.1631 2.18859 20.8162 2.04492 20.4545 2.04492H16.3636C16.002 2.04492 15.6551 2.18859 15.3994 2.44432C15.1437 2.70005 15 3.0469 15 3.40856C15 3.77022 15.1437 4.11706 15.3994 4.37279C15.6551 4.62853 16.002 4.77219 16.3636 4.77219Z" fill="white"/>
</svg>
