<svg width="28" height="30" viewBox="0 0 28 30" fill="none" xmlns="http://www.w3.org/2000/svg">
<path d="M22 25H12V23H22V16H6C5.46973 15.9995 4.96133 15.7886 4.58637 15.4136C4.21141 15.0387 4.00053 14.5303 4 14V7C4.00053 6.46973 4.21141 5.96133 4.58637 5.58637C4.96133 5.21141 5.46973 5.00053 6 5H16V7H6V14H22C22.5303 14.0005 23.0387 14.2114 23.4136 14.5864C23.7886 14.9613 23.9995 15.4697 24 16V23C23.9995 23.5303 23.7886 24.0387 23.4136 24.4136C23.0387 24.7886 22.5303 24.9995 22 25Z" fill="#FAF9FF"/>
<circle cx="23" cy="5" r="4.5" fill="white" stroke="white"/>
<circle cx="5" cy="25" r="4.5" fill="white" stroke="white"/>
</svg>
