<svg width="30" height="30" viewBox="0 0 30 30" fill="none" xmlns="http://www.w3.org/2000/svg">
<path d="M29.2166 16.8106C27.9093 16.3717 27.0378 15.7133 27.0378 15.0549C27.0378 14.3965 27.9093 13.6283 29.2166 13.2991C29.7612 13.0796 30.0881 12.5309 29.9791 11.9823C29.5434 10.007 28.8897 8.25123 27.6914 6.60519C27.3646 6.16625 26.8199 5.94677 26.2752 6.27598C25.0769 6.9344 23.8785 7.04413 23.4428 6.60519C23.007 6.16625 23.116 4.95915 23.7696 3.75205C23.9875 3.20337 23.8785 2.65469 23.4428 2.32548C21.8087 1.22812 19.9567 0.45997 18.1048 0.0210256C17.5601 -0.0887105 17.0154 0.240498 16.7975 0.789178C16.3617 2.10601 15.7081 2.9839 15.0545 2.9839C14.4008 2.9839 13.6383 2.10601 13.3114 0.789178C13.0936 0.240498 12.5489 -0.0887105 12.0042 0.0210256C10.0433 0.45997 8.30024 1.11839 6.66616 2.32548C6.12146 2.54496 6.01252 3.20337 6.2304 3.64232C6.88404 4.84941 6.99297 6.05651 6.55722 6.49545C6.12146 6.9344 5.03207 6.82466 3.7248 6.16625C3.18011 5.94677 2.63541 6.05651 2.30859 6.49545C1.2192 8.14149 0.456629 10.007 0.0208729 11.8725C-0.0880662 12.4212 0.238751 12.9699 0.783447 13.1894C2.09072 13.6283 2.96223 14.2867 2.96223 14.9451C2.96223 15.6035 2.09072 16.3717 0.783447 16.7009C0.238751 16.9204 -0.0880662 17.4691 0.0208729 18.0177C0.456629 19.993 1.11026 21.7488 2.30859 23.3948C2.63541 23.8338 3.18011 24.0532 3.7248 23.724C4.92313 23.0656 6.12146 22.9559 6.55722 23.3948C6.99297 23.8338 6.88404 25.0409 6.2304 26.2479C6.01252 26.7966 6.12146 27.3453 6.55722 27.6745C8.19131 28.7719 10.0433 29.54 11.8952 29.979C12.4399 30.0887 12.9846 29.7595 13.2025 29.2108C13.6383 27.894 14.2919 27.0161 14.9455 27.0161C15.5992 27.0161 16.3617 27.894 16.6886 29.2108C16.7975 29.6498 17.2333 29.979 17.7779 29.979C17.8869 29.979 17.8869 29.979 17.9958 29.979C19.9567 29.54 21.6998 28.8816 23.3338 27.6745C23.7696 27.3453 23.9875 26.7966 23.6607 26.2479C23.007 25.0409 22.8981 23.8338 23.3338 23.3948C23.7696 22.9559 24.9679 23.0656 26.1663 23.724C26.711 23.9435 27.2556 23.8338 27.5825 23.3948C28.6719 21.7488 29.4344 19.8833 29.8702 18.0177C30.0881 17.5788 29.7612 17.0301 29.2166 16.8106ZM15.0545 22.7364C10.8058 22.7364 7.42873 19.3346 7.42873 15.0549C7.42873 10.7752 10.8058 7.37334 15.0545 7.37334C19.3031 7.37334 22.6802 10.7752 22.6802 15.0549C22.6802 19.3346 19.3031 22.7364 15.0545 22.7364Z" fill="white"/>
<g clip-path="url(#clip0_2667_2072)">
<path d="M15 21C11.7 21 9 18.3 9 15C9 11.7 11.7 9 15 9C18.3 9 21 11.7 21 15C21 18.3 18.3 21 15 21ZM15 10.2C12.36 10.2 10.2 12.36 10.2 15C10.2 17.64 12.36 19.8 15 19.8C17.64 19.8 19.8 17.64 19.8 15C19.8 12.36 17.64 10.2 15 10.2Z" fill="white"/>
<path d="M14.1605 15.8399C13.6805 15.3599 12.4805 12.4199 12.4805 12.4199C12.4805 12.4199 15.4205 13.6199 15.9005 14.0999C16.3805 14.5799 16.3805 15.2999 15.9005 15.7799C15.3605 16.3199 14.6405 16.3199 14.1605 15.8399Z" fill="white"/>
</g>
<defs>
<clipPath id="clip0_2667_2072">
<rect width="12" height="12" fill="white" transform="translate(9 9)"/>
</clipPath>
</defs>
</svg>
