<svg width="25" height="31" viewBox="0 0 25 31" fill="none" xmlns="http://www.w3.org/2000/svg">
<path d="M11.291 12.582C14.3286 12.582 16.791 10.1196 16.791 7.08204C16.791 4.04447 14.3286 1.58203 11.291 1.58203C8.25345 1.58203 5.79102 4.04447 5.79102 7.08204C5.79102 10.1196 8.25345 12.582 11.291 12.582Z" stroke="#222222" stroke-width="2.0625"/>
<path d="M18.166 29.082C21.2036 29.082 23.666 26.6196 23.666 23.582C23.666 20.5445 21.2036 18.082 18.166 18.082C15.1285 18.082 12.666 20.5445 12.666 23.582C12.666 26.6196 15.1285 29.082 18.166 29.082Z" stroke="#222222" stroke-width="2.0625"/>
<path d="M16.332 23.5816L17.4781 24.9566L19.9987 22.3594" stroke="#222222" stroke-width="2.0625" stroke-linecap="round" stroke-linejoin="round"/>
<path d="M14.041 27.4793C13.1697 27.6274 12.2467 27.707 11.291 27.707C5.97529 27.707 1.66602 25.2446 1.66602 22.207C1.66602 19.1695 5.97529 16.707 11.291 16.707C13.6471 16.707 15.8054 17.1908 17.4785 17.9939" stroke="#222222" stroke-width="2.0625"/>
</svg>
