<svg width="24" height="27" viewBox="0 0 24 27" fill="none" xmlns="http://www.w3.org/2000/svg">
<path d="M14.8571 0.00195313L16.5714 0.00195313V5.62695H14.8571V0.00195313ZM11.4286 3.21624H13.1429V5.62695H11.4286V3.21624ZM8 1.6091H9.71429V5.62695H8V1.6091Z" fill="#0069BD"/>
<g clip-path="url(#clip0_2626_1644)">
<path d="M23.4369 12.2363H20.6305L19.8505 10.4082C19.0489 8.52866 17.1359 7.31445 14.9764 7.31445H9.02327C6.8642 7.31445 4.95077 8.52866 4.14874 10.4082L3.36874 12.2363H0.562798C0.196705 12.2363 -0.0718892 12.5589 0.0171733 12.8916L0.298423 13.9462C0.360767 14.1809 0.585767 14.3457 0.844048 14.3457H1.78483C1.1553 14.8612 0.749829 15.6104 0.749829 16.4551V18.5645C0.749829 19.2729 1.03858 19.9123 1.49983 20.4071V22.7832C1.49983 23.5597 2.17155 24.1895 2.99983 24.1895H4.49983C5.32811 24.1895 5.99983 23.5597 5.99983 22.7832V21.377H17.9998V22.7832C17.9998 23.5597 18.6715 24.1895 19.4998 24.1895H20.9998C21.8281 24.1895 22.4998 23.5597 22.4998 22.7832V20.4071C22.9611 19.9127 23.2498 19.2733 23.2498 18.5645V16.4551C23.2498 15.6104 22.8444 14.8612 22.2153 14.3457H23.1561C23.4144 14.3457 23.6394 14.1809 23.7017 13.9462L23.983 12.8916C24.0715 12.5589 23.803 12.2363 23.4369 12.2363ZM6.93405 11.4528C7.27577 10.6521 8.10311 10.127 9.02327 10.127H14.9764C15.8965 10.127 16.7239 10.6521 17.0656 11.4528L17.9998 13.6426H5.99983L6.93405 11.4528ZM4.49983 18.5557C3.59983 18.5557 2.99983 17.9949 2.99983 17.1538C2.99983 16.3127 3.59983 15.752 4.49983 15.752C5.39983 15.752 6.74983 17.0136 6.74983 17.8547C6.74983 18.6958 5.39983 18.5557 4.49983 18.5557ZM19.4998 18.5557C18.5998 18.5557 17.2498 18.6958 17.2498 17.8547C17.2498 17.0136 18.5998 15.752 19.4998 15.752C20.3998 15.752 20.9998 16.3127 20.9998 17.1538C20.9998 17.9949 20.3998 18.5557 19.4998 18.5557Z" fill="#0069BD"/>
</g>
<defs>
<clipPath id="clip0_2626_1644">
<rect width="24" height="22.5" fill="white" transform="translate(0 4.50195)"/>
</clipPath>
</defs>
</svg>
