<svg width="33" height="25" viewBox="0 0 33 25" fill="none" xmlns="http://www.w3.org/2000/svg">
<path fill-rule="evenodd" clip-rule="evenodd" d="M10.164 0C9.29149 0.000250827 8.43456 0.20604 7.68003 0.596519C6.92549 0.986998 6.30016 1.54829 5.8674 2.22353L2.57895 7.35294H0.660001C0.484958 7.35294 0.317084 7.41492 0.19331 7.52523C0.0695362 7.63555 7.96929e-07 7.78517 7.96929e-07 7.94118V8.63971C-0.000322845 8.90231 0.097938 9.15745 0.279138 9.36452C0.460338 9.57159 0.714058 9.71867 0.999901 9.78235L1.0395 9.78971C0.35052 11.0642 0.0887024 12.4888 0.285451 13.8926L1.4817 22.4235C1.58145 23.135 1.96937 23.7895 2.57251 24.2639C3.17565 24.7384 3.95248 25.0002 4.75695 25H4.95C5.82521 25 6.66458 24.6901 7.28345 24.1385C7.90232 23.587 8.25 22.8389 8.25 22.0588H24.75C24.75 22.8389 25.0977 23.587 25.7165 24.1385C26.3354 24.6901 27.1748 25 28.05 25H28.243C29.0475 25.0002 29.8243 24.7384 30.4275 24.2639C31.0306 23.7895 31.4185 23.135 31.5183 22.4235L32.7145 13.8941C32.9113 12.4903 32.6495 11.0657 31.9605 9.79118L32.0001 9.78235C32.2859 9.71867 32.5397 9.57159 32.7209 9.36452C32.9021 9.15745 33.0003 8.90231 33 8.63971V7.94118C33 7.78517 32.9305 7.63555 32.8067 7.52523C32.6829 7.41492 32.515 7.35294 32.34 7.35294H30.421L27.1326 2.22353C26.6998 1.54829 26.0745 0.986998 25.32 0.596519C24.5654 0.20604 23.7085 0.000250827 22.836 0H10.164ZM27.0963 8.09412L24.2682 3.68235C24.1238 3.45706 23.9151 3.26982 23.6633 3.13965C23.4115 3.00947 23.1255 2.941 22.8343 2.94118H10.1657C9.87453 2.941 9.58855 3.00947 9.33672 3.13965C9.0849 3.26982 8.87619 3.45706 8.7318 3.68235L5.9037 8.09412C5.76038 8.31773 5.68547 8.57097 5.68644 8.8285C5.68742 9.08602 5.76425 9.33881 5.90926 9.56155C6.05427 9.7843 6.26237 9.96921 6.51274 10.0978C6.7631 10.2263 7.04696 10.294 7.3359 10.2941H25.6641C25.953 10.294 26.2369 10.2263 26.4873 10.0978C26.7376 9.96921 26.9457 9.7843 27.0907 9.56155C27.2357 9.33881 27.3126 9.08602 27.3136 8.8285C27.3145 8.57097 27.2396 8.31773 27.0963 8.09412ZM4.95 16.2338V15.2044C4.94992 15.077 4.98698 14.9518 5.05754 14.841C5.1281 14.7302 5.22975 14.6377 5.35252 14.5724C5.47529 14.5072 5.61497 14.4715 5.75787 14.4689C5.90078 14.4662 6.042 14.4967 6.1677 14.5574L10.692 16.7338C11.3074 17.0309 11.0517 17.8647 10.3521 17.8397L6.534 17.7029C6.1085 17.6878 5.70607 17.5265 5.41085 17.253C5.11564 16.9795 4.95051 16.6148 4.95 16.2353V16.2338ZM28.05 15.2044V16.2338C28.0503 16.6139 27.8856 16.9793 27.5903 17.2534C27.295 17.5276 26.8921 17.6892 26.466 17.7044L22.6479 17.8397C21.9483 17.8647 21.6909 17.0309 22.308 16.7338L26.8323 14.5574C26.958 14.4967 27.0992 14.4662 27.2421 14.4689C27.385 14.4715 27.5247 14.5072 27.6475 14.5724C27.7702 14.6377 27.8719 14.7302 27.9425 14.841C28.013 14.9518 28.0501 15.077 28.05 15.2044Z" fill="white"/>
</svg>
