<svg width="25" height="17" viewBox="0 0 25 17" fill="none" xmlns="http://www.w3.org/2000/svg">
<path d="M19.7832 4.35495H7.70912V0.00195312H17.1547C18.9042 0.00195312 19.7832 0.864196 19.7832 2.597V4.35495ZM6.32912 4.35495H0.0441113V2.597C0.0441113 0.872553 0.914669 0.00195312 2.66422 0.00195312H6.32912V4.35495ZM6.32912 9.74595H0.0441113V5.66085H6.32912V9.74595ZM7.70912 5.66085H19.7832V7.33507C17.9164 7.33507 16.2673 8.29772 15.2963 9.74595H7.70912V5.66085ZM6.32912 15.4132H2.66422C0.914669 15.4132 0.0441113 14.5426 0.0441113 12.8181V11.0602H6.32912V15.4132ZM7.70912 11.0602H14.6768C14.4843 11.5876 14.3838 12.1484 14.3838 12.7344C14.3838 13.7138 14.6433 14.6179 15.0954 15.4132H7.70912V11.0602Z" fill="#0069BD"/>
<path d="M24.7668 10.4421H23.6026L23.2791 9.68372C22.9466 8.90406 22.1531 8.40039 21.2573 8.40039H18.7879C17.8923 8.40039 17.0985 8.90406 16.7659 9.68372L16.4423 10.4421H15.2784C15.1265 10.4421 15.0151 10.5759 15.052 10.7139L15.1687 11.1514C15.1946 11.2487 15.2879 11.3171 15.395 11.3171H15.7853C15.5242 11.5309 15.356 11.8417 15.356 12.1921V13.0671C15.356 13.3609 15.4757 13.6261 15.6671 13.8314V14.8171C15.6671 15.1392 15.9457 15.4004 16.2893 15.4004H16.9115C17.2551 15.4004 17.5337 15.1392 17.5337 14.8171V14.2337H22.5114V14.8171C22.5114 15.1392 22.7901 15.4004 23.1336 15.4004H23.7559C24.0994 15.4004 24.3781 15.1392 24.3781 14.8171V13.8314C24.5694 13.6263 24.6892 13.3611 24.6892 13.0671V12.1921C24.6892 11.8417 24.521 11.5309 24.26 11.3171H24.6503C24.7574 11.3171 24.8508 11.2487 24.8766 11.1514L24.9933 10.7139C25.03 10.5759 24.9186 10.4421 24.7668 10.4421ZM17.9212 10.117C18.063 9.7849 18.4062 9.56706 18.7879 9.56706H21.2573C21.639 9.56706 21.9822 9.7849 22.1239 10.117L22.5114 11.0254H17.5337L17.9212 10.117ZM16.9115 13.0634C16.5382 13.0634 16.2893 12.8308 16.2893 12.4819C16.2893 12.133 16.5382 11.9004 16.9115 11.9004C17.2848 11.9004 17.8448 12.4237 17.8448 12.7727C17.8448 13.1216 17.2848 13.0634 16.9115 13.0634ZM23.1336 13.0634C22.7603 13.0634 22.2003 13.1216 22.2003 12.7727C22.2003 12.4237 22.7603 11.9004 23.1336 11.9004C23.507 11.9004 23.7559 12.133 23.7559 12.4819C23.7559 12.8308 23.507 13.0634 23.1336 13.0634Z" fill="#0069BD"/>
</svg>
