<svg width="56" height="56" viewBox="0 0 56 56" fill="none" xmlns="http://www.w3.org/2000/svg">
<rect x="4" y="4" width="48" height="48" rx="24" fill="#0069BD" fill-opacity="0.2"/>
<rect x="4" y="4" width="48" height="48" rx="24" stroke="#ECF7FF" stroke-width="8"/>
<path d="M29.9074 19H31.0502V22.75H29.9074V19ZM27.6217 21.1429H28.7645V22.75H27.6217V21.1429ZM25.3359 20.0714H26.4788V22.75H25.3359V20.0714Z" fill="#0069BD"/>
<g clip-path="url(#clip0_3018_5188)">
<path d="M35.6246 27.1562H33.7536L33.2336 25.9375C32.6993 24.6845 31.424 23.875 29.9843 23.875H26.0155C24.5761 23.875 23.3005 24.6845 22.7658 25.9375L22.2458 27.1562H20.3752C20.1311 27.1562 19.9521 27.3713 20.0114 27.5931L20.1989 28.2962C20.2405 28.4526 20.3905 28.5625 20.5627 28.5625H21.1899C20.7702 28.9062 20.4999 29.4057 20.4999 29.9688V31.375C20.4999 31.8473 20.6924 32.2735 20.9999 32.6034V34.1875C20.9999 34.7052 21.4477 35.125 21.9999 35.125H22.9999C23.5521 35.125 23.9999 34.7052 23.9999 34.1875V33.25H31.9999V34.1875C31.9999 34.7052 32.4477 35.125 32.9999 35.125H33.9999C34.5521 35.125 34.9999 34.7052 34.9999 34.1875V32.6034C35.3074 32.2738 35.4999 31.8476 35.4999 31.375V29.9688C35.4999 29.4057 35.2296 28.9062 34.8102 28.5625H35.4374C35.6096 28.5625 35.7596 28.4526 35.8011 28.2962L35.9886 27.5931C36.0477 27.3713 35.8686 27.1562 35.6246 27.1562ZM24.6227 26.6339C24.8505 26.1001 25.4021 25.75 26.0155 25.75H29.9843C30.5977 25.75 31.1493 26.1001 31.3771 26.6339L31.9999 28.0938H23.9999L24.6227 26.6339ZM22.9999 31.3691C22.3999 31.3691 21.9999 30.9953 21.9999 30.4346C21.9999 29.8738 22.3999 29.5 22.9999 29.5C23.5999 29.5 24.4999 30.3411 24.4999 30.9019C24.4999 31.4626 23.5999 31.3691 22.9999 31.3691ZM32.9999 31.3691C32.3999 31.3691 31.4999 31.4626 31.4999 30.9019C31.4999 30.3411 32.3999 29.5 32.9999 29.5C33.5999 29.5 33.9999 29.8738 33.9999 30.4346C33.9999 30.9953 33.5999 31.3691 32.9999 31.3691Z" fill="#0069BD"/>
</g>
<defs>
<clipPath id="clip0_3018_5188">
<rect width="16" height="15" fill="white" transform="translate(20 22)"/>
</clipPath>
</defs>
</svg>
