<svg width="10" height="10" viewBox="0 0 10 10" fill="none" xmlns="http://www.w3.org/2000/svg">
<path d="M5 6.25C5.69036 6.25 6.25 5.69036 6.25 5C6.25 4.30964 5.69036 3.75 5 3.75C4.30964 3.75 3.75 4.30964 3.75 5C3.75 5.69036 4.30964 6.25 5 6.25Z" fill="#0069BD"/>
<path d="M9.66874 4.89375C9.30119 3.94302 8.66311 3.12082 7.83336 2.52878C7.00362 1.93674 6.01858 1.6008 4.99999 1.5625C3.9814 1.6008 2.99636 1.93674 2.16661 2.52878C1.33687 3.12082 0.698789 3.94302 0.331239 4.89375C0.306416 4.96241 0.306416 5.03759 0.331239 5.10625C0.698789 6.05698 1.33687 6.87918 2.16661 7.47122C2.99636 8.06326 3.9814 8.3992 4.99999 8.4375C6.01858 8.3992 7.00362 8.06326 7.83336 7.47122C8.66311 6.87918 9.30119 6.05698 9.66874 5.10625C9.69356 5.03759 9.69356 4.96241 9.66874 4.89375ZM4.99999 7.03125C4.59825 7.03125 4.20552 6.91212 3.87149 6.68892C3.53745 6.46573 3.2771 6.14849 3.12336 5.77733C2.96962 5.40616 2.92939 4.99775 3.00777 4.60372C3.08615 4.2097 3.2796 3.84776 3.56368 3.56369C3.84775 3.27961 4.20969 3.08616 4.60371 3.00778C4.99774 2.9294 5.40615 2.96963 5.77732 3.12337C6.14848 3.27711 6.46572 3.53746 6.68891 3.8715C6.91211 4.20554 7.03124 4.59826 7.03124 5C7.03041 5.53847 6.81614 6.05464 6.43539 6.4354C6.05463 6.81615 5.53846 7.03042 4.99999 7.03125Z" fill="#0069BD"/>
</svg>
