<svg width="30" height="30" viewBox="0 0 30 30" fill="none" xmlns="http://www.w3.org/2000/svg">
<path d="M13.0912 0L12.3892 4.44103C11.3346 4.69165 10.3235 5.09888 9.38949 5.64916L5.72646 3.0384L3.0783 5.68781L5.64916 9.35209C5.08647 10.2843 4.66623 11.2954 4.40238 12.3518L0 13.0924V16.8328L4.40238 17.612C4.66473 18.6689 5.08505 19.6802 5.64916 20.6118L3.0384 24.2748L5.68781 26.9242L9.35209 24.3508C10.2862 24.9009 11.2973 25.3081 12.3518 25.559L13.0924 30H16.8328L17.6507 25.559C18.6945 25.294 19.6927 24.8737 20.6118 24.3122L24.3134 26.9217L26.9628 24.2723L24.3134 20.6105C24.8595 19.7004 25.2984 18.7079 25.5602 17.6494L30.0012 16.8315V13.0912L25.5602 12.3506C25.2931 11.3074 24.873 10.3096 24.3134 9.38949L26.9229 5.68781L24.2735 3.0384L20.6105 5.68781C19.6783 5.12512 18.6672 4.70488 17.6108 4.44103L16.8315 0.00124684L13.0912 0ZM15 6.85729C17.1592 6.85861 19.2295 7.71692 20.7563 9.24369C22.2831 10.7705 23.1414 12.8408 23.1427 15C23.1414 17.1592 22.2831 19.2295 20.7563 20.7563C19.2295 22.2831 17.1592 23.1414 15 23.1427C12.8409 23.1411 10.7708 22.2826 9.24405 20.7559C7.71736 19.2292 6.85894 17.1591 6.85729 15C6.85894 12.8409 7.71736 10.7708 9.24405 9.24405C10.7708 7.71736 12.8409 6.85894 15 6.85729ZM15 8.8434C13.3683 8.84703 11.8044 9.49683 10.6506 10.6506C9.49683 11.8044 8.84703 13.3683 8.8434 15C8.84703 16.6317 9.49683 18.1956 10.6506 19.3494C11.8044 20.5032 13.3683 21.153 15 21.1566C16.6317 21.153 18.1956 20.5032 19.3494 19.3494C20.5032 18.1956 21.153 16.6317 21.1566 15C21.153 13.3683 20.5032 11.8044 19.3494 10.6506C18.1956 9.49683 16.6317 8.84703 15 8.8434ZM14.9613 12.4291C16.3902 12.4291 17.5721 13.5699 17.5721 15C17.5721 16.4288 16.3902 17.5721 14.9613 17.5721C14.6232 17.5736 14.288 17.5081 13.9753 17.3793C13.6626 17.2506 13.3784 17.0612 13.1393 16.8221C12.9001 16.5829 12.7107 16.2988 12.582 15.9861C12.4533 15.6733 12.3878 15.3382 12.3892 15C12.3892 13.5699 13.5325 12.4291 14.9613 12.4291Z" fill="white"/>
</svg>
