0
SECTION
2
ENTITIES
0
CIRCLE
8
0
10
0
20
0
40
27.0
0
ARC
8
0
10
0
20
0
40
17.5
50
114.911067
51
145.088933
0
LINE
8
0
10
7.371193
20
15.871847
11
10.365604
21
16.392967
0
LINE
8
0
10
14.350724
20
10.015325
11
14.343952
21
13.054736
0
LINE
8
0
10
10.365604
20
16.392967
11
13.749355
21
20.036098
0
LINE
8
0
10
14.343952
20
13.054736
11
17.344154
21
17.019703
0
ARC
8
0
10
0
20
0
40
17.5
50
154.911067
51
185.088933
0
LINE
8
0
10
15.848888
20
7.420429
11
18.47771
21
5.894859
0
LINE
8
0
10
17.431019
20
-1.552283
11
19.379528
21
0.780393
0
LINE
8
0
10
18.47771
20
5.894859
11
23.411573
21
6.510627
0
LINE
8
0
10
19.379528
20
0.780393
11
24.226448
21
1.889242
0
ARC
8
0
10
0
20
0
40
17.5
50
194.911067
51
225.088933
0
LINE
8
0
10
16.910712
20
-4.50309
11
17.943889
21
-7.361519
0
LINE
8
0
10
12.355147
20
-12.393561
11
15.347207
21
-11.859104
0
LINE
8
0
10
17.943889
20
-7.361519
11
22.119255
21
-10.06124
0
LINE
8
0
10
15.347207
20
-11.859104
11
19.772917
21
-14.125217
0
ARC
8
0
10
0
20
0
40
17.5
50
234.911067
51
265.088933
0
LINE
8
0
10
10.059826
20
-14.319563
11
9.013923
21
-17.17336
0
LINE
8
0
10
1.498164
20
-17.435754
11
4.133757
21
-18.949595
0
LINE
8
0
10
9.013923
20
-17.17336
11
10.477093
21
-21.92534
0
LINE
8
0
10
4.133757
20
-18.949595
11
6.067418
21
-23.53033
0
ARC
8
0
10
0
20
0
40
17.5
50
274.911067
51
305.088933
0
LINE
8
0
10
-1.498164
20
-17.435754
11
-4.133757
21
-18.949595
0
LINE
8
0
10
-10.059826
20
-14.319563
11
-9.013923
21
-17.17336
0
LINE
8
0
10
-4.133757
20
-18.949595
11
-6.067418
21
-23.53033
0
LINE
8
0
10
-9.013923
20
-17.17336
11
-10.477093
21
-21.92534
0
ARC
8
0
10
0
20
0
40
17.5
50
314.911067
51
345.088933
0
LINE
8
0
10
-12.355147
20
-12.393561
11
-15.347207
21
-11.859104
0
LINE
8
0
10
-16.910712
20
-4.50309
11
-17.943889
21
-7.361519
0
LINE
8
0
10
-15.347207
20
-11.859104
11
-19.772917
21
-14.125217
0
LINE
8
0
10
-17.943889
20
-7.361519
11
-22.119255
21
-10.06124
0
ARC
8
0
10
0
20
0
40
17.5
50
354.911067
51
385.088933
0
LINE
8
0
10
-17.431019
20
-1.552283
11
-19.379528
21
0.780393
0
LINE
8
0
10
-15.848888
20
7.420429
11
-18.47771
21
5.894859
0
LINE
8
0
10
-19.379528
20
0.780393
11
-24.226448
21
1.889242
0
LINE
8
0
10
-18.47771
20
5.894859
11
-23.411573
21
6.510627
0
ARC
8
0
10
0
20
0
40
17.5
50
394.911067
51
425.088933
0
LINE
8
0
10
-14.350724
20
10.015325
11
-14.343952
21
13.054736
0
LINE
8
0
10
-7.371193
20
15.871847
11
-10.365604
21
16.392967
0
LINE
8
0
10
-14.343952
20
13.054736
11
-17.344154
21
17.019703
0
LINE
8
0
10
-10.365604
20
16.392967
11
-13.749355
21
20.036098
0
ARC
8
0
10
0
20
0
40
17.5
50
434.911067
51
465.088933
0
LINE
8
0
10
-4.555565
20
16.896651
11
-2.596682
21
19.220623
0
LINE
8
0
10
4.555565
20
16.896651
11
2.596682
21
19.220623
0
LINE
8
0
10
-2.596682
20
19.220623
11
-2.346339
21
24.186457
0
LINE
8
0
10
2.596682
20
19.220623
11
2.346339
21
24.186457
0
ARC
8
0
10
0
20
0
40
24.3
50
135.54095
51
164.45905
0
ARC
8
0
10
0
20
0
40
24.3
50
175.54095
51
204.45905
0
ARC
8
0
10
0
20
0
40
24.3
50
215.54095
51
244.45905
0
ARC
8
0
10
0
20
0
40
24.3
50
255.54095
51
284.45905
0
ARC
8
0
10
0
20
0
40
24.3
50
295.54095
51
324.45905
0
ARC
8
0
10
0
20
0
40
24.3
50
335.54095
51
364.45905
0
ARC
8
0
10
0
20
0
40
24.3
50
375.54095
51
404.45905
0
ARC
8
0
10
0
20
0
40
24.3
50
415.54095
51
444.45905
0
ARC
8
0
10
0
20
0
40
24.3
50
455.54095
51
124.45905
0
ENDSEC
0
EOF
